<svg id="logo.svg" xmlns="http://www.w3.org/2000/svg" width="756.277" height="125.281" viewBox="0 0 756.277 125.281">
  <defs>
    <style>
      .cls-1 {
        fill: #fefefe;
        fill-rule: evenodd;
      }

      .cls-2 {
        fill: #fff;
      }
    </style>
  </defs>
  <path id="e" class="cls-1" d="M521.312,462.489a0.543,0.543,0,0,0,.613-0.614v-7.153a0.584,0.584,0,0,0-.654-0.654,0.679,0.679,0,0,0-.695.654c-0.082.654-.286,0.981-0.573,0.981a2.265,2.265,0,0,1-.981-0.368,13.4,13.4,0,0,0-6.5-1.758,9.582,9.582,0,0,0-6.214,1.962,6.986,6.986,0,0,0-2.7,5.764,6.2,6.2,0,0,0,2.576,5.192,30.356,30.356,0,0,0,5.845,2.779l0.777,0.327c2.82,1.145,4.7,2.208,5.559,3.148a5.239,5.239,0,0,1,1.472,3.638,5.512,5.512,0,0,1-1.717,4.292,6.23,6.23,0,0,1-4.415,1.513,8.7,8.7,0,0,1-6.786-2.78,9.385,9.385,0,0,1-2.33-5.314,0.633,0.633,0,0,0-.654-0.613,0.572,0.572,0,0,0-.613.654V482.4a0.542,0.542,0,0,0,.613.613,0.6,0.6,0,0,0,.654-0.654c0.082-.776.327-1.185,0.736-1.185a3.721,3.721,0,0,1,1.431.613,12.439,12.439,0,0,0,6.949,2.044,10.45,10.45,0,0,0,5.887-1.635,7.247,7.247,0,0,0,3.393-6.418,6.994,6.994,0,0,0-1.758-4.783c-1.267-1.39-4.006-2.9-8.339-4.456l-1.022-.367c-3.557-1.268-5.355-3.107-5.355-5.56a5.235,5.235,0,0,1,1.43-3.638,6.07,6.07,0,0,1,4.7-1.921,7.574,7.574,0,0,1,5.846,2.33,8.383,8.383,0,0,1,2.126,4.537A0.641,0.641,0,0,0,521.312,462.489Zm41,20.03a0.563,0.563,0,0,0-.654-0.573,7.419,7.419,0,0,1-1.962-.327c-0.614-.286-0.941-1.021-0.941-2.248v-9.157c0-4.9-2.248-7.358-6.7-7.358-2.82,0-5.069,1.349-6.826,3.966V454.354a0.53,0.53,0,0,0-.695-0.573,36.767,36.767,0,0,1-4.947.491,0.559,0.559,0,0,0-.613.613,0.568,0.568,0,0,0,.654.654,8.253,8.253,0,0,1,1.962.245c0.614,0.287.941,1.022,0.941,2.249v21.338c0,1.308-.45,2.085-1.308,2.33a8.083,8.083,0,0,1-1.676.245,0.522,0.522,0,0,0-.614.532,0.542,0.542,0,0,0,.614.613h8.584a0.53,0.53,0,0,0,.654-0.49,0.6,0.6,0,0,0-.654-0.655,7.129,7.129,0,0,1-1.962-.327c-0.654-.286-0.94-1.021-0.94-2.248V469.52c1.185-3.271,3.311-4.906,6.254-4.906,3.025,0,4.537,2.044,4.537,6.173v8.584c0,1.349-.449,2.167-1.308,2.371a9.29,9.29,0,0,1-1.594.2,0.537,0.537,0,0,0-.654.532,0.555,0.555,0,0,0,.654.613h8.544A0.562,0.562,0,0,0,562.31,482.519Zm24.238,0a0.546,0.546,0,0,0-.654-0.573,7.058,7.058,0,0,1-1.881-.327c-0.613-.286-0.94-1.021-0.94-2.248V463.429a0.519,0.519,0,0,0-.695-0.573,31.175,31.175,0,0,1-4.905.491,0.59,0.59,0,0,0-.654.613,0.567,0.567,0,0,0,.654.654,7.525,7.525,0,0,1,1.921.245c0.654,0.246.981,0.982,0.981,2.289v12.223q0,1.962-1.349,2.33a8.143,8.143,0,0,1-1.553.245,0.537,0.537,0,0,0-.654.532,0.555,0.555,0,0,0,.654.613h8.421A0.545,0.545,0,0,0,586.548,482.519Zm-4.824-28.37a1.83,1.83,0,0,0-2.044,2.085,2.065,2.065,0,0,0,4.129,0,2.08,2.08,0,0,0-.613-1.472A2.012,2.012,0,0,0,581.724,454.149Zm25.792,9.28a0.519,0.519,0,0,0-.695-0.573,26.869,26.869,0,0,1-4.742.491,0.59,0.59,0,0,0-.653.613,0.567,0.567,0,0,0,.653.654,8.167,8.167,0,0,1,1.922.245c0.654,0.246.981,0.982,0.981,2.289v12.223q0,1.962-1.349,2.33a7.21,7.21,0,0,1-1.594.245,0.537,0.537,0,0,0-.654.532,0.555,0.555,0,0,0,.654.613h8.707a0.53,0.53,0,0,0,.654-0.49,0.6,0.6,0,0,0-.654-0.655,8.234,8.234,0,0,1-2.126-.327c-0.613-.286-0.9-1.021-0.9-2.248V470.3a9.91,9.91,0,0,1,2-3.8,5.138,5.138,0,0,1,3.27-2.044,2.148,2.148,0,0,0-.082.572,1.505,1.505,0,0,0,1.717,1.676,1.588,1.588,0,0,0,1.717-1.881q0-2.084-2.33-2.084a5.44,5.44,0,0,0-3.638,1.349,9.7,9.7,0,0,0-2.862,3.842v-4.5Zm36.462,14.552a5.514,5.514,0,0,1-1.84,2.7,6.6,6.6,0,0,1-4.292,1.472,3.881,3.881,0,0,1-2.9-1.145,4,4,0,0,1-1.185-3.066c0-3.352,2.821-5.232,8.5-5.477l1.717-.082v5.6Zm5.845,3.311c-0.286-.2-0.49-0.081-0.776.287a1.353,1.353,0,0,1-1.1.654c-0.94,0-1.39-1.349-1.39-4.088v-8.3c0-4.783-2.412-7.154-7.2-7.154a8.419,8.419,0,0,0-5.314,1.676,3.878,3.878,0,0,0-1.88,3.066,1.747,1.747,0,0,0,1.962,2,1.556,1.556,0,0,0,1.8-1.758,1.287,1.287,0,0,0-1.145-1.472c0.777-1.43,2.248-2.125,4.374-2.125,3.189,0,4.824,2.044,4.824,6.131v0.736l-2.085.123c-7.317.409-11,2.821-11,7.113a5.088,5.088,0,0,0,1.921,4.169,6.819,6.819,0,0,0,4.5,1.431,7.954,7.954,0,0,0,6.95-3.6c0.082,2.371,1.063,3.474,2.984,3.474a2.988,2.988,0,0,0,2.7-1.553A0.618,0.618,0,0,0,649.823,481.292Zm26.487-.449a0.574,0.574,0,0,0-.94.041,3.852,3.852,0,0,1-2.821,1.349c-1.717,0-2.534-1.39-2.534-4.17V464.9h5.395a0.568,0.568,0,0,0,.655-0.654V464a0.556,0.556,0,0,0-.655-0.613h-5.395v-4.947a0.556,0.556,0,0,0-.654-0.613,0.581,0.581,0,0,0-.655.573,10.962,10.962,0,0,1-1.308,3.679,3.854,3.854,0,0,1-2.943,1.512,0.611,0.611,0,0,0-.613.654,0.567,0.567,0,0,0,.654.654h2.821v13.94q0,5.151,4.537,5.15a5.822,5.822,0,0,0,4.5-2.248A0.6,0.6,0,0,0,676.31,480.843Zm24.647-16.8a5.632,5.632,0,0,1,4.742,2.33,10.763,10.763,0,0,1,1.962,6.827,12.053,12.053,0,0,1-1.349,5.8,6.037,6.037,0,0,1-10.056.9,10.519,10.519,0,0,1-1.962-6.745,11.2,11.2,0,0,1,1.8-6.582A5.683,5.683,0,0,1,700.957,464.042Zm0-1.431a9.122,9.122,0,0,0-6.7,2.7,11.929,11.929,0,0,0-.041,15.738,9.216,9.216,0,0,0,6.745,2.7,9.31,9.31,0,0,0,6.786-2.7,10.771,10.771,0,0,0,2.943-7.971,10.446,10.446,0,0,0-2.943-7.726A9.12,9.12,0,0,0,700.957,462.611Zm32,0.818a0.519,0.519,0,0,0-.695-0.573,26.879,26.879,0,0,1-4.742.491,0.59,0.59,0,0,0-.654.613,0.567,0.567,0,0,0,.654.654,8.165,8.165,0,0,1,1.921.245c0.654,0.246.981,0.982,0.981,2.289v12.223q0,1.962-1.349,2.33a7.21,7.21,0,0,1-1.594.245,0.537,0.537,0,0,0-.654.532,0.555,0.555,0,0,0,.654.613h8.707a0.53,0.53,0,0,0,.654-0.49,0.6,0.6,0,0,0-.654-0.655,8.241,8.241,0,0,1-2.126-.327c-0.613-.286-0.9-1.021-0.9-2.248V470.3a9.937,9.937,0,0,1,2-3.8,5.14,5.14,0,0,1,3.27-2.044,2.173,2.173,0,0,0-.081.572,1.5,1.5,0,0,0,1.716,1.676,1.588,1.588,0,0,0,1.717-1.881q0-2.084-2.33-2.084a5.44,5.44,0,0,0-3.638,1.349,9.689,9.689,0,0,0-2.861,3.842v-4.5Zm32.414,19.09a0.545,0.545,0,0,0-.654-0.573,7.042,7.042,0,0,1-1.88-.327c-0.614-.286-0.941-1.021-0.941-2.248V463.429a0.519,0.519,0,0,0-.695-0.573,31.175,31.175,0,0,1-4.9.491,0.59,0.59,0,0,0-.654.613,0.567,0.567,0,0,0,.654.654,7.525,7.525,0,0,1,1.921.245c0.654,0.246.981,0.982,0.981,2.289v12.223q0,1.962-1.349,2.33a8.143,8.143,0,0,1-1.553.245,0.537,0.537,0,0,0-.654.532,0.555,0.555,0,0,0,.654.613h8.421A0.545,0.545,0,0,0,765.376,482.519Zm-4.824-28.37a1.83,1.83,0,0,0-2.044,2.085,2.065,2.065,0,0,0,4.129,0,2.075,2.075,0,0,0-.613-1.472A2.01,2.01,0,0,0,760.552,454.149Zm73.741,0.695a0.53,0.53,0,0,0-.613-0.572h-8.871a0.537,0.537,0,0,0-.654.531,0.6,0.6,0,0,0,.654.654,6.267,6.267,0,0,1,2.453.532c0.7,0.368,1.063,1.226,1.063,2.616v19.7H828.2l-16.76-23.627a0.886,0.886,0,0,0-.777-0.409h-6.254a0.536,0.536,0,0,0-.654.531,0.59,0.59,0,0,0,.613.654,8.3,8.3,0,0,1,2.575.532c0.695,0.368,1.063,1.308,1.063,2.779v19.949c0,1.472-.368,2.371-1.185,2.739a6.794,6.794,0,0,1-2.289.45,0.569,0.569,0,0,0-.614.572,0.555,0.555,0,0,0,.654.613h8.789c0.45,0,.654-0.163.654-0.49a0.623,0.623,0,0,0-.613-0.695,5.935,5.935,0,0,1-2.33-.532c-0.695-.368-1.063-1.267-1.063-2.657V457.583h0.123l18.15,25.508a0.842,0.842,0,0,0,.777.409h0.613a0.568,0.568,0,0,0,.654-0.654V458.605c0-1.431.409-2.33,1.185-2.7a6.745,6.745,0,0,1,2.167-.45A0.578,0.578,0,0,0,834.293,454.844Zm37.768,27.675a0.563,0.563,0,0,0-.654-0.573,6.049,6.049,0,0,1-1.8-.286c-0.776-.286-1.185-1.062-1.185-2.289V463.429a0.519,0.519,0,0,0-.7-0.573,33.284,33.284,0,0,1-4.865.491,0.591,0.591,0,0,0-.654.613,0.568,0.568,0,0,0,.654.654,7.234,7.234,0,0,1,1.922.245c0.654,0.286.981,1.022,0.981,2.249v9.647a7.453,7.453,0,0,1-2.453,4.006,6.045,6.045,0,0,1-3.924,1.431c-3.025,0-4.538-2.085-4.538-6.214V463.429a0.519,0.519,0,0,0-.7-0.573,29.23,29.23,0,0,1-4.864.491,0.654,0.654,0,0,0,0,1.308,8.89,8.89,0,0,1,1.962.2c0.613,0.164.9,0.941,0.9,2.289v9.443c0,4.865,2.249,7.318,6.745,7.318a7.663,7.663,0,0,0,6.909-4.129l0.163,2.7a0.572,0.572,0,0,0,.654.613h4.783A0.562,0.562,0,0,0,872.061,482.519Zm20.559-19.09a0.519,0.519,0,0,0-.7-0.573,26.879,26.879,0,0,1-4.742.491,0.59,0.59,0,0,0-.654.613,0.567,0.567,0,0,0,.654.654,8.165,8.165,0,0,1,1.921.245c0.654,0.246.981,0.982,0.981,2.289v12.223q0,1.962-1.349,2.33a7.2,7.2,0,0,1-1.594.245,0.537,0.537,0,0,0-.654.532,0.555,0.555,0,0,0,.654.613h8.707a0.53,0.53,0,0,0,.654-0.49,0.6,0.6,0,0,0-.654-0.655,8.225,8.225,0,0,1-2.125-.327c-0.614-.286-0.9-1.021-0.9-2.248V470.3a9.937,9.937,0,0,1,2-3.8,5.142,5.142,0,0,1,3.271-2.044,2.148,2.148,0,0,0-.082.572,1.5,1.5,0,0,0,1.717,1.676,1.589,1.589,0,0,0,1.717-1.881q0-2.084-2.331-2.084a5.44,5.44,0,0,0-3.638,1.349,9.689,9.689,0,0,0-2.861,3.842v-4.5Zm36.952,6.009a0.562,0.562,0,0,0,.572-0.654v-5.069c0-.45-0.164-0.654-0.409-0.654a0.645,0.645,0,0,0-.7.613,0.657,0.657,0,0,1-.49.572,2.124,2.124,0,0,1-.981-0.327,8.276,8.276,0,0,0-4.579-1.226,6.728,6.728,0,0,0-4.783,1.717,5.14,5.14,0,0,0-1.675,3.842,4.57,4.57,0,0,0,1.8,3.72,15.136,15.136,0,0,0,3.761,1.717l1.226,0.409a16.7,16.7,0,0,1,3.965,1.758,3.292,3.292,0,0,1,1.268,2.7c0,2.493-1.431,3.76-4.252,3.76a6.464,6.464,0,0,1-6.7-5.886,0.59,0.59,0,0,0-.654-0.613,0.568,0.568,0,0,0-.654.654v6.213a0.563,0.563,0,0,0,.572.654,0.671,0.671,0,0,0,.655-0.654,0.751,0.751,0,0,1,.613-0.817,3.208,3.208,0,0,1,1.349.531,9.958,9.958,0,0,0,4.9,1.431,7.643,7.643,0,0,0,4.374-1.226,5.16,5.16,0,0,0,2.289-4.579A4.926,4.926,0,0,0,929,473.934a16.456,16.456,0,0,0-4.823-2.166l-1.063-.327c-2.739-.818-4.129-2.085-4.129-3.679a3.112,3.112,0,0,1,.94-2.371,4.347,4.347,0,0,1,3.312-1.308,5.773,5.773,0,0,1,4.128,1.676,6.047,6.047,0,0,1,1.554,3.107A0.628,0.628,0,0,0,929.572,469.438Zm21.213,1.676a9.031,9.031,0,0,1,1.676-4.579,5.8,5.8,0,0,1,4.742-2.452,5.516,5.516,0,0,1,4.047,1.553,7.817,7.817,0,0,1,2.044,5.478H950.785Zm15.289,0.817a9.482,9.482,0,0,0-2.617-6.786,8.25,8.25,0,0,0-6.213-2.452,8.844,8.844,0,0,0-6.5,2.616,10.97,10.97,0,0,0-2.943,8.012,10.344,10.344,0,0,0,2.78,7.644,9.579,9.579,0,0,0,7.031,2.78,8.689,8.689,0,0,0,8.094-4.66,0.622,0.622,0,0,0-.205-0.9l-0.081-.082a0.564,0.564,0,0,0-.9.163,7.265,7.265,0,0,1-6.418,3.679,6.663,6.663,0,0,1-4.987-2.043,8.725,8.725,0,0,1-2.452-6.541v-0.7H965.42c0.449,0,.654-0.122.654-0.368v-0.368Zm22.153-8.5a0.519,0.519,0,0,0-.695-0.573,26.879,26.879,0,0,1-4.742.491,0.591,0.591,0,0,0-.654.613,0.568,0.568,0,0,0,.654.654,8.148,8.148,0,0,1,1.921.245c0.655,0.246.982,0.982,0.982,2.289v12.223q0,1.962-1.349,2.33a7.22,7.22,0,0,1-1.6.245,0.537,0.537,0,0,0-.654.532,0.555,0.555,0,0,0,.654.613h8.707a0.53,0.53,0,0,0,.654-0.49,0.6,0.6,0,0,0-.654-0.655,8.225,8.225,0,0,1-2.125-.327c-0.613-.286-0.9-1.021-0.9-2.248V470.3a9.937,9.937,0,0,1,2-3.8,5.142,5.142,0,0,1,3.271-2.044,2.148,2.148,0,0,0-.082.572,1.5,1.5,0,0,0,1.717,1.676,1.589,1.589,0,0,0,1.717-1.881q0-2.084-2.33-2.084a5.442,5.442,0,0,0-3.639,1.349,9.689,9.689,0,0,0-2.861,3.842v-4.5Zm43.2,0.49a0.533,0.533,0,0,0-.65-0.531h-6.58a0.54,0.54,0,0,0-.66.531,0.649,0.649,0,0,0,.66.654c1.43,0.123,2.16.613,2.16,1.472a3.132,3.132,0,0,1-.28,1.145l-4.99,12.713-5.44-12.8a3.433,3.433,0,0,1-.32-1.227c0-.736.65-1.185,2-1.308a0.579,0.579,0,0,0,.65-0.572,0.552,0.552,0,0,0-.65-0.613h-7.36c-0.45,0-.65.163-0.65,0.531a0.608,0.608,0,0,0,.61.654,2.686,2.686,0,0,1,1.51.532,5.653,5.653,0,0,1,1.43,2.207l6.95,15.616-1.59,4.292c-0.61,1.594-1.39,2.452-2.33,2.493l0.08-.367a1.166,1.166,0,0,0,.04-0.409,1.543,1.543,0,0,0-1.76-1.758,1.736,1.736,0,0,0-1.96,1.962c0,1.554.98,2.33,2.95,2.33,1.88,0,3.31-1.185,4.25-3.556l8.46-21.053a3.514,3.514,0,0,1,2.86-2.289A0.587,0.587,0,0,0,1031.43,463.919Zm56.37-1.43a0.54,0.54,0,0,0,.61-0.614v-7.153a0.58,0.58,0,0,0-.65-0.654,0.688,0.688,0,0,0-.7.654c-0.08.654-.28,0.981-0.57,0.981a2.284,2.284,0,0,1-.98-0.368,13.4,13.4,0,0,0-6.5-1.758,9.571,9.571,0,0,0-6.21,1.962,6.982,6.982,0,0,0-2.7,5.764,6.191,6.191,0,0,0,2.58,5.192,30.39,30.39,0,0,0,5.84,2.779l0.78,0.327c2.82,1.145,4.7,2.208,5.56,3.148a5.241,5.241,0,0,1,1.47,3.638,5.5,5.5,0,0,1-1.72,4.292,6.211,6.211,0,0,1-4.41,1.513,8.718,8.718,0,0,1-6.79-2.78,9.385,9.385,0,0,1-2.33-5.314,0.634,0.634,0,0,0-.65-0.613,0.576,0.576,0,0,0-.62.654V482.4a0.546,0.546,0,0,0,.62.613,0.6,0.6,0,0,0,.65-0.654c0.08-.776.33-1.185,0.74-1.185a3.8,3.8,0,0,1,1.43.613,12.412,12.412,0,0,0,6.95,2.044,10.411,10.411,0,0,0,5.88-1.635,7.248,7.248,0,0,0,3.4-6.418,7.019,7.019,0,0,0-1.76-4.783c-1.27-1.39-4.01-2.9-8.34-4.456l-1.02-.367c-3.56-1.268-5.36-3.107-5.36-5.56a5.235,5.235,0,0,1,1.43-3.638,6.078,6.078,0,0,1,4.7-1.921,7.571,7.571,0,0,1,5.85,2.33,8.452,8.452,0,0,1,2.13,4.537A0.635,0.635,0,0,0,1087.8,462.489Zm36.05,15.574a0.56,0.56,0,0,0-.9.164,7.109,7.109,0,0,1-6.25,3.638,6.214,6.214,0,0,1-5.07-2.494,9.647,9.647,0,0,1-1.96-6.213,11.451,11.451,0,0,1,1.47-5.887,5.6,5.6,0,0,1,5.31-3.188,5.1,5.1,0,0,1,4.66,2.207,1.591,1.591,0,0,0-.98,1.594,1.535,1.535,0,0,0,1.8,1.676c1.27,0,1.88-.694,1.88-2.084a3.844,3.844,0,0,0-1.76-2.984,8.853,8.853,0,0,0-5.72-1.8,9.126,9.126,0,0,0-6.7,2.7,10.831,10.831,0,0,0-2.99,7.971,10.436,10.436,0,0,0,2.82,7.644,9.13,9.13,0,0,0,6.75,2.739,8.678,8.678,0,0,0,7.97-4.66,0.624,0.624,0,0,0-.21-0.9Zm39.08,4.456a0.567,0.567,0,0,0-.66-0.573,7.463,7.463,0,0,1-1.96-.327c-0.61-.286-0.94-1.021-0.94-2.248v-9.157c0-4.9-2.25-7.358-6.7-7.358-2.82,0-5.07,1.349-6.83,3.966V454.354a0.526,0.526,0,0,0-.69-0.573,36.879,36.879,0,0,1-4.95.491,0.556,0.556,0,0,0-.61.613,0.565,0.565,0,0,0,.65.654,8.176,8.176,0,0,1,1.96.245c0.62,0.287.94,1.022,0.94,2.249v21.338c0,1.308-.45,2.085-1.3,2.33a8.169,8.169,0,0,1-1.68.245,0.518,0.518,0,0,0-.61.532,0.539,0.539,0,0,0,.61.613h8.58a0.535,0.535,0,0,0,.66-0.49,0.606,0.606,0,0,0-.66-0.655,7.169,7.169,0,0,1-1.96-.327c-0.65-.286-0.94-1.021-0.94-2.248V469.52c1.19-3.271,3.31-4.906,6.26-4.906,3.02,0,4.53,2.044,4.53,6.173v8.584c0,1.349-.45,2.167-1.3,2.371a9.52,9.52,0,0,1-1.6.2,0.534,0.534,0,0,0-.65.532,0.552,0.552,0,0,0,.65.613h8.54A0.567,0.567,0,0,0,1162.93,482.519Zm24.97-18.477a5.622,5.622,0,0,1,4.74,2.33,10.752,10.752,0,0,1,1.97,6.827,12.042,12.042,0,0,1-1.35,5.8,6.041,6.041,0,0,1-10.06.9,10.507,10.507,0,0,1-1.96-6.745,11.159,11.159,0,0,1,1.8-6.582A5.67,5.67,0,0,1,1187.9,464.042Zm0-1.431a9.126,9.126,0,0,0-6.7,2.7,11.909,11.909,0,0,0-.04,15.738,9.217,9.217,0,0,0,6.74,2.7,9.316,9.316,0,0,0,6.79-2.7,10.777,10.777,0,0,0,2.94-7.971,10.452,10.452,0,0,0-2.94-7.726A9.127,9.127,0,0,0,1187.9,462.611Zm36.34,1.431a5.622,5.622,0,0,1,4.74,2.33,10.751,10.751,0,0,1,1.96,6.827,12.154,12.154,0,0,1-1.34,5.8,6.041,6.041,0,0,1-10.06.9,10.507,10.507,0,0,1-1.96-6.745,11.159,11.159,0,0,1,1.8-6.582A5.67,5.67,0,0,1,1224.24,464.042Zm0-1.431a9.094,9.094,0,0,0-6.7,2.7,11.909,11.909,0,0,0-.04,15.738,9.185,9.185,0,0,0,6.74,2.7,9.316,9.316,0,0,0,6.79-2.7,10.777,10.777,0,0,0,2.94-7.971,10.452,10.452,0,0,0-2.94-7.726A9.127,9.127,0,0,0,1224.24,462.611Zm35.36,19.908a0.567,0.567,0,0,0-.66-0.573,6.734,6.734,0,0,1-1.88-.286c-0.73-.286-1.06-1.022-1.06-2.289V454.354a0.532,0.532,0,0,0-.7-0.573,47.724,47.724,0,0,1-4.98.491,0.564,0.564,0,0,0-.62.613,0.572,0.572,0,0,0,.66.654,8.357,8.357,0,0,1,2,.245c0.61,0.287.94,1.022,0.94,2.249v21.338c0,1.349-.49,2.126-1.39,2.33a9.062,9.062,0,0,1-1.63.245,0.526,0.526,0,0,0-.62.532,0.546,0.546,0,0,0,.62.613h8.66A0.567,0.567,0,0,0,1259.6,482.519Z" transform="translate(-503.313 -453.563)"/>
  <path id="j" class="cls-1" d="M758.165,572.9l-0.042-10.186v-0.587h22.551L780.632,572.9H758.165Zm22.551-22.049v9.6H758.123c0-2.976.042-7.754,0.168-9.6h22.425Zm-13.12-1.676a45.626,45.626,0,0,0,3.186-5.156c0.88-.084,1.886-0.336,1.886-0.922,0-1.006-2.263-1.8-4.485-2.222a0.576,0.576,0,0,0-.755.419,30.579,30.579,0,0,1-2.347,7.881h-5.407a10.923,10.923,0,0,0-4.234-1.845,0.573,0.573,0,0,0-.587.587c0.629,5.743.168,24.941,0.168,29.593a1.116,1.116,0,0,0,1.216,1.258c1.3,0,1.97-.545,1.97-1.467v-2.725H780.59v2.6a1.291,1.291,0,0,0,1.342,1.425c1.215,0,2.012-.293,2.012-1.593,0-2.892-.419-19.617-0.126-25.443,0.922-.336,1.8-0.8,1.8-1.467,0-.964-2.724-2.976-3.688-2.976-0.545,0-1.509,1.131-2.18,2.054H767.6ZM809.521,569c-0.083,1.384,0,2.6-.88,3.563-1.257,1.216-3.731,1.761-3.731,3.228a1.639,1.639,0,0,0,1.677,1.718,4.73,4.73,0,0,0,4.946-3.856,11.04,11.04,0,0,0-.5-4.82C810.653,567.952,809.563,568.078,809.521,569Zm7.8,0.5c-1.09-.754-1.8-0.084-1.551.964,0.168,0.713.5,1.467,0.629,2.306,0.126,1.132,0,2.263,1.048,2.641a1.9,1.9,0,0,0,2.6-1.216C820.755,572.354,819.037,570.719,817.318,569.5Zm6.958-.587c-1.132-.67-1.8.168-1.383,1.132,0.251,0.713.629,1.425,0.838,2.18,0.336,1.132.336,2.221,1.383,2.473a1.86,1.86,0,0,0,2.306-1.551C827.8,571.39,826.121,570.006,824.276,568.916Zm-8.551-16.473H831.4l-0.042,3.27H815.683Zm15.719-4.9v3.227H815.725c0.042-1.257.042-2.389,0.084-3.018a4.52,4.52,0,0,0,.88-0.209h14.755Zm-15.677,17.228-0.042-2.935h24.06c1.509,0,2.1-.293,2.1-0.838,0-.922-2.724-3.186-3.479-3.186-0.545,0-1.509,1.216-2.263,2.348H815.725l-0.042-2.767H831.4a1.138,1.138,0,0,0,1.216,1.048c1.173,0,1.8-.293,1.8-1.593,0-1.341-.084-6.539,0-9.138,0.713-.293,1.425-0.67,1.425-1.215,0-.922-2.473-2.725-3.311-2.725-0.545,0-1.509,1.216-2.1,2.1h-9.054a12.481,12.481,0,0,0,1.97-2.473c1.467-.126,1.928-0.419,1.928-1.006,0-.713-2.1-1.593-3.647-1.886a0.746,0.746,0,0,0-.922.545,16.352,16.352,0,0,1-1.676,4.82h-2.39a10.6,10.6,0,0,0-3.521-1.425,0.563,0.563,0,0,0-.629.587c0.545,4.82.168,18.779,0.168,22.551a1.043,1.043,0,0,0,1.174,1.174c1.3,0,1.928-.461,1.928-1.383v-0.923H838.7c0,2.641-.629,6.665-1.384,7.881-0.293.5-.964,1.215-2.766,1.173a37.892,37.892,0,0,1-4.024-.461,0.646,0.646,0,0,0-.88.419,0.784,0.784,0,0,0,.67.923,2.976,2.976,0,0,1,1.928,1.257,1.739,1.739,0,0,0,1.845,1.09c3.06,0.084,4.653-.8,5.617-2.641,0.88-1.593,1.551-5.533,1.76-8.718,0.838-.42,1.551-0.965,1.551-1.468,0-.712-2.305-2.557-3.228-2.6a4.017,4.017,0,0,0-1.718,1.467h-22.3Zm15.425,6.748c0.462,1.006.671,2.1,1.719,2.138a1.849,1.849,0,0,0,1.97-1.886c0.042-1.719-1.76-2.725-3.689-3.521-1.215-.461-1.76.461-1.215,1.341C830.4,570.258,830.815,570.887,831.192,571.515Zm45.489-17.605v-2.892c0-.8,0-4.024.083-5.072,0.168-.042.378-0.084,0.545-0.126h12.366c0,1.886-.042,5.575-0.042,8.09H876.681Zm0.042,1.677h12.868v0.88a1.258,1.258,0,0,0,1.3,1.425c1.173,0,1.844-.293,1.844-1.593-0.042-1.425-.126-7.209-0.042-10.06,0.754-.293,1.425-0.67,1.425-1.215,0-.922-2.473-2.767-3.311-2.767-0.5,0-1.384,1.006-2.012,1.886h-11.15a10.2,10.2,0,0,0-3.605-1.467,0.5,0.5,0,0,0-.587.545c0.419,3.773.168,11.318,0.168,14.126a1,1,0,0,0,1.131,1.132c1.3,0,1.971-.377,1.971-1.3v-1.593Zm-9.977,9.389c0-1.341,0-8.132.126-10.186,0.922-.167,1.635-0.419,1.635-1.006,0-.545-1.132-1.173-2.138-1.592a70.78,70.78,0,0,0,3.228-7.755c1.257,0.168,2.179-.042,2.137-0.8,0.042-.922-2.976-2.347-4.568-2.6a0.567,0.567,0,0,0-.713.628,50.722,50.722,0,0,1-8.132,19.743c-0.629,1.09.419,1.761,1.258,0.8a37.328,37.328,0,0,0,4.233-5.533c0.168,6.623-.084,18.108-0.084,20.916a1.043,1.043,0,0,0,1.174,1.174q1.885,0,1.886-1.383Zm28.63-1.048c1.341,0,2.1-.335,2.1-0.922,0-1.006-2.767-3.521-3.605-3.521-0.587,0-1.677,1.467-2.515,2.767h-7.084c0-1.551.042-3.018,0.042-3.689,1.173-.168,1.844-0.587,1.844-1.132,0-.964-3.018-1.132-4.443-1.132a0.485,0.485,0,0,0-.545.587c0.167,1.216.251,3.354,0.293,5.366H869.89a0.778,0.778,0,0,0-.922.838,0.761,0.761,0,0,0,.922.838h9.767a31.591,31.591,0,0,1-11.7,11.276c-1.132.8-.461,1.8,0.8,1.257a28.219,28.219,0,0,0,12.743-9.515v0.461c0,1.593-.251,9.138-0.251,10.228a1.048,1.048,0,0,0,1.173,1.132c1.258,0,1.928-.335,1.928-1.258,0-1.173-.083-8.593-0.083-9.976v-2.1c2.179,4.737,5.784,8.426,9.641,10.018,1.257,0.462,1.467.126,1.97-.544a3.045,3.045,0,0,1,1.593-1.258c0.67-.293,1.257-0.922-0.126-1.216-5.156-1.3-9.6-4.107-12.072-8.509h10.1Zm30.482,5.617v-3.772h14.168v3.772H925.858Zm14.168-9.054V564.1H925.858c0.041-1.467.041-2.892,0.083-3.605h14.085Zm-12.911-1.677a11.284,11.284,0,0,0-3.9-1.634,0.519,0.519,0,0,0-.587.545c0.461,4.527.168,16.431,0.126,19.91a1.06,1.06,0,0,0,1.173,1.174c1.3,0,1.97-.461,1.97-1.383l-0.041-6.2h14.126c0,0.88,0,1.718-.042,2.347a1.18,1.18,0,0,1-1.342,1.342c-0.712,0-1.844-.084-2.431-0.126-0.8-.042-1.006.964-0.168,1.3,2.348,0.839,1.468,2.348,3.228,2.348a3.43,3.43,0,0,0,3.689-3.563c0.042-4.611,0-10.1.084-13.54,0.88-.335,1.676-0.754,1.676-1.3,0-.8-2.682-3.018-3.688-3.018a6.245,6.245,0,0,0-1.887,1.8H927.115Zm7.042-12.91v-2.3c1.3-.294,2.222-0.629,2.222-1.509,0-1.132-4.066-1.258-4.779-1.258a0.528,0.528,0,0,0-.587.629,37.027,37.027,0,0,1,.126,4.443H914.917a0.778,0.778,0,0,0-.922.838,0.762,0.762,0,0,0,.922.839h11.569a24.773,24.773,0,0,1-2.137,5.533c-1.929,0-3.983,0-6.2-.042a0.415,0.415,0,0,0-.5.5c0.126,2.263.629,4.108,1.509,4.192,0.712,0.083,1.174-.755,1.425-1.677a130.9,130.9,0,0,0,21.545-2.1c0.587,0.754,1.006,1.551,1.384,2.054,0.628,0.8,1.173,1.216,2.012,1.006a1.807,1.807,0,0,0,1.383-2.431c-0.5-2.1-3.06-4.611-7.587-5.7-0.964-.21-1.383.713-0.8,1.216a30.948,30.948,0,0,1,2.348,2.347c-3.857.293-8.3,0.545-13.833,0.629,0.839-1.174,1.719-2.431,2.473-3.605,0.923-.084,2.012-0.377,2.012-1.048a1.182,1.182,0,0,0-.712-0.88h18.317c1.719,0,2.432-.419,2.432-1.006,0-1.09-3.186-3.689-4.066-3.689-0.671,0-1.887,1.635-2.809,3.018H934.157Zm62.8,9.054c1.425,0,2.012-.251,1.97-0.8,0-.881-2.6-3.018-3.311-3.018-0.5,0-1.342,1.089-2.1,2.137h-5.114v-2.6H995.2c1.341,0,1.928-.252,1.928-0.8-0.042-.8-2.515-2.892-3.186-2.892-0.461,0-1.3,1.048-1.97,2.012h-3.563v-0.964c1.132-.252,1.844-0.545,1.844-1.216,0-.964-3.353-1.132-4.066-1.132a0.527,0.527,0,0,0-.586.629,23.7,23.7,0,0,1,.125,2.683H978.3a0.778,0.778,0,0,0-.922.838,0.762,0.762,0,0,0,.922.839h7.419c0,0.922,0,1.8-.042,2.6h-9.6a0.779,0.779,0,0,0-.922.839,0.761,0.761,0,0,0,.922.838h20.875Zm-14.964,6.958v-3.227h10.6c0,0.964-.042,2.221-0.084,3.227H981.993Zm10.563,1.677a1.053,1.053,0,0,0,1.132,1.006,1.328,1.328,0,0,0,1.592-1.593V559.15a1.306,1.306,0,0,0,1.006-.964c0-.839-2.095-2.432-2.766-2.432a3.221,3.221,0,0,0-1.383,1.258h-9.851a8.034,8.034,0,0,0-2.641-1.09,0.474,0.474,0,0,0-.628.5,59.26,59.26,0,0,1,.167,7.5,1,1,0,0,0,1.048,1.132c1.132,0,1.761-.377,1.761-1.257v-0.21h3.06c-1.845,2.641-5.24,5.156-9.893,7.335-1.006.629-.377,1.677,0.755,1.258a26.581,26.581,0,0,0,9.766-5.282c0,2.054-.083,3.941-0.083,5.072,0,0.8.209,1.258,1.006,1.258,1.257,0,1.8-.629,1.8-1.509,0-.964-0.042-2.934-0.042-4.821v-2.179c0.8-.126,1.216-0.419,1.216-0.839a0.453,0.453,0,0,0-.126-0.293h3.1Zm4.359-.168a0.679,0.679,0,0,0-.922.21,14.36,14.36,0,0,1-3.144,3.353,13.912,13.912,0,0,0-2.515-.587,0.621,0.621,0,0,0-.5,1.132,29,29,0,0,1,3.144,2.054c1.048,0.8,2.1,1.844,2.808,2.431a1.434,1.434,0,0,0,1.677.461,1.412,1.412,0,0,0,.419-2.054,7.533,7.533,0,0,0-3.1-2.64,13.427,13.427,0,0,0,2.557-1.509c1.342,0.335,1.8.209,1.97-.336S998.173,564.138,996.915,563.425Zm-23.431,10.521c-0.042-4.9-.084-13.2-0.084-14.293,0-1.719,0-11.569.209-14.5a4.459,4.459,0,0,0,.881-0.209h26.99c0.09,4.108-.04,21.587-0.12,29.006H973.484Zm1.215-30.683a12.243,12.243,0,0,0-3.9-1.593,0.57,0.57,0,0,0-.587.587c0.713,6.414.168,30.055,0.168,35.336a1.07,1.07,0,0,0,1.173,1.258c1.342,0,1.929-.545,1.929-1.509v-1.719h27.876v1.593a1.256,1.256,0,0,0,1.3,1.425c1.17,0,1.97-.335,1.97-1.635,0-3.353-.51-24.814-0.17-31.186,0.84-.335,1.63-0.8,1.63-1.383,0-.922-2.59-2.892-3.47-2.892-0.47,0-1.22.88-1.85,1.718H974.7Z" transform="translate(-503.313 -453.563)"/>
  <rect id="sen" class="cls-2" x="366.187" y="58.937" width="23.5" height="3"/>
</svg>
