<svg id="tit_instagram.svg" xmlns="http://www.w3.org/2000/svg" width="255.686" height="101.81" viewBox="0 0 255.686 101.81">
  <defs>
    <style>
      .cls-1, .cls-2 {
        fill: #4cd0a0;
      }

      .cls-1 {
        stroke: #4cd0a0;
        stroke-width: 1px;
      }

      .cls-1, .cls-2, .cls-3 {
        fill-rule: evenodd;
      }

      .cls-3 {
        fill: #e9c893;
      }
    </style>
  </defs>
  <path id="白鳥フォト_のコピー" data-name="白鳥フォト のコピー" class="cls-1" d="M846.706,1094.97a0.255,0.255,0,0,0-.133-0.23l-0.581-.49a0.5,0.5,0,0,0-.349-0.18,0.52,0.52,0,0,0-.3.22l-0.349.4h-5.832c1.063-1.4,1.2-1.55,1.678-2.26a1.011,1.011,0,0,0,.731-0.39,0.372,0.372,0,0,0-.2-0.23l-1.8-.78a4.266,4.266,0,0,1,.067.7,12.087,12.087,0,0,1-.731,2.96h-2.892l-1.412-.8a36.9,36.9,0,0,1,.133,3.69c0,1.48,0,2.12-.133,8.01,0,0.08-.033.49-0.033,0.59a0.265,0.265,0,0,0,.315.25,0.914,0.914,0,0,0,.765-0.43,3.224,3.224,0,0,0,.033-0.8h9.4c0,0.12-.034.69-0.034,0.8a0.26,0.26,0,0,0,.266.32,1.222,1.222,0,0,0,.482-0.14,0.491,0.491,0,0,0,.349-0.53c0-.01,0-0.11-0.017-0.28-0.083-1.73-.132-3.41-0.132-5.2,0-.18.033-4.05,0.033-4.7C846.64,1095.15,846.706,1095.12,846.706,1094.97Zm-1.611,4.6h-9.4v-4.49h9.4v4.49Zm0,5.24h-9.4v-4.84h9.4v4.84Zm22.36-3.44a0.344,0.344,0,0,0-.116-0.2l-0.615-.6a0.381,0.381,0,0,0-.183-0.12,0.627,0.627,0,0,0-.249.17l-0.531.51h-8.624v-1.53h9.521a0.2,0.2,0,0,0,.249-0.18,0.35,0.35,0,0,0-.166-0.25l-0.565-.55a0.532,0.532,0,0,0-.3-0.18,0.508,0.508,0,0,0-.283.22l-0.465.55h-7.992v-1.45h6.43c0,0.25,0,.56.416,0.56a0.573,0.573,0,0,0,.581-0.68c0-.01-0.05-1.36-0.05-1.52,0-.25-0.016-1.57-0.016-1.85a1.869,1.869,0,0,0,.548-0.53,0.3,0.3,0,0,0-.133-0.17l-0.615-.48a0.352,0.352,0,0,0-.216-0.12,0.341,0.341,0,0,0-.2.14l-0.515.61h-4.021c0.332-.35,1.13-1.13,1.263-1.28,0.465-.16.648-0.18,0.648-0.33a0.206,0.206,0,0,0-.15-0.17l-1.512-.78a3.025,3.025,0,0,1,.033.4,5.982,5.982,0,0,1-.5,2.16h-1.712l-1.329-.75a4.654,4.654,0,0,1,.133.72c0.017,0.4.05,3.02,0.05,3.47,0,0.72-.15,4.44-0.15,4.52a0.385,0.385,0,0,0,.366.47,0.674,0.674,0,0,0,.648-0.62h8.873a14.442,14.442,0,0,1-.632,2.73,1.118,1.118,0,0,1-1.179.91,11.035,11.035,0,0,1-1.795-.36l-0.033.08a2.1,2.1,0,0,1,1.246,1.53,3.194,3.194,0,0,0,2.227-.98,8.94,8.94,0,0,0,1.063-3.64c0.15-.09.332-0.19,0.415-0.23A0.29,0.29,0,0,0,867.455,1101.37Zm-3.888-5.94h-6.43v-1.31h6.43v1.31Zm0,1.93h-6.43v-1.53h6.43v1.53Zm0.316,6.45c0-.9-1.329-1.33-1.8-1.48l-0.066.07a2.94,2.94,0,0,1,.714,1.11c0.283,0.65.333,0.8,0.665,0.8A0.5,0.5,0,0,0,863.883,1103.81Zm-2.725.7a3.025,3.025,0,0,0-1.4-2l-0.05.04a5.471,5.471,0,0,1,.383,1.64c0.083,0.67.132,0.96,0.548,0.96A0.58,0.58,0,0,0,861.158,1104.51Zm-2.808.28a3.107,3.107,0,0,0-.216-1.03c-0.083-.2-0.332-0.72-0.515-1.1h-0.1a6.671,6.671,0,0,1-.083,1.1c-0.017.16-.2,1.01-0.2,1.19a0.555,0.555,0,0,0,.515.59A0.67,0.67,0,0,0,858.35,1104.79Zm-3.174-1.4a3.393,3.393,0,0,0-.116-0.88l-0.1-.01a3.371,3.371,0,0,1-1.163,1.96,0.952,0.952,0,0,0-.482.73,0.563,0.563,0,0,0,.565.58C854.611,1105.77,855.176,1104.81,855.176,1103.39Zm21.6,1.78a9.393,9.393,0,0,0,5.25-3.41,17.8,17.8,0,0,0,2.875-5.5,0.991,0.991,0,0,1,.648-0.79c0.349-.17.4-0.22,0.4-0.3a3.68,3.68,0,0,0-1.313-1.21,0.285,0.285,0,0,0-.216.11,1.162,1.162,0,0,1-.731.33c-0.4.07-6.962,0.67-7.095,0.67a1.647,1.647,0,0,1-1.5-.92,0.924,0.924,0,0,0-.1.37,2.077,2.077,0,0,0,1.213,1.74,0.386,0.386,0,0,0,.182-0.06,1.413,1.413,0,0,1,.615-0.28,70.446,70.446,0,0,1,7.178-.95c-1.047,5.15-4.552,8.79-7.427,10.07Zm18.655-.91a12.143,12.143,0,0,0,5.217-4.54c0.034,1.33,0,1.65-.05,3.71-0.016.54,0,.61-0.132,0.61a6.165,6.165,0,0,1-1.562-.58l-0.05.12c1.213,0.98,1.213,1.01,1.412,1.47,0.166,0.42.2,0.45,0.332,0.45a1.585,1.585,0,0,0,.748-1.41c0-.13,0-0.2-0.05-0.81-0.016-.25-0.033-3.81-0.05-4.52,0.914-.07,1.429-0.07,1.612-0.07a7.381,7.381,0,0,1,1.213.08,2.225,2.225,0,0,0,.382.1,0.306,0.306,0,0,0,.316-0.33c0-.43-0.914-0.58-1.03-0.58a3.731,3.731,0,0,0-.465.07c-0.815.13-.864,0.13-2.028,0.25a10.16,10.16,0,0,1,.117-1.85c0.016-.08.2-0.43,0.2-0.51a1.465,1.465,0,0,0-1.3-.74,1.387,1.387,0,0,0-.864.37,1.048,1.048,0,0,1,.947.45c0.249,0.4.3,0.75,0.3,2.34-1.462.15-3.555,0.37-3.921,0.37a1.1,1.1,0,0,1-1.03-.85,1.39,1.39,0,0,0-.133.53,1.278,1.278,0,0,0,.631.93,0.756,0.756,0,0,0,.565.28,0.669,0.669,0,0,0,.382-0.15,14.686,14.686,0,0,1,3.224-.63,15.987,15.987,0,0,1-5.018,5.29Zm24.238-7.11a20.425,20.425,0,0,1,.216-3.29c0.083-.29.249-0.79,0.249-0.87,0-.56-1.412-0.88-1.661-0.88a2.331,2.331,0,0,0-1.08.38c0.8,0.24,1.246.4,1.362,0.83a19.345,19.345,0,0,1,.117,2.65c0,0.63-.117,6.69-0.25,7.59-0.016.1-.149,0.93-0.149,0.96,0,0.19.133,1.25,0.7,1.25,0.5,0,.5-0.72.5-1.51,0-.3-0.05-1.83-0.05-2.18,0-1.51.017-3.06,0.034-4.57a12.355,12.355,0,0,1,3.672,2.64,1.263,1.263,0,0,0,.747.55c0.233,0,.383-0.23.383-0.63a1.316,1.316,0,0,0-.4-0.95A10.545,10.545,0,0,0,919.666,1097.15Z" transform="translate(-764.594 -1090.22)"/>
  <path id="Instagram" class="cls-2" d="M778.62,1156v-1.44h-2.384a2.967,2.967,0,0,1-3.15-3.28v-23.36a2.944,2.944,0,0,1,3.15-3.28h2.384v-1.49H764.581v1.49h2.43a2.945,2.945,0,0,1,3.15,3.28v23.36a2.96,2.96,0,0,1-3.15,3.28h-2.43V1156H778.62Zm28.845,0v-1.44H806.3c-1.935,0-2.385-1.26-2.385-3.28v-10.85c0-4-2.2-6.57-5.985-6.57-3.33,0-5.534,2.12-7.784,4.37v-4.55l-5.85,1.76,0.225,0.94a5.208,5.208,0,0,1,1.305-.18,1.9,1.9,0,0,1,1.665,2.03v13.05c0,1.93-.54,3.28-2.52,3.28h-0.855V1156h9.854v-1.44H792.8c-2.114,0-2.654-1.49-2.654-3.28v-11.16c1.259-1.4,3.869-4.19,7.019-4.19,3.51,0,4.14,3.02,4.14,5.13v10.22c0,1.93-.54,3.28-2.565,3.28H797.61V1156h9.855Zm22.725-5.62c0-4.68-4.32-5.99-7.65-6.8-4.139-1.03-6.614-1.62-6.614-4.27a4.185,4.185,0,0,1,4.185-4.23c3.689,0,6.524,3.6,8.189,5.71l0.9-.4-2.745-6.53a3.709,3.709,0,0,1-2.16.86,4.289,4.289,0,0,1-1.485-.32,7.88,7.88,0,0,0-2.925-.54,5.983,5.983,0,0,0-6.344,6.21c0,3.74,2.925,5.04,7.379,6.26,4.23,1.12,6.615,1.8,6.615,4.68a4.222,4.222,0,0,1-4.5,4.27,9.344,9.344,0,0,1-5.984-2.52,12.114,12.114,0,0,1-2.835-3.69l-1.215.54,2.7,7.24a7.553,7.553,0,0,1,2.88-1.08,4.989,4.989,0,0,1,1.439.36,9.446,9.446,0,0,0,3.42.72C827,1156.85,830.19,1154.52,830.19,1150.38Zm21.329,2.96-0.765-.76a5.438,5.438,0,0,1-4.409,2.34c-2.025,0-3.42-.99-3.42-3.42v-15.34h7.47v-1.44h-7.47v-7.43h-1.08v1.89a6.858,6.858,0,0,1-2.475,4.68,4.677,4.677,0,0,1-3.015.86v1.44h3.825v15.2c0,3.51,1.53,5.49,4.815,5.49S850.08,1154.87,851.519,1153.34Zm26.01,0.77-0.45-.31a1.518,1.518,0,0,1-1.53.89c-1.17,0-1.98-.58-1.98-2.15v-13.28c0-4.23-3.42-5.4-7.245-5.4-4.364,0-8.459,2.03-8.459,4.77a2,2,0,0,0,2.025,1.98c1.8,0,2.025-1.71,2.115-2.56,0.27-1.98,2.07-2.84,4-2.84a5.218,5.218,0,0,1,3.645,1.26,4.672,4.672,0,0,1,1.215,3.42v2.97c-5.579,1.31-8.054,2.12-10.934,4.19-0.495.36-2.88,2.16-2.88,4.99,0,2.65,2.025,4.81,6.165,4.81,3.014,0,4.814-1.39,7.649-3.82,0,1.08.135,3.82,2.97,3.82C875.144,1156.85,876.539,1156.18,877.529,1154.11Zm-6.66-2.61c-3.2,3.29-6.12,3.51-6.839,3.51-2.385,0-3.78-1.53-3.78-3.1,0-1.53,1.3-3.11,2.655-4.23,2.609-2.16,5.309-2.84,7.964-3.47v7.29Zm35.235-15.93a2.4,2.4,0,0,0-2.61-2.2c-1.53,0-2.7,1.03-4.275,2.7a9.607,9.607,0,0,0-6.03-2.21c-4.139,0-8.5,2.97-8.5,8.06a7.166,7.166,0,0,0,4.05,6.7c-1.26.41-3.915,1.31-3.915,3.38,0,1.8,1.98,2.33,4.185,2.79-3.285,1.07-6.39,2.2-6.39,4.54,0,3.6,6.57,4,10.214,4,8.19,0,11.385-2.56,11.385-5.35,0-4-5.49-4.55-8.91-4.86-3.105-.27-7.019-0.63-7.019-2.25,0-1.17,1.305-1.62,1.755-1.75a9.665,9.665,0,0,0,3.239.58c5.22,0,8.55-3.6,8.55-7.87a7.211,7.211,0,0,0-1.8-4.91,2.355,2.355,0,0,1,1.44-.72,1.657,1.657,0,0,1,1.125.54,2.992,2.992,0,0,0,1.755.77A1.833,1.833,0,0,0,906.1,1135.57Zm-7.11,6.12c0,3.69-2.16,6.66-5.76,6.66-3.374,0-5.444-2.61-5.444-6.39,0-3.33,1.71-6.75,5.354-6.75C897.374,1135.21,898.994,1138.54,898.994,1141.69Zm2.25,16.87c0,3.02-4.86,3.42-8.055,3.42-2.924,0-7.514-.45-7.514-3.1,0-2.21,4.14-3.15,6.345-3.65l2.564,0.27C898.274,1155.91,901.244,1156.27,901.244,1158.56Zm27.135-22.4a2.474,2.474,0,0,0-2.61-2.3c-3.42,0-6.479,3.83-8.279,6.12v-6.34l-6.705,2.2,0.315,0.99a8.482,8.482,0,0,1,1.935-.36c1.485,0,1.845,1.22,1.845,2.43v12.38a2.964,2.964,0,0,1-3.15,3.28H910.7V1156h11.429v-1.44H920.64a2.963,2.963,0,0,1-3.15-3.28v-8.69c1.62-3.01,3.285-5.49,6.164-5.49a1.565,1.565,0,0,1,1.35.63,1.835,1.835,0,0,0,1.3.5A2.064,2.064,0,0,0,928.379,1136.16Zm26.774,17.95-0.45-.31a1.518,1.518,0,0,1-1.53.89c-1.17,0-1.979-.58-1.979-2.15v-13.28c0-4.23-3.42-5.4-7.245-5.4-4.365,0-8.46,2.03-8.46,4.77a2,2,0,0,0,2.025,1.98c1.8,0,2.025-1.71,2.115-2.56,0.27-1.98,2.07-2.84,4-2.84a5.218,5.218,0,0,1,3.645,1.26,4.672,4.672,0,0,1,1.215,3.42v2.97c-5.58,1.31-8.055,2.12-10.935,4.19-0.5.36-2.88,2.16-2.88,4.99,0,2.65,2.025,4.81,6.165,4.81,3.015,0,4.815-1.39,7.65-3.82,0,1.08.135,3.82,2.969,3.82C952.768,1156.85,954.163,1156.18,955.153,1154.11Zm-6.659-2.61c-3.2,3.29-6.12,3.51-6.84,3.51-2.385,0-3.78-1.53-3.78-3.1,0-1.53,1.3-3.11,2.655-4.23,2.61-2.16,5.31-2.84,7.965-3.47v7.29Zm47.969,4.5v-1.44h-1.08c-1.53,0-2.25-.99-2.25-3.28v-10.85c0-4.05-2.385-6.57-6.165-6.57-3.555,0-5.985,2.57-7.875,4.5-0.675-3.78-3.734-4.5-5.669-4.5-3.42,0-5.67,2.03-7.515,3.65v-3.83l-5.94,1.76,0.225,0.94a5.208,5.208,0,0,1,1.305-.18,1.9,1.9,0,0,1,1.665,2.03v13.05c0,1.93-.54,3.28-2.52,3.28h-0.81V1156h9.54v-1.44h-0.72c-2.16,0-2.745-1.53-2.745-3.28v-12.06a8.414,8.414,0,0,1,6.39-3.29c3.15,0,4.319,1.58,4.319,4.64v10.71c0,1.98-.584,3.28-2.564,3.28h-0.99V1156h10.079v-1.44h-1.035c-2.2,0-2.745-1.53-2.745-3.28v-11.21c1.08-1.35,3.42-4.14,7.02-4.14,2.7,0,4.05,1.67,4.05,4.32v11.03c0,1.98-.585,3.28-2.565,3.28h-1.035V1156h9.63Z" transform="translate(-764.594 -1090.22)"/>
  <path id="new_arrivals" data-name="new arrivals" class="cls-3" d="M908.139,1190.19a3.125,3.125,0,0,1-1.194.86,26.366,26.366,0,0,0,.824-2.64,7.429,7.429,0,0,0,.332-2.02,1.124,1.124,0,0,0-.256-0.71,0.682,0.682,0,0,0-.557-0.19,3.773,3.773,0,0,0-1.543.91,10.4,10.4,0,0,0-1.841,1.9c0.021-.19.07-0.48,0.145-0.88a5.917,5.917,0,0,0,.086-1.17,0.251,0.251,0,0,0-.109-0.23,0.725,0.725,0,0,0-.273-0.02,0.471,0.471,0,0,0-.443.32,8.178,8.178,0,0,1-.971,1.62c-0.076.1-.5,0.63-1.278,1.6a0.431,0.431,0,0,0-.1.33,0.394,0.394,0,0,0,.5.39,0.4,0.4,0,0,0,.294-0.16c0.175-.21.334-0.4,0.476-0.58a7.4,7.4,0,0,0,.472-0.64c-0.045.19-.114,0.45-0.206,0.79s-0.211.74-.355,1.19c-0.018.07-.045,0.19-0.08,0.35a1.314,1.314,0,0,0-.044.35c0.028,0.34.269,0.5,0.724,0.46a13.332,13.332,0,0,1,1.854-3.29,11.52,11.52,0,0,1,2.619-2.33,8.608,8.608,0,0,1-.346,1.96c-0.254,1.03-.5,1.89-0.729,2.59a1.167,1.167,0,0,0-.069.47c0.031,0.39.3,0.56,0.818,0.52a3.306,3.306,0,0,0,1.743-.99,13.025,13.025,0,0,0,1.295-1.41,0.56,0.56,0,0,0,.147-0.41,0.477,0.477,0,0,0-.153-0.33,0.405,0.405,0,0,0-.316-0.1,0.417,0.417,0,0,0-.274.18A7.619,7.619,0,0,1,908.139,1190.19Zm7.226-3.46a7.529,7.529,0,0,1-1.521.99,3.967,3.967,0,0,1,.917-1.7,1.615,1.615,0,0,1,.952-0.6,0.25,0.25,0,0,1,.328.23,1.47,1.47,0,0,1-.676,1.08h0Zm-1.635,2.04a14.721,14.721,0,0,0,2.151-1.38,2.358,2.358,0,0,0,1.049-1.91,0.992,0.992,0,0,0-.377-0.75,1.105,1.105,0,0,0-.8-0.21,2.917,2.917,0,0,0-2.127,1.49,4.638,4.638,0,0,0-.807,3.06,2.814,2.814,0,0,0,.688,1.8,1.822,1.822,0,0,0,1.542.53,4.263,4.263,0,0,0,1.984-.7,11.282,11.282,0,0,0,1.873-1.84c0.065-.09.118-0.17,0.16-0.24a0.408,0.408,0,0,0,.055-0.23,0.473,0.473,0,0,0-.154-0.33,0.417,0.417,0,0,0-.3-0.1,0.588,0.588,0,0,0-.4.23,17.054,17.054,0,0,1-1.277,1.4,3.459,3.459,0,0,1-2,.91,0.932,0.932,0,0,1-.869-0.36,2.052,2.052,0,0,1-.37-1.11Zm12.8,1.28a0.919,0.919,0,0,0,.723.23,3.793,3.793,0,0,0,1.8-1.05,10.245,10.245,0,0,0,1.976-2.24,1.461,1.461,0,0,0,.482,1.05,1.482,1.482,0,0,0,1.127.3,2.059,2.059,0,0,0,.873-0.26,1.864,1.864,0,0,0,.677-0.66,0.476,0.476,0,0,0,.085-0.29,0.408,0.408,0,0,0-.141-0.29,0.379,0.379,0,0,0-.288-0.09,0.42,0.42,0,0,0-.326.2,1.418,1.418,0,0,1-.4.44,0.921,0.921,0,0,1-.455.17,0.984,0.984,0,0,1-.654-0.15,0.837,0.837,0,0,1-.3-0.64,2.432,2.432,0,0,1,.012-0.51,2.564,2.564,0,0,1,.105-0.49,5.594,5.594,0,0,0,.448-0.93,1.87,1.87,0,0,0,.156-0.74,0.5,0.5,0,0,0-.6-0.53,0.693,0.693,0,0,0-.6.55,5.346,5.346,0,0,0-.24,1.38,13.2,13.2,0,0,1-1.992,2.81,3.3,3.3,0,0,1-1.548,1.18c-0.287.02-.448-0.17-0.481-0.58a2.943,2.943,0,0,1,.128-0.98,11.3,11.3,0,0,1,.563-1.52c0.268-.62.541-1.23,0.816-1.85l0.024-.14a0.329,0.329,0,0,0-.174-0.25,0.5,0.5,0,0,0-.323-0.09,0.268,0.268,0,0,0-.258.16c-0.762,1.58-1.228,2.52-1.395,2.83a10.138,10.138,0,0,1-1.255,1.89,2.177,2.177,0,0,1-1.384.74c-0.132.01-.206-0.08-0.221-0.27a3.392,3.392,0,0,1,.206-1.13q0.236-.765.612-1.8c0.25-.7.492-1.32,0.724-1.87l0.038-.2a0.318,0.318,0,0,0-.42-0.28,0.329,0.329,0,0,0-.293.17,15.8,15.8,0,0,1-1.022,1.65,14.808,14.808,0,0,1-1.371,1.79,0.474,0.474,0,0,0-.152.36,0.36,0.36,0,0,0,.445.36,0.487,0.487,0,0,0,.278-0.13l0.6-.64a4.5,4.5,0,0,0-.416,1.98,0.745,0.745,0,0,0,.862.83,3.008,3.008,0,0,0,1.407-.46,4.691,4.691,0,0,0,1.251-1.27,1.9,1.9,0,0,0-.047.53A1.063,1.063,0,0,0,926.53,1190.05Zm21.962-1.64a4.726,4.726,0,0,0,.957-0.79,0.9,0.9,0,0,0,.3.63,0.821,0.821,0,0,0,.613.2,3.625,3.625,0,0,0,1.894-.91,9.837,9.837,0,0,0,1.518-1.54,0.7,0.7,0,0,0,.164-0.44,0.631,0.631,0,0,0-.076-0.26,0.344,0.344,0,0,0-.357-0.17,0.568,0.568,0,0,0-.416.21,9.922,9.922,0,0,1-1.323,1.39,2.873,2.873,0,0,1-1.244.81c-0.119.01-.187-0.09-0.2-0.28a4.3,4.3,0,0,1,.49-1.53c0.172-.39.382-0.85,0.629-1.37a4.91,4.91,0,0,0,.15-0.48,1.162,1.162,0,0,0,.05-0.38,0.363,0.363,0,0,0-.428-0.39,0.393,0.393,0,0,0-.306.13,2.85,2.85,0,0,0-.29.54,16.236,16.236,0,0,1-1.37,2.48c-0.7,1.03-1.306,1.56-1.82,1.6a0.7,0.7,0,0,1-.77-0.81,4.24,4.24,0,0,1,.807-2.74,5.133,5.133,0,0,1,4.123-2.15,0.788,0.788,0,0,0,.492-0.16,0.4,0.4,0,0,0,.118-0.33,0.449,0.449,0,0,0-.161-0.32,0.616,0.616,0,0,0-.433-0.1,6.323,6.323,0,0,0-4.691,2.27,4.953,4.953,0,0,0-1.119,3.57,2.214,2.214,0,0,0,.459,1.31,1.351,1.351,0,0,0,1.159.37A2.5,2.5,0,0,0,948.492,1188.41Zm10.468-6.63a12.141,12.141,0,0,1-1.133,1.84,9.675,9.675,0,0,1-1.064,1.35,0.352,0.352,0,0,0-.136.32,0.5,0.5,0,0,0,.172.35,0.5,0.5,0,0,0,.351.11,0.4,0.4,0,0,0,.275-0.15,15.272,15.272,0,0,0,1.151-1.54A10.24,10.24,0,0,0,959.7,1182a4.228,4.228,0,0,0,1.244.23,9.73,9.73,0,0,1-.5,1.29c-0.3.68-.608,1.38-0.924,2.08a2.633,2.633,0,0,0-.191.53,1.691,1.691,0,0,0-.029.53,0.9,0.9,0,0,0,1.1.92,3.778,3.778,0,0,0,1.721-1.04,9.223,9.223,0,0,0,1.45-1.49,0.468,0.468,0,0,0,.086-0.28,0.4,0.4,0,0,0-.179-0.3,0.532,0.532,0,0,0-.362-0.11,0.418,0.418,0,0,0-.313.17,9.291,9.291,0,0,1-1.245,1.32,3.226,3.226,0,0,1-1.14.83c-0.144.01-.22-0.03-0.228-0.13a0.991,0.991,0,0,1,.031-0.28,2.8,2.8,0,0,1,.163-0.47q0.353-.81.707-1.62a7.145,7.145,0,0,0,.728-2.24,0.517,0.517,0,0,0-.31-0.48,1.106,1.106,0,0,0-.385-0.08q-0.255-.015-0.574-0.06c-0.213-.03-0.406-0.07-0.578-0.11a0.7,0.7,0,0,0-.776-0.66,0.675,0.675,0,0,0-.47.22,0.574,0.574,0,0,0-.161.46,0.761,0.761,0,0,0,.388.55h0Zm9.688-.79a11.665,11.665,0,0,1-1.133,1.84,9.675,9.675,0,0,1-1.064,1.35,0.352,0.352,0,0,0-.136.32,0.5,0.5,0,0,0,.172.35,0.454,0.454,0,0,0,.351.11,0.354,0.354,0,0,0,.275-0.14,16.515,16.515,0,0,0,1.151-1.54,10.806,10.806,0,0,0,1.127-2.06,4.468,4.468,0,0,0,1.244.22,9.886,9.886,0,0,1-.5,1.29c-0.3.68-.608,1.38-0.924,2.08a2.633,2.633,0,0,0-.191.53,1.691,1.691,0,0,0-.029.53,0.9,0.9,0,0,0,1.1.92,3.783,3.783,0,0,0,1.721-1.04,9.223,9.223,0,0,0,1.45-1.49,0.45,0.45,0,0,0,.086-0.28,0.4,0.4,0,0,0-.179-0.3,0.532,0.532,0,0,0-.362-0.11,0.452,0.452,0,0,0-.313.17,9.823,9.823,0,0,1-1.245,1.33,3.282,3.282,0,0,1-1.14.82c-0.144.01-.22-0.03-0.228-0.13a0.955,0.955,0,0,1,.031-0.28,3.237,3.237,0,0,1,.162-0.47c0.236-.54.472-1.08,0.708-1.61a7.248,7.248,0,0,0,.728-2.25,0.517,0.517,0,0,0-.31-0.48,1.4,1.4,0,0,0-.385-0.08q-0.255-.015-0.574-0.06c-0.213-.03-0.406-0.07-0.578-0.11a0.71,0.71,0,0,0-.776-0.66,0.675,0.675,0,0,0-.47.22,0.57,0.57,0,0,0-.161.46,0.744,0.744,0,0,0,.388.55h0Zm8.052,3.08a3.093,3.093,0,0,0-.152,1.24,0.85,0.85,0,0,0,1.045.86,3.665,3.665,0,0,0,1.9-1.06,12.272,12.272,0,0,0,1.346-1.45,0.405,0.405,0,0,0,.1-0.31,0.446,0.446,0,0,0-.161-0.32,0.4,0.4,0,0,0-.325-0.11,0.434,0.434,0,0,0-.31.18,9.4,9.4,0,0,1-1.323,1.39,3,3,0,0,1-1.154.8,0.2,0.2,0,0,1-.234-0.21,3.711,3.711,0,0,1,.195-0.94c0.14-.49.34-1.07,0.6-1.73q0.269-.69.722-1.77a1.14,1.14,0,0,0,.109-0.44,0.462,0.462,0,0,0-.15-0.29,0.37,0.37,0,0,0-.317-0.13,0.844,0.844,0,0,0-.592.5c-0.28.55-.561,1.1-0.842,1.64a4.93,4.93,0,0,1-1.018,1.47,0.459,0.459,0,0,0-.166.4,0.38,0.38,0,0,0,.149.27,0.426,0.426,0,0,0,.3.11Zm3.265-6.48a0.583,0.583,0,0,0,.323-0.47,0.887,0.887,0,0,0-.366-0.62,0.945,0.945,0,0,0-.679-0.24,0.677,0.677,0,0,0-.533.33,1.091,1.091,0,0,0-.161.68,0.557,0.557,0,0,0,.663.6A1.4,1.4,0,0,0,979.965,1177.59Zm4.9,4.99a4.635,4.635,0,0,0-.052,1.14,3.913,3.913,0,0,0,.328,1.36,0.689,0.689,0,0,0,.585.53,2.913,2.913,0,0,0,1.487-1.03,15.278,15.278,0,0,0,1.8-2.31,1.461,1.461,0,0,0,.482,1.05,1.482,1.482,0,0,0,1.127.3,2.051,2.051,0,0,0,.872-0.26,1.713,1.713,0,0,0,.678-0.66,0.468,0.468,0,0,0,.084-0.29,0.4,0.4,0,0,0-.14-0.29,0.38,0.38,0,0,0-.288-0.09,0.483,0.483,0,0,0-.326.2,1.418,1.418,0,0,1-.4.44,0.959,0.959,0,0,1-1.109.02,0.8,0.8,0,0,1-.3-0.63,2.6,2.6,0,0,1,.013-0.52,2.49,2.49,0,0,1,.1-0.49,5.674,5.674,0,0,0,.448-0.93,1.839,1.839,0,0,0,.156-0.74,0.5,0.5,0,0,0-.6-0.53,0.705,0.705,0,0,0-.6.55,5.341,5.341,0,0,0-.241,1.38,18.161,18.161,0,0,1-1.772,2.74,2.991,2.991,0,0,1-1.322,1.18c-0.132.01-.22-0.27-0.266-0.83a7.833,7.833,0,0,1,.059-1.71,8.9,8.9,0,0,1,.465-1.84c0.01-.02.054-0.12,0.131-0.28a0.825,0.825,0,0,0,.1-0.4,0.315,0.315,0,0,0-.167-0.29,0.885,0.885,0,0,0-.384-0.05,0.551,0.551,0,0,0-.367.37c-0.041.09-.1,0.23-0.163,0.43a8.5,8.5,0,0,1-.677,1.45,5.9,5.9,0,0,1-.841,1.2,0.608,0.608,0,0,0-.2.42,0.34,0.34,0,0,0,.13.26,0.424,0.424,0,0,0,.276.07,1.654,1.654,0,0,0,.169-0.04,0.67,0.67,0,0,0,.164-0.1,4.28,4.28,0,0,0,.55-0.78h0Zm12.853,1.82a5.022,5.022,0,0,0,.957-0.78,0.873,0.873,0,0,0,.3.62,0.79,0.79,0,0,0,.613.21,3.64,3.64,0,0,0,1.9-.92,9.639,9.639,0,0,0,1.52-1.54,0.741,0.741,0,0,0,.16-0.43,0.538,0.538,0,0,0-.08-0.27,0.37,0.37,0,0,0-.35-0.17,0.622,0.622,0,0,0-.42.22,9.538,9.538,0,0,1-1.32,1.38,2.858,2.858,0,0,1-1.246.81c-0.12.01-.187-0.08-0.2-0.28a4.225,4.225,0,0,1,.489-1.52c0.17-.4.38-0.85,0.63-1.38a4.419,4.419,0,0,0,.15-0.48,1.132,1.132,0,0,0,.05-0.38,0.354,0.354,0,0,0-.43-0.38,0.418,0.418,0,0,0-.3.12,2.781,2.781,0,0,0-.294.54,15.342,15.342,0,0,1-1.37,2.48,3.157,3.157,0,0,1-1.82,1.61,0.712,0.712,0,0,1-.77-0.81,4.224,4.224,0,0,1,.807-2.74,5.169,5.169,0,0,1,4.127-2.16,0.806,0.806,0,0,0,.49-0.16,0.4,0.4,0,0,0,.12-0.33,0.424,0.424,0,0,0-.17-0.31,0.556,0.556,0,0,0-.43-0.1,6.318,6.318,0,0,0-4.69,2.26,4.98,4.98,0,0,0-1.118,3.57,2.163,2.163,0,0,0,.459,1.31,1.322,1.322,0,0,0,1.159.37A2.377,2.377,0,0,0,997.721,1184.4Zm12.669-10.12a20.677,20.677,0,0,1-1.72,2.98c0.06-.31.12-0.64,0.19-0.97,0.32-.96.66-1.85,1.01-2.67a3.348,3.348,0,0,1,.89-1.53c0.06-.01.1,0.06,0.11,0.21A4.379,4.379,0,0,1,1010.39,1174.28Zm-3.68,7.24a4.316,4.316,0,0,0-.07,1.16,1.306,1.306,0,0,0,.31.82,0.89,0.89,0,0,0,.75.23,2.969,2.969,0,0,0,1.64-.92,20.469,20.469,0,0,0,1.42-1.58,0.43,0.43,0,0,0,.11-0.3,0.463,0.463,0,0,0-.17-0.31,0.47,0.47,0,0,0-.35-0.12,0.4,0.4,0,0,0-.28.17,10.588,10.588,0,0,1-1.33,1.41,2.909,2.909,0,0,1-1.1.76,0.35,0.35,0,0,1-.11-0.28,5,5,0,0,1,.11-1.13c0.05-.34.16-0.89,0.33-1.63a25.741,25.741,0,0,0,2.87-4.29,6.241,6.241,0,0,0,.86-3.16,1.806,1.806,0,0,0-.19-0.72,0.459,0.459,0,0,0-.46-0.25,2.27,2.27,0,0,0-1.61,1.34,15.587,15.587,0,0,0-1.25,3.06c-0.25.8-.59,2.03-1.02,3.68-0.27.36-.49,0.65-0.65,0.87-0.23.29-.4,0.5-0.5,0.62a0.448,0.448,0,0,0,.02.67,0.453,0.453,0,0,0,.34.11,0.413,0.413,0,0,0,.28-0.15Zm12.1-.87a8.625,8.625,0,0,1-.88.74,4.574,4.574,0,0,0,0-.91,8.512,8.512,0,0,0-.34-1.65,7.9,7.9,0,0,0-.69-1.62,2.417,2.417,0,0,0,.06-0.28,1.382,1.382,0,0,0,0-.29,0.581,0.581,0,0,0-.22-0.48,0.652,0.652,0,0,0-.47-0.11,0.6,0.6,0,0,0-.69.67,0.653,0.653,0,0,0,.13.34,2.372,2.372,0,0,0,.23.3,11.579,11.579,0,0,1-.95,1.34c-0.45.57-.9,1.13-1.33,1.68a0.391,0.391,0,0,0-.1.31,0.414,0.414,0,0,0,.16.31,0.42,0.42,0,0,0,.32.11,0.463,0.463,0,0,0,.31-0.17c0.27-.34.66-0.82,1.17-1.45,0.41-.53.72-0.95,0.92-1.25a7.437,7.437,0,0,1,.55,2.34,4.878,4.878,0,0,1,.02.84,2.65,2.65,0,0,1-.07.51,1.376,1.376,0,0,1-.75.26,5.628,5.628,0,0,1-.96-0.03,7.955,7.955,0,0,0-.87-0.03,0.46,0.46,0,0,0-.5.54,0.432,0.432,0,0,0,.13.32,0.7,0.7,0,0,0,.3.14,5.327,5.327,0,0,0,1.38.06,5.472,5.472,0,0,0,2.75-1.03,7.787,7.787,0,0,0,1.74-1.7,0.381,0.381,0,0,0,.11-0.29,0.466,0.466,0,0,0-.17-0.33,0.447,0.447,0,0,0-.34-0.1,0.407,0.407,0,0,0-.29.17c-0.25.3-.47,0.55-0.66,0.74h0Z" transform="translate(-764.594 -1090.22)"/>
</svg>
