<svg id="tit_youtube.svg" xmlns="http://www.w3.org/2000/svg" width="245.717" height="110.18" viewBox="0 0 245.717 110.18">
  <defs>
    <style>
      .cls-1, .cls-2 {
        fill: #4cd0a0;
      }

      .cls-1 {
        stroke: #4cd0a0;
        stroke-width: 0.8px;
      }

      .cls-1, .cls-2, .cls-3 {
        fill-rule: evenodd;
      }

      .cls-3 {
        fill: #e9c893;
      }
    </style>
  </defs>
  <path id="行事動画" class="cls-1" d="M856.749,1909.18a0.365,0.365,0,0,0-.17-0.25l-0.867-.72a0.775,0.775,0,0,0-.3-0.17,0.433,0.433,0,0,0-.306.26l-0.51.66h-2.805c-0.289,0-1.547-.03-2.822-0.13l0.408,0.74a12.773,12.773,0,0,1,2.176-.2h4.946A0.2,0.2,0,0,0,856.749,1909.18Zm0.952,4.39a0.335,0.335,0,0,0-.17-0.27l-0.833-.73a0.655,0.655,0,0,0-.323-0.21,0.441,0.441,0,0,0-.271.24l-0.6.73h-4.675c-0.952,0-1.887-.05-2.839-0.12l0.408,0.73a12.364,12.364,0,0,1,2.193-.2h2.6c0.034,0.82.017,7.26,0.017,7.44a0.361,0.361,0,0,1-.425.33c-0.731,0-1.411.01-1.9,0v0.1a2.248,2.248,0,0,1,1.632,1.44c0.153-.01,1.666-0.32,1.666-1.49,0-.19-0.034-0.99-0.034-1.16-0.034-1.27-.034-1.8-0.034-6.66h3.331A0.207,0.207,0,0,0,857.7,1913.57Zm-9.91-4.88a0.278,0.278,0,0,0-.119-0.22l-1.088-1a2.669,2.669,0,0,1-.493,1.02,18.41,18.41,0,0,1-3.841,3.72l0.051,0.1a11.413,11.413,0,0,0,4.776-3.36C847.723,1908.91,847.791,1908.91,847.791,1908.69Zm0.578,3.33a0.4,0.4,0,0,0-.17-0.25l-1.139-.97a3.624,3.624,0,0,1-.425,1.07,23.514,23.514,0,0,1-4.725,5.42l0.017,0.09a12.8,12.8,0,0,0,3.6-2.62c-0.119,4.4-.136,4.88-0.2,6.27-0.017.46-.119,1.19-0.119,1.67a0.335,0.335,0,0,0,.408.39,0.676,0.676,0,0,0,.747-0.75c0-.37-0.068-2.02-0.068-2.4,0-1.46.119-3.79,0.119-5.25a2.687,2.687,0,0,0,.425-0.47,0.373,0.373,0,0,0-.221-0.26l-0.2-.14a11.939,11.939,0,0,0,1.173-1.56C848.233,1912.21,848.369,1912.18,848.369,1912.02Zm29.97,5.12a0.346,0.346,0,0,0-.153-0.26l-0.68-.74a0.379,0.379,0,0,0-.289-0.17,0.327,0.327,0,0,0-.255.2l-0.578.75H875.45c-0.017-.19-0.017-1.07-0.017-1.28a0.81,0.81,0,0,0,.51-0.47,0.463,0.463,0,0,0-.17-0.26l-0.527-.51a0.454,0.454,0,0,0-.289-0.18,0.423,0.423,0,0,0-.255.2l-0.408.41h-3.553v-1.58h3.621c0,0.35-.017.57,0.306,0.57a0.642,0.642,0,0,0,.663-0.59c0-.03-0.068-0.8-0.068-0.95a3.929,3.929,0,0,1,0-.65c0.357-.13.51-0.22,0.51-0.37a0.31,0.31,0,0,0-.153-0.24l-0.612-.53a0.4,0.4,0,0,0-.2-0.08,0.359,0.359,0,0,0-.238.13l-0.306.29h-3.519c0-.17.017-1.09,0.017-1.29h6.476a0.206,0.206,0,0,0,.255-0.19,0.3,0.3,0,0,0-.17-0.25l-0.951-.72a0.672,0.672,0,0,0-.323-0.17,0.377,0.377,0,0,0-.256.21l-0.645.71h-4.386c0-.34,0-0.39.017-0.75,0.374-.15.544-0.22,0.544-0.44a0.252,0.252,0,0,0-.221-0.25l-1.53-.46a8.686,8.686,0,0,1,.272,1.9h-4.08c-0.322,0-1.546-.03-2.821-0.13l0.391,0.73a14.042,14.042,0,0,1,2.193-.19h4.334c0,0.19-.017,1.09-0.017,1.29h-3.552l-1.054-.49a5.339,5.339,0,0,1,.119,1.41c0,0.58-.034.99-0.051,1.26,0,0.1-.051.56-0.051,0.66a0.279,0.279,0,0,0,.323.31,0.8,0.8,0,0,0,.612-0.36,0.966,0.966,0,0,0,.068-0.37h3.569v1.58h-3.042c-0.306,0-1.547-.02-2.822-0.12l0.408,0.73a13.877,13.877,0,0,1,2.176-.2h3.28v1.68h-4.691c-0.306,0-1.547-.04-2.822-0.14l0.408,0.73a13.788,13.788,0,0,1,2.176-.18h4.929c0,0.56,0,1.19-.017,1.66h-2.873c-0.306,0-1.546-.02-2.821-0.12l0.408,0.73a13.682,13.682,0,0,1,2.175-.2h3.111c-0.017.37-.034,1.73-0.1,1.97-0.068.27-.255,0.34-0.782,0.34-0.221,0-.8-0.03-2.039-0.15v0.15c1.461,0.51,1.886.94,2.141,1.62,1.071-.41,1.6-0.89,1.666-1.5,0.034-.29.034-0.51,0.034-2.43H874.5c0,0.1-.034.53-0.034,0.59a0.349,0.349,0,0,0,.34.4,0.717,0.717,0,0,0,.731-0.68c0-.34-0.085-2.01-0.085-2.38h2.634A0.212,0.212,0,0,0,878.339,1917.14Zm-3.96-4.3h-3.638v-1.6h3.638v1.6Zm-4.539,0h-3.586v-1.6h3.586v1.6Zm4.675,4.08h-3.774v-1.68h3.774v1.68Zm0,2.07h-3.791v-1.66h3.791v1.66Zm17.8-7.73a0.355,0.355,0,0,0-.17-0.26l-0.714-.56a0.665,0.665,0,0,0-.306-0.17,0.513,0.513,0,0,0-.272.21l-0.6.56h-2.4v-1.55a21.9,21.9,0,0,0,2.193-.54,0.928,0.928,0,0,0,.408.11,0.274,0.274,0,0,0,.306-0.23,0.235,0.235,0,0,0-.119-0.21l-0.952-.76a25.506,25.506,0,0,1-6.238,1.94v0.11a19.021,19.021,0,0,0,3.6-.28v1.41h-1.274c-0.952,0-1.887-.05-2.822-0.14l0.391,0.73a14.032,14.032,0,0,1,2.193-.19h1.512v1.5h-1.852l-1.088-.61a14.229,14.229,0,0,1,.068,1.77v2.77c0,0.15-.034.91-0.034,1.08a0.243,0.243,0,0,0,.221.31,1.187,1.187,0,0,0,.578-0.24,0.825,0.825,0,0,0,.1-0.59h2v1.49H886.2c-0.935,0-1.887-.05-2.822-0.13l0.391,0.73a12.915,12.915,0,0,1,2.193-.19h1.1v1.84a26.757,26.757,0,0,1-3.756.41,1.9,1.9,0,0,1-.391-0.04l0.731,1.26a0.306,0.306,0,0,0,.255.2,0.182,0.182,0,0,0,.17-0.1c0.051-.07.085-0.15,0.153-0.27a66.725,66.725,0,0,0,7.105-2.16v-0.14c-1.054.24-1.887,0.45-3.468,0.7v-1.7h3.111a0.206,0.206,0,0,0,.255-0.19,0.345,0.345,0,0,0-.17-0.25l-0.578-.46a0.5,0.5,0,0,0-.306-0.17,0.4,0.4,0,0,0-.272.2l-0.374.46H887.86v-1.49h2.074a0.33,0.33,0,0,0,.272.39,1,1,0,0,0,.425-0.15,0.6,0.6,0,0,0,.221-0.62c0-.03-0.051-1.19-0.051-1.34-0.017-.36-0.017-0.83-0.017-2.12,0.1-.07.255-0.14,0.306-0.17a0.246,0.246,0,0,0,.136-0.19,0.336,0.336,0,0,0-.17-0.22l-0.714-.56a0.282,0.282,0,0,0-.187-0.1,0.332,0.332,0,0,0-.2.15l-0.357.44H887.86v-1.5h4.182A0.221,0.221,0,0,0,892.314,1911.26Zm-2.363,3.72H887.86v-1.63h2.091v1.63Zm0,2.04H887.86v-1.63h2.091v1.63Zm-2.89-2.04h-2v-1.63h2v1.63Zm0,2.04h-2v-1.63h2v1.63Zm11.253-4.66a0.311,0.311,0,0,0-.187-0.25l-0.646-.5a0.4,0.4,0,0,0-.221-0.11,0.583,0.583,0,0,0-.255.18l-0.442.44h-1.852c0-.37-0.017-3.07-0.017-3.21,0.136-.08.221-0.13,0.408-0.25a0.348,0.348,0,0,0,.2-0.26,0.367,0.367,0,0,0-.306-0.25l-1.53-.51a15.033,15.033,0,0,1,.306,4.48c-1.275-.01-2.091-0.08-2.5-0.11l0.391,0.73a12.888,12.888,0,0,1,2.091-.19,27.936,27.936,0,0,1-.527,5.23,11.057,11.057,0,0,1-3.485,5.33l0.051,0.08a7.639,7.639,0,0,0,4.2-4.91,18.654,18.654,0,0,0,.714-5.73h2.108c0.016,2.63.067,5.95-.51,7.85a1.313,1.313,0,0,1-1.173,1.11,13.133,13.133,0,0,1-2.142-.31l-0.034.09a3.046,3.046,0,0,1,1.836,1.78,3.211,3.211,0,0,0,2.532-2.91c0.374-1.97.374-3.14,0.374-7.22A0.984,0.984,0,0,0,898.314,1912.36Zm20.247-3.31a0.4,0.4,0,0,0-.17-0.26l-0.918-.68a0.576,0.576,0,0,0-.322-0.17,0.392,0.392,0,0,0-.272.21l-0.612.68h-9.808c-0.9,0-1.938-.05-2.839-0.14l0.408,0.73a14.032,14.032,0,0,1,2.193-.19h4.317v2.44h-1.785l-1.241-.55a14.179,14.179,0,0,1,.2,3.03c0,1.07-.051,2.77-0.051,3.82,0,0.26-.051,1.36-0.051,1.58a0.317,0.317,0,0,0,.34.39,0.7,0.7,0,0,0,.646-0.56,4.73,4.73,0,0,0,.017-0.52h4.743c-0.017.69-.034,0.83,0.357,0.83a0.605,0.605,0,0,0,.612-0.7c0-.07-0.068-3.14-0.068-3.72v-2.72c0.476-.31.544-0.34,0.544-0.48a0.363,0.363,0,0,0-.187-0.23l-0.6-.46a0.452,0.452,0,0,0-.255-0.16,0.337,0.337,0,0,0-.238.19l-0.187.26h-1.955v-2.44h6.9A0.216,0.216,0,0,0,918.561,1909.05Zm-5.184,5.91h-1.989v-2.89h1.989v2.89Zm-2.839,0h-1.921v-2.89h1.921v2.89Zm2.839,3.49h-1.989v-3.08h1.989v3.08Zm-2.839,0h-1.921v-3.08h1.921v3.08Zm7.258-6.78a0.255,0.255,0,0,0-.238-0.19l-1.58-.41a1.853,1.853,0,0,1,.238.92c0.051,0.53.085,2.4,0.085,3.82v2.35c0,0.46-.034,2.68-0.034,3.19h-10.4c0-2.56.034-6.66,0.017-9.23a0.845,0.845,0,0,0,.6-0.45,0.223,0.223,0,0,0-.221-0.21l-1.564-.41c0.272,1.09.272,1.38,0.272,4.29,0,1.02-.119,6-0.119,7.12a0.339,0.339,0,0,0,.357.42,0.659,0.659,0,0,0,.561-0.32,1.5,1.5,0,0,0,.1-0.8h10.4c0,0.14-.017.63-0.017,0.73a0.362,0.362,0,0,0,.374.41,0.761,0.761,0,0,0,.731-0.87c0-.34-0.136-4.87-0.136-5.11v-4.69A1.111,1.111,0,0,0,917.8,1911.67Z" transform="translate(-772.563 -1906.66)"/>
  <path id="YouTube" class="cls-2" d="M803.214,1949.47v-1.49H791.7v1.49h2.07c1.35,0,2.61.49,2.61,1.66a5.781,5.781,0,0,1-.63,2.07l-7.245,12.87-7.29-13.09a5,5,0,0,1-.675-1.94c0-1.3,1.575-1.57,2.61-1.57h1.08v-1.49H772.571v1.49h0.72c1.574,0,3.239,1.08,4.364,3.1l8.6,15.39v8.15a2.967,2.967,0,0,1-3.15,3.28h-2.34v1.44h13.815v-1.44h-2.34a2.963,2.963,0,0,1-3.15-3.28v-8.15l8.325-14.85C799.434,1949.47,801.954,1949.47,803.214,1949.47Zm27.36,20.7c0-6.03-4.185-11.48-9.854-11.48-5.715,0-9.855,5.49-9.855,11.48,0,6.12,4.23,11.52,9.855,11.52S830.574,1976.29,830.574,1970.17Zm-3.06,0c0,5.76-2.61,10.17-6.794,10.17-4.455,0-6.8-4.82-6.8-10.13s2.34-10.17,6.8-10.17C825.264,1960.04,827.514,1965.04,827.514,1970.17Zm32.94,10.66v-1.44h-0.9a2.022,2.022,0,0,1-2.2-2.16v-18.76l-6.84,1.71,0.361,0.99a8.822,8.822,0,0,1,1.934-.32,1.827,1.827,0,0,1,1.845,1.98v13.32c-3.285,2.79-5.714,3.24-7.2,3.24-2.475,0-4.23-1.53-4.23-4.68v-16.24l-5.85,1.44,0.315,0.99a8.254,8.254,0,0,1,1.4-.14,1.587,1.587,0,0,1,1.53,1.85v12.55c0,4.59,3.33,6.53,6.075,6.53,3.374,0,6.254-2.75,7.964-4.32v3.46h5.8Zm38.115-24.43-3.33-8.42H870.9l-3.33,8.42,1.125,0.58c1.935-3.24,4.59-7.51,9.494-7.51,1.665,0,3.465.58,3.465,3.28v23.36a2.967,2.967,0,0,1-3.15,3.28h-2.2v1.44h13.679v-1.44h-2.34a2.963,2.963,0,0,1-3.15-3.28v-23.36c0-2.83,1.98-3.28,3.42-3.28,5,0,7.56,4.27,9.54,7.51Zm30.059,24.43v-1.44h-0.9a2.022,2.022,0,0,1-2.2-2.16v-18.76l-6.84,1.71,0.36,0.99a8.841,8.841,0,0,1,1.935-.32,1.827,1.827,0,0,1,1.845,1.98v13.32c-3.285,2.79-5.715,3.24-7.2,3.24-2.475,0-4.23-1.53-4.23-4.68v-16.24l-5.85,1.44,0.315,0.99a8.254,8.254,0,0,1,1.395-.14,1.587,1.587,0,0,1,1.53,1.85v12.55c0,4.59,3.33,6.53,6.075,6.53,3.375,0,6.255-2.75,7.965-4.32v3.46h5.8Zm28.62-10.48c0-2.25-.315-6.62-3.059-9.32a8.02,8.02,0,0,0-5.67-2.34,8.91,8.91,0,0,0-7.2,3.83v-15.3l-6.39,1.84,0.225,0.99a7.717,7.717,0,0,1,1.53-.27c1.62,0,2.025,1.04,2.025,2.39v29.52h0.72l1.89-3.74c1.125,1.22,3.375,3.74,7.11,3.74C952.479,1981.69,957.248,1978.36,957.248,1970.35Zm-3.1-.09c0,6.7-3.78,9.58-6.57,9.58-3.015,0-5.22-2.7-6.255-4v-11.25c0.99-1.4,2.745-3.96,6.345-3.96C952.929,1960.63,954.144,1966.48,954.144,1970.26Zm30.33,6.39-1.035-.86c-1.035,1.44-3.105,4.19-7.02,4.19-0.855,0-8.055-.18-7.74-10.94h15.57a12.819,12.819,0,0,0-1.98-6.39,8.2,8.2,0,0,0-7.245-3.96c-6.525,0-9.585,5.76-9.585,11.52,0,3.92,1.62,11.48,10.035,11.48C980.6,1981.69,982.809,1978.81,984.474,1976.65Zm-3.69-9.09H968.769c0.315-2.07,1.08-7.52,6.165-7.52C977.679,1960.04,980.469,1961.75,980.784,1967.56Z" transform="translate(-772.563 -1906.66)"/>
  <path id="new_arrivals" data-name="new arrivals" class="cls-3" d="M906.139,2015.02a3.125,3.125,0,0,1-1.194.86,26.117,26.117,0,0,0,.823-2.64,7.4,7.4,0,0,0,.333-2.02,1.124,1.124,0,0,0-.256-0.71,0.68,0.68,0,0,0-.557-0.19,3.773,3.773,0,0,0-1.543.91,10.4,10.4,0,0,0-1.841,1.9c0.021-.19.07-0.48,0.145-0.88a5.871,5.871,0,0,0,.086-1.16,0.258,0.258,0,0,0-.109-0.24,0.725,0.725,0,0,0-.273-0.02,0.485,0.485,0,0,0-.443.32,8.215,8.215,0,0,1-.97,1.62c-0.077.1-.5,0.63-1.279,1.6a0.435,0.435,0,0,0-.1.33,0.4,0.4,0,0,0,.5.4,0.452,0.452,0,0,0,.294-0.17c0.175-.21.334-0.4,0.476-0.58a7.4,7.4,0,0,0,.472-0.64c-0.045.19-.114,0.45-0.206,0.8s-0.211.73-.355,1.18c-0.018.07-.045,0.19-0.08,0.35a1.314,1.314,0,0,0-.044.35c0.028,0.34.269,0.5,0.724,0.46a13.332,13.332,0,0,1,1.854-3.29,11.541,11.541,0,0,1,2.619-2.33,8.549,8.549,0,0,1-.346,1.96c-0.254,1.03-.5,1.89-0.729,2.59a1.167,1.167,0,0,0-.069.47c0.031,0.39.3,0.56,0.818,0.52a3.306,3.306,0,0,0,1.743-.99,12.135,12.135,0,0,0,1.295-1.41,0.564,0.564,0,0,0,.147-0.41,0.473,0.473,0,0,0-.154-0.33,0.4,0.4,0,0,0-.315-0.1,0.417,0.417,0,0,0-.274.18A7.619,7.619,0,0,1,906.139,2015.02Zm7.226-3.46a7.529,7.529,0,0,1-1.521.99,3.967,3.967,0,0,1,.917-1.7,1.615,1.615,0,0,1,.952-0.6,0.255,0.255,0,0,1,.328.23,1.47,1.47,0,0,1-.676,1.08h0Zm-1.635,2.04a14.721,14.721,0,0,0,2.151-1.38,2.358,2.358,0,0,0,1.049-1.91,0.992,0.992,0,0,0-.377-0.75,1.105,1.105,0,0,0-.8-0.21,2.917,2.917,0,0,0-2.127,1.49,4.638,4.638,0,0,0-.807,3.06,2.809,2.809,0,0,0,.688,1.8,1.822,1.822,0,0,0,1.542.53,4.252,4.252,0,0,0,1.983-.7,11.238,11.238,0,0,0,1.874-1.84c0.065-.09.118-0.17,0.161-0.24a0.4,0.4,0,0,0,.054-0.22,0.478,0.478,0,0,0-.154-0.34,0.417,0.417,0,0,0-.3-0.1,0.584,0.584,0,0,0-.4.23,17.188,17.188,0,0,1-1.278,1.4,3.456,3.456,0,0,1-2,.91,0.932,0.932,0,0,1-.869-0.36,2.045,2.045,0,0,1-.37-1.1Zm12.8,1.28a0.919,0.919,0,0,0,.723.23,3.793,3.793,0,0,0,1.8-1.05,10.245,10.245,0,0,0,1.976-2.24,1.461,1.461,0,0,0,.482,1.05,1.482,1.482,0,0,0,1.127.3,2.059,2.059,0,0,0,.873-0.26,1.864,1.864,0,0,0,.677-0.66,0.476,0.476,0,0,0,.085-0.29,0.408,0.408,0,0,0-.141-0.29,0.379,0.379,0,0,0-.288-0.09,0.449,0.449,0,0,0-.326.2,1.418,1.418,0,0,1-.4.44,1.007,1.007,0,0,1-1.109.02,0.82,0.82,0,0,1-.3-0.64,2.432,2.432,0,0,1,.012-0.51,2.564,2.564,0,0,1,.105-0.49,5.594,5.594,0,0,0,.448-0.93,1.835,1.835,0,0,0,.156-0.74,0.5,0.5,0,0,0-.6-0.53,0.705,0.705,0,0,0-.6.55,5.389,5.389,0,0,0-.24,1.38,13.2,13.2,0,0,1-1.992,2.81,3.309,3.309,0,0,1-1.548,1.18c-0.287.02-.447-0.17-0.481-0.58a2.943,2.943,0,0,1,.128-0.98,11.3,11.3,0,0,1,.563-1.52c0.268-.62.54-1.23,0.816-1.85l0.024-.14a0.329,0.329,0,0,0-.174-0.25,0.5,0.5,0,0,0-.323-0.09,0.268,0.268,0,0,0-.258.16c-0.762,1.58-1.227,2.52-1.395,2.83a10.138,10.138,0,0,1-1.255,1.89,2.177,2.177,0,0,1-1.384.74c-0.132.01-.206-0.08-0.221-0.27a3.392,3.392,0,0,1,.206-1.13q0.236-.765.612-1.8c0.251-.7.492-1.32,0.724-1.87l0.037-.2a0.317,0.317,0,0,0-.419-0.28,0.329,0.329,0,0,0-.293.17,15.8,15.8,0,0,1-1.022,1.65,14.691,14.691,0,0,1-1.372,1.79,0.476,0.476,0,0,0-.151.36,0.36,0.36,0,0,0,.445.36,0.487,0.487,0,0,0,.278-0.13l0.6-.64a4.5,4.5,0,0,0-.416,1.98,0.745,0.745,0,0,0,.862.83,3.008,3.008,0,0,0,1.407-.46,4.691,4.691,0,0,0,1.251-1.27,1.9,1.9,0,0,0-.047.53A1.063,1.063,0,0,0,924.53,2014.88Zm21.962-1.64a5.022,5.022,0,0,0,.957-0.78,0.9,0.9,0,0,0,.3.62,0.821,0.821,0,0,0,.613.2,3.625,3.625,0,0,0,1.894-.91,9.793,9.793,0,0,0,1.518-1.54,0.7,0.7,0,0,0,.164-0.44,0.631,0.631,0,0,0-.076-0.26,0.361,0.361,0,0,0-.357-0.17,0.545,0.545,0,0,0-.416.22,10.514,10.514,0,0,1-1.323,1.38,2.873,2.873,0,0,1-1.244.81c-0.119.01-.187-0.09-0.2-0.28a4.321,4.321,0,0,1,.49-1.53c0.172-.39.382-0.85,0.629-1.37,0.058-.16.109-0.32,0.15-0.48a1.162,1.162,0,0,0,.05-0.38,0.363,0.363,0,0,0-.428-0.39,0.393,0.393,0,0,0-.306.13,2.85,2.85,0,0,0-.29.54,15.777,15.777,0,0,1-1.37,2.48c-0.7,1.03-1.306,1.56-1.82,1.6a0.7,0.7,0,0,1-.77-0.81,4.246,4.246,0,0,1,.807-2.74,5.134,5.134,0,0,1,4.123-2.15,0.788,0.788,0,0,0,.492-0.16,0.4,0.4,0,0,0,.118-0.33,0.449,0.449,0,0,0-.161-0.32,0.57,0.57,0,0,0-.433-0.09,6.281,6.281,0,0,0-4.691,2.26,4.953,4.953,0,0,0-1.119,3.57,2.214,2.214,0,0,0,.459,1.31,1.322,1.322,0,0,0,1.159.37A2.5,2.5,0,0,0,946.492,2013.24Zm10.468-6.63a12.141,12.141,0,0,1-1.133,1.84,9.775,9.775,0,0,1-1.063,1.35,0.35,0.35,0,0,0-.137.32,0.508,0.508,0,0,0,.172.35,0.5,0.5,0,0,0,.351.11,0.4,0.4,0,0,0,.275-0.15,16.21,16.21,0,0,0,1.151-1.53,10.806,10.806,0,0,0,1.127-2.06,4.473,4.473,0,0,0,1.244.22,9.73,9.73,0,0,1-.5,1.29c-0.3.68-.608,1.38-0.924,2.08a2.633,2.633,0,0,0-.191.53,1.691,1.691,0,0,0-.029.53,0.9,0.9,0,0,0,1.1.92,3.783,3.783,0,0,0,1.721-1.04,9.223,9.223,0,0,0,1.45-1.49,0.468,0.468,0,0,0,.086-0.28,0.4,0.4,0,0,0-.179-0.3,0.532,0.532,0,0,0-.362-0.11,0.418,0.418,0,0,0-.313.17,9.233,9.233,0,0,1-1.245,1.32,3.226,3.226,0,0,1-1.14.83c-0.144.01-.22-0.03-0.228-0.13a0.962,0.962,0,0,1,.032-0.28,3.009,3.009,0,0,1,.162-0.47c0.235-.54.471-1.08,0.707-1.61a7.248,7.248,0,0,0,.728-2.25,0.517,0.517,0,0,0-.31-0.48,1.106,1.106,0,0,0-.385-0.08q-0.255-.015-0.574-0.06c-0.213-.03-0.406-0.07-0.578-0.11a0.7,0.7,0,0,0-.776-0.66,0.675,0.675,0,0,0-.47.22,0.57,0.57,0,0,0-.161.46,0.761,0.761,0,0,0,.388.55h0Zm9.688-.79a11.665,11.665,0,0,1-1.133,1.84,9.675,9.675,0,0,1-1.064,1.35,0.352,0.352,0,0,0-.136.32,0.5,0.5,0,0,0,.172.35,0.454,0.454,0,0,0,.351.11,0.356,0.356,0,0,0,.275-0.14,16.515,16.515,0,0,0,1.151-1.54,10.515,10.515,0,0,0,1.127-2.06,4.468,4.468,0,0,0,1.244.22,9.73,9.73,0,0,1-.5,1.29c-0.3.68-.608,1.38-0.924,2.08a2.706,2.706,0,0,0-.192.53,1.723,1.723,0,0,0-.028.53,0.9,0.9,0,0,0,1.1.92,3.691,3.691,0,0,0,1.721-1.04,9.223,9.223,0,0,0,1.45-1.49,0.45,0.45,0,0,0,.086-0.28,0.4,0.4,0,0,0-.179-0.3,0.478,0.478,0,0,0-.362-0.1,0.389,0.389,0,0,0-.313.17,10.591,10.591,0,0,1-1.245,1.32,3.138,3.138,0,0,1-1.14.82c-0.144.01-.22-0.03-0.228-0.13a0.991,0.991,0,0,1,.031-0.28,3.145,3.145,0,0,1,.163-0.47c0.235-.54.471-1.08,0.707-1.61a7.248,7.248,0,0,0,.728-2.25,0.517,0.517,0,0,0-.31-0.48,1.4,1.4,0,0,0-.385-0.08q-0.255-.015-0.574-0.06c-0.213-.03-0.406-0.07-0.578-0.11a0.71,0.71,0,0,0-.776-0.66,0.675,0.675,0,0,0-.47.22,0.57,0.57,0,0,0-.161.46,0.744,0.744,0,0,0,.388.55h0Zm8.052,3.08a3.111,3.111,0,0,0-.152,1.24,0.85,0.85,0,0,0,1.045.86,3.665,3.665,0,0,0,1.9-1.06,12.19,12.19,0,0,0,1.345-1.45,0.4,0.4,0,0,0,.1-0.31,0.446,0.446,0,0,0-.161-0.32,0.4,0.4,0,0,0-.325-0.11,0.416,0.416,0,0,0-.31.19,9.4,9.4,0,0,1-1.323,1.38,3,3,0,0,1-1.154.8,0.2,0.2,0,0,1-.234-0.21,3.711,3.711,0,0,1,.195-0.94c0.14-.49.34-1.07,0.6-1.73q0.269-.69.722-1.77a1.115,1.115,0,0,0,.108-0.44,0.455,0.455,0,0,0-.149-0.29,0.4,0.4,0,0,0-.318-0.13,0.845,0.845,0,0,0-.591.5c-0.28.55-.561,1.1-0.842,1.64a4.93,4.93,0,0,1-1.018,1.47,0.459,0.459,0,0,0-.166.4,0.362,0.362,0,0,0,.149.27,0.385,0.385,0,0,0,.3.11Zm3.266-6.48a0.581,0.581,0,0,0,.322-0.47,0.887,0.887,0,0,0-.366-0.62,0.945,0.945,0,0,0-.679-0.24,0.677,0.677,0,0,0-.533.33,1.105,1.105,0,0,0-.161.69,0.555,0.555,0,0,0,.663.59A1.4,1.4,0,0,0,977.966,2002.42Zm4.9,4.99a4.635,4.635,0,0,0-.052,1.14,3.913,3.913,0,0,0,.328,1.36,0.688,0.688,0,0,0,.585.53,2.913,2.913,0,0,0,1.487-1.03,15.342,15.342,0,0,0,1.8-2.31,1.461,1.461,0,0,0,.482,1.05,1.482,1.482,0,0,0,1.127.3,2.055,2.055,0,0,0,.872-0.26,1.713,1.713,0,0,0,.678-0.66,0.468,0.468,0,0,0,.084-0.29,0.4,0.4,0,0,0-.14-0.29,0.38,0.38,0,0,0-.288-0.09,0.48,0.48,0,0,0-.326.2,1.314,1.314,0,0,1-.4.44,0.959,0.959,0,0,1-1.109.02,0.8,0.8,0,0,1-.3-0.63,2.6,2.6,0,0,1,.013-0.52,2.49,2.49,0,0,1,.1-0.49,5.674,5.674,0,0,0,.448-0.93,1.839,1.839,0,0,0,.156-0.74,0.5,0.5,0,0,0-.6-0.53,0.705,0.705,0,0,0-.6.55,5.3,5.3,0,0,0-.24,1.38,18.239,18.239,0,0,1-1.773,2.74,2.991,2.991,0,0,1-1.322,1.18c-0.132.01-.22-0.27-0.266-0.83a7.833,7.833,0,0,1,.059-1.71,9.063,9.063,0,0,1,.465-1.84c0.01-.02.054-0.12,0.131-0.28a0.825,0.825,0,0,0,.1-0.4,0.315,0.315,0,0,0-.167-0.29,0.885,0.885,0,0,0-.384-0.05,0.551,0.551,0,0,0-.367.37c-0.041.09-.1,0.24-0.164,0.43a8.41,8.41,0,0,1-.676,1.45,6.341,6.341,0,0,1-.841,1.21,0.567,0.567,0,0,0-.2.41,0.32,0.32,0,0,0,.129.26,0.424,0.424,0,0,0,.276.07,1.654,1.654,0,0,0,.169-0.04,0.67,0.67,0,0,0,.164-0.1,4.28,4.28,0,0,0,.55-0.78h0Zm12.853,1.82a5.022,5.022,0,0,0,.957-0.78,0.877,0.877,0,0,0,.3.62,0.789,0.789,0,0,0,.613.21,3.653,3.653,0,0,0,1.894-.92,9.567,9.567,0,0,0,1.522-1.54,0.741,0.741,0,0,0,.16-0.43,0.538,0.538,0,0,0-.08-0.27,0.37,0.37,0,0,0-.35-0.17,0.622,0.622,0,0,0-.42.22,9.735,9.735,0,0,1-1.322,1.38,2.873,2.873,0,0,1-1.244.81c-0.12.01-.187-0.08-0.2-0.28a4.213,4.213,0,0,1,.49-1.52c0.172-.4.382-0.85,0.628-1.38a4.918,4.918,0,0,0,.151-0.48,1.158,1.158,0,0,0,.05-0.38,0.353,0.353,0,0,0-.429-0.38,0.425,0.425,0,0,0-.305.12,2.791,2.791,0,0,0-.29.54,15.342,15.342,0,0,1-1.37,2.48,3.157,3.157,0,0,1-1.82,1.61,0.712,0.712,0,0,1-.77-0.81,4.218,4.218,0,0,1,.807-2.74,5.167,5.167,0,0,1,4.123-2.16,0.788,0.788,0,0,0,.492-0.16,0.4,0.4,0,0,0,.118-0.33,0.431,0.431,0,0,0-.161-0.31,0.57,0.57,0,0,0-.433-0.1,6.319,6.319,0,0,0-4.692,2.26,4.98,4.98,0,0,0-1.118,3.57,2.163,2.163,0,0,0,.459,1.31,1.321,1.321,0,0,0,1.158.37A2.377,2.377,0,0,0,995.721,2009.23Zm12.669-10.12a20.154,20.154,0,0,1-1.72,2.98c0.06-.31.12-0.64,0.19-0.97,0.32-.96.66-1.85,1.01-2.67a3.348,3.348,0,0,1,.89-1.53c0.06,0,.1.06,0.11,0.21A4.379,4.379,0,0,1,1008.39,1999.11Zm-3.68,7.24a4.316,4.316,0,0,0-.07,1.16,1.306,1.306,0,0,0,.31.82,0.89,0.89,0,0,0,.75.23,2.969,2.969,0,0,0,1.64-.92,20.469,20.469,0,0,0,1.42-1.58,0.43,0.43,0,0,0,.11-0.3,0.463,0.463,0,0,0-.17-0.31,0.47,0.47,0,0,0-.35-0.12,0.4,0.4,0,0,0-.28.17,10.588,10.588,0,0,1-1.33,1.41,2.909,2.909,0,0,1-1.1.76,0.334,0.334,0,0,1-.11-0.28,5,5,0,0,1,.11-1.13c0.05-.34.16-0.88,0.33-1.63a25.741,25.741,0,0,0,2.87-4.29,6.241,6.241,0,0,0,.86-3.16,1.806,1.806,0,0,0-.19-0.72,0.459,0.459,0,0,0-.46-0.25,2.27,2.27,0,0,0-1.61,1.34,15.587,15.587,0,0,0-1.25,3.06q-0.375,1.2-1.02,3.69c-0.27.35-.49,0.64-0.65,0.86-0.23.29-.4,0.5-0.5,0.62a0.448,0.448,0,0,0,.02.67,0.453,0.453,0,0,0,.34.11,0.413,0.413,0,0,0,.28-0.15Zm12.1-.87a7.664,7.664,0,0,1-.88.74,4.574,4.574,0,0,0,0-.91,8.512,8.512,0,0,0-.34-1.65,7.9,7.9,0,0,0-.69-1.62,2.417,2.417,0,0,0,.06-0.28,1.382,1.382,0,0,0,0-.29,0.6,0.6,0,0,0-.22-0.48,0.652,0.652,0,0,0-.47-0.11,0.6,0.6,0,0,0-.69.67,0.653,0.653,0,0,0,.13.34,2.372,2.372,0,0,0,.23.3,10.772,10.772,0,0,1-.95,1.34c-0.45.57-.9,1.13-1.33,1.68a0.391,0.391,0,0,0-.1.31,0.414,0.414,0,0,0,.16.31,0.42,0.42,0,0,0,.32.11,0.463,0.463,0,0,0,.31-0.17c0.27-.34.66-0.82,1.17-1.45,0.41-.53.72-0.95,0.92-1.25a7.437,7.437,0,0,1,.55,2.34,4.878,4.878,0,0,1,.02.84,2.937,2.937,0,0,1-.07.52,1.558,1.558,0,0,1-.75.26,7.325,7.325,0,0,1-.96-0.04,7.955,7.955,0,0,0-.87-0.03,0.46,0.46,0,0,0-.5.54,0.432,0.432,0,0,0,.13.32,0.7,0.7,0,0,0,.3.14,5.424,5.424,0,0,0,4.13-.97,7.787,7.787,0,0,0,1.74-1.7,0.381,0.381,0,0,0,.11-0.29,0.466,0.466,0,0,0-.17-0.33,0.447,0.447,0,0,0-.34-0.1,0.407,0.407,0,0,0-.29.17,9.255,9.255,0,0,1-.66.74h0Z" transform="translate(-772.563 -1906.66)"/>
</svg>
