<svg xmlns="http://www.w3.org/2000/svg" width="199" height="40.844" viewBox="0 0 199 40.844">
  <defs>
    <style>
      .cls-1 {
        fill: #4cd0a0;
        fill-rule: evenodd;
      }
    </style>
  </defs>
  <path id="tit_daiary.svg" class="cls-1" d="M8238.13,696.416a1.335,1.335,0,0,0-.64-0.828l-1.47-1.15a1.506,1.506,0,0,0-.83-0.46,1.317,1.317,0,0,0-.92.644l-0.78,1.012H8217.8l-4.05-1.932a13.278,13.278,0,0,1,.55,2.622c0.05,0.736.23,7.453,0.23,11.087v3.313c0,8.971,0,13.571-.18,16.884,0,0.322-.14,1.794-0.14,2.116a0.949,0.949,0,0,0,.97,1.2,2.688,2.688,0,0,0,1.84-.874,2.6,2.6,0,0,0,.46-1.794,3.136,3.136,0,0,0-.19-1.15h16.75v0.736c0,1.1.09,2.162,1.33,2.162a1.587,1.587,0,0,0,1.71-1.794c0-.046-0.51-13.664-0.51-16.24V698.072c0.14-.184,1.1-0.92,1.29-1.1A0.8,0.8,0,0,0,8238.13,696.416Zm-4.09,13.664h-16.79V696.738h16.79V710.08Zm0,15.918h-16.79V711.184h16.79V726Zm-26.68-31.468a0.693,0.693,0,0,0-.55-0.644l-4.7-1.38a44.138,44.138,0,0,1,.97,9.339c0.09,3.036.09,11.639,0.09,17.9,0,1.472-.37,9.707-0.37,10.857a0.933,0.933,0,0,0,1.06,1.1,2.1,2.1,0,0,0,1.75-.92,2.5,2.5,0,0,0,.32-1.61c0-1.288-.18-7.591-0.18-9.017-0.23-16.01-.23-17.022-0.23-19.874,0-2.761.04-3.175,0.09-4.233C8206.62,695.5,8207.36,695.082,8207.36,694.53Zm84.96,0.966a1.041,1.041,0,0,0-.46-0.644l-1.42-1.242a1.7,1.7,0,0,0-.83-0.46,1.467,1.467,0,0,0-.88.506l-0.96.92h-28.85l-3.26-1.656c0,0.322.18,2.024,0.18,2.392,0,0.092.18,2.208,0.18,12.007,0,2.439-.04,15.734-0.36,22.543,0,0.322-.19,1.886-0.19,2.254a0.854,0.854,0,0,0,.97,1.012,2.155,2.155,0,0,0,1.98-1.2,14.117,14.117,0,0,0,0-1.84h29.72v1.7a0.861,0.861,0,0,0,.96,1.012,1.886,1.886,0,0,0,1.93-1.932c0-.828-0.23-10.949-0.27-13.019-0.05-3.727-.05-16.332-0.05-20.841C8291.36,696.554,8292.32,695.864,8292.32,695.5Zm-4.14,33.492h-29.76V695.68h29.76v33.308Zm-4.37-3.773c0-2.392-5.1-4.048-6.58-4.508a20.89,20.89,0,0,0,4.01-1.564,3.382,3.382,0,0,0,.92.138,0.666,0.666,0,0,0,.78-0.552,1.124,1.124,0,0,0-.32-0.6l-2.03-1.7a13.474,13.474,0,0,1-4,4.1c-0.64-.184-1.15-0.322-2.53-0.644-0.05-1.472-.05-3.221-0.05-4.693h4.88a0.64,0.64,0,0,0,.74.874c0.27,0,1.51-.322,1.56-1.15,0.05-.46-0.05-3.542-0.05-4.186a2.391,2.391,0,0,0,1.11-1.012,0.77,0.77,0,0,0-.37-0.552l-1.29-1.151a1.271,1.271,0,0,0-.64-0.414,0.927,0.927,0,0,0-.6.46l-0.51.507h-11.82l-2.35-.829a8.995,8.995,0,0,1,.33,2.255c0,0.414-.05,1.748-0.1,3.22,0,0.368-.09,2.3-0.09,2.714a0.7,0.7,0,0,0,.78.828,2.207,2.207,0,0,0,1.34-.69,1.035,1.035,0,0,0,.18-0.874h3.64a38.46,38.46,0,0,1-10.86,9.8l0.14,0.276a27.23,27.23,0,0,0,11.91-8.372c-0.04,1.334-.09,3.726-0.14,5.382,0,0.644-.18,3.681-0.18,4.371a0.812,0.812,0,0,0,.64.966,2.1,2.1,0,0,0,1.94-1.932c0-.783-0.14-4.555-0.14-5.429a19.845,19.845,0,0,1,6.81,4.738c1.1,1.2,1.29,1.381,1.88,1.381A1.119,1.119,0,0,0,8283.81,725.215Zm-4.87-11.133h-11.83v-4.416h11.83v4.416Zm7.13-8.465a0.918,0.918,0,0,0-.51-0.69l-1.29-1.1a1.752,1.752,0,0,0-.83-0.506,1.312,1.312,0,0,0-.78.552l-1.1,1.15h-7.55v-3.542h8.33a0.552,0.552,0,0,0,.69-0.46,0.734,0.734,0,0,0-.46-0.644l-1.24-.92a1.132,1.132,0,0,0-.83-0.415,1.178,1.178,0,0,0-.74.507l-0.82.828h-4.93v-1.105c0.83-.552,1.25-0.828,1.25-1.288,0-.322-0.19-0.368-0.6-0.46l-3.45-.736a22.375,22.375,0,0,1,.59,3.589h-2.16c-2.57,0-5.1-.138-7.68-0.322l1.1,1.978a35.215,35.215,0,0,1,5.94-.552h2.85v3.542h-4.37c-2.53,0-5.11-.138-7.64-0.368l1.06,1.978a35.649,35.649,0,0,1,5.94-.506h18.49C8285.7,706.123,8286.07,706.031,8286.07,705.617Zm53.82-8a1.118,1.118,0,0,0-.56-0.874l-1.74-1.518a1.347,1.347,0,0,0-.74-0.414,1.543,1.543,0,0,0-.87.506l-1.34,1.2h-16.79l-3.91-2.116c0.6,1.932.78,2.9,0.78,15.09,0,3.128-.09,14.675-0.37,18.632-0.04.414-.23,2.346-0.23,2.806a1.067,1.067,0,0,0,1.15,1.2,2.089,2.089,0,0,0,1.8-1.2,5.718,5.718,0,0,0,.09-2.07h18.26c0,0.23-.09,1.886-0.09,2.024a0.964,0.964,0,0,0,1.06,1.15,1.836,1.836,0,0,0,1.93-1.932c0-.46-0.18-2.576-0.18-3.082-0.19-6.119-.32-22.267-0.14-27.788C8338.97,698.624,8339.89,698.118,8339.89,697.612Zm-4.42,13.986h-18.31V697.612h18.31V711.6Zm0,16.148h-18.31V712.7h18.31v15.044Zm41.26-8.879a1.4,1.4,0,0,0-.51-0.644l-1.79-1.242a1.71,1.71,0,0,0-.55-0.231,1.042,1.042,0,0,0-.55.461l-0.69.966h-7.55l-3.08-1.887a27.355,27.355,0,0,1,.41,5.245c0,3.22-.18,6.671-0.27,8.281,0,0.368-.19,2.208-0.19,2.622,0,0.276,0,.874,1.01.874,0.79,0,1.85-.46,1.85-1.38v-2.668h8.05c-0.05,1.656-.05,2.07.87,2.07a1.813,1.813,0,0,0,1.61-.92,14.643,14.643,0,0,0,.09-2.208c0-1.15-.09-6.717-0.09-7.959A3.926,3.926,0,0,0,8376.73,718.867Zm-3.86,9.293h-8.05v-8.879h8.05v8.879Zm28.24-.046a1.4,1.4,0,0,0-.64-1.058c-1.2-1.334-1.38-5.429-1.47-7.407h-0.37c-1.11,5.658-1.57,8-2.95,8.419-0.96.322-1.47,0.322-10.67,0.322-1.79,0-1.79-.23-1.79-5.613,0-2.07.18-12.789,0.18-12.881h10.67c0,0.092-.04.46-0.04,0.552a0.892,0.892,0,0,0,1.06,1.058,1.905,1.905,0,0,0,1.93-1.7c0-.414-0.19-2.531-0.19-2.991-0.18-3.266-.18-6.532-0.13-9.753,1.42-.69,1.56-0.736,1.56-1.15a1.07,1.07,0,0,0-.51-0.782l-1.84-1.288a1.462,1.462,0,0,0-.78-0.322,0.946,0.946,0,0,0-.73.414l-1.25,1.472h-6.25c-0.88,0-4.23-.092-7.69-0.368l1.11,1.978a37.852,37.852,0,0,1,5.93-.506h7.82v12.284h-10.21l-3.13-1.979c0.23,1.979.23,7.269,0.23,9.477,0,1.2-.14,7.223-0.14,8.557,0,4.233,0,5.521,2.77,5.889,1.15,0.138,7.31.184,8.83,0.184,4.55,0,6.16,0,7.5-1.15A3.108,3.108,0,0,0,8401.11,728.114Zm-24.33-33.4a1.023,1.023,0,0,0-.42-0.69l-1.33-1.1a1.37,1.37,0,0,0-.83-0.46,1.134,1.134,0,0,0-.74.552l-1.05,1.1h-7c-0.69,0-2.44-.092-3.26-0.184l0.46,1.518a15.577,15.577,0,0,1,2.53-.23h10.95C8376.5,695.22,8376.78,695.082,8376.78,694.714Zm1.93,6.027a1.154,1.154,0,0,0-.46-0.736l-1.7-1.335a2.215,2.215,0,0,0-.88-0.506,1.156,1.156,0,0,0-.69.6l-1.1,1.335h-7.41c-0.87,0-4.19-.046-7.64-0.322l1.06,1.978a33.612,33.612,0,0,1,5.94-.552h12.14C8378.29,701.2,8378.71,701.155,8378.71,700.741Zm-2.3,5.8a0.935,0.935,0,0,0-.42-0.69l-1.38-1.2a1.946,1.946,0,0,0-.82-0.506,1.18,1.18,0,0,0-.74.6l-0.83,1.2h-7.08c-0.69,0-2.44-.138-3.27-0.184l0.46,1.518a15.782,15.782,0,0,1,2.53-.23h10.86C8376.13,707.043,8376.41,706.905,8376.41,706.537Zm-0.19,5.659a0.83,0.83,0,0,0-.46-0.69l-1.24-1.058a1.654,1.654,0,0,0-.83-0.46,0.994,0.994,0,0,0-.73.6l-0.88,1.012h-7.31c-0.69,0-2.44-.138-3.27-0.184l0.46,1.518a15.782,15.782,0,0,1,2.53-.23h11.04C8375.99,712.7,8376.22,712.564,8376.22,712.2Z" transform="translate(-8202.13 -692.469)"/>
</svg>
