<svg id="icon_youtube.svg" xmlns="http://www.w3.org/2000/svg" width="57.6" height="35.25" viewBox="0 0 57.6 35.25">
  <defs>
    <style>
      .cls-1 {
        fill: #fefefe;
        stroke: #fff;
        stroke-width: 0.5px;
      }

      .cls-1, .cls-2 {
        fill-rule: evenodd;
      }

      .cls-2 {
        fill: #fff;
      }
    </style>
  </defs>
  <path id="YouTube" class="cls-1" d="M1340.3,253.04v-0.413h-3.2v0.413h0.57a0.6,0.6,0,0,1,.73.462,1.589,1.589,0,0,1-.18.575l-2.01,3.574-2.02-3.637a1.307,1.307,0,0,1-.19-0.537,0.6,0.6,0,0,1,.72-0.437h0.3v-0.413h-3.23v0.413h0.2a1.465,1.465,0,0,1,1.21.862l2.39,4.274v2.262a0.828,0.828,0,0,1-.88.912h-0.65v0.4h3.84v-0.4h-0.65a0.827,0.827,0,0,1-.88-0.912v-2.262l2.32-4.124A1.65,1.65,0,0,1,1340.3,253.04Zm7.29,5.748a2.773,2.773,0,1,0-2.74,3.2A3,3,0,0,0,1347.59,258.788Zm-0.85,0c0,1.6-.73,2.824-1.89,2.824-1.24,0-1.89-1.337-1.89-2.811s0.65-2.825,1.89-2.825C1346.11,255.976,1346.74,257.364,1346.74,258.788Zm8.83,2.962v-0.4h-0.25a0.561,0.561,0,0,1-.61-0.6v-5.211l-1.9.475,0.1,0.275a2.558,2.558,0,0,1,.54-0.088,0.506,0.506,0,0,1,.51.55v3.7a3.081,3.081,0,0,1-2,.9,1.13,1.13,0,0,1-1.17-1.3v-4.511l-1.63.4,0.09,0.275a2.364,2.364,0,0,1,.39-0.038,0.437,0.437,0,0,1,.42.513v3.486a1.688,1.688,0,0,0,1.69,1.812,3.566,3.566,0,0,0,2.21-1.2v0.962h1.61Zm10.28-6.786-0.93-2.337h-6.76l-0.92,2.337,0.31,0.163c0.54-.9,1.27-2.087,2.64-2.087a0.836,0.836,0,0,1,.96.912v6.486a0.828,0.828,0,0,1-.88.912h-0.61v0.4h3.8v-0.4h-0.65a0.82,0.82,0,0,1-.87-0.912v-6.486a0.834,0.834,0,0,1,.95-0.912c1.38,0,2.1,1.187,2.65,2.087Zm8.04,6.786v-0.4h-0.25a0.564,0.564,0,0,1-.62-0.6v-5.211l-1.9.475,0.1,0.275a2.558,2.558,0,0,1,.54-0.088,0.506,0.506,0,0,1,.51.55v3.7a3.062,3.062,0,0,1-2,.9,1.135,1.135,0,0,1-1.17-1.3v-4.511l-1.62.4,0.08,0.275a2.451,2.451,0,0,1,.39-0.038,0.437,0.437,0,0,1,.42.513v3.486a1.688,1.688,0,0,0,1.69,1.812,3.566,3.566,0,0,0,2.21-1.2v0.962h1.62Zm7.63-2.912a3.667,3.667,0,0,0-.85-2.587,2.208,2.208,0,0,0-1.57-.65,2.473,2.473,0,0,0-2,1.063v-4.249l-1.77.512,0.06,0.275a2.056,2.056,0,0,1,.42-0.075,0.538,0.538,0,0,1,.56.662v8.2h0.2l0.53-1.037a2.661,2.661,0,0,0,1.97,1.037C1380.2,261.987,1381.52,261.062,1381.52,258.838Zm-0.86-.025c0,1.862-1.05,2.662-1.82,2.662a2.457,2.457,0,0,1-1.74-1.112v-3.125a2.1,2.1,0,0,1,1.76-1.1C1380.32,256.139,1380.66,257.763,1380.66,258.813Zm8.11,1.775-0.28-.238a2.387,2.387,0,0,1-1.95,1.162c-0.24,0-2.24-.05-2.15-3.036h4.32a3.608,3.608,0,0,0-.55-1.775,2.265,2.265,0,0,0-2.01-1.1c-1.81,0-2.66,1.6-2.66,3.2,0,1.087.45,3.186,2.78,3.186A2.88,2.88,0,0,0,1388.77,260.588Zm-1.02-2.525h-3.34c0.09-.575.3-2.087,1.71-2.087C1386.89,255.976,1387.66,256.451,1387.75,258.063Z" transform="translate(-1331.53 -227)"/>
  <path id="シェイプ_3" data-name="シェイプ 3" class="cls-2" d="M1367.09,243.673s-4.49.327-8.59,0.327-7.21-.327-7.21-0.327A3.278,3.278,0,0,1,1348,240.4l-0.53-5.4,0.53-4.4a3.278,3.278,0,0,1,3.29-3.269s3.1-.327,7.21-0.327,8.59,0.327,8.59.327a3.276,3.276,0,0,1,3.28,3.269L1371,236l-0.63,4.4A3.276,3.276,0,0,1,1367.09,243.673Zm-10.55-12.75V239.1l7.28-3.6Z" transform="translate(-1331.53 -227)"/>
</svg>
