<svg id="icon_pdf.svg" xmlns="http://www.w3.org/2000/svg" width="29" height="29" viewBox="0 0 28 29">
  <defs>
    <style>
      .cls-1, .cls-2 {
        fill: #fff;
      }

      .cls-1, .cls-2, .cls-3, .cls-4 {
        fill-rule: evenodd;
      }

      .cls-2, .cls-4 {
        stroke: #4cd0a0;
      }

      .cls-2 {
        stroke-width: 1px;
      }

      .cls-3, .cls-4 {
        fill: #4cd0a0;
      }

      .cls-4 {
        stroke-width: 0.2px;
      }
    </style>
  </defs>
  <path id="多角形_669" data-name="多角形 669" class="cls-1" d="M6322.37,3321.62l2.99-11.14,8.15,8.16Z" transform="translate(-6306 -3309)"/>
  <path id="長方形_661" data-name="長方形 661" class="cls-2" d="M6306.5,3309.5h18.1l-0.1,8,9,0.1v19.9h-27v-28Z" transform="translate(-6306 -3309)"/>
  <path id="長方形_664" data-name="長方形 664" class="cls-3" d="M6324.13,3309.5l9.37,8.28-0.63.72-9.38-8.28Z" transform="translate(-6306 -3309)"/>
  <path id="PDF" class="cls-4" d="M6313.9,3326.37a1.615,1.615,0,0,1,.19,1.33,1.026,1.026,0,0,1-.58.79,2.837,2.837,0,0,1-1.23.08l0.03-1.12a6.154,6.154,0,0,1,.1-1.38,0.366,0.366,0,0,1,.4-0.25A1.226,1.226,0,0,1,6313.9,3326.37Zm-1.22,5.18a0.651,0.651,0,0,1-.4-0.16,3.554,3.554,0,0,1-.05-1.03,4.759,4.759,0,0,1,.09-1.14,0.284,0.284,0,0,1,.17-0.17,1.84,1.84,0,0,1,.51-0.01,1.95,1.95,0,0,0,1-.19,1.607,1.607,0,0,0,.69-0.65,2.054,2.054,0,0,0,.01-1.83,1.348,1.348,0,0,0-.74-0.62,6.242,6.242,0,0,0-1.73-.18,7.162,7.162,0,0,0-1.53.01c-0.12.1-.06,0.19,0.19,0.27a1.221,1.221,0,0,1,.47.2,23.4,23.4,0,0,1,.12,2.57c0.02,1.12.03,1.83,0.02,2.12a0.91,0.91,0,0,1-.14.58,0.568,0.568,0,0,1-.45.21,0.226,0.226,0,0,0-.27.24,0.2,0.2,0,0,0,.06.18,0.3,0.3,0,0,0,.21-0.01,3.431,3.431,0,0,1,.87-0.06c0.5-.01.84-0.02,1.02-0.04,0.22-.02.31-0.05,0.27-0.11A0.589,0.589,0,0,0,6312.68,3331.55Zm6.06-2.73c-0.03-1.4-.03-2.34,0-2.8a0.2,0.2,0,0,1,.18-0.16,2.276,2.276,0,0,1,.56.02,2.579,2.579,0,0,1,.64.12,1.061,1.061,0,0,1,.41.33,2.009,2.009,0,0,1,.5.93,6.587,6.587,0,0,1,.12,1.57,3.62,3.62,0,0,1-.55,2.22,2.175,2.175,0,0,1-1.83.48C6318.78,3331.13,6318.77,3330.23,6318.74,3328.82Zm-1.36,3.03c0.18,0.01.62,0.01,1.32-.01a5.885,5.885,0,0,0,2.06-.29,2.411,2.411,0,0,0,.94-1.19,4.2,4.2,0,0,0,.27-1.68,4.247,4.247,0,0,0-.28-1.68,3.408,3.408,0,0,0-.48-0.79,2.328,2.328,0,0,0-.59-0.53,6.568,6.568,0,0,0-1.75-.19,4.955,4.955,0,0,0-1.66.04c-0.1.14-.11,0.22-0.04,0.24s0.18,0.04.33,0.07a0.327,0.327,0,0,1,.26.12,8.844,8.844,0,0,1,.12,1.21q0.06,0.975.09,2.34c0.02,0.91.04,1.46,0.05,1.66a1.776,1.776,0,0,1-.71.36,0.165,0.165,0,0,0-.19.19C6317.12,3331.79,6317.2,3331.83,6317.38,3331.85Zm6.92-6.21c-0.1.09-.13,0.17-0.08,0.22a0.548,0.548,0,0,0,.39.1l0.41,0.03q0,0.9.03,2.67c0.02,1.18.03,2.06,0.03,2.65l-0.31.07a2.9,2.9,0,0,0-.44.11c-0.12.04-.15,0.1-0.07,0.17a3.221,3.221,0,0,0,1.32.08,2.369,2.369,0,0,0,1.25-.18c0.02-.04.01-0.06-0.04-0.08a0.69,0.69,0,0,0-.2-0.04c-0.1-.01-0.18-0.02-0.25-0.02h-0.48a19.038,19.038,0,0,1,.08-2.73,1.006,1.006,0,0,1,.83.25,0.945,0.945,0,0,1,.31.82c0,0.14.03,0.21,0.1,0.21a1.33,1.33,0,0,0,.09-0.43c0.03-.29.05-0.62,0.07-1s0.03-.71.02-0.97v-0.1a0.4,0.4,0,0,0-.18-0.4c-0.07-.01-0.1.08-0.1,0.26a1.246,1.246,0,0,1-.93.96,0.245,0.245,0,0,1-.25-0.14,5.377,5.377,0,0,1-.09-0.83,5.23,5.23,0,0,1,0-1.16,0.727,0.727,0,0,1,.8-0.31,1.4,1.4,0,0,1,1.02.32,1.938,1.938,0,0,1,.39.83,2.76,2.76,0,0,0,.18.46c0.04,0.07.07,0.11,0.1,0.1a8.127,8.127,0,0,0,.11-2.03,34.539,34.539,0,0,0-4.11.11h0Z" transform="translate(-6306 -3309)"/>
</svg>
