<svg id="icon_instagram.svg" xmlns="http://www.w3.org/2000/svg" width="67.41" height="39.031" viewBox="0 0 67.41 39.031">
  <defs>
    <style>
      .cls-1 {
        fill: #fefefe;
        stroke: #fff;
        stroke-width: 0.5px;
      }

      .cls-1, .cls-2 {
        fill-rule: evenodd;
      }

      .cls-2 {
        fill: #fff;
      }
    </style>
  </defs>
  <path id="Instagram" class="cls-1" d="M1250.7,261.75v-0.4h-0.66a0.828,0.828,0,0,1-.88-0.912v-6.486a0.82,0.82,0,0,1,.88-0.912h0.66v-0.413h-3.9v0.413h0.68a0.82,0.82,0,0,1,.87.912v6.486a0.824,0.824,0,0,1-.87.912h-0.68v0.4h3.9Zm8.32,0v-0.4h-0.32c-0.54,0-.66-0.35-0.66-0.912v-3.012a1.622,1.622,0,0,0-1.67-1.825,3.106,3.106,0,0,0-2.16,1.213v-1.263l-1.62.488,0.06,0.262a1.471,1.471,0,0,1,.36-0.05,0.524,0.524,0,0,1,.46.563v3.624c0,0.537-.15.912-0.69,0.912h-0.24v0.4h2.73v-0.4h-0.32a0.74,0.74,0,0,1-.74-0.912v-3.1a2.963,2.963,0,0,1,1.95-1.162,1.2,1.2,0,0,1,1.15,1.425v2.837c0,0.537-.15.912-0.71,0.912h-0.31v0.4h2.73Zm6.63-1.562c0-1.3-1.2-1.662-2.13-1.887-1.15-.288-1.83-0.45-1.83-1.187a1.161,1.161,0,0,1,1.16-1.175c1.02,0,1.81,1,2.27,1.587l0.25-.113-0.76-1.812a1.048,1.048,0,0,1-.6.238,1.184,1.184,0,0,1-.41-0.088,2.176,2.176,0,0,0-.81-0.15,1.658,1.658,0,0,0-1.76,1.725c0,1.037.81,1.4,2.04,1.737,1.18,0.312,1.84.5,1.84,1.3a1.172,1.172,0,0,1-1.25,1.187,2.6,2.6,0,0,1-1.66-.7,3.3,3.3,0,0,1-.79-1.025l-0.33.15,0.75,2.012a2.024,2.024,0,0,1,.79-0.3,1.248,1.248,0,0,1,.4.1,2.673,2.673,0,0,0,.95.2A1.774,1.774,0,0,0,1265.65,260.188Zm6.24,0.825-0.22-.213a1.487,1.487,0,0,1-1.22.65,0.852,0.852,0,0,1-.95-0.95v-4.261h2.07v-0.4h-2.07v-2.062h-0.3V254.3a1.915,1.915,0,0,1-.69,1.3,1.3,1.3,0,0,1-.84.238v0.4h1.07v4.224a1.276,1.276,0,0,0,1.33,1.524A2.392,2.392,0,0,0,1271.89,261.013Zm7.53,0.212-0.12-.087a0.42,0.42,0,0,1-.43.25,0.513,0.513,0,0,1-.55-0.6V257.1c0-1.175-.95-1.5-2.01-1.5-1.21,0-2.35.563-2.35,1.325a0.556,0.556,0,0,0,.56.55,0.641,0.641,0,0,0,.59-0.712,1,1,0,0,1,1.11-.788,1.471,1.471,0,0,1,1.02.35,1.31,1.31,0,0,1,.33.95V258.1a7.445,7.445,0,0,0-3.03,1.162,1.826,1.826,0,0,0-.8,1.387c0,0.738.56,1.337,1.71,1.337a3.074,3.074,0,0,0,2.12-1.062,0.892,0.892,0,0,0,.83,1.062A1.124,1.124,0,0,0,1279.42,261.225Zm-1.85-.725a2.765,2.765,0,0,1-1.9.975,0.946,0.946,0,0,1-1.05-.862,1.787,1.787,0,0,1,.74-1.175,5.029,5.029,0,0,1,2.21-.962V260.5Zm10.1-4.424a0.663,0.663,0,0,0-.72-0.612,1.75,1.75,0,0,0-1.19.75,2.679,2.679,0,0,0-1.67-.613,2.289,2.289,0,0,0-2.37,2.237,2,2,0,0,0,1.13,1.862,1.3,1.3,0,0,0-1.09.938c0,0.5.55,0.65,1.16,0.774-0.91.3-1.77,0.613-1.77,1.263,0,1,1.82,1.112,2.84,1.112,2.27,0,3.16-.712,3.16-1.487,0-1.112-1.53-1.262-2.48-1.35-0.86-.075-1.95-0.175-1.95-0.625a0.6,0.6,0,0,1,.49-0.487,2.681,2.681,0,0,0,.9.162,2.22,2.22,0,0,0,2.38-2.187,2.037,2.037,0,0,0-.5-1.362,0.631,0.631,0,0,1,.4-0.2,0.461,0.461,0,0,1,.31.15,0.817,0.817,0,0,0,.49.213A0.5,0.5,0,0,0,1287.67,256.076Zm-1.97,1.7a1.663,1.663,0,0,1-1.6,1.849,1.554,1.554,0,0,1-1.51-1.774,1.648,1.648,0,0,1,1.48-1.875A1.617,1.617,0,0,1,1285.7,257.776Zm0.62,4.686c0,0.837-1.35.95-2.23,0.95-0.82,0-2.09-.125-2.09-0.862,0-.613,1.15-0.875,1.76-1.013l0.71,0.075C1285.5,261.725,1286.32,261.825,1286.32,262.462Zm7.85-6.223a0.681,0.681,0,0,0-.72-0.638c-0.95,0-1.8,1.063-2.3,1.7v-1.762l-1.86.612,0.08,0.275a2.408,2.408,0,0,1,.54-0.1,0.549,0.549,0,0,1,.51.675v3.437a0.822,0.822,0,0,1-.87.912h-0.29v0.4h3.18v-0.4h-0.42a0.824,0.824,0,0,1-.87-0.912v-2.412c0.45-.837.91-1.525,1.71-1.525a0.447,0.447,0,0,1,.38.175,0.492,0.492,0,0,0,.36.138A0.571,0.571,0,0,0,1294.17,256.239Zm7.75,4.986-0.12-.087a0.42,0.42,0,0,1-.43.25,0.513,0.513,0,0,1-.55-0.6V257.1c0-1.175-.95-1.5-2.01-1.5-1.21,0-2.35.563-2.35,1.325a0.556,0.556,0,0,0,.56.55,0.641,0.641,0,0,0,.59-0.712,1,1,0,0,1,1.11-.788,1.471,1.471,0,0,1,1.02.35,1.31,1.31,0,0,1,.33.95V258.1a7.445,7.445,0,0,0-3.03,1.162,1.826,1.826,0,0,0-.8,1.387c0,0.738.56,1.337,1.71,1.337a3.074,3.074,0,0,0,2.12-1.062,0.892,0.892,0,0,0,.83,1.062A1.124,1.124,0,0,0,1301.92,261.225Zm-1.85-.725a2.765,2.765,0,0,1-1.9.975,0.946,0.946,0,0,1-1.05-.862,1.787,1.787,0,0,1,.74-1.175,5.029,5.029,0,0,1,2.21-.962V260.5Zm13.64,1.25v-0.4h-0.3c-0.43,0-.63-0.275-0.63-0.912v-3.012a1.645,1.645,0,0,0-1.71-1.825,3.156,3.156,0,0,0-2.18,1.25,1.476,1.476,0,0,0-1.58-1.25,3.135,3.135,0,0,0-2.09,1.013v-1.063l-1.65.488,0.07,0.262a1.374,1.374,0,0,1,.36-0.05,0.524,0.524,0,0,1,.46.563v3.624c0,0.537-.15.912-0.7,0.912h-0.22v0.4h2.65v-0.4h-0.2a0.759,0.759,0,0,1-.77-0.912v-3.349a2.348,2.348,0,0,1,1.78-.913,1.077,1.077,0,0,1,1.2,1.287v2.975c0,0.549-.16.912-0.71,0.912h-0.28v0.4h2.8v-0.4h-0.29a0.748,0.748,0,0,1-.76-0.912v-3.112a2.6,2.6,0,0,1,1.95-1.15,1.059,1.059,0,0,1,1.13,1.2v3.062a0.727,0.727,0,0,1-.72.912h-0.28v0.4h2.67Z" transform="translate(-1246.56 -225)"/>
  <path id="シェイプ_2" data-name="シェイプ 2" class="cls-2" d="M1290.8,240.8a6,6,0,0,1-6,6s-2.4.2-4.8,0.2-4.8-.2-4.8-0.2a6,6,0,0,1-6-6s-0.2-2.4-.2-4.8,0.2-4.8.2-4.8a6,6,0,0,1,6-6s2.4-.2,4.8-0.2,4.8,0.2,4.8.2a6,6,0,0,1,6,6s0.2,2.392.2,4.8C1291,238.392,1290.8,240.8,1290.8,240.8ZM1289,231a4,4,0,0,0-4-4h-9.8a4,4,0,0,0-4,4s-0.2,2.487-.2,5c0,2.585.2,5.2,0.2,5.2a4,4,0,0,0,4,4h9.8a4,4,0,0,0,4-4s0.2-2.615.2-5.2C1289.2,233.486,1289,231,1289,231Zm-3.1.6a1.3,1.3,0,1,1,1.3-1.3A1.3,1.3,0,0,1,1285.9,231.6Zm-5.9,10a5.6,5.6,0,1,1,5.6-5.6A5.6,5.6,0,0,1,1280,241.6Zm0-9.2a3.6,3.6,0,1,0,3.6,3.6A3.6,3.6,0,0,0,1280,232.4Z" transform="translate(-1246.56 -225)"/>
</svg>
