<svg xmlns="http://www.w3.org/2000/svg" width="238.469" height="36.063" viewBox="0 0 238.469 36.063">
  <defs>
    <style>
      .cls-1 {
        fill: #bd1818;
        fill-rule: evenodd;
      }
    </style>
  </defs>
  <path id="logo-ja.svg" class="cls-1" d="M763.641,571.253V560.334h21.4v10.919h-21.4Zm21.4-21.917v10h-21.4v-10h21.4Zm-21.357-1.2c-0.68-.28-1.24-0.6-1.84-0.88a0.46,0.46,0,0,0-.72.48v27.356a0.571,0.571,0,0,0,.64.64H763a0.571,0.571,0,0,0,.64-0.64v-2.84h21.4v2.28a0.571,0.571,0,0,0,.64.64h1.239a0.544,0.544,0,0,0,.6-0.64V550.1l1.16-.68a0.561,0.561,0,0,0,.32-0.44c0-.4-0.72-1.2-2.159-2.36a0.544,0.544,0,0,0-.88.08l-1.36,1.64H770.68A36.871,36.871,0,0,0,774.2,542.7c1.12-.24,1.64-0.52,1.64-0.84q0-.72-3.359-1.44a0.575,0.575,0,0,0-.76.48,42.932,42.932,0,0,1-2.4,7.439h-5.239Zm50.08,17.957a0.509,0.509,0,0,0-.68.44,10.759,10.759,0,0,1-3.679,5.439,1.783,1.783,0,0,0-.84,1.36,1.233,1.233,0,0,0,1.44,1.36,3.05,3.05,0,0,0,2.439-1.68,11.307,11.307,0,0,0,1.76-6.239A0.547,0.547,0,0,0,813.761,566.093Zm4.04,0c-0.24.12-.28,0.36-0.12,0.76a14.318,14.318,0,0,1,1.24,5.319c0.04,1.24.4,1.88,1.2,1.88,1,0,1.48-.6,1.48-1.84,0-1.8-1-3.759-3.039-5.959A0.591,0.591,0,0,0,817.8,566.093Zm5.4-.96a0.536,0.536,0,0,0,.04.8,12.667,12.667,0,0,1,2.559,4.52c0.32,1.079.76,1.6,1.4,1.6a1.248,1.248,0,0,0,1.4-1.4c0-1.68-1.52-3.52-4.6-5.52A0.555,0.555,0,0,0,823.2,565.133Zm6.319-1.039c-0.2.24-.12,0.48,0.2,0.759a9.681,9.681,0,0,1,2.919,4.2,1.415,1.415,0,0,0,1.32,1.2,1.223,1.223,0,0,0,1.32-1.44c0-1.64-1.68-3.24-4.959-4.8A0.631,0.631,0,0,0,829.519,564.094Zm-12.638-15.038v-3.28h17.957v3.28H816.881Zm17.957,4.479H816.881v-3.479h17.957v3.479Zm-17.677-8.758c-0.56-.28-1.2-0.56-1.92-0.88a0.46,0.46,0,0,0-.72.48v19.6a0.544,0.544,0,0,0,.6.64h1.12a0.571,0.571,0,0,0,.64-0.64v-0.88h22.636a20.421,20.421,0,0,1-1.279,7.519,2.587,2.587,0,0,1-2.56,1.839,30.672,30.672,0,0,1-4.839-.4c-0.44-.08-0.68.08-0.68,0.4a0.653,0.653,0,0,0,.56.68,18.769,18.769,0,0,1,3.679,1.04,1.775,1.775,0,0,1,.84.88,0.636,0.636,0,0,0,.68.52,5.086,5.086,0,0,0,2.68-.88c1.8-1.28,2.879-4.919,3.2-10.838l0.96-.68a0.639,0.639,0,0,0,.36-0.52c0-.28-0.64-0.92-1.88-1.92a0.544,0.544,0,0,0-.88.08l-1.12,1.28H816.881v-3.4H843.4a0.692,0.692,0,0,0,.68-0.28,0.671,0.671,0,0,0-.08-0.879,22.5,22.5,0,0,0-1.92-1.96,0.567,0.567,0,0,0-.88.04l-1.68,2.08H816.881v-3.2h17.957v0.76a0.53,0.53,0,0,0,.6.6h1.04a0.56,0.56,0,0,0,.64-0.6V546.5l0.84-.64a0.828,0.828,0,0,0,.36-0.56c0-.28-0.6-0.959-1.84-1.959a0.581,0.581,0,0,0-.92.08l-1.08,1.36H823.72a31.72,31.72,0,0,0,2.479-2.8c1.08-.16,1.64-0.4,1.64-0.72,0-.48-1.08-0.96-3.239-1.56a0.571,0.571,0,0,0-.8.48,23.809,23.809,0,0,1-1.52,4.6h-5.119ZM867,551.535c1.24-3.279,2.24-6.319,3-9.158,1.159-.2,1.719-0.48,1.719-0.84,0-.52-1.039-1.04-3.119-1.52a0.575,0.575,0,0,0-.76.48,72.654,72.654,0,0,1-7.479,21.4,0.543,0.543,0,0,0,.08.76,0.581,0.581,0,0,0,.88-0.2,58.783,58.783,0,0,0,4-7.039v19.677a0.571,0.571,0,0,0,.64.64h1a0.571,0.571,0,0,0,.64-0.64V553.655c1.08-.4,1.64-0.76,1.64-1.08C869.241,552.135,868.521,551.775,867,551.535Zm22.4-7.638v8.318H876.36V543.9H889.4Zm0,9.318v1.44a0.556,0.556,0,0,0,.64.64h1a0.544,0.544,0,0,0,.6-0.64V544.537l1.04-.6a0.626,0.626,0,0,0,.32-0.44c0-.36-0.64-1.08-1.92-2.12a0.593,0.593,0,0,0-.879.08L889,542.9H876.72a17.34,17.34,0,0,0-1.88-1,0.463,0.463,0,0,0-.76.44V554.9a0.571,0.571,0,0,0,.64.64h1.04a0.544,0.544,0,0,0,.6-0.64v-1.68h5.4v6.079H870.681c-0.48,0-.72.24-0.56,0.52a0.7,0.7,0,0,0,.72.48H881a34.5,34.5,0,0,1-11.238,12.158c-0.36.24-.44,0.48-0.24,0.76a0.639,0.639,0,0,0,.88.16,32.347,32.347,0,0,0,11.358-10.2v11.958a0.544,0.544,0,0,0,.64.6h1.08a0.53,0.53,0,0,0,.6-0.6V561.694a37.417,37.417,0,0,0,10.4,10.718,0.573,0.573,0,0,0,.88-0.16,7.333,7.333,0,0,1,1.24-1.279c0.36-.32.32-0.64-0.08-0.84a42.808,42.808,0,0,1-11.959-9.639l-0.16-.2h11.159a0.741,0.741,0,0,0,.68-0.36,0.672,0.672,0,0,0-.08-0.88q-1.14-1.2-1.92-1.919a0.571,0.571,0,0,0-.88.12l-1.64,2.039h-7.638v-6.079H889.4Zm36.842-7.079a39.566,39.566,0,0,1-3.559,6.2l-2.68.04c-0.8,0-2,.04-3.639.04a0.519,0.519,0,0,0-.6.68c0.36,1.92.759,2.88,1.279,2.88,0.28,0,.6-0.48.88-1.4,10.319-.6,18.158-1.2,23.437-1.92a27.907,27.907,0,0,1,2.319,2.56,1.78,1.78,0,0,0,1.32.8,1.142,1.142,0,0,0,1.28-1.28c0-2.16-3.559-4.719-10.638-7.639-0.36-.12-0.6-0.12-0.68.04a0.521,0.521,0,0,0,.2.84,37.575,37.575,0,0,1,5.159,3.719c-5.439.32-10.319,0.6-14.6,0.6h-1.6a63.236,63.236,0,0,0,5.479-6.159h17.718a0.643,0.643,0,0,0,.68-0.32,0.662,0.662,0,0,0-.04-0.84,24.879,24.879,0,0,0-2.28-2.359,0.529,0.529,0,0,0-.88.12l-1.68,2.4H931.439v-3.319c1.2-.36,1.8-0.68,1.8-1.04,0-.52-1.16-0.84-3.44-1a0.557,0.557,0,0,0-.679.6v4.759H913.762c-0.48,0-.72.2-0.6,0.52a0.7,0.7,0,0,0,.72.48H926.24Zm-3.919,20.2v-3.8H939v3.8H922.321ZM939,558.214v3.32H922.321v-3.32H939Zm-16.237-1c-0.84-.36-1.52-0.68-2.08-0.88a0.475,0.475,0,0,0-.72.48v18.277a0.56,0.56,0,0,0,.6.64h1.12a0.571,0.571,0,0,0,.64-0.64v-7.759H939v3.68a1.052,1.052,0,0,1-1.24,1.119c-1.719,0-3.439-.12-5.079-0.28-0.44-.04-0.68.12-0.68,0.44a0.632,0.632,0,0,0,.6.68,12.916,12.916,0,0,1,3.759.92,1.87,1.87,0,0,1,.88.88,0.653,0.653,0,0,0,.68.56c2.32-.12,3.48-1.08,3.48-2.92V559.054l0.84-.68a0.826,0.826,0,0,0,.36-0.559c0-.32-0.64-0.96-2-1.88a0.594,0.594,0,0,0-.88.08l-1.08,1.2H922.761ZM995.917,543.5v28.675H968.8V543.5h27.116Zm-26.676-1c-0.919-.48-1.559-0.8-1.839-0.92a2.9,2.9,0,0,1-.48-0.2c-0.28-.12-0.48.12-0.48,0.6v33.115a0.589,0.589,0,0,0,.64.64h1.12a0.559,0.559,0,0,0,.6-0.64v-1.92h27.116v1.92a0.571,0.571,0,0,0,.64.64h1.08a0.571,0.571,0,0,0,.64-0.64V544.377l0.96-.64a0.639,0.639,0,0,0,.36-0.52c0-.36-0.64-1.08-2.04-2.08a0.564,0.564,0,0,0-.88.04l-1.12,1.32H969.241Zm2.28,9.238c-0.52,0-.72.24-0.56,0.56a0.67,0.67,0,0,0,.72.44H993.4a0.692,0.692,0,0,0,.68-0.28,0.73,0.73,0,0,0-.12-0.88c-0.52-.519-1.04-1.039-1.56-1.479a0.547,0.547,0,0,0-.88.08l-1.32,1.559h-6.679V548.7h8.4a0.59,0.59,0,0,0,.64-0.28,0.723,0.723,0,0,0-.08-0.88,18.054,18.054,0,0,0-1.52-1.48,0.547,0.547,0,0,0-.88.08l-1.28,1.56h-5.279v-1.52c0.92-.32,1.4-0.64,1.4-0.92,0-.479-0.96-0.719-2.88-0.8a0.542,0.542,0,0,0-.679.6v2.64h-8.319c-0.48,0-.72.2-0.56,0.52a0.7,0.7,0,0,0,.72.48h8.159v3.039h-9.839Zm4.719,7.879V556.1h12.038v3.519H976.24Zm12.038,1a0.544,0.544,0,0,0,.6.64h1.16c-0.76.92-1.6,1.84-2.559,2.8a36.409,36.409,0,0,0-3.96-1.08v-1.88l0.24-.28a0.442,0.442,0,0,1,.2-0.2h4.319Zm-11.8-5.519c-0.52-.28-1.08-0.56-1.639-0.84a0.484,0.484,0,0,0-.76.48v6.4a0.571,0.571,0,0,0,.64.64h0.919a0.56,0.56,0,0,0,.6-0.64v-0.52h4.84a26.664,26.664,0,0,1-10.359,7.319c-0.44.2-.56,0.44-0.4,0.72a0.646,0.646,0,0,0,.84.28,34.039,34.039,0,0,0,10.2-5.679v7.239a0.57,0.57,0,0,0,.639.64h0.92a0.544,0.544,0,0,0,.6-0.64v-6.479a22.338,22.338,0,0,1,7.559,4.559,2.725,2.725,0,0,0,1.56.92,1,1,0,0,0,1.08-1.2c0-1.32-1.68-2.6-5.12-3.839a19.457,19.457,0,0,0,3.64-2.52,3.233,3.233,0,0,0,.64.04c0.52,0,.76-0.12.76-0.4,0-.4-0.6-1-1.92-1.76a0.526,0.526,0,0,0-.84.24c-0.2.28-.4,0.52-0.56,0.76v-4.079l0.96-.64a0.429,0.429,0,0,0,.24-0.32c0-.32-0.6-0.88-1.76-1.68a0.594,0.594,0,0,0-.88.08l-0.919.92H976.48Z" transform="translate(-761.125 -539.656)"/>
</svg>
