<svg xmlns="http://www.w3.org/2000/svg" width="423.88" height="430.26" viewBox="0 0 423.88 430.26">
  <g fill="#625740">
    <g>
      <path d="M373.31,75.35c-1.71,15.09-20.9,18.5-31.66,24.91-3.71,2.22-1.24,7.9,2.91,6.9a25,25,0,0,1,7.84-.72c1.64.13,5.68.37,6.94,1.66.73.74.34.43-.94,1.41a16.75,16.75,0,0,0-1.93,1.84,25.06,25.06,0,0,0-3.19,4.4c-1.86,3.21-3,6.76-4.72,10-2.4,4.63-5.39,6.61-10.42,7.82-22.34,5.39-45,9.8-67.43,14.69-4.29.94-3.32,7.71,1,7.63l47.61-.94-3.92-3.92c-1.22,20.31-25.75,24.74-41.6,27.16-4.18.63-3.35,6.54,0,7.65l16.88,5.62-2.78-4.9a17.58,17.58,0,0,1-19.52,11.23,4,4,0,0,0-3.9,6.7l4.22,5.15.81-6.3-11.81,6.41a4,4,0,0,0-2,3.48c.75,11.6-9,16.26-19.11,16.1-9.18-.14-18.11-1.91-27.26-.12-3.44.67-3.92,5.82-1,7.42l14.83,8-1.46-5.57a47.12,47.12,0,0,1-6,9.15c-.91,1.05-2.5,3.45-3.85,3.89-1.9.62-4.5-1.09-6.09-1.81L183.27,240c-4.11-1.89-8.59,3-5.06,6.55q8.56,8.64,16.57,17.8l.83-6.45a37.23,37.23,0,0,1-12.8,5.77l4.53,1.84a21.63,21.63,0,0,0-10.18-10.76c-2.43-1.25-6.17.23-5.9,3.38l.8,9.66,1.13-2.73c-4.47,4.31-9.84-.32-7.87-5.66,1.43-3.89-4.93-6.61-6.74-2.84-2.68,5.56-10.27,7.35-14.92,3l.55,4.21q2.94-6.25,5.9-12.5l-5.93-2.5c-2.17,5.38-9.17,6.54-13.58,3.44l1.43,2.5,1-3.22c1.75-3.17-3-6-4.85-2.84-1.46,2.45-3,6-.8,8.33,1.88,2,5.43,2.91,8.07,3a15.26,15.26,0,0,0,14.66-8.74c1.64-3.73-3.67-7.06-5.61-3.28q-3.13,6.13-6.29,12.27a3.58,3.58,0,0,0,.54,4.21c7.61,7.59,21.36,5.49,26.2-4.2l-6.74-2.84c-2.79,7.24,1.52,15.59,9.35,16.81a12.77,12.77,0,0,0,9.71-2.51c4.13-3.24,2.15-9,1.83-13.61l-5.9,3.39A14.06,14.06,0,0,1,180,268.6c.87,2.07,2.58,3.33,4.93,2.8A43.3,43.3,0,0,0,199.76,265a4.18,4.18,0,0,0,.83-6.45q-7.89-9.29-16.48-17.89l-5.05,6.56,16.52,7.51c4.42,2,9.67,5.51,14.59,6,8.61.79,15.32-11,18.64-17.43a4.13,4.13,0,0,0-1.46-5.57l-14.84-8-1,7.42c11.56-2.28,23.37,2.19,34.91-.54a22.32,22.32,0,0,0,17.34-23.27l-2,3.47,11.8-6.43c2.46-1.33,2.39-4.39.82-6.3l-4.23-5.15-3.9,6.7a25.78,25.78,0,0,0,29.33-16.84c.74-2.1-.85-4.26-2.78-4.9L276,178.24v7.65c20.1-3.09,45.9-10.29,47.33-34.81a4,4,0,0,0-3.92-3.92l-47.61,1,1,7.63L317.34,146c7.36-1.62,14.74-3.16,22.08-4.85,5.12-1.19,9.69-3,13-7.27,3-3.79,4.37-8.35,6.51-12.6s7.91-7.49,8.63-12.4c1.65-11.29-18.56-10.57-25-9l2.9,6.9c13.81-8.25,32.92-12.43,34.84-31.43.45-4.48-6.49-4.4-7,0Z"/>
      <path d="M121.78,239.56c-5.63-9-7.29-20.69-2.78-30.5l-4.11.53a40.17,40.17,0,0,0,14.58,9.89c3.46,1.39,6-4.51,2.55-6.06-5.71-2.6-6.66-9.54-4.27-14.88,2.55-5.71,8-9.9,12.76-13.73l-5.44-.7a76.94,76.94,0,0,1,10.1,20.18c1.38,4.23,7.17,2.43,6.53-1.8a74.34,74.34,0,0,1,2.16-31.67h-6.6l7,18.26c1.55,4.06,8,2.46,6.65-1.83-1.67-5.18-3.59-10.76-3-16.27.69-6.31,5.43-10.6,9.74-14.75l26.47-25.42-5.37-.69a83.65,83.65,0,0,1,8.62,44.34l6.66-.9c-2.7-10-2.37-20.76-1.81-31q.38-6.92,1.13-13.81c.16-1.49,1.49-5.65.85-7-.23-.51-1.54,1.54-.42.69a15.23,15.23,0,0,0,1.91-2.31q4-4.83,8.19-9.51c6.45-7.21,13.19-14.91,21.27-20.34l-5-2.85c-.6,5.82-1.24,11.63-1.88,17.44h6.64c.33-6.76,1-16.06,9.2-17.58L240,84.08c-.09,6-.14,12-.31,18l6.1-.83C242,91.41,248.6,82,254.55,74.57a184.52,184.52,0,0,1,20.3-21.35l-6.37-2.64a40,40,0,0,0,1.14,15c1.31,4.92,8.26,2.76,7.48-2.06-3.88-24,21.42-37.45,39.23-46.36l-6.39-4.92a60.38,60.38,0,0,0-1.25,26.1c.7,4.33,7.78,4.18,8.61,0,1.48-7.42,2.69-15,4.44-22.31s8.18-7.25,14.66-6.84L332,3.46,329.26,20c-1,5.83,6.52,7.79,8.74,2.41,2-4.94,8.95-18.79,16-11.68l-.71-5.49a55.12,55.12,0,0,0-7.08,14.09c-1.51,4.42,4.49,7.46,7.58,4.41S360.51,17.27,365,17c3.6-.22,6.83,1.53,6.89,5.47.1,7.59-9,13.8-12.24,20.07-2.28,4.41,3.75,9.87,7.26,5.61,5.13-6.24,12.25,2,5.3,6.43-7.33,4.7-16.15,7.94-24,11.75-5.15,2.5-1.51,10.57,3.84,9.1a47.73,47.73,0,0,1,22.22-1l-3.79-3.79a11.76,11.76,0,0,1,.69,4.7c-.25,7.24,11.45,7.26,11.25,0A20.87,20.87,0,0,0,381,67.77a5.82,5.82,0,0,0-5.23-4,65.15,65.15,0,0,0-26.31,2l3.84,9.1c7.87-3.94,16.32-7.42,23.82-12,5-3.06,8.16-7.74,7.75-13.74C384,36.8,368.07,32,360.36,41.6l7.26,5.6c5.05-10.05,19.78-21,10.59-33.44-8.38-11.31-23-4.1-30.8,3.59L355,21.76a46.9,46.9,0,0,1,6.16-11.93,4.55,4.55,0,0,0-.71-5.49c-4.86-4.88-12.26-5.4-18.26-2.24-6.91,3.64-10.1,11.08-12.92,17.92L338,22.43l2.77-16.56c.51-3-1.21-5.54-4.37-5.74-7.57-.48-16.34.07-20.87,7.1-2.34,3.63-2.89,8-3.7,12.19-1.07,5.51-2.1,11-3.14,16.55h8.61a49.87,49.87,0,0,1,1-21.4,4.4,4.4,0,0,0-6.39-4.92c-21.33,10.93-47.76,27.91-42.32,55.94l7.48-2.06a33.53,33.53,0,0,1-1.16-13c.33-3.39-4.2-4.67-6.36-2.63A174.2,174.2,0,0,0,246.11,74.5c-5.74,8.18-10.33,18.48-6.36,28.37,1.26,3.12,6,2.9,6.1-.82.17-6,.45-12,.69-18,.09-2.34-2.17-3.5-4.17-3.18-11.59,1.86-13.73,14.17-14.09,23.93-.17,4.34,6.22,4.17,6.64,0q.89-8.73,1.83-17.44c.27-2.47-3-4.14-5-2.85-8.63,5.71-15.82,13.64-22.68,21.3q-4.4,4.92-8.62,10a13.33,13.33,0,0,0-2.78,4c-.76,2.27-.71,5.22-1,7.58-.54,4.83-1,9.67-1.25,14.52-.64,11-.92,22.65,2,33.42,1,3.85,6.38,2.8,6.66-.9a90.39,90.39,0,0,0-9.49-47.79c-1-2-3.87-2.13-5.37-.69-10.38,10-21.61,19.48-31.25,30.15-9,9.94-7.65,21-3.79,33l6.65-1.83q-3.51-9.13-7-18.25c-1.15-3-5.62-3.48-6.6,0a82.32,82.32,0,0,0-2.09,35.29l6.53-1.8a88.34,88.34,0,0,0-10.65-21.88,3.54,3.54,0,0,0-5.44-.7c-6.91,5.45-14.37,11.79-15.73,21-1.06,7.2,1.82,15.17,8.8,18.21l2.55-6.06a46.33,46.33,0,0,1-12.64-7.2,2.66,2.66,0,0,0-4.38,1.16c-3.69,11.76-2.43,24,4.9,34.08,1.15,1.58,3.75.16,2.67-1.56Z"/>
      <path d="M72.14,272c17.9,5.77,37.55-6.8,51.53-16.72,16.9-12,33.06-25.08,49-38.25a1114.07,1114.07,0,0,0,92.37-85.59c8.2-8.48,16.08-17.22,23.9-26.06s15.66-17.31,21.89-27.19c.79-1.25-.93-2.38-1.95-1.5C301.1,83.35,294.25,91,287.2,98.48c-6.85,7.23-14,14.19-21,21.28-14.21,14.4-28.65,28.65-43.6,42.28-29.92,27.28-61.23,53.07-92.93,78.25-8.71,6.93-17.53,13.86-27.3,19.27-9.56,5.3-19.65,7.69-30.25,9.91-1.34.28-1.16,2.16,0,2.53Z"/>
    </g>
    <g fill="#625740" stroke="#625740" stroke-width="3px">
      <path d="M28,356.69c0-4.81.06-8.52.16-11.14s.24-4.72.4-6.33a12.08,12.08,0,0,1,.57-3.12c.21-.48.53-.67,1-.56,2,.43,3.23,3.95,3.6,10.58a115.09,115.09,0,0,1-1.68,24q-1.77,11.39-4.89,18.11A27.24,27.24,0,0,1,18.58,399c-3,2.35-5.59,3.69-7.77,4a7.85,7.85,0,0,1-6.34-2.09,7.9,7.9,0,0,1-2.8-8q.88-5,5.05-5.13c1.39,0,1.87.64,1.44,1.93A3.05,3.05,0,0,1,5.76,392c-1.93.43-2.83,1.79-2.73,4.09a5,5,0,0,0,3.21,4.72q5.44,2.57,11.06-1.92t8.33-13.3Q28,378.17,28,356.69Zm16.51,22.12q-.65,0,1.44-1.44a15.22,15.22,0,0,1,1.6-1.13,14.35,14.35,0,0,0,5.13-4.72c1-1.66,1.66-4.46,2.09-8.42a19.8,19.8,0,0,0-2.25-12.34q-7-14.25-18.75-16.82a25.42,25.42,0,0,0-7.13-.89c-1.34.16-3.55,1.05-6.65,2.65-1.92,1-3.45,1.68-4.57,2.16a17.2,17.2,0,0,1-2.72,1c-.7.16-1.18.14-1.44-.08a1.58,1.58,0,0,1-.4-1.28c0-1,1.46-2.16,4.4-3.6a29.77,29.77,0,0,1,8.42-2.81,30.19,30.19,0,0,1,16.58,2.16,24.9,24.9,0,0,1,12.1,10.18,29.59,29.59,0,0,1,4.49,19q-1,10.33-7.53,14.18Q45.5,378.81,44.54,378.81Zm-5.77,1c-.86-.21-.75-.37.32-.48,2-.21,3.1-.16,3.21.16l-.32.32A4.15,4.15,0,0,1,38.77,379.77Z"/>
      <path d="M94.54,358.3c1.49,0,3.9,1.55,7.21,4.64,1.92,1.93,2.46,2.94,1.6,3.05s-1.33,1.82-1.44,5.45a43,43,0,0,0,1,10.57,7.71,7.71,0,0,0,.8,2.25c.22.1.54-.86,1-2.89a25.83,25.83,0,0,0,.48-2.56c.64-3.21,1.06-4.75,1.28-4.65s.21.54.32,1.6a23.47,23.47,0,0,1-1.28,8q-2.73,7.85,2.88,16c1.28,1.82,2.62,2.59,4,2.33a6.81,6.81,0,0,0,3.6-1.93,10.17,10.17,0,0,0,2.33-3.6,7.11,7.11,0,0,1,2.32-3.45q1.2-.72,2.16.72c.54,1-.16,2.78-2.08,5.45s-3.74,4.22-5.45,4.65q-3.52.79-5.61-.48c-1.39-.86-2.67-2.67-3.84-5.45q-2.08-5-2.65-5.05T100,397.4q-3.21,5.61-7.77,5.45t-7.78-6.09q-1.6-3.21-1.84-11.86a51.1,51.1,0,0,1,1.2-14.1,21.41,21.41,0,0,1,4.41-7.7C90.5,360.33,92.62,358.72,94.54,358.3Zm7.21,26.12q-.31-1.6-.8-9.54c-.32-5.29-1-8.57-2.08-9.85a4.05,4.05,0,0,0-3.77-1.53,4.21,4.21,0,0,0-3.45,2.33q-3.36,6.24-3.44,16.66c-.06,6.95,1,11.76,3.12,14.43a5.84,5.84,0,0,0,2.33,2,4,4,0,0,0,2.64-.72,10.29,10.29,0,0,0,5-5.61A12.9,12.9,0,0,0,101.75,384.42ZM104.47,369c0-1,.11-1.39.33-1.28.42.11.64.86.64,2.24,0,.43-.11.7-.32.81-.22.32-.43.16-.65-.49A2.72,2.72,0,0,1,104.47,369Z"/>
      <path d="M165.53,357.33a9.06,9.06,0,0,0,3.05,2.09,4.8,4.8,0,0,1,2.16,1.44,9,9,0,0,1,.72,3.85v4.48a66.42,66.42,0,0,0-1.92-7.69q0,9.13.64,10.1,1.13,1.13,1.12,13.94c.21,7.27.16,10.68-.16,10.26-.11,0-.16-.11-.16-.32-.64-5-1.28-7.59-1.92-7.7-.54.11-1.44,1.45-2.73,4-1.81,3.63-3.42,5.85-4.8,6.65s-3.26.62-5.61-.56q-6.9-3.21-7.29-18.75t6.17-21.64Q160.39,352.21,165.53,357.33Zm6.41,53.85.64-11.22.32,9.3q.49,11.22-3,16.34t-9.46,1.93q-2.57-1.29-5.93-7.86t-2.08-7.85c.75-.75,1.92.43,3.53,3.53a17.31,17.31,0,0,1,1.28,2.4q3.21,6.57,5.53,8.25c1.55,1.13,3.39.83,5.53-.88a9.09,9.09,0,0,0,2.64-4.24A49.64,49.64,0,0,0,171.94,411.18Zm-6.09-49.36c-2.46-2.56-5-3-7.53-1.28s-3.9,5.69-4.33,11.94.43,11.67,2.57,16.26q2.4,5.29,4.65,5.13t5.28-6.09a21.11,21.11,0,0,0,2.33-6.25,39.92,39.92,0,0,0-.08-8.33Q167.93,364.23,165.85,361.82Z"/>
      <path d="M225.79,390.19q0,2.24-3,7.13t-5,6.33q-6.25,4.65-12.5-1.44-6.42-6.42-6.74-20.52a27.58,27.58,0,0,1,2.89-12.1q3-6.64,6.41-8.41a6.46,6.46,0,0,1,3-.8c.54.11,1.34.8,2.41,2.08,1.49,1.93,2,4.49,1.6,7.69a32,32,0,0,1-3,9.54q-2.25,4.41-4.33,5.05a2.65,2.65,0,0,0-2.16,2.88q.07,2.25,2.32,7.21,3.69,8,7,8.18t7.37-7.37Q225.31,389.87,225.79,390.19Zm-20.19-6.25q3.19,0,6.17-7.13t1.84-11.62c-1.07-4-2.57-4.54-4.49-1.77q-3.21,4-4.49,13.79c-.21,1.49-.34,2.64-.4,3.44a13.22,13.22,0,0,0,0,2,1.52,1.52,0,0,0,.4,1.05A1.63,1.63,0,0,0,205.6,383.94ZM226.43,382c.85-2.13,1.28-2.51,1.28-1.12a17.34,17.34,0,0,1-.64,3.85q-1.44,3.69-1.28,1A8.46,8.46,0,0,1,226.43,382Z"/>
      <path d="M264.41,344.51c0-1,0-2.11-.08-3.44s-.08-2.27-.08-2.81a11.94,11.94,0,0,1,.16-1.84A2.63,2.63,0,0,1,265,335a3.42,3.42,0,0,1,1.28-.72,6.25,6.25,0,0,1,2.17-.32,1.68,1.68,0,0,1,1.84,1.6,45.46,45.46,0,0,1-.4,8q-.64,8.18.48,9.06t10.1-1.21q7.68-1.75,8-1.44.8.81-9,3.05c-1.92.42-3.63.75-5.12,1-2.36.43-3.74.91-4.17,1.44s-.64,2.08-.64,4.65a121.91,121.91,0,0,0,1.68,18.67q1.68,10.65,3.45,14.34,2.24,5.13,6.09,5.13t6.57-4.33c1.71-2.45,2.61-3.31,2.72-2.56q0,1.44-4,6.09-6.89,7.85-13.3,1.44a18.43,18.43,0,0,1-4.48-8.65q-1.45-5.61-2.89-19.88l-1.44-15.54q-10.26-2.88-10.26-3.85a4.89,4.89,0,0,1,4.17.8q4.17,2.25,5.37,1C264,351.83,264.41,349.11,264.41,344.51Zm27.08,38.63c0-1,.11-1.39.32-1.29.43.11.65.86.65,2.25,0,.42-.11.69-.33.8-.21.32-.42.16-.64-.48A2.73,2.73,0,0,1,291.49,383.14Zm1.29-5.13c0-1,.1-1.39.32-1.28.42.1.64.85.64,2.24,0,.43-.11.69-.32.8-.22.32-.43.16-.64-.48A2.49,2.49,0,0,1,292.78,378Zm1.28-5.13c0-1,.1-1.39.32-1.28.42.1.64.85.64,2.24,0,.43-.11.7-.32.8-.22.32-.43.16-.64-.48A2.49,2.49,0,0,1,294.06,372.88Z"/>
      <path d="M338.93,364.71c-.43.1-.16.74.8,1.92a5.89,5.89,0,0,0,5,1.84,8.85,8.85,0,0,0,5.77-2.16l2.08-1.6L350.79,367q-2.57,3.21-10.74,2.88l.64,22.44-.8-11.22c-.43-5.55-.91-9-1.44-10.41s-2.25-3.58-5.13-6.58c-3.31-3.41-5.24-5-5.77-4.64-.32.1-.64.69-1,1.76q-1.77,6.26-.4,16.59T330.75,394a3.79,3.79,0,0,0,3.37,2.65,4.45,4.45,0,0,0,3.85-2.17c1.17-1.38,1.76-1.6,1.76-.64a6.22,6.22,0,0,1-1.52,2.33,47.11,47.11,0,0,1-3.93,3.76,25.11,25.11,0,0,1-2.72,2.25q-4-3.85-7.22-12.42a57.33,57.33,0,0,1-3.6-17.63,26.27,26.27,0,0,1,3.76-15.63q2.08-3,3.77-3.28t4.73,2q3,2.08,5.61,7.21C339.35,364,339.46,364.71,338.93,364.71Zm-1.77-1.13q0-1.59-2.08-4.64-2.25-3.37-4.33-3.37c-.85.11-.9.91-.16,2.4a15.19,15.19,0,0,0,5.13,5.61Q337.16,364.39,337.16,363.58Z"/>
      <path d="M378.35,408.3c.43,0,1,1.14,1.84,3.44s1,3.61.72,3.93c-.1.21-.32,0-.64-.64A19.35,19.35,0,0,1,378.35,408.3Zm34.3-16.67a7.58,7.58,0,0,1-4.09-.88,12,12,0,0,1-3.13-3.93l-2.88-4.65a200,200,0,0,1-4.17,21.8q-3,12.66-5.29,16.83a10.52,10.52,0,0,1-3.52,4.16c-.86.86-1.58,1.18-2.17,1a10.84,10.84,0,0,1-3-2.56q-3-4-3.05-5.13,0-1.28,2.25,2.08a1.66,1.66,0,0,0,.32.49q4,6.57,6.73,1.12,2.08-4,4.81-16.83a192.37,192.37,0,0,0,3.68-32q.65-13.14,1.13-12.5a4.73,4.73,0,0,1,.16,1.76,46.9,46.9,0,0,0,3.12,17.87q3.12,7.62,7,7.61,3.69,0,5.77-11.38t-.48-17.46a6.45,6.45,0,0,0-4.81-4.09,5.48,5.48,0,0,0-5.45,2.16l-2.4,2.89q-1.29-6.09,3.77-9.14t9.53,1.61q6.74,7.2,5.77,23.55-.64,8.65-2.8,12.18A7.43,7.43,0,0,1,412.65,391.63Z"/>
    </g>
  </g>
</svg>