<svg id="tit_num03.svg" xmlns="http://www.w3.org/2000/svg" width="65" height="65" viewBox="0 0 65 65">
  <defs>
    <style>
      .cls-1 {
        fill: none;
        stroke: #e9c893;
        stroke-linecap: round;
        stroke-linejoin: round;
        stroke-width: 1px;
      }

      .cls-1, .cls-2 {
        fill-rule: evenodd;
      }

      .cls-2 {
        fill: #e9c893;
      }
    </style>
  </defs>
  <path id="長方形_16" data-name="長方形 16" class="cls-1" d="M370,2135h64v64H370v-64Z" transform="translate(-369.5 -2134.5)"/>
  <path id="_03" data-name="03" class="cls-2" d="M388.675,2153.36c2.25,0,3.977,1.44,5.142,4.25a24.568,24.568,0,0,1,1.526,9.56,24.221,24.221,0,0,1-1.405,9.08c-1.165,3.06-2.933,4.58-5.263,4.58-2.289,0-4.017-1.48-5.262-4.38a24.539,24.539,0,0,1-1.526-9.32c0-4.53.683-8.11,2.129-10.64C385.181,2154.4,386.747,2153.36,388.675,2153.36Zm-0.16-1.41a7.794,7.794,0,0,0-5.544,2.25c-2.771,2.65-4.137,6.95-4.137,12.89,0,4.3.763,7.88,2.37,10.65a8.072,8.072,0,0,0,7.431,4.54c3.174,0,5.624-1.49,7.392-4.54a24.744,24.744,0,0,0,.08-21.13C394.339,2153.52,391.848,2151.95,388.515,2151.95Zm28.121,14.22c4.379-.88,6.548-3.25,6.548-7.07a6.515,6.515,0,0,0-1.929-4.78,8.8,8.8,0,0,0-6.507-2.33,9.88,9.88,0,0,0-5.744,1.77c-1.808,1.28-2.731,2.77-2.731,4.42,0,1.72.763,2.57,2.208,2.57a1.773,1.773,0,0,0,2.009-2.01,1.624,1.624,0,0,0-1.888-1.81,4.341,4.341,0,0,1,1.406-1.93,7.036,7.036,0,0,1,4.459-1.48,5.865,5.865,0,0,1,4.218,1.64,5.374,5.374,0,0,1,1.567,3.9,6.492,6.492,0,0,1-1.929,4.86,6.216,6.216,0,0,1-4.619,1.81h-1.366a0.557,0.557,0,0,0-.643.64v0.32a0.564,0.564,0,0,0,.643.65H413.7a7.4,7.4,0,0,1,5.382,1.96,6.184,6.184,0,0,1,1.808,4.54,6.4,6.4,0,0,1-1.928,4.82,7.587,7.587,0,0,1-9.962.36,3.778,3.778,0,0,1-1.085-2.04,1.968,1.968,0,0,0,.482.04,1.576,1.576,0,0,0,1.728-1.85,1.8,1.8,0,0,0-2.049-2.01c-1.606,0-2.41.96-2.41,2.85a5.262,5.262,0,0,0,2.289,4.3,9.631,9.631,0,0,0,6.227,2.01,9.875,9.875,0,0,0,7.472-2.81,7.6,7.6,0,0,0,2.289-5.59c0-4.01-2.41-6.5-7.311-7.47v-0.28Z" transform="translate(-369.5 -2134.5)"/>
</svg>
