<svg id="tit_num01.svg" xmlns="http://www.w3.org/2000/svg" width="65" height="65" viewBox="0 0 65 65">
  <defs>
    <style>
      .cls-1 {
        fill: none;
        stroke: #e9c893;
        stroke-linecap: round;
        stroke-linejoin: round;
        stroke-width: 1px;
      }

      .cls-1, .cls-2 {
        fill-rule: evenodd;
      }

      .cls-2 {
        fill: #e9c893;
      }
    </style>
  </defs>
  <path id="長方形_16" data-name="長方形 16" class="cls-1" d="M370,906h64v64H370V906Z" transform="translate(-369.5 -905.5)"/>
  <path id="_01_のコピー" data-name="01 のコピー" class="cls-2" d="M388.491,924.115c2.249,0,3.976,1.446,5.141,4.258a24.53,24.53,0,0,1,1.527,9.561,24.206,24.206,0,0,1-1.406,9.078c-1.165,3.053-2.933,4.579-5.262,4.579-2.29,0-4.017-1.486-5.262-4.378a24.536,24.536,0,0,1-1.527-9.32c0-4.539.683-8.114,2.129-10.644C385,925.16,386.563,924.115,388.491,924.115Zm-0.161-1.406a7.807,7.807,0,0,0-5.543,2.25c-2.772,2.651-4.138,6.949-4.138,12.894,0,4.3.763,7.873,2.37,10.645a8.066,8.066,0,0,0,7.432,4.539c3.173,0,5.623-1.486,7.391-4.539a24.733,24.733,0,0,0,.08-21.129C394.155,924.276,391.664,922.709,388.33,922.709Zm35.915,28.721a0.574,0.574,0,0,0-.643-0.642,9.139,9.139,0,0,1-3.455-.482,2.56,2.56,0,0,1-1.2-2.491V923.432a0.431,0.431,0,0,0-.723-0.4,20.184,20.184,0,0,1-7.552,2.089,0.53,0.53,0,0,0-.6.522,0.557,0.557,0,0,0,.642.642h3.335a1.881,1.881,0,0,1,2.088,2.129v19.4a2.478,2.478,0,0,1-1.365,2.571,11.258,11.258,0,0,1-3.535.4,0.558,0.558,0,0,0-.643.642,0.533,0.533,0,0,0,.6.6H423.6A0.546,0.546,0,0,0,424.245,951.43Z" transform="translate(-369.5 -905.5)"/>
</svg>
