<svg id="tit_num02.svg" xmlns="http://www.w3.org/2000/svg" width="65" height="65" viewBox="0 0 65 65">
  <defs>
    <style>
      .cls-1 {
        fill: none;
        stroke: #e9c893;
        stroke-linecap: round;
        stroke-linejoin: round;
        stroke-width: 1px;
      }

      .cls-1, .cls-2 {
        fill-rule: evenodd;
      }

      .cls-2 {
        fill: #e9c893;
      }
    </style>
  </defs>
  <path id="長方形_16" data-name="長方形 16" class="cls-1" d="M370,1389h64v64H370v-64Z" transform="translate(-369.5 -1388.5)"/>
  <path id="_02" data-name="02" class="cls-2" d="M388.676,1406.86c2.249,0,3.976,1.44,5.141,4.25a24.548,24.548,0,0,1,1.527,9.56,24.2,24.2,0,0,1-1.406,9.08c-1.165,3.06-2.933,4.58-5.262,4.58-2.29,0-4.017-1.48-5.263-4.38a24.539,24.539,0,0,1-1.526-9.32c0-4.53.683-8.11,2.129-10.64C385.181,1407.9,386.748,1406.86,388.676,1406.86Zm-0.161-1.41a7.79,7.79,0,0,0-5.543,2.25c-2.772,2.65-4.138,6.95-4.138,12.89,0,4.3.763,7.88,2.37,10.65a8.072,8.072,0,0,0,7.431,4.54c3.174,0,5.624-1.49,7.392-4.54a24.735,24.735,0,0,0,.08-21.13C394.34,1407.02,391.849,1405.45,388.515,1405.45Zm35.472,21.09a0.658,0.658,0,0,0-.683.6,10.443,10.443,0,0,1-1.325,4.06c-0.482.72-1.567,1.12-3.214,1.12H408.12c0.764-3.37,3.335-6.46,7.673-9.28l1.125-.72a19.687,19.687,0,0,0,5.422-4.58,7.706,7.706,0,0,0,1.487-4.62,7.015,7.015,0,0,0-2.812-5.82,9.349,9.349,0,0,0-5.945-1.85,8.35,8.35,0,0,0-6.106,2.33,6.9,6.9,0,0,0-2.249,4.98c0,1.77.8,2.69,2.37,2.69a1.925,1.925,0,1,0,0-3.85,4.539,4.539,0,0,1,.883-2.45c1.045-1.49,2.692-2.21,4.981-2.21a5.953,5.953,0,0,1,3.656,1.16,5.7,5.7,0,0,1,2.088,4.82,7.372,7.372,0,0,1-1.526,4.42,29.578,29.578,0,0,1-4.378,4.02l-0.643.52c-4.419,3.57-7.11,7.23-8.074,10.93a2.462,2.462,0,0,0-.08.76v0.6a0.544,0.544,0,0,0,.642.6h16.389a0.629,0.629,0,0,0,.683-0.56l0.8-6.99c0.04-.44-0.121-0.68-0.482-0.68h-0.041Z" transform="translate(-369.5 -1388.5)"/>
</svg>
