<svg xmlns="http://www.w3.org/2000/svg" width="208.81" height="42.938" viewBox="0 0 208.81 42.938">
  <defs>
    <style>
      .cls-1 {
        fill: #4cd0a0;
        fill-rule: evenodd;
      }
    </style>
  </defs>
  <path id="tit_childcare.svg" class="cls-1" d="M2297.49,695.542a0.668,0.668,0,0,0-.32-0.6l-1.94-1.426a1.976,1.976,0,0,0-.73-0.276,0.686,0.686,0,0,0-.55.322l-0.97.966h-12.83l-3.36-1.932a41.89,41.89,0,0,1,.32,4.738c0,3.174-.18,7.865-0.27,9.383,0,0.184-.1,1.1-0.1,1.334a0.926,0.926,0,0,0,.92,1.1,1.989,1.989,0,0,0,1.84-1.1,3.159,3.159,0,0,0,.05-1.1h13.94c-0.1.92-.14,1.794,0.92,1.794a1.606,1.606,0,0,0,1.79-1.61c0-2.9-.37-7.5-0.28-10.395C2297.35,696,2297.49,695.91,2297.49,695.542Zm-3.96,10.3h-13.98V695.634h13.98v10.211Zm9.48,21.987V727.51a20.638,20.638,0,0,1-5.34-1.978,21.939,21.939,0,0,1-9.43-9.981h13.39a0.556,0.556,0,0,0,.69-0.46,1.143,1.143,0,0,0-.46-0.736l-2.58-1.84a1.931,1.931,0,0,0-.87-0.506,1.256,1.256,0,0,0-.69.6l-1.47,1.84h-9.16c-0.04-1.472.05-2.76,0.14-4.278,1.01-.828,1.24-1.058,1.24-1.426,0-.276-0.18-0.322-0.5-0.414l-3.64-.782a40.277,40.277,0,0,1,.55,6.9h-6.34c-0.88,0-4.19-.046-7.64-0.322l1.06,1.978a38.472,38.472,0,0,1,5.93-.552h5.02c-2.81,4.554-7.87,11.039-12.88,14.857l0.09,0.276a26,26,0,0,0,5.11-3.036,39.489,39.489,0,0,0,9.7-10.441c0,2.07,0,4.737-.14,8.325-0.09,2.07-.32,5.336-0.32,7.406,0,0.322,0,.874,1.01.874,0.19,0,2.3,0,2.3-1.886,0-.644-0.69-13.753-0.69-16.375h0.42a31.757,31.757,0,0,0,11.68,14.949A6.327,6.327,0,0,1,2303.01,727.832Zm-29.76-33.21a0.626,0.626,0,0,0-.32-0.552l-3.96-2.208a5.245,5.245,0,0,1-.23,2.254c-0.78,2.9-4.97,14.029-9.48,19.871l0.23,0.276c3.09-2.024,6.58-8.234,7.32-9.614,0.23,5.842-.42,23.367-0.6,26.5a14.536,14.536,0,0,0-.09,1.472,0.978,0.978,0,0,0,1.06,1.15,2.208,2.208,0,0,0,2.2-2.254,3.551,3.551,0,0,0-.04-0.46c-0.09-3.082-.32-13.569-0.32-18.859,0-3.358,0-4.37.13-6.578,0.92-.828,1.29-1.15,1.29-1.564a0.635,0.635,0,0,0-.46-0.506l-1.93-1.2c0.37-.736,2.3-4.369,2.71-5.2,0.28-.506.42-0.828,0.65-1.334a8.612,8.612,0,0,0,1.29-.552A0.74,0.74,0,0,0,2273.25,694.622Zm71.39,22.171H2327.3v-4.83h17.34v4.83Zm3.63-5.244a1.153,1.153,0,0,0-.55-0.736l-1.61-1.15a1.606,1.606,0,0,0-.69-0.276,1.252,1.252,0,0,0-.78.6l-0.74.874h-15.73l-3.72-1.564a20.6,20.6,0,0,1,.46,5.244c0,5.152-.05,10.579-0.19,15.685,0,0.46-.14,2.3-0.14,2.714a1.026,1.026,0,0,0,.97,1.242,2.212,2.212,0,0,0,1.93-2.07c0-.276-0.14-7.13-0.18-8.05h17.34v5.612c-0.19.782-1.52,0.782-2.21,0.782-1.15,0-2.58-.184-3.91-0.322V730.5a6.816,6.816,0,0,1,2.67,1.564,3.046,3.046,0,0,1,1.1,2.024,7.491,7.491,0,0,0,3.54-1.61,3.357,3.357,0,0,0,1.52-2.944c0-.092-0.37-14.489-0.46-16.559a8.413,8.413,0,0,1,.97-0.874A0.845,0.845,0,0,0,2348.27,711.549Zm-3.63,11.407H2327.3V717.9h17.34v5.059Zm11.64-24.056a1.284,1.284,0,0,0-.56-0.782l-2.2-2.07a2.045,2.045,0,0,0-.88-0.506,1.2,1.2,0,0,0-.73.6l-1.75,2.162h-13.11c0-.092-0.05-2.346,0-3.312,0.18-.184,1.01-0.874,1.19-1.058a0.943,0.943,0,0,0,.23-0.552c0-.414-0.32-0.46-0.87-0.6l-3.95-.92a16.994,16.994,0,0,1,.78,6.44H2323.2c-2.39,0-5.29-.138-7.68-0.322l1.11,1.978a33.561,33.561,0,0,1,5.93-.552h7.87a57.675,57.675,0,0,1-2.99,5.979c-4.6.138-6.4,0.138-6.54,0.138a19.067,19.067,0,0,1-4-.506l1.38,3.726c0.23,0.6.32,0.874,0.65,0.874a0.917,0.917,0,0,0,.64-0.506,3.212,3.212,0,0,1,.74-0.644c4.78-.69,10.81-1.426,14.3-1.84,2.39-.276,8.23-0.966,12.56-1.794,0.96,0.874,1.93,1.7,2.8,2.668,1.61,1.794,1.8,2.024,2.58,2.024a1.581,1.581,0,0,0,1.52-1.61c0-4.14-11.04-6.669-12.15-6.853l-0.13.414a12.748,12.748,0,0,1,4.5,2.575c-12.83,1.012-14.25,1.15-17.7,1.288,1.33-1.2,4.41-4.323,5.84-5.933h21.11A0.59,0.59,0,0,0,2356.28,698.9Zm53.95,2.024a1.112,1.112,0,0,0-.55-0.644l-1.88-1.472a1.617,1.617,0,0,0-.79-0.46,0.918,0.918,0,0,0-.59.506l-1.15,1.38h-13.25c0.14-1.058.23-2.392,0.37-5.888,0.69-.23,1.47-0.506,1.47-1.242a0.583,0.583,0,0,0-.55-0.644l-4.37-1.2a19.284,19.284,0,0,1,.73,6.026c0,1.426-.04,2.162-0.09,2.944h-12.51l-4.05-2.438a82.318,82.318,0,0,1,.74,13.523c0,2.3-.05,4.186-0.23,12.281-0.05,1.2-.28,7.13-0.28,8.464a0.829,0.829,0,0,0,.78,1.012,2.53,2.53,0,0,0,1.98-.966,2.348,2.348,0,0,0,.28-1.242c0-1.288-.05-3.266-0.05-4.922,0-8-.09-16.559-0.09-24.608h13.29a25.974,25.974,0,0,1-2.07,8.187c-1.56,3.45-5.79,8.97-10.16,11.545l0.14,0.368c5.33-1.609,10.48-6.9,12.64-11.913a29.053,29.053,0,0,1,8.33,9.246c0.69,1.1,1.15,1.7,2.12,1.7a1.52,1.52,0,0,0,1.61-1.518c0-2.622-2.95-4.922-3.59-5.428a44.623,44.623,0,0,0-8.24-4.462,26.178,26.178,0,0,0,1.71-7.727h13.93v0.689c0,7.958-.04,15.962-0.04,23.919,0,2.668-.42,2.944-2.21,2.944-0.87,0-4.69-.23-5.52-0.322v0.368c4.74,1.84,5.29,2.576,5.75,4.324,4.65-1.288,4.65-3.22,4.65-6.486,0-2.852-.14-7.359-0.14-10.211v-14.03C2409.04,702.119,2410.23,701.338,2410.23,700.924Zm57.83,16.835v-0.184c-9.07-.736-16.24-4.6-20.66-9.246a0.783,0.783,0,0,0,.69-0.644,0.629,0.629,0,0,0-.37-0.506l-3.72-2.162a6.524,6.524,0,0,1-.87,2.116c-4.42,6.118-11.55,11.868-17.99,15.731l0.05,0.23a35.254,35.254,0,0,0,9.89-5.013c0.04,2.116.09,5.427,0.09,7.635,0,1.38-.05,3.68-0.09,5.06,0,0.322-.14,1.886-0.14,2.208a0.979,0.979,0,0,0,1.1,1.058c1.8,0,1.75-1.7,1.75-2.53h16.01c-0.1,1.288-.14,2.116,1.01,2.116a1.746,1.746,0,0,0,1.33-.552,2.269,2.269,0,0,0,.37-1.426c0-1.1-.23-5.842-0.23-6.808-0.05-2.852-.05-3.174-0.05-3.634a2.978,2.978,0,0,0,1.2-1.333,0.714,0.714,0,0,0-.51-0.644l-1.51-.92a1.761,1.761,0,0,0-.83-0.368,1.437,1.437,0,0,0-.83.368l-1.01.69h-14.72l-2.35-1.38a85.656,85.656,0,0,0,10.54-9.338,2.2,2.2,0,0,0,.5.046,36.729,36.729,0,0,0,17.02,12.7A6.807,6.807,0,0,1,2468.06,717.759Zm-14.26,12.649h-16.01v-10.3h16.01v10.3Zm6.9-22.079c0-2.806-6.9-5.75-9.99-6.578l-0.13.23c0.55,0.506,3.35,2.714,3.91,3.312,0.64,0.69,1.19,1.334,2.66,3.128,1.06,1.334,1.29,1.61,2.03,1.61A1.609,1.609,0,0,0,2460.7,708.329Zm5.61-8.417a1.048,1.048,0,0,0-.46-0.736l-2.67-2.622a1.911,1.911,0,0,0-.78-0.552,1.516,1.516,0,0,0-.74.414l-1.61,1.288h-12.79c0-.368-0.04-2.254-0.04-2.668,1.24-.874,1.52-1.1,1.52-1.334a0.649,0.649,0,0,0-.6-0.6l-4.14-.92a15.391,15.391,0,0,1,.73,5.52h-12.97c0.05-.6.05-0.966,0.1-1.794h-0.28a9.435,9.435,0,0,1-3.82,4.232c-1.06.69-2.16,1.379-2.16,2.483a1.514,1.514,0,0,0,1.52,1.426c0.78,0,3.63-1.15,4.46-5.243h29.35q-0.9,1.863-1.8,3.449l0.19,0.184c0.5-.23,3.08-1.563,3.68-1.793a21.5,21.5,0,0,0,2.85-.138A0.663,0.663,0,0,0,2466.31,699.912Zm-24.43,3.219a0.64,0.64,0,0,0-.36-0.552l-3.27-2.253a5.2,5.2,0,0,1-.78,2.023,51.2,51.2,0,0,1-9.71,9.8l0.14,0.322a39.953,39.953,0,0,0,11.87-8.556c0.23-.046,1.29-0.184,1.52-0.23A0.671,0.671,0,0,0,2441.88,703.131Z" transform="translate(-2259.25 -691.25)"/>
</svg>
