<svg xmlns="http://www.w3.org/2000/svg" width="199.84" height="42.782" viewBox="0 0 199.84 42.782">
  <defs>
    <style>
      .cls-1 {
        fill: #4cd0a0;
        fill-rule: evenodd;
      }
    </style>
  </defs>
  <path id="tit_info.svg" class="cls-1" d="M6733.94,724.152c1.75,2.346,3.5,4.692,8.79,4.692,5.24,0,10.12-3.22,10.12-8.739,0-5.658-5.2-7.682-9.3-7.682-4.78,0-9.15,2.162-13.2,4.692-0.09-2.622-.13-3.68-0.13-4.232,0-.782.04-2.714,0.13-4.922,2.03-.782,6.12-2.576,6.49-2.714,0.83-.368,1.1-0.69,1.1-1.2s-0.6-1.1-2.02-1.1a2.083,2.083,0,0,0-1.7.736,12.959,12.959,0,0,1-3.73,1.978,26.612,26.612,0,0,1,1.29-7.129,4.711,4.711,0,0,0,.32-1.472c0-1.38-2.62-2.484-4.55-2.484a3.726,3.726,0,0,0-1.93.414c2.25,1.2,2.25,1.2,2.48,1.7,0.41,0.828.51,3.91,0.51,5.013,0,0.644-.14,4-0.19,4.738a19.175,19.175,0,0,1-5.1,1.288,5.15,5.15,0,0,1-4.05-1.38,4.639,4.639,0,0,0,4.14,3.312,17.841,17.841,0,0,0,4.97-1.012c-0.05,1.1-.1,2.9-0.1,3.312,0,0.92.1,5.382,0.1,6.394-2.53,1.748-5.85,4.047-8.56,6.117a1.68,1.68,0,0,1-1.1.644c-0.46,0-.51-0.046-2.07-1.2a3.54,3.54,0,0,0,.36,2.208,5.045,5.045,0,0,0,3.27,2.07c0.6,0,1.06-.46,1.89-1.7,1.38,1.012,2.76,2.07,2.99,2.254a10.018,10.018,0,0,1,1.79,1.886c0.69,0.966.92,1.288,1.47,1.288,0.92,0,2.44-2.07,2.44-4.922,0-.506-0.28-3.174-0.28-3.588-0.04-1.61-.09-3.219-0.18-4.783,4.74-3.22,9.89-4.508,12.65-4.508,1.88,0,6.81.874,6.81,6.026,0,5.381-5.57,6.577-8.28,6.577a10.909,10.909,0,0,1-7.41-2.714Zm-5.47,1.288c0,1.794-.14,2.668-1.01,2.668a3.59,3.59,0,0,1-1.52-.506c-0.55-.276-2.95-1.288-3.45-1.518a30.416,30.416,0,0,1,5.93-6.025c0.05,1.977.05,2.207,0.05,4.047v1.334Zm16.6-16.789a14.144,14.144,0,0,1,4.37-1.1,3.859,3.859,0,0,1,1.93.552,2.985,2.985,0,0,0,1.15.322,0.869,0.869,0,0,0,.83-1.012c0-2.024-1.7-7.083-9.43-7.083a5.1,5.1,0,0,0-1.33.184c3.45,1.517,6.48,2.9,6.48,4.369,0,0.414-.18.644-1.05,1.426a14.841,14.841,0,0,1-2.95,2.116v0.23Zm63.62-7.313a1.029,1.029,0,0,0-.6-0.828l-1.56-1.288a1.082,1.082,0,0,0-.6-0.368,0.869,0.869,0,0,0-.51.368l-1.28,1.2h-8.47l-3.68-1.932a15.088,15.088,0,0,1,.32,2.162c0.19,1.885.19,6.347,0.19,8.509,0,5.98-.19,13.063-0.37,19.595,0,0.552-.18,3.22-0.18,3.588a0.948,0.948,0,0,0,1.15,1.012,2.014,2.014,0,0,0,1.93-1.1c0-.184-0.05-3.266,0-3.864h9.7c-0.04,1.058-.04,3.082-0.04,3.128,0.04,0.46.27,0.736,1.01,0.736a1.783,1.783,0,0,0,1.84-2.116c0-1.058-.28-6.164-0.28-7.314-0.13-6.485-.18-15.915-0.13-20.055C6808.55,701.843,6808.69,701.751,6808.69,701.338Zm-3.96,25.942h-9.7V701.521h9.7V727.28Zm-13.7-14.167a0.989,0.989,0,0,0-.46-0.69l-2.12-1.84a2,2,0,0,0-.87-0.506,1.462,1.462,0,0,0-.83.966l-0.83,1.472h-4c0.05-1.7.32-9.246,0.32-10.81h7.13a0.563,0.563,0,0,0,.69-0.459,1.154,1.154,0,0,0-.46-0.736l-1.84-1.518a1.9,1.9,0,0,0-.97-0.6,1.236,1.236,0,0,0-.78.736l-1.15,1.472h-8.74a45.868,45.868,0,0,0,1.98-5.2c0.83-.23,1.84-0.6,1.84-1.15a0.9,0.9,0,0,0-.64-0.736l-3.96-1.748a11.733,11.733,0,0,1-.32,3.864,75.61,75.61,0,0,1-5.01,14.719l0.18,0.184a30.367,30.367,0,0,0,5.47-8.832h4.05c0,3.22,0,7.13-.18,10.81h-3.59c-2.39,0-5.29-.138-7.68-0.368l1.1,1.978a37.631,37.631,0,0,1,5.94-.506h4.18c-0.37,9.153-3.17,14.351-11.64,20.7l0.1,0.23c10.35-4.646,12.28-10.672,13.15-14.167a16.019,16.019,0,0,1,4.42,7.267c0.32,1.012.78,2.576,2.16,2.576,1.19,0,1.61-1.2,1.61-2.116,0-3.082-4.42-6.348-8.05-8.325a26.669,26.669,0,0,0,.64-6.164h8.47A0.565,0.565,0,0,0,6791.03,713.113Zm46.55,18.353a31.859,31.859,0,0,0,13.11-2.714c2.25-1.058,6.35-4.14,6.35-8.831,0-3.726-2.95-8-8.7-8-4.69,0-10.99,2.392-15.22,6.21a0.775,0.775,0,0,1-.55.276,0.877,0.877,0,0,1-.6-1.058,40.488,40.488,0,0,1,.92-7.268c0.04-.322.37-1.84,0.37-2.024a10.779,10.779,0,0,0-.51-2.116,7.15,7.15,0,0,1-.46-2.254c0-2.9,3.73-2.989,5.52-2.989a14.921,14.921,0,0,1,4.09.46,4.234,4.234,0,0,0,1.98.643c0.41,0,.87-0.046.87-0.965,0-.6-0.32-2.53-3.03-3.726-3.22-1.38-5.24-2.392-6.67-3.726-0.09,2.208,2.67,4.094,3.63,4.646,0.6,0.322.83,0.414,0.83,0.644a0.371,0.371,0,0,1-.41.368c-5.66,1.15-6.3,1.288-7.41,2.943-0.73,1.1-.73,1.472-0.73,5.06a63.225,63.225,0,0,1-1.02,10.166,24.867,24.867,0,0,0-.46,2.53c0,1.1.88,3.587,2.07,3.587,0.42,0,.56-0.276.97-0.92,1.84-3.127,8.74-9.061,15.64-9.061a6.052,6.052,0,0,1,6.25,6.21c0,4.507-3.77,7.221-8.46,9.2a35.529,35.529,0,0,1-8.37,2.392v0.322Zm55.71-14.857a36.139,36.139,0,0,1,5.1,3.772c0.87,0.873.97,0.965,1.38,0.965s1.79-.276,2.76-2.529c0.97-2.3,1.33-7.866,1.38-10.672a77.047,77.047,0,0,1,8.23-.644c0.37,0,2.17.046,2.58,0.046,0.6,0,1.75,0,1.75-1.242,0-1.15-1.98-1.426-2.76-1.426-0.46,0-1.84.322-2.62,0.46-1.02.23-6.03,1.012-7.13,1.2,0.04-1.748.13-6.393,0.36-7.773a14.686,14.686,0,0,0,.28-1.564c0-1.7-2.85-2.622-4.14-2.622a6.54,6.54,0,0,0-2.71.6c0.82,0.23,2.99.828,3.54,2.3,0.69,1.748.6,7.359,0.55,9.383-4.19.69-8.33,1.564-12.46,2.576,0.04-.782.09-4.508,0.27-5.336a6.5,6.5,0,0,0,.19-1.242c0-.874-2.12-2.253-4.37-2.253a1.88,1.88,0,0,0-1.52.414,5.025,5.025,0,0,1,2.53,2.069c0.5,1.012.5,5.382,0.5,6.9-0.92.23-3.17,0.782-6.11,1.656a7.5,7.5,0,0,1-2.12.414,6.074,6.074,0,0,1-3.82-1.932c-0.23,3.266,3.27,4.876,4.05,4.876a2.944,2.944,0,0,0,1.79-.736c1.29-.782,2.12-1.288,6.21-2.484,0,7.084.19,9.705,1.15,12.189,2.35,6.118,10.12,6.118,14.86,6.118a46.68,46.68,0,0,0,6.39-.322,1.116,1.116,0,0,0,.83-1.058c0-.966-1.33-1.748-2.53-1.748a5.233,5.233,0,0,0-1.7.23,44.577,44.577,0,0,1-7.04.644c-7.86,0-9.89-2.254-9.89-10.671,0-.92,0-1.426.23-6.026,3.55-.874,7.91-1.978,12.51-2.714a76.814,76.814,0,0,1-.73,7.82,1.93,1.93,0,0,1-1.93,1.564c-0.56,0-.65-0.23-5.39-1.288l-0.41-.092Z" transform="translate(-6716.63 -691.781)"/>
</svg>
