<svg xmlns="http://www.w3.org/2000/svg" width="204.562" height="41.312" viewBox="0 0 204.562 41.312">
  <defs>
    <style>
      .cls-1 {
        fill: #4cd0a0;
        fill-rule: evenodd;
      }
    </style>
  </defs>
  <path id="tit_about.svg" class="cls-1" d="M815.7,696a1.065,1.065,0,0,0-.46-0.644l-1.426-1.242a1.665,1.665,0,0,0-.828-0.46,1.461,1.461,0,0,0-.874.506l-0.966.92H782.3l-3.266-1.656c0,0.322.184,2.024,0.184,2.392,0,0.092.184,2.208,0.184,12,0,2.438-.046,15.731-0.368,22.539,0,0.322-.184,1.886-0.184,2.254a0.852,0.852,0,0,0,.966,1.012,2.144,2.144,0,0,0,1.978-1.2,12.28,12.28,0,0,0,0-1.84H811.51v1.7a0.864,0.864,0,0,0,.966,1.012,1.887,1.887,0,0,0,1.932-1.932c0-.828-0.23-10.947-0.276-13.017-0.046-3.726-.046-16.33-0.046-20.837C814.73,697.06,815.7,696.37,815.7,696Zm-4.14,33.486H781.8v-33.3h29.76v33.3Zm-4.37-3.772c0-2.392-5.105-4.048-6.577-4.508a20.586,20.586,0,0,0,4-1.563,3.4,3.4,0,0,0,.92.138,0.665,0.665,0,0,0,.782-0.552,1.1,1.1,0,0,0-.322-0.6l-2.023-1.7a13.522,13.522,0,0,1-4,4.093c-0.644-.184-1.15-0.321-2.53-0.643-0.046-1.472-.046-3.22-0.046-4.692h4.876a0.638,0.638,0,0,0,.736.874c0.276,0,1.517-.322,1.563-1.15,0.046-.46-0.046-3.542-0.046-4.186a2.391,2.391,0,0,0,1.1-1.012,0.756,0.756,0,0,0-.368-0.552l-1.287-1.15a1.28,1.28,0,0,0-.644-0.414,0.933,0.933,0,0,0-.6.46l-0.506.506H790.4l-2.346-.828a9.054,9.054,0,0,1,.322,2.254c0,0.414-.046,1.748-0.092,3.22,0,0.368-.092,2.3-0.092,2.714a0.7,0.7,0,0,0,.782.828,2.184,2.184,0,0,0,1.334-.69,1.018,1.018,0,0,0,.184-0.874h3.634a38.35,38.35,0,0,1-10.855,9.8l0.138,0.276a27.217,27.217,0,0,0,11.913-8.371c-0.046,1.334-.092,3.725-0.138,5.381,0,0.644-.184,3.68-0.184,4.37a0.81,0.81,0,0,0,.644.966,2.1,2.1,0,0,0,1.932-1.932c0-.782-0.138-4.554-0.138-5.427a19.864,19.864,0,0,1,6.807,4.737c1.1,1.2,1.288,1.38,1.886,1.38A1.123,1.123,0,0,0,807.186,725.716Zm-4.875-11.131H790.489v-4.416h11.822v4.416Zm7.129-8.464a0.916,0.916,0,0,0-.506-0.69l-1.288-1.1a1.765,1.765,0,0,0-.828-0.506,1.31,1.31,0,0,0-.782.552l-1.1,1.15h-7.543v-3.542h8.325a0.554,0.554,0,0,0,.69-0.46,0.741,0.741,0,0,0-.46-0.643l-1.242-.92a1.133,1.133,0,0,0-.827-0.414,1.152,1.152,0,0,0-.736.506l-0.828.828h-4.922v-1.1c0.828-.552,1.242-0.828,1.242-1.288,0-.322-0.184-0.368-0.6-0.46l-3.45-.736a22.642,22.642,0,0,1,.6,3.588h-2.162c-2.576,0-5.106-.138-7.682-0.322l1.1,1.977a35.166,35.166,0,0,1,5.934-.552h2.852v3.542h-4.37c-2.53,0-5.106-.138-7.635-0.368l1.058,1.978a35.6,35.6,0,0,1,5.933-.506H808.7C809.072,706.627,809.44,706.535,809.44,706.121ZM853,729.718c10.349-1.012,17.111-8.556,17.111-16.973,0-9.522-8.326-14.3-16.743-14.3-11.776,0-19.549,8.693-19.549,17.939,0,3.128.6,4.737,2.392,6.209a6.256,6.256,0,0,1,1.242,1.242c1.288,1.84,1.61,2.346,2.667,2.346a1.993,1.993,0,0,0,.874-0.184c0.92-.368,2.392-2.53,2.622-2.852,2.622-3.909,3.128-5.059,8.74-16.835,0.966-2.024,1.1-2.208,1.1-2.76,0-.23,0-1.61-2.254-3.5a4.636,4.636,0,0,1,1.7-.23c6.761,0,14.4,4.323,14.4,12.373,0,2.392-.644,12.281-14.4,17.019Zm-9.246-10.9a18.161,18.161,0,0,1-2.668,4.047,1.159,1.159,0,0,1-.874.322c-1.793,0-4-3.081-4-6.577,0-9.016,7.773-15.823,12.925-16.237a4.28,4.28,0,0,1,1.288,2.943c0,1.84-1.334,5.428-2.714,8Zm66.47-22.585a0.628,0.628,0,0,0-.276-0.506l-1.564-1.334a0.839,0.839,0,0,0-.506-0.23,1.162,1.162,0,0,0-.644.414l-0.69.736h-4.416l-2.9-1.7c0.092,0.644.184,1.2,0.23,1.656,0.092,1.61.092,9.153,0.092,11.177v17.663c-2.208,1.2-2.53,1.334-3.5,1.518l2.254,2.9a0.675,0.675,0,0,0,.552.322c0.46,0,.414-0.552.368-1.242,1.1-1.058,6.486-6.3,7.728-7.543,0.046,0.322.184,0.736,0.322,1.333,0.276,1.426.69,1.886,1.472,1.886a1.353,1.353,0,0,0,1.334-1.564,4.913,4.913,0,0,0-1.748-3.5c-0.414-.368-2.622-2.07-3.082-2.438l-0.23.138a15.285,15.285,0,0,1,1.794,3.726c-2.99,2.023-4.876,3.127-4.968,3.173V711.733h4.968c-0.046,1.242-.046,1.564.6,1.564a1.764,1.764,0,0,0,1.7-1.61c0-.276-0.092-1.61-0.138-1.886-0.092-3.45-.138-10.993-0.092-12.419,0.138-.092.6-0.414,0.92-0.6A0.733,0.733,0,0,0,910.227,696.232Zm-3.4,6.623h-4.968v-6.439h4.968v6.439Zm0,7.774h-4.968v-6.67h4.968v6.67Zm21.711,19c0-.368-0.092-0.414-0.69-0.92-0.414-.322-0.552-1.058-1.012-5.566h-0.46a34.66,34.66,0,0,1-1.242,5.106c-0.414.966-.828,0.966-2.944,0.966-1.242,0-1.518-.506-1.564-1.84-0.046-.368-0.046-2.3-0.046-12.1,0.092-.046,1.288-0.552,1.288-1.1,0-.184-0.138-0.322-0.69-0.506l-2.484-.782c0.046-.138.046-0.184,0.23-0.828h7.82c0.322,0,.69-0.046.69-0.46a0.89,0.89,0,0,0-.46-0.736l-1.472-1.38a1.274,1.274,0,0,0-.782-0.506,1.03,1.03,0,0,0-.736.6l-1.012,1.38H919.2a72.7,72.7,0,0,0,1.794-13.477H926a0.556,0.556,0,0,0,.69-0.506,0.989,0.989,0,0,0-.46-0.69l-1.38-1.058a2.251,2.251,0,0,0-.874-0.46,0.993,0.993,0,0,0-.69.552l-0.92,1.058H918.6c-0.874,0-4.185-.046-7.635-0.322l1.058,1.978c0.414-.092.506-0.092,0.69-0.138v12.879c-0.644,0-.828-0.046-2.53-0.138l1.1,1.978a34.184,34.184,0,0,1,5.427-.552c-1.978,7.36-6.623,15.915-12.281,20.423l0.184,0.276c8.234-3.956,12.235-14.121,13.661-18.583,0.046,6.761.046,7.543,0.046,9.061,0,0.69-.046,4.14-0.046,4.922,0,3.128.874,3.358,3.956,3.358a23.909,23.909,0,0,0,4.094-.23C927.062,731.144,928.534,730.592,928.534,729.626ZM918.6,697.474c-0.322,7.865-1.012,10.947-1.61,13.477-1.058-.046-1.564-0.046-2.162-0.046V697.658a28.387,28.387,0,0,1,3.128-.184H918.6Zm-19.549,6.209a0.938,0.938,0,0,0-.46-0.69l-0.966-.828a1.751,1.751,0,0,0-.828-0.552,1.02,1.02,0,0,0-.69.6l-0.736.874h-1.517v-6.761l0.046-.644a6.12,6.12,0,0,1,.874-0.644,0.963,0.963,0,0,0,.551-0.69,0.6,0.6,0,0,0-.459-0.552l-3.91-1.1c0.736,2.484.828,6.9,0.92,10.349-3.45-.138-3.864-0.138-5.842-0.322l1.1,2.024a30.751,30.751,0,0,1,4.37-.506c-0.552,5.428-3.634,14.214-6.532,19l0.322,0.23c2.806-2.8,4.922-6.669,6.578-11.591v0.782c0,5.014-.23,14.811-0.6,19.411a5.712,5.712,0,0,0-.046.69c0,0.23,0,.736.874,0.736,0.368,0,1.656-.184,1.748-1.288,0.046-.092,0-19.549,0-23.275a6.051,6.051,0,0,1,1.655,2.53c0.92,1.978,1.012,2.208,1.7,2.208a1.3,1.3,0,0,0,1.2-1.38c0-1.61-2.3-3.45-4.553-3.818v-4.278h4.507A0.564,0.564,0,0,0,899.049,703.683Zm84.363,13.708a1.249,1.249,0,0,0-.552-0.782l-2.07-1.932a1.913,1.913,0,0,0-.782-0.46,1.4,1.4,0,0,0-.782.6l-1.656,1.978H958.987c1.38-2.024,1.932-2.944,2.622-4.14,0.782,0.092,1.84.184,1.84-.552a0.831,0.831,0,0,0-.46-0.644l-2.944-1.748h14.719c-0.092.966,0.046,1.61,0.828,1.61,0.414,0,1.886-.46,1.886-1.7,0-.322-0.184-2.392-0.184-2.852-0.138-2.392-.138-3.128-0.138-3.91,0.874-.322,1.656-0.644,1.656-1.058a1.024,1.024,0,0,0-.322-0.551l-1.748-1.472a1.691,1.691,0,0,0-.69-0.368,0.868,0.868,0,0,0-.644.46l-1.012,1.288h-6.9V696.37h14.167a0.564,0.564,0,0,0,.69-0.506,1.343,1.343,0,0,0-.506-0.736l-2.208-1.978a1.315,1.315,0,0,0-.782-0.414,1.1,1.1,0,0,0-.69.6l-1.518,1.932H950.478c-2.392,0-5.29-.138-7.636-0.368l1.058,2.024a34.047,34.047,0,0,1,5.934-.552h5.979v4.784h-6.577l-3.082-1.748a26.787,26.787,0,0,1,.322,4.783c0,1.84-.092,4.692-0.184,6.44,0,0.138-.046.6-0.046,0.736a0.771,0.771,0,0,0,.782.92,2.35,2.35,0,0,0,2.116-1.334,5.332,5.332,0,0,0,0-1.242h10.579c-0.322,1.7-1.1,3.4-3.5,7.084h-6.9c-2.392,0-5.29-.184-7.682-0.368l1.1,1.978a37.585,37.585,0,0,1,5.934-.506h6.853c-1.38,1.978-2.76,3.955-4.14,5.887-0.184.276-1.149,1.38-1.287,1.656a0.888,0.888,0,0,0-.138.46c0,0.736,1.2,1.058,1.839,1.058a1.242,1.242,0,0,0,1.15-.782l1.012-2.024c3.358,0.644,5.8,1.242,7.682,1.748-5.658,4.738-13.8,6.808-18.813,7.636V734a32.99,32.99,0,0,0,21.435-7.314,37.938,37.938,0,0,1,11.591,6.164,3.252,3.252,0,0,0,1.886.69,1.431,1.431,0,0,0,1.564-1.38c0-1.886-3.174-3.174-4.232-3.588a88.561,88.561,0,0,0-9.291-3.22,23.3,23.3,0,0,0,4.323-5.381c0.828,0.046,1.886.138,1.886-.552a0.747,0.747,0,0,0-.184-0.6l-1.288-.92h12.144A0.616,0.616,0,0,0,983.412,717.391Zm-18.353-8.786H958.3v-6.348h6.762v6.348Zm9.705,0H967.5v-6.348h7.267v6.348Zm-9.705-7.451H958.3V696.37h6.762v4.784Zm-9.246,7.451H949.1v-6.348h6.715v6.348ZM968,717.9a25.9,25.9,0,0,1-5.06,6.807c-2.392-.414-4.968-0.736-8.648-1.012,0.414-.69,1.242-2.024,2.668-4l1.288-1.794H968Z" transform="translate(-778.844 -692.688)"/>
</svg>
