<?xml version="1.0" encoding="utf-8"?>
<!-- Generator: Adobe Illustrator 26.3.1, SVG Export Plug-In . SVG Version: 6.00 Build 0)  -->
<svg version="1.1" id="btn_tel" xmlns="http://www.w3.org/2000/svg" xmlns:xlink="http://www.w3.org/1999/xlink" x="0px" y="0px"
	 width="300px" height="90px" viewBox="0 0 300 90" style="enable-background:new 0 0 300 90;" xml:space="preserve">
<style type="text/css">
	.st0{fill:#D6E9CA;}
	.st1{fill:#231815;}
</style>
<path class="st0" d="M288,90H12C5.4,90,0,84.6,0,78V12C0,5.4,5.4,0,12,0h276c6.6,0,12,5.4,12,12v66C300,84.6,294.6,90,288,90z"/>
<path class="st1" d="M53.2,46.6c-0.9-0.7-3.5-2.7-4.2-3.3s-1.9-0.7-2.7-0.1c-0.8,0.6-2,1.5-2,1.5c-2.1-2-3.5-4.6-4.2-7.4
	c0,0,1.4-0.6,2.3-1s1.5-1.3,1.4-2.3s-0.7-4.3-0.8-5.4c-0.1-1-0.9-1.9-2.1-2c-1.2-0.1-3.7-0.2-4.7-0.2s-1.9,0.7-2.2,1.7
	c-3.2,11.4,3.6,23.2,15,26.4c1,0.3,2.1-0.1,2.6-1s1.7-3.1,2.2-4.1S54.1,47.2,53.2,46.6z M49.7,53.1c-10.8-3-17.1-14.3-14.1-25
	l5.5,0.1l1,6.4L38.3,36c0.8,4.3,2.6,7.6,5.9,10.6l3.4-2.3l4.8,4L49.7,53.1z"/>
<g>
	<path d="M73.8,62.7c0,0.7-0.3,1.2-0.6,1.4c-0.3,0.2-0.7,0.2-0.8-0.1c-0.1-0.3,0.1-0.5,0.3-0.6c0.5-0.2,0.8-0.9,0.7-1.6l0.2,0
		c0.1,0.2,0.1,0.3,0.1,0.5h3.6v-1h-3.8L73.4,61h7.3l0.6-0.7c0,0,0.6,0.5,1,0.8c0,0.1-0.1,0.2-0.3,0.2h-3.9v1h3.8l0.5-0.5l0.9,0.9
		c-0.1,0.1-0.2,0.1-0.4,0.1c-0.3,0.4-0.7,0.9-1.1,1.2l-0.2-0.1c0.1-0.3,0.3-0.8,0.4-1.2h-3.9v2.8c0,0.1-0.3,0.2-0.7,0.2h-0.1v-3
		H73.8z M76.2,64.3c0,0,0.5,0.3,0.8,0.6c0,0.1-0.2,0.2-0.3,0.2h-2.8l-0.1-0.3h2L76.2,64.3z M82.8,70.2c0.3,0.1,0.4,0.2,0.4,0.3
		c0,0.3-0.3,0.5-1.4,0.5h-3c-1.1,0-1.4-0.2-1.4-1.1v-0.6h-2.6v0.6c0,0.1-0.3,0.3-0.7,0.3H74v-4.4l0.8,0.4h5.9l0.4-0.5l0.9,0.7
		c-0.1,0.1-0.3,0.2-0.5,0.2v3c0,0.1-0.4,0.3-0.7,0.3h-0.1v-0.5h-2.7v0.7c0,0.4,0.1,0.4,0.6,0.4h3.1c0.3,0,0.4,0,0.5-0.1
		c0.1-0.1,0.2-0.5,0.3-1.1h0.2L82.8,70.2z M75.7,63.6l0.4-0.5c0,0,0.4,0.3,0.8,0.6c0,0.1-0.1,0.2-0.3,0.2h-2.5L74,63.6H75.7z
		 M74.7,66.4v1.1h2.6v-1.1H74.7z M77.3,68.9v-1.1h-2.6v1.1H77.3z M78.1,66.4v1.1h2.7v-1.1H78.1z M80.8,68.9v-1.1h-2.7v1.1H80.8z
		 M78.6,64.8h2l0.4-0.5c0,0,0.5,0.3,0.8,0.6c0,0.1-0.1,0.2-0.3,0.2h-2.9L78.6,64.8z M80.7,63.1c0,0,0.5,0.3,0.8,0.6
		c0,0.1-0.1,0.2-0.3,0.2h-2.5l-0.1-0.3h1.7L80.7,63.1z"/>
	<path d="M88.5,61.9c0,0,0.6,0.5,1,0.8c0,0.1-0.2,0.2-0.3,0.2h-4.5l-0.1-0.3H88L88.5,61.9z M87.9,63.5c0,0,0.6,0.4,0.9,0.8
		c0,0.1-0.2,0.2-0.3,0.2h-3.3l-0.1-0.3h2.4L87.9,63.5z M85.1,65.6h2.3l0.5-0.6c0,0,0.6,0.4,0.9,0.8c0,0.1-0.1,0.2-0.3,0.2h-3.3
		L85.1,65.6z M85.3,61.4l-0.1-0.4h2.3l0.5-0.6c0,0,0.6,0.5,0.9,0.8c0,0.1-0.2,0.2-0.3,0.2H85.3z M88.1,66.7l0.9,0.7
		c-0.1,0.1-0.3,0.2-0.5,0.2v3.1c0,0.1-0.4,0.2-0.6,0.2h-0.1v-0.6h-1.9V71c0,0.1-0.3,0.3-0.6,0.3h-0.1v-4.4l0.8,0.3h1.8L88.1,66.7z
		 M87.8,70v-2.5h-1.9V70H87.8z M94.6,63.3c0,0,0.6,0.5,1,0.9c0,0.1-0.1,0.2-0.3,0.2h-2.7v2.3h1.2l0.4-0.5l1,0.7
		c-0.1,0.1-0.3,0.2-0.5,0.2v3.7c0,0.1-0.4,0.3-0.7,0.3h-0.1v-0.7h-3.3V71c0,0.1-0.3,0.3-0.6,0.3h-0.1v-5l0.8,0.4h1.2v-2.3h-2.6
		L89.2,64h2.7v-2.2c-0.8,0.1-1.6,0.3-2.3,0.3l-0.1-0.2c1.7-0.3,3.6-1,4.5-1.5l0.9,0.8c-0.1,0.1-0.3,0.1-0.6,0
		c-0.5,0.2-1.1,0.3-1.7,0.5V64H94L94.6,63.3z M90.7,67V70h3.3V67H90.7z"/>
	<path d="M98.5,64.4c0,0.8-0.3,1.3-0.6,1.5c-0.3,0.2-0.7,0.2-0.8-0.1c-0.1-0.3,0.1-0.5,0.3-0.6c0.5-0.3,0.8-0.9,0.8-1.7l0.2,0
		c0.1,0.2,0.1,0.4,0.2,0.6h5.7c0.5-0.7,1-1.7,1.3-2.5l1.3,0.4c0,0.1-0.2,0.2-0.5,0.2c-0.4,0.6-1.1,1.3-1.8,1.8h2.2l0.5-0.5l0.9,0.9
		c-0.1,0.1-0.2,0.1-0.4,0.1c-0.3,0.4-0.9,0.9-1.4,1.2l-0.2-0.1c0.2-0.3,0.4-0.9,0.6-1.3H98.5z M106.1,66.3c-0.1,0.1-0.2,0.1-0.5,0.2
		c-0.6,1-1.4,1.8-2.4,2.5c1.3,0.7,3,1.1,4.7,1.4l0,0.1c-0.4,0.1-0.6,0.3-0.8,0.7c-1.7-0.4-3.3-0.9-4.5-1.8c-1.5,0.9-3.3,1.5-5.5,1.8
		L97,71c2-0.4,3.7-1.1,5-2c-0.9-0.7-1.6-1.6-2.1-2.7h-1.4L98.4,66h6.2l0.6-0.5L106.1,66.3z M106.6,61.1c-0.1,0.1-0.3,0.1-0.6,0
		c-2.2,0.4-5.4,0.7-8.3,0.8l0-0.2c2.8-0.3,6.3-0.9,8.1-1.4L106.6,61.1z M98.9,62c2.3,0.9,1.5,2.4,0.8,1.8c-0.1-0.6-0.5-1.3-0.9-1.7
		L98.9,62z M100.2,66.3c0.6,0.9,1.4,1.7,2.3,2.3c0.9-0.7,1.5-1.4,2-2.3H100.2z M101.5,61.8c2.1,1.1,1.3,2.6,0.6,2
		c0-0.6-0.4-1.4-0.7-1.9L101.5,61.8z"/>
	<path d="M113.1,60.6c0,0.1-0.2,0.2-0.5,0.2c-0.3,0.9-0.7,1.8-1.2,2.7l0.5,0.2c0,0.1-0.2,0.2-0.4,0.2v7c0,0.1-0.3,0.3-0.6,0.3h-0.1
		v-6.7c-0.5,0.7-1,1.4-1.6,1.9l-0.2-0.1c1.1-1.5,2.2-3.8,2.8-6.1L113.1,60.6z M119.2,62.6c0,0,0.6,0.5,1,0.9c0,0.1-0.2,0.2-0.3,0.2
		h-1.8V70c0,0.7-0.2,1.1-1.5,1.3c-0.1-0.3-0.2-0.5-0.4-0.6c-0.3-0.1-0.7-0.3-1.4-0.4V70c0,0,1.8,0.1,2.1,0.1c0.3,0,0.4-0.1,0.4-0.3
		v-6.2h-4.8l-0.1-0.4h4.9v-2.9l1.2,0.1c0,0.2-0.1,0.3-0.4,0.3v2.5h0.6L119.2,62.6z M113.3,64.9c3,1.6,2.4,3.6,1.5,2.9
		c-0.2-0.9-1-2.1-1.6-2.8L113.3,64.9z"/>
	<path d="M131.2,71.7h-0.5v-12h0.5V71.7z"/>
	<path d="M151.7,65.7c0,0,0.7,0.5,1.1,0.9c0,0.1-0.1,0.2-0.3,0.2h-4.8V71c0,0.1-0.3,0.3-0.7,0.3h-0.1v-4.5h-5l-0.1-0.3h5.1v-4.9
		h-4.4l-0.1-0.3h8.1l0.6-0.8c0,0,0.7,0.5,1.1,0.9c0,0.1-0.1,0.2-0.3,0.2h-4.2v4.9h3.3L151.7,65.7z M143.7,62.3c2.7,2,1.9,4,1.1,3.2
		c-0.1-1-0.7-2.3-1.2-3.1L143.7,62.3z M148.8,65.6c0.5-0.8,1.1-2.2,1.5-3.4l1.2,0.5c0,0.1-0.2,0.2-0.5,0.2c-0.6,1.1-1.4,2.1-2.1,2.8
		L148.8,65.6z"/>
	<path d="M163.8,61.7c-0.1,0.1-0.3,0.2-0.5,0.2v8.8c0,0.1-0.4,0.3-0.7,0.3h-0.1v-1h-5.6v0.7c0,0.1-0.3,0.3-0.7,0.3h-0.1V61l0.9,0.4
		h5.4l0.5-0.5L163.8,61.7z M156.8,61.8v3.7h5.6v-3.7H156.8z M162.4,69.7v-3.9h-5.6v3.9H162.4z"/>
	<path d="M167.3,70.1c2.4-0.9,3.8-2.3,4.2-4.2c-0.5,0.5-1.2,0.8-2.1,0.8c-1.7,0-2.8-1.1-2.8-2.8c0-1.7,1.4-2.8,3-2.8
		c2,0,3.1,1.4,3.1,3.7c0,2.7-2,4.8-5.3,5.7L167.3,70.1z M171.5,65.4c0-0.2,0-0.5,0-0.7c0-2.2-0.8-3.2-2-3.2c-1,0-1.9,0.8-1.9,2.3
		c0,1.4,0.8,2.4,2.1,2.4C170.4,66.2,171.1,66,171.5,65.4z"/>
	<path d="M176.7,62.4c0.4,0,0.8,0.3,0.8,0.8c0,0.4-0.3,0.8-0.8,0.8c-0.4,0-0.8-0.3-0.8-0.8C175.9,62.8,176.2,62.4,176.7,62.4z
		 M176.7,68.3c0.4,0,0.8,0.4,0.8,0.8c0,0.4-0.3,0.8-0.8,0.8c-0.4,0-0.8-0.3-0.8-0.8C175.9,68.6,176.2,68.3,176.7,68.3z"/>
	<path d="M187,65.8c0,3.3-1.6,4.7-3.3,4.7c-1.7,0-3.3-1.4-3.3-4.7s1.6-4.7,3.3-4.7C185.4,61.1,187,62.5,187,65.8z M183.7,70.1
		c1.1,0,2.2-1.1,2.2-4.3c0-3.2-1.1-4.3-2.2-4.3c-1.1,0-2.2,1.1-2.2,4.3C181.5,69,182.6,70.1,183.7,70.1z"/>
	<path d="M194.7,65.8c0,3.3-1.6,4.7-3.3,4.7c-1.7,0-3.3-1.4-3.3-4.7s1.6-4.7,3.3-4.7C193.1,61.1,194.7,62.5,194.7,65.8z M191.4,70.1
		c1.1,0,2.2-1.1,2.2-4.3c0-3.2-1.1-4.3-2.2-4.3c-1.1,0-2.2,1.1-2.2,4.3C189.2,69,190.3,70.1,191.4,70.1z"/>
	<path d="M198.8,65.2c-1.1,0-1.9,0.5-2.6,1.2l-0.2-0.2c0.8-1.1,1.9-1.7,3-1.7c1,0,1.7,0.3,2.6,0.8c0.9,0.6,1.6,0.9,2.4,0.9
		c1.1,0,1.9-0.5,2.6-1.2l0.2,0.2c-0.8,1.1-1.9,1.7-3,1.7c-1,0-1.7-0.3-2.6-0.8C200.3,65.5,199.7,65.2,198.8,65.2z"/>
	<path d="M214.2,69.9v0.4h-5.3v-0.4l2.2-0.1c0-0.8,0-1.6,0-2.4V62l-1.8,0.4v-0.5l2.7-0.7l0.2,0.2l-0.1,2v4c0,0.8,0,1.6,0,2.4
		L214.2,69.9z"/>
	<path d="M222.1,61.3v0.6l-3.6,8.4h-1l-0.1-0.1l3.9-8h-5.3v-0.9H222.1z"/>
	<path d="M226.2,62.4c0.4,0,0.8,0.3,0.8,0.8c0,0.4-0.3,0.8-0.8,0.8c-0.4,0-0.8-0.3-0.8-0.8C225.4,62.8,225.8,62.4,226.2,62.4z
		 M226.2,68.3c0.4,0,0.8,0.4,0.8,0.8c0,0.4-0.3,0.8-0.8,0.8c-0.4,0-0.8-0.3-0.8-0.8C225.4,68.6,225.8,68.3,226.2,68.3z"/>
	<path d="M236.5,65.8c0,3.3-1.6,4.7-3.3,4.7c-1.7,0-3.3-1.4-3.3-4.7s1.6-4.7,3.3-4.7C234.9,61.1,236.5,62.5,236.5,65.8z M233.2,70.1
		c1.1,0,2.2-1.1,2.2-4.3c0-3.2-1.1-4.3-2.2-4.3c-1.1,0-2.2,1.1-2.2,4.3C231.1,69,232.1,70.1,233.2,70.1z"/>
	<path d="M244.3,65.8c0,3.3-1.6,4.7-3.3,4.7c-1.7,0-3.3-1.4-3.3-4.7s1.6-4.7,3.3-4.7C242.7,61.1,244.3,62.5,244.3,65.8z M241,70.1
		c1.1,0,2.2-1.1,2.2-4.3c0-3.2-1.1-4.3-2.2-4.3c-1.1,0-2.2,1.1-2.2,4.3C238.8,69,239.9,70.1,241,70.1z"/>
</g>
<g>
	<path d="M83.9,35.4c0,7.4-3,10.1-6.1,10.1c-3.2,0-6.2-2.7-6.2-10.1c0-7.4,3-10.2,6.2-10.2C80.9,25.2,83.9,27.9,83.9,35.4z
		 M77.8,44.4c1.9,0,3.8-2,3.8-9c0-7.1-1.9-9.1-3.8-9.1c-2,0-3.9,1.9-3.9,9.1C73.9,42.4,75.8,44.4,77.8,44.4z"/>
	<path d="M88.2,44.8c5.4-1.8,8-4.9,8.7-9.1c-1.1,1.1-2.5,1.7-4.2,1.7c-3.3,0-5.9-2.3-5.8-6c0-3.7,2.6-6.2,6.2-6.2
		c3.8,0,6.2,3,6.2,7.9c0,5.7-3.2,10.7-10.8,12.6L88.2,44.8z M97,34.4c0-0.3,0-0.6,0-0.9c0-4.9-1.7-7.1-4-7.1c-2.1,0-3.9,1.6-3.9,4.8
		c0,3.2,1.9,4.7,4.3,4.7C94.8,35.8,96,35.4,97,34.4z"/>
	<path d="M116,39h-3.3v6.1h-2.1V39h-8.3v-1.3l9-12.4h1.4v12.1h3.3V39z M110.7,37.4v-9.5l-6.8,9.5H110.7z"/>
	<path d="M130.9,43v2.1h-12.2v-1.7c1.7-1.8,3.4-3.6,4.8-5c3-3.3,4.3-5.6,4.3-7.9c0-2.5-1.4-4.2-3.8-4.2c-0.5,0-1.2,0.1-1.8,0.2
		l-0.7,2.1c-0.3,1.2-0.7,1.7-1.5,1.7c-0.6,0-1-0.3-1.3-0.9c0.5-2.9,3-4.4,5.9-4.4c3.7,0,5.5,2.1,5.5,5.1c0,2.6-1.3,4.5-5.8,9
		c-0.8,0.8-2.2,2.2-3.7,3.7H130.9z"/>
	<path d="M134,36.8h7v1.6h-7V36.8z"/>
	<path d="M156.6,43v2.1h-12.2v-1.7c1.7-1.8,3.4-3.6,4.8-5c3-3.3,4.3-5.6,4.3-7.9c0-2.5-1.4-4.2-3.8-4.2c-0.5,0-1.2,0.1-1.8,0.2
		l-0.7,2.1c-0.3,1.2-0.7,1.7-1.5,1.7c-0.6,0-1-0.3-1.3-0.9c0.5-2.9,3-4.4,5.9-4.4c3.7,0,5.5,2.1,5.5,5.1c0,2.6-1.3,4.5-5.8,9
		c-0.8,0.8-2.2,2.2-3.7,3.7H156.6z"/>
	<path d="M172.1,25.6v1.3l-7.2,18.2h-2l-0.3-0.3l7.9-17.2H160v-2.1H172.1z"/>
	<path d="M175.3,36.8h7v1.6h-7V36.8z"/>
	<path d="M197.5,44.2v0.9h-11v-0.9l4.4-0.5c0-1.7,0.1-3.3,0.1-4.9V27.4l-4.2,0.5v-1l6-1.6l0.4,0.3l-0.1,4.3v8.8c0,1.6,0,3.3,0.1,4.9
		L197.5,44.2z"/>
	<path d="M204.5,28.2c-0.3,1.1-0.6,1.6-1.5,1.6c-0.6,0-1.1-0.2-1.3-1c0.6-2.6,2.9-3.7,5.5-3.7c3.4,0,5.6,1.9,5.6,4.7
		c0,2.3-1.5,4.1-4.1,4.9c3.2,0.6,4.8,2.4,4.8,5c0,3.3-2.7,5.7-6.6,5.7c-2.9,0-5-1.2-5.7-4c0.3-0.6,0.7-0.9,1.3-0.9
		c0.8,0,1.1,0.6,1.5,1.8l0.5,1.7c0.7,0.2,1.4,0.3,2,0.3c3.1,0,4.7-1.7,4.7-4.5c0-2.8-1.6-4.5-4.9-4.5h-1.4v-1.2h1.2
		c2.8,0,4.5-1.6,4.5-4.3c0-2.3-1.4-3.7-3.8-3.7c-0.6,0-1.1,0.1-1.8,0.2L204.5,28.2z"/>
	<path d="M220.1,28.2c-0.3,1.1-0.6,1.6-1.5,1.6c-0.6,0-1.1-0.2-1.3-1c0.6-2.6,2.9-3.7,5.5-3.7c3.4,0,5.6,1.9,5.6,4.7
		c0,2.3-1.5,4.1-4.1,4.9c3.2,0.6,4.8,2.4,4.8,5c0,3.3-2.7,5.7-6.6,5.7c-2.9,0-5-1.2-5.7-4c0.3-0.6,0.7-0.9,1.3-0.9
		c0.8,0,1.1,0.6,1.5,1.8l0.5,1.7c0.7,0.2,1.4,0.3,2,0.3c3.1,0,4.7-1.7,4.7-4.5c0-2.8-1.6-4.5-4.9-4.5h-1.4v-1.2h1.2
		c2.8,0,4.5-1.6,4.5-4.3c0-2.3-1.4-3.7-3.8-3.7c-0.6,0-1.1,0.1-1.8,0.2L220.1,28.2z"/>
	<path d="M245.6,39h-3.3v6.1h-2.1V39h-8.3v-1.3l9-12.4h1.4v12.1h3.3V39z M240.3,37.4v-9.5l-6.8,9.5H240.3z"/>
</g>
</svg>
