<svg id="daily_line" xmlns="http://www.w3.org/2000/svg" xmlns:xlink="http://www.w3.org/1999/xlink" width="3" height="101" viewBox="0 0 3 101">
  <defs>
    <clipPath id="clip-path">
      <rect id="長方形_13" data-name="長方形 13" width="3" height="98" fill="none"/>
    </clipPath>
  </defs>
  <g id="グループ_9" data-name="グループ 9">
    <g id="グループ_8" data-name="グループ 8" clip-path="url(#clip-path)">
      <path id="パス_236" data-name="パス 236" d="M1.5,2.971a1.37,1.37,0,0,1-.29-.03,2.306,2.306,0,0,1-.28-.079,2.155,2.155,0,0,1-.26-.139,2.105,2.105,0,0,1-.23-.188A1.477,1.477,0,0,1,0,1.485,1.494,1.494,0,0,1,.44.436,2.105,2.105,0,0,1,.67.248,2.155,2.155,0,0,1,.93.109,2.306,2.306,0,0,1,1.21.03a1.43,1.43,0,0,1,.58,0,2.306,2.306,0,0,1,.28.079,2.155,2.155,0,0,1,.26.139,1.451,1.451,0,0,1,.23.188A1.494,1.494,0,0,1,3,1.485a1.477,1.477,0,0,1-.44,1.05,1.451,1.451,0,0,1-.23.188,2.155,2.155,0,0,1-.26.139,2.306,2.306,0,0,1-.28.079,1.37,1.37,0,0,1-.29.03" fill="#ccc"/>
      <path id="パス_237" data-name="パス 237" d="M0,96.574a1.491,1.491,0,0,1,1.5-1.485,1.485,1.485,0,1,1,0,2.971A1.491,1.491,0,0,1,0,96.574m0-5.941a1.491,1.491,0,0,1,1.5-1.485,1.485,1.485,0,1,1,0,2.971A1.491,1.491,0,0,1,0,90.632m0-5.941a1.489,1.489,0,0,1,1.5-1.475A1.485,1.485,0,1,1,0,84.691M0,78.76a1.491,1.491,0,0,1,1.5-1.485A1.485,1.485,0,1,1,0,78.76m0-5.941a1.491,1.491,0,0,1,1.5-1.485,1.485,1.485,0,1,1,0,2.971A1.491,1.491,0,0,1,0,72.819m0-5.941a1.491,1.491,0,0,1,1.5-1.485,1.485,1.485,0,1,1,0,2.971A1.491,1.491,0,0,1,0,66.877m0-5.941a1.491,1.491,0,0,1,1.5-1.485,1.485,1.485,0,1,1,0,2.971A1.491,1.491,0,0,1,0,60.936M0,55A1.5,1.5,0,1,1,1.5,56.48,1.5,1.5,0,0,1,0,55m0-5.931a1.491,1.491,0,0,1,1.5-1.485,1.48,1.48,0,1,1,0,2.961A1.489,1.489,0,0,1,0,49.064m0-5.941a1.491,1.491,0,0,1,1.5-1.485A1.485,1.485,0,1,1,0,43.123m0-5.941A1.491,1.491,0,0,1,1.5,35.7a1.485,1.485,0,1,1,0,2.971A1.491,1.491,0,0,1,0,37.181M0,31.24a1.491,1.491,0,0,1,1.5-1.485,1.485,1.485,0,1,1,0,2.971A1.491,1.491,0,0,1,0,31.24M0,25.3a1.491,1.491,0,0,1,1.5-1.485,1.485,1.485,0,1,1,0,2.971A1.491,1.491,0,0,1,0,25.3m0-5.941a1.489,1.489,0,0,1,1.5-1.475A1.485,1.485,0,1,1,0,19.358m0-5.931a1.491,1.491,0,0,1,1.5-1.485,1.485,1.485,0,1,1,0,2.971A1.491,1.491,0,0,1,0,13.426M0,7.485A1.491,1.491,0,0,1,1.5,6a1.485,1.485,0,1,1,0,2.971A1.491,1.491,0,0,1,0,7.485" transform="translate(0 -0.059)" fill="#ccc"/>
    </g>
  </g>
  <rect id="長方形_14" data-name="長方形 14" width="3" height="3" transform="translate(0 98)" fill="#f6921e" opacity="0"/>
</svg>
