<?xml version="1.0" encoding="utf-8"?>
<!-- Generator: Adobe Illustrator 26.3.1, SVG Export Plug-In . SVG Version: 6.00 Build 0)  -->
<svg version="1.1" id="tit_num01.svg" xmlns="http://www.w3.org/2000/svg" xmlns:xlink="http://www.w3.org/1999/xlink" x="0px"
	 y="0px" width="65px" height="65px" viewBox="0 0 65 65" style="enable-background:new 0 0 65 65;" xml:space="preserve">
<style type="text/css">
	.st0{fill:none;stroke:#E9C893;stroke-linecap:round;stroke-linejoin:round;}
	.st1{fill:#E9C893;}
</style>
<path id="長方形_16" class="st0" d="M0.5,0.5h64v64h-64V0.5z"/>
<g>
	<path class="st1" d="M21.3,47.7c-7.3,0-9.7-7.6-9.7-15.5s3.1-15.7,9.5-15.7c7,0,9.8,7.7,9.8,15.5C30.8,39.9,27.9,47.7,21.3,47.7z
		 M21,18c-4.3,0-5.5,7.4-5.5,14.2c0,6.7,0.7,14.1,5.9,14.1c4.5,0,5.5-7.4,5.5-14.1C26.9,25.2,26.2,18,21,18z"/>
	<path class="st1" d="M43.9,47.6c-6.8,0-9.2-7.4-9.2-13.2c0-9.5,4-17.8,10.7-17.8c5.8,0,6.2,3.8,6.2,4.1c0,1.1-0.9,2.2-2.2,2.2
		c-1.2,0-2.2-0.6-2.3-2.2c-0.2-2-0.5-2.8-1.8-2.8c-4.8,0-6.7,8-7,13.6c1.4-1.6,3.7-3.3,6.7-3.3c6.8,0,8.3,5,8.3,8.7
		C53.4,42,50.5,47.6,43.9,47.6z M44.3,30c-2.2,0-4.9,1.9-5.9,4.1c0,8.3,2.9,12,5.8,12c4.3,0,5.5-5.2,5.5-9.1
		C49.6,34.2,48.8,30,44.3,30z"/>
</g>
</svg>
