<?xml version="1.0" encoding="utf-8"?>
<!-- Generator: Adobe Illustrator 26.3.1, SVG Export Plug-In . SVG Version: 6.00 Build 0)  -->
<svg version="1.1" id="tit_num01.svg" xmlns="http://www.w3.org/2000/svg" xmlns:xlink="http://www.w3.org/1999/xlink" x="0px"
	 y="0px" width="65px" height="65px" viewBox="0 0 65 65" style="enable-background:new 0 0 65 65;" xml:space="preserve">
<style type="text/css">
	.st0{fill:none;stroke:#E9C893;stroke-linecap:round;stroke-linejoin:round;}
	.st1{fill:#E9C893;}
</style>
<path id="長方形_16" class="st0" d="M0.5,0.5h64v64h-64V0.5z"/>
<g>
	<path class="st1" d="M21.3,47.7c-7.3,0-9.7-7.6-9.7-15.5s3.1-15.7,9.5-15.7c7,0,9.8,7.7,9.8,15.5C30.8,39.9,27.9,47.7,21.3,47.7z
		 M21,18c-4.3,0-5.5,7.4-5.5,14.2c0,6.7,0.7,14.1,5.9,14.1c4.5,0,5.5-7.4,5.5-14.1C26.9,25.2,26.2,18,21,18z"/>
	<path class="st1" d="M52.3,20.9c-5.2,8.2-8.1,16.8-8.1,23.3c0,1.6-0.4,3.4-2,3.4c-1.4,0-2.1-1.2-2.1-2.5c0-2.1,0.3-7.7,10.6-24.6
		H39.4c-1,0-2.3,1.5-3.5,6.1c-0.1,0.1-0.3,0.2-0.5,0.2c-0.3,0-0.7-0.2-0.7-0.6c0.6-2.8,1.2-6.2,1.4-8.2c0.1-0.7,0.7-0.8,1.2-0.8
		h15.1c0.6,0,0.9,0.3,0.9,1.2C53.4,19.5,52.8,20.1,52.3,20.9z"/>
</g>
</svg>
