<?xml version="1.0" encoding="utf-8"?>
<!-- Generator: Adobe Illustrator 26.3.1, SVG Export Plug-In . SVG Version: 6.00 Build 0)  -->
<svg version="1.1" id="tit_num01.svg" xmlns="http://www.w3.org/2000/svg" xmlns:xlink="http://www.w3.org/1999/xlink" x="0px"
	 y="0px" width="65px" height="65px" viewBox="0 0 65 65" style="enable-background:new 0 0 65 65;" xml:space="preserve">
<style type="text/css">
	.st0{fill:none;stroke:#E9C893;stroke-linecap:round;stroke-linejoin:round;}
	.st1{fill:#E9C893;}
</style>
<path id="長方形_16" class="st0" d="M0.5,0.5h64v64h-64V0.5z"/>
<g>
	<path class="st1" d="M21.3,47.7c-7.3,0-9.7-7.6-9.7-15.5s3.1-15.7,9.5-15.7c7,0,9.8,7.7,9.8,15.5C30.8,39.9,27.9,47.7,21.3,47.7z
		 M21,18c-4.3,0-5.5,7.4-5.5,14.2c0,6.7,0.7,14.1,5.9,14.1c4.5,0,5.5-7.4,5.5-14.1C26.9,25.2,26.2,18,21,18z"/>
	<path class="st1" d="M51.5,46.6c0,0.1-0.4,0.5-0.6,0.6H35.3c-0.4,0-0.9-0.2-0.9-0.8c0-0.1,0-0.2,0-0.3c0.9-3,4.4-7.7,8.4-12
		c4.5-4.7,6-6.3,6-10.2c0-3.3-1.8-5.9-5.3-5.9c0,0,0,0-0.1,0c-2.4,0-4.8,1.9-4.8,4.7c0,0.2,0.1,0.5,0.3,0.7c0.3,0.5,0.8,0.9,0.8,1.7
		c0,1.4-0.9,2.5-2.4,2.5c-1.9,0-2.5-1.7-2.5-2.8c0-3.3,3.4-8.2,9.1-8.2c4.3,0,8.7,2.3,8.7,7.6c0,4.1-2.6,6.7-5.5,9.2
		c-5.8,5-8.6,7.6-10.1,10.6H48c0.7,0,2.4-1.4,3.7-5.7c0.1,0,0.2,0,0.3,0c0.5,0,0.9,0.2,0.9,0.6v0C52.2,41.8,51.8,44.4,51.5,46.6z"/>
</g>
</svg>
