<?xml version="1.0" encoding="utf-8"?>
<!-- Generator: Adobe Illustrator 26.3.1, SVG Export Plug-In . SVG Version: 6.00 Build 0)  -->
<svg version="1.1" id="tit_num01.svg" xmlns="http://www.w3.org/2000/svg" xmlns:xlink="http://www.w3.org/1999/xlink" x="0px"
	 y="0px" width="65px" height="65px" viewBox="0 0 65 65" style="enable-background:new 0 0 65 65;" xml:space="preserve">
<style type="text/css">
	.st0{fill:none;stroke:#E9C893;stroke-linecap:round;stroke-linejoin:round;}
	.st1{fill:#E9C893;}
</style>
<path id="長方形_16" class="st0" d="M0.5,0.5h64v64h-64V0.5z"/>
<g>
	<path class="st1" d="M21.3,47.7c-7.3,0-9.7-7.6-9.7-15.5s3.1-15.7,9.5-15.7c7,0,9.8,7.7,9.8,15.5C30.8,39.9,27.9,47.7,21.3,47.7z
		 M21,18c-4.3,0-5.5,7.4-5.5,14.2c0,6.7,0.7,14.1,5.9,14.1c4.5,0,5.5-7.4,5.5-14.1C26.9,25.2,26.2,18,21,18z"/>
	<path class="st1" d="M53.3,39.2h-4.3v1.1c0,4.7,0,5.6,3.5,5.6c0.3,0.2,0.4,0.5,0.4,0.7c0,0.3-0.1,0.5-0.5,0.5h-9.9
		c-0.4,0-0.6-0.2-0.6-0.5c0-0.3,0.1-0.5,0.4-0.7c3.2-0.2,3.7-0.2,3.7-4.2v-2.5H34.6c-1.2,0-1.3-0.9-1.3-1.1c0-0.8,0.3-1,0.7-1.7
		c2.9-4.6,9.5-14.4,12.6-19c0.7-1,1-1.1,1.5-1.1c0.8,0,0.9,0.5,0.9,1.2v19.9h4.3c1,0,1.3,0,1.3,0.9C54.6,39.2,54.3,39.2,53.3,39.2z
		 M35.4,37.3h10.4v-7c0-2.2,0.2-8.3,0.2-9.1C43.4,25.3,38.8,32.2,35.4,37.3z"/>
</g>
</svg>
