<?xml version="1.0" encoding="utf-8"?>
<!-- Generator: Adobe Illustrator 26.3.1, SVG Export Plug-In . SVG Version: 6.00 Build 0)  -->
<svg version="1.1" id="tit_num01.svg" xmlns="http://www.w3.org/2000/svg" xmlns:xlink="http://www.w3.org/1999/xlink" x="0px"
	 y="0px" width="65px" height="65px" viewBox="0 0 65 65" style="enable-background:new 0 0 65 65;" xml:space="preserve">
<style type="text/css">
	.st0{fill:none;stroke:#E9C893;stroke-linecap:round;stroke-linejoin:round;}
	.st1{fill:#E9C893;}
</style>
<path id="長方形_16" class="st0" d="M0.5,0.5h64v64h-64V0.5z"/>
<g>
	<path class="st1" d="M21.3,47.7c-7.3,0-9.7-7.6-9.7-15.5s3.1-15.7,9.5-15.7c7,0,9.8,7.7,9.8,15.5C30.8,39.9,27.9,47.7,21.3,47.7z
		 M21,18c-4.3,0-5.5,7.4-5.5,14.2c0,6.7,0.7,14.1,5.9,14.1c4.5,0,5.5-7.4,5.5-14.1C26.9,25.2,26.2,18,21,18z"/>
	<path class="st1" d="M53.3,39.4c0,4.2-3.4,8.3-9.8,8.3c-4.3,0-9.2-2.8-9.2-8c0-4,3.2-6.7,6.2-8.1c0-0.1,0-0.2,0-0.2s0,0,0,0
		c-3.1-1.4-5.1-3.7-5.1-7c0-5.3,4.9-7.7,8.6-7.7c4.2,0,8,2.8,8,7.3c0,3.4-2.1,5.3-5.2,6.6c0,0-0.1,0-0.1,0.1c0,0,0.1,0,0.1,0
		C50.4,32.3,53.3,34.9,53.3,39.4z M42.2,32.3c-2.6,1.5-4.6,4-4.6,7.4c0,3.7,2.3,6.5,6.2,6.5c3.7,0,6.4-2.5,6.4-6.1
		C50.3,36.3,46.8,34.2,42.2,32.3z M43.7,18c-2.7,0-5.3,2-5.3,5.6c0,2.8,2.1,4.6,6.6,6.2c2-0.9,3.8-2.7,3.8-6.1
		C48.9,20.2,47.2,18,43.7,18z"/>
</g>
</svg>
