<?xml version="1.0" encoding="utf-8"?>
<!-- Generator: Adobe Illustrator 26.3.1, SVG Export Plug-In . SVG Version: 6.00 Build 0)  -->
<svg version="1.1" id="tit_num01.svg" xmlns="http://www.w3.org/2000/svg" xmlns:xlink="http://www.w3.org/1999/xlink" x="0px"
	 y="0px" width="65px" height="65px" viewBox="0 0 65 65" style="enable-background:new 0 0 65 65;" xml:space="preserve">
<style type="text/css">
	.st0{fill:none;stroke:#E9C893;stroke-linecap:round;stroke-linejoin:round;}
	.st1{fill:#E9C893;}
</style>
<path id="長方形_16" class="st0" d="M0.5,0.5h64v64h-64V0.5z"/>
<g>
	<path class="st1" d="M21.3,47.7c-7.3,0-9.7-7.6-9.7-15.5s3.1-15.7,9.5-15.7c7,0,9.8,7.7,9.8,15.5C30.8,39.9,27.9,47.7,21.3,47.7z
		 M21,18c-4.3,0-5.5,7.4-5.5,14.2c0,6.7,0.7,14.1,5.9,14.1c4.5,0,5.5-7.4,5.5-14.1C26.9,25.2,26.2,18,21,18z"/>
	<path class="st1" d="M51.9,46.7c0,0.3-0.2,0.5-0.6,0.5h-14c-0.4,0-0.6-0.2-0.6-0.5c0-0.2,0.2-0.5,0.5-0.7c5.4-0.3,5.6-0.6,5.6-4.6
		V21.6c0-0.4-0.1-0.6-0.4-0.6h-5.2c-0.4,0-0.6-0.3-0.6-0.6c0-0.3,0.2-0.6,0.6-0.8c4.4-0.1,6.3-1.5,7.3-2.4c0.4-0.4,0.7-0.6,1.2-0.6
		c0.6,0,0.9,0.5,0.9,1.1c0,0,0,0.1,0,0.1c0,0.8-0.2,1.8-0.2,3.3v19.3c0,4.7,0,5.3,5.1,5.5C51.7,46.2,51.9,46.5,51.9,46.7z"/>
</g>
</svg>
