<?xml version="1.0" encoding="utf-8"?>
<!-- Generator: Adobe Illustrator 26.3.1, SVG Export Plug-In . SVG Version: 6.00 Build 0)  -->
<svg version="1.1" id="tit_num01.svg" xmlns="http://www.w3.org/2000/svg" xmlns:xlink="http://www.w3.org/1999/xlink" x="0px"
	 y="0px" width="65px" height="65px" viewBox="0 0 65 65" style="enable-background:new 0 0 65 65;" xml:space="preserve">
<style type="text/css">
	.st0{fill:none;stroke:#E9C893;stroke-linecap:round;stroke-linejoin:round;}
	.st1{fill:#E9C893;}
</style>
<path id="長方形_16" class="st0" d="M0.5,0.5h64v64h-64V0.5z"/>
<g>
	<path class="st1" d="M21.3,47.7c-7.3,0-9.7-7.6-9.7-15.5s3.1-15.7,9.5-15.7c7,0,9.8,7.7,9.8,15.5C30.8,39.9,27.9,47.7,21.3,47.7z
		 M21,18c-4.3,0-5.5,7.4-5.5,14.2c0,6.7,0.7,14.1,5.9,14.1c4.5,0,5.5-7.4,5.5-14.1C26.9,25.2,26.2,18,21,18z"/>
	<path class="st1" d="M42.7,47.6c-4,0-8.2-2.5-8.2-6.5c0-1.1,0.7-2.8,2.5-2.8c1.5,0,2.2,1.2,2.2,2.3c0,0.6-0.3,1.3-0.4,1.8
		c0,0.1,0,0.3,0,0.4c0,1.8,1.6,3.3,3.9,3.3c4.6,0,6.4-4.3,6.4-8.9c0-3.4-1.5-7.3-5.8-7.3c-2.4,0-4.7,1.5-6,3.5
		c-0.2,0-0.3,0.1-0.6,0.1c-0.5,0-0.9-0.2-1.1-0.9c0.5-4,1.3-10.6,1.5-14.4c0-0.3,0.3-0.8,1-0.8h12.5c0.3,0,0.6,0.1,0.6,0.4
		c0,0.1,0,0.2,0,0.3l-0.9,2.1c-0.2,0.4-0.5,0.6-0.8,0.6l-10.7,0c-0.3,2.6-0.8,7-1.1,9.7c1.3-1.1,3.7-2,5.5-2c0,0,0.1,0,0.1,0
		c6.1,0,9.5,4,9.5,9C52.9,42.1,50.1,47.6,42.7,47.6z"/>
</g>
</svg>
