<?xml version="1.0" encoding="utf-8"?>
<!-- Generator: Adobe Illustrator 26.3.1, SVG Export Plug-In . SVG Version: 6.00 Build 0)  -->
<svg version="1.1" id="tit_num01.svg" xmlns="http://www.w3.org/2000/svg" xmlns:xlink="http://www.w3.org/1999/xlink" x="0px"
	 y="0px" width="65px" height="65px" viewBox="0 0 65 65" style="enable-background:new 0 0 65 65;" xml:space="preserve">
<style type="text/css">
	.st0{fill:none;stroke:#E9C893;stroke-linecap:round;stroke-linejoin:round;}
	.st1{fill:#E9C893;}
</style>
<path id="長方形_16" class="st0" d="M0.5,0.5h64v64h-64V0.5z"/>
<g>
	<path class="st1" d="M21.3,47.7c-7.3,0-9.7-7.6-9.7-15.5s3.1-15.7,9.5-15.7c7,0,9.8,7.7,9.8,15.5C30.8,39.9,27.9,47.7,21.3,47.7z
		 M21,18c-4.3,0-5.5,7.4-5.5,14.2c0,6.7,0.7,14.1,5.9,14.1c4.5,0,5.5-7.4,5.5-14.1C26.9,25.2,26.2,18,21,18z"/>
	<path class="st1" d="M42.1,47.7c-2.4,0-6.7-1.1-6.7-4.7c0-1.2,1-2.2,2.2-2.2c1.3,0,1.9,0.8,2.2,1.9c0.2,0.8,0.1,1.7,0.5,2.4
		c0.4,0.7,1,1.2,2.3,1.2c5.2,0,6.4-7.4,6.4-13.9c-1.8,2.5-4.3,3.2-6,3.2c-8.2,0-8.5-6.6-8.5-8.5c0-5,3.3-10.3,9-10.3
		c7.4,0,9.3,7.8,9.3,13.5C52.7,39.6,50,47.6,42.1,47.7z M43.4,18c-3.7,0-5.3,4.8-5.3,8.4c0,6.8,4.2,7.1,5.4,7.1c0,0,0,0,0.1,0
		c2.2,0,4.6-1.8,5.5-3.9C49,21.3,46.4,18,43.4,18z"/>
</g>
</svg>
