<svg xmlns="http://www.w3.org/2000/svg" width="144.16" height="18.78" viewBox="0 0 144.16 18.78">
  <defs>
    <style>
      .cls-1 {
        fill: #4cd0a0;
        fill-rule: evenodd;
      }
    </style>
  </defs>
  <path id="tit_september.svg" class="cls-1" d="M5662.69,2441.12q-0.195-1.875-1.14-.36a0.947,0.947,0,0,1-.46.48,2.552,2.552,0,0,1-.8-0.52,4.4,4.4,0,0,0-2.43-.82,3.747,3.747,0,0,0-2.34.62,5.009,5.009,0,0,0-2.05,3.12,6.367,6.367,0,0,0,.43,4.08,3.353,3.353,0,0,0,1.11,1.5,20.456,20.456,0,0,0,3.19,1.3,10.819,10.819,0,0,1,3.03,1.36,3.259,3.259,0,0,1,.87,2.4,3.357,3.357,0,0,1-1.2,2.34,3.018,3.018,0,0,1-2.54.82,3.327,3.327,0,0,1-2.37-1.36,14.972,14.972,0,0,1-1.85-4.2,0.8,0.8,0,0,0-.28-0.4,0.311,0.311,0,0,0-.35-0.08c-0.24.11-.38,1.15-0.43,3.12a9.935,9.935,0,0,0,.23,3.52c0.21,0.35.63,0.09,1.26-.76,0.19-.24.31-0.39,0.36-0.44l1.1,0.72a4.347,4.347,0,0,0,4.73.44,5.059,5.059,0,0,0,2.8-4.28c0.39-3.15-1.22-5.12-4.85-5.92q-4.41-.915-3.47-4.88a5.363,5.363,0,0,1,.52-1.36,1.807,1.807,0,0,1,2.83-.68c1.45,0.83,2.56,2.52,3.35,5.08a0.631,0.631,0,0,0,.32.52q0.51-.045.51-3.36c0-.85-0.03-1.52-0.08-2h0Zm16.23-.56a10.332,10.332,0,0,0-2.64-.2c-1.78-.05-3.52-0.08-5.22-0.08s-2.87.03-3.52,0.08a0.293,0.293,0,0,0-.16.04,0.425,0.425,0,0,0-.43.44,0.732,0.732,0,0,0,.82.44,2.426,2.426,0,0,1,.91.24c0.21,0.21.32,2.61,0.33,7.18s-0.07,7.05-.25,7.42a1.978,1.978,0,0,1-1.14.96,0.959,0.959,0,0,0-.67.4c0.02,0.29,2.1.47,6.22,0.52l5.99,0.08a48.327,48.327,0,0,1,.16-5.88c0.08-.61-0.02-0.91-0.28-0.88-0.31.03-.54,0.43-0.67,1.2a5.252,5.252,0,0,1-1.57,3.26,5.355,5.355,0,0,1-3.47.98h-2.05v-7.68q2.445-.315,2.99,2.56c0.19,0.85.4,1.28,0.63,1.28,0.32,0,.48-1.23.48-3.68a36.407,36.407,0,0,1,.08-3.92,0.14,0.14,0,0,0-.1-0.16,2.063,2.063,0,0,0-.38-0.16,0.364,0.364,0,0,0-.43.1,1.625,1.625,0,0,0-.12.78,2.419,2.419,0,0,1-.79,1.78,2.1,2.1,0,0,1-1.69.7l-0.83-.08v-2.88a9.4,9.4,0,0,1,.46-3.64c0.27-.45,1.01-0.68,2.22-0.68a7.457,7.457,0,0,1,1.7.14,2.162,2.162,0,0,1,.98.62,5.175,5.175,0,0,1,.97,1.7,5.723,5.723,0,0,1,.45,1.94,0.387,0.387,0,0,0,.47.4,0.483,0.483,0,0,0,.38-0.5,14.056,14.056,0,0,0,.1-2.06,21.009,21.009,0,0,1,.07-2.76h0Zm13.03,2.08a4.722,4.722,0,0,1,.53,3.8,2.922,2.922,0,0,1-1.64,2.26,7.805,7.805,0,0,1-3.48.22l0.07-3.2a18.791,18.791,0,0,1,.28-3.94,1.06,1.06,0,0,1,1.14-.7A3.492,3.492,0,0,1,5691.95,2442.64Zm-3.47,14.82a1.876,1.876,0,0,1-1.12-.46,10,10,0,0,1-.16-2.94,14.01,14.01,0,0,1,.27-3.26,0.8,0.8,0,0,1,.48-0.5,5.137,5.137,0,0,1,1.46-.02,5.523,5.523,0,0,0,2.81-.56,4.4,4.4,0,0,0,1.95-1.84,4.983,4.983,0,0,0,.63-2.62,5.184,5.184,0,0,0-.59-2.62,3.927,3.927,0,0,0-2.11-1.78,17.873,17.873,0,0,0-4.9-.5,18.983,18.983,0,0,0-4.34.04c-0.34.27-.15,0.52,0.56,0.76a4.538,4.538,0,0,1,1.34.56c0.1,0.19.21,2.64,0.31,7.36q0.12,4.8.08,6.06a2.9,2.9,0,0,1-.39,1.66,1.654,1.654,0,0,1-1.3.6,0.635,0.635,0,0,0-.75.68,0.592,0.592,0,0,0,.15.5,0.82,0.82,0,0,0,.6-0.02,10.812,10.812,0,0,1,2.48-.16c1.42-.03,2.37-0.07,2.87-0.12,0.63-.05.9-0.16,0.79-0.32A1.689,1.689,0,0,0,5688.48,2457.46Zm9.63-14.34c0,1.89.02,3.05,0.04,3.48a0.953,0.953,0,0,0,.2.76c0.21,0.05.39-.49,0.55-1.64a6.32,6.32,0,0,1,1.62-3.44c0.86-.93,1.59-1.13,2.16-0.6q0.4,0.405.59,15.68l-0.86.2c-0.76.19-1.24,0.32-1.44,0.4a0.41,0.41,0,0,0-.3.4c0,0.21,1.21.32,3.63,0.32s3.62-.15,3.62-0.44c0-.32-0.32-0.52-0.98-0.6a1.613,1.613,0,0,1-.93-0.3,2.671,2.671,0,0,1-.37-1.22,47.972,47.972,0,0,1-.32-6.6,52.544,52.544,0,0,1,.2-6.6,4.37,4.37,0,0,1,.36-1.28,0.9,0.9,0,0,1,.78-0.24,2.122,2.122,0,0,1,1.74,1.42,8.589,8.589,0,0,1,.94,2.74c0.21,1.39.41,2.11,0.59,2.16q0.48,0.075.36-4.08l-0.08-3.04q-1.3-.12-12.06-0.32C5698.13,2440.28,5698.11,2441.23,5698.11,2443.12Zm27.55-2.56a10.506,10.506,0,0,0-2.64-.2c-1.79-.05-3.53-0.08-5.23-0.08s-2.87.03-3.52,0.08a0.293,0.293,0,0,0-.16.04,0.425,0.425,0,0,0-.43.44,0.732,0.732,0,0,0,.82.44,2.426,2.426,0,0,1,.91.24c0.21,0.21.32,2.61,0.34,7.18s-0.08,7.05-.26,7.42a1.978,1.978,0,0,1-1.14.96,0.959,0.959,0,0,0-.67.4c0.02,0.29,2.1.47,6.22,0.52l5.99,0.08a48.327,48.327,0,0,1,.16-5.88c0.08-.61-0.01-0.91-0.28-0.88-0.31.03-.54,0.43-0.67,1.2a5.2,5.2,0,0,1-1.57,3.26,5.355,5.355,0,0,1-3.47.98h-2.05v-7.68q2.445-.315,3,2.56c0.18,0.85.39,1.28,0.63,1.28,0.31,0,.47-1.23.47-3.68a36.407,36.407,0,0,1,.08-3.92,0.14,0.14,0,0,0-.1-0.16,2.063,2.063,0,0,0-.38-0.16,0.364,0.364,0,0,0-.43.1,1.625,1.625,0,0,0-.12.78,2.446,2.446,0,0,1-.78,1.78,2.131,2.131,0,0,1-1.7.7l-0.83-.08v-2.88a9.4,9.4,0,0,1,.46-3.64c0.27-.45,1.01-0.68,2.22-0.68a7.4,7.4,0,0,1,1.7.14,2.162,2.162,0,0,1,.98.62,5,5,0,0,1,.97,1.7,5.723,5.723,0,0,1,.45,1.94,0.387,0.387,0,0,0,.47.4,0.483,0.483,0,0,0,.38-0.5,14.056,14.056,0,0,0,.1-2.06,17.926,17.926,0,0,1,.08-2.76h0Zm22.57,0.48c0.06-.03.06-0.07,0.02-0.14a2.493,2.493,0,0,0-.29-0.34c-0.34-.35-1.28-0.44-2.8-0.28l-2.33.24q-2.43,9.285-4.01,13.48-0.63-1.56-4.26-13.72a14.4,14.4,0,0,0-4.26.08,0.6,0.6,0,0,0-.49.4,0.629,0.629,0,0,0,.2.56,1.058,1.058,0,0,0,.73.32,1.294,1.294,0,0,1,1.04,1.38q0.18,1.3.18,7.06v6.36c-1.63.83-2.47,1.36-2.52,1.6,0,0.21.94,0.32,2.83,0.32a15.688,15.688,0,0,0,2.29-.1,0.52,0.52,0,0,0,.55-0.42,1.57,1.57,0,0,0-1.02-.88,2.186,2.186,0,0,1-1.07-.76,9.3,9.3,0,0,1-.13-1.66c-0.04-.97-0.08-2.12-0.12-3.44s-0.08-2.62-.1-3.9-0.03-2.35-.02-3.22a2.791,2.791,0,0,1,.1-1.22,2.174,2.174,0,0,1,.27.8q0.195,1.08,2.15,6.96t2.46,6.96c0.06,0.13.1,0.23,0.12,0.28,0.26,0.53.49,0.67,0.67,0.4,0.32-.37,1.21-3.23,2.68-8.56a63.27,63.27,0,0,1,1.89-6.24c0.16,0,.26,2.12.32,6.36q0,6.84-.24,7.24a0.849,0.849,0,0,1-.55.34c-0.34.12-.66,0.24-0.97,0.36s-0.42.26-.37,0.42c0.05,0.21,1.12.34,3.21,0.38s3.2-.05,3.33-0.26a0.256,0.256,0,0,0-.2-0.28,1.7,1.7,0,0,0-.55-0.16,3.175,3.175,0,0,1-.61-0.14,0.472,0.472,0,0,1-.33-0.22q-0.315-.315-0.24-7.56,0.045-5.235.16-6.36a3.026,3.026,0,0,1,.59-1.68,1.941,1.941,0,0,1,1.3-.72A1.021,1.021,0,0,0,5748.23,2441.04Zm13.04,14.92a4.2,4.2,0,0,1-3.5,1.04l-1.66-.08c-0.02-.85-0.05-2.12-0.08-3.8s-0.05-2.95-.07-3.8l2.36,0.16a6.179,6.179,0,0,1,2.92.58,3.91,3.91,0,0,1,.86,2.38A4.045,4.045,0,0,1,5761.27,2455.96Zm-4.94-14.3c0.25-.41.95-0.55,2.11-0.42a3.956,3.956,0,0,1,2.36.88,4.2,4.2,0,0,1,.51,3.04c-0.13,1.47-.47,2.37-1.02,2.72a18.43,18.43,0,0,1-4.33.24v-2.92A9.385,9.385,0,0,1,5756.33,2441.66Zm-2.8,16.4q1.68,0.135,3.75.12a19.443,19.443,0,0,0,2.97-.18,5.117,5.117,0,0,0,2.96-1.4,4.605,4.605,0,0,0,1.41-3.68,4.324,4.324,0,0,0-1.93-3.32l-1.38-.96,1.11-1.12a6.211,6.211,0,0,0,1.44-1.98,3.458,3.458,0,0,0-.18-1.94,5.456,5.456,0,0,0-1.26-2.24,3.548,3.548,0,0,0-1.97-1.04,36.209,36.209,0,0,0-4.81-.2,16.063,16.063,0,0,0-3.86.2,0.356,0.356,0,0,0-.1.36,0.56,0.56,0,0,0,.33.28,1.623,1.623,0,0,0,.64.12,1.171,1.171,0,0,1,1.22,1.14,68.29,68.29,0,0,1,.19,7.06v7.44c-1.34.4-2.07,0.73-2.2,1C5751.86,2457.85,5752.42,2457.97,5753.53,2458.06Zm26.42-17.5a10.332,10.332,0,0,0-2.64-.2c-1.79-.05-3.53-0.08-5.22-0.08s-2.87.03-3.53,0.08a0.282,0.282,0,0,0-.15.04,0.442,0.442,0,0,0-.44.44,0.747,0.747,0,0,0,.83.44,2.485,2.485,0,0,1,.91.24c0.21,0.21.32,2.61,0.33,7.18s-0.07,7.05-.25,7.42a2.032,2.032,0,0,1-1.15.96,0.99,0.99,0,0,0-.67.4c0.03,0.29,2.1.47,6.23,0.52l5.99,0.08a46.363,46.363,0,0,1,.16-5.88c0.07-.61-0.02-0.91-0.28-0.88-0.32.03-.54,0.43-0.67,1.2a5.206,5.206,0,0,1-1.58,3.26,5.306,5.306,0,0,1-3.46.98h-2.05v-7.68c1.63-.21,2.62.64,2.99,2.56,0.18,0.85.4,1.28,0.63,1.28,0.32,0,.47-1.23.47-3.68,0-2.53.03-3.84,0.08-3.92,0.03-.05,0-0.11-0.09-0.16a2.414,2.414,0,0,0-.38-0.16,0.364,0.364,0,0,0-.43.1,1.625,1.625,0,0,0-.12.78,2.419,2.419,0,0,1-.79,1.78,2.1,2.1,0,0,1-1.69.7l-0.83-.08v-2.88a9.688,9.688,0,0,1,.45-3.64c0.28-.45,1.02-0.68,2.23-0.68a7.3,7.3,0,0,1,1.69.14,2.242,2.242,0,0,1,.99.62,5.008,5.008,0,0,1,.96,1.7,5.543,5.543,0,0,1,.46,1.94,0.384,0.384,0,0,0,.47.4,0.477,0.477,0,0,0,.37-0.5,12.716,12.716,0,0,0,.1-2.06,19.7,19.7,0,0,1,.08-2.76h0Zm8.35,1.08c0.19-.32.84-0.43,1.97-0.32a3.955,3.955,0,0,1,2.57.96,3.272,3.272,0,0,1,.63,2.94,3.494,3.494,0,0,1-1.66,2.58,11.134,11.134,0,0,1-3.78.48v-3.04A12.211,12.211,0,0,1,5788.3,2441.64Zm5.95,6.2a5.784,5.784,0,0,0,1.15-1.72,4.418,4.418,0,0,0,0-2.6,5.026,5.026,0,0,0-1.38-2.36l-1.11-1.08c-0.49.03-1.44,0.05-2.83,0.08s-2.67.06-3.82,0.1-1.88.07-2.17,0.1c-0.26.08-.37,0.2-0.32,0.36a0.816,0.816,0,0,0,.91.36,1.029,1.029,0,0,1,1.1.52,72.884,72.884,0,0,1,.2,7.96q0,4.92-.1,6.22a1.827,1.827,0,0,1-.41,1.42,1.729,1.729,0,0,1-1.11.04,0.415,0.415,0,0,0-.55.06,0.683,0.683,0,0,0,.04.66c0.05,0.16,1.16.27,3.31,0.32,1.31,0.03,2.18.02,2.6-.02s0.63-.17.63-0.38c0-.32-0.31-0.48-0.94-0.48a1.253,1.253,0,0,1-1.3-.94,13.529,13.529,0,0,1-.24-3.82l0.12-3.04a5.163,5.163,0,0,1,3.13.54q0.765,0.615,1.08,3.18a15.774,15.774,0,0,0,.69,3.48,2.1,2.1,0,0,0,1.25,1.24q2.085,0.885,2.79-2.12a6.564,6.564,0,0,0,.24-1.44c-0.05-.48-0.22-0.47-0.51.04a1.633,1.633,0,0,0-.32,1.04,0.735,0.735,0,0,1-.31.72,0.436,0.436,0,0,1-.59-0.24,16.981,16.981,0,0,1-1.03-2.6,11.08,11.08,0,0,0-1.22-2.76c-0.92-1.28-.99-1.92-0.2-1.92A2.345,2.345,0,0,0,5794.25,2447.84Z" transform="translate(-5653.06 -2439.91)"/>
</svg>
