<svg xmlns="http://www.w3.org/2000/svg" width="132.85" height="19.44" viewBox="0 0 132.85 19.44">
  <defs>
    <style>
      .cls-1 {
        fill: #4cd0a0;
        fill-rule: evenodd;
      }
    </style>
  </defs>
  <path id="tit_february.svg" class="cls-1" d="M5139.85,3061.56c-0.29.27-.37,0.48-0.23,0.64a1.667,1.667,0,0,0,1.1.28l1.18,0.08q0,2.565.08,7.62t0.08,7.58l-0.87.2a7.485,7.485,0,0,0-1.26.32c-0.34.11-.41,0.27-0.2,0.48q0.36,0.36,3.75.24c2.26-.08,3.44-0.25,3.54-0.52a0.154,0.154,0,0,0-.1-0.24,2.178,2.178,0,0,0-.59-0.12,6.244,6.244,0,0,0-.69-0.04h-1.37c0-4.85.07-7.45,0.23-7.8a2.877,2.877,0,0,1,2.37.7,2.787,2.787,0,0,1,.86,2.34c0,0.4.09,0.6,0.28,0.6a2.652,2.652,0,0,0,.25-1.22c0.1-.81.17-1.77,0.22-2.86s0.07-2.01.04-2.76v-0.28c-0.08-.75-0.25-1.13-0.51-1.16-0.19-.03-0.28.23-0.28,0.76a2.725,2.725,0,0,1-.92,1.76,2.557,2.557,0,0,1-1.72.96,0.633,0.633,0,0,1-.69-0.4,14.063,14.063,0,0,1-.25-2.36,13.233,13.233,0,0,1,0-3.32c0.15-.59.9-0.88,2.24-0.88a3.993,3.993,0,0,1,2.92.92,5.505,5.505,0,0,1,1.1,2.36,6.285,6.285,0,0,0,.51,1.32c0.11,0.21.2,0.31,0.28,0.28q0.315-.48.32-5.8-10.875,0-11.67.32h0Zm26.99,0a10.332,10.332,0,0,0-2.64-.2c-1.78-.05-3.52-0.08-5.22-0.08s-2.87.03-3.52,0.08a0.293,0.293,0,0,0-.16.04,0.442,0.442,0,0,0-.44.44,0.755,0.755,0,0,0,.83.44,2.485,2.485,0,0,1,.91.24c0.21,0.21.32,2.61,0.33,7.18s-0.07,7.05-.25,7.42a1.969,1.969,0,0,1-1.15.96,0.99,0.99,0,0,0-.67.4c0.03,0.29,2.11.47,6.23,0.52l5.99,0.08a48.327,48.327,0,0,1,.16-5.88c0.08-.61-0.02-0.91-0.28-0.88-0.31.03-.54,0.43-0.67,1.2a5.252,5.252,0,0,1-1.57,3.26,5.355,5.355,0,0,1-3.47.98h-2.05v-7.68q2.445-.315,2.99,2.56c0.19,0.85.4,1.28,0.63,1.28,0.32,0,.48-1.23.48-3.68a36.407,36.407,0,0,1,.08-3.92,0.14,0.14,0,0,0-.1-0.16,2.414,2.414,0,0,0-.38-0.16,0.364,0.364,0,0,0-.43.1,1.625,1.625,0,0,0-.12.78,2.419,2.419,0,0,1-.79,1.78,2.1,2.1,0,0,1-1.69.7l-0.83-.08v-2.88a9.688,9.688,0,0,1,.45-3.64c0.28-.45,1.02-0.68,2.23-0.68a7.3,7.3,0,0,1,1.69.14,2.189,2.189,0,0,1,.99.62,5.175,5.175,0,0,1,.97,1.7,5.723,5.723,0,0,1,.45,1.94,0.387,0.387,0,0,0,.47.4,0.492,0.492,0,0,0,.38-0.5,14.575,14.575,0,0,0,.09-2.06,19.7,19.7,0,0,1,.08-2.76h0Zm13.4,15.4a4.206,4.206,0,0,1-3.51,1.04l-1.65-.08c-0.03-.85-0.05-2.12-0.08-3.8s-0.05-2.95-.08-3.8l2.36,0.16a6.144,6.144,0,0,1,2.92.58,3.964,3.964,0,0,1,.87,2.38A4.076,4.076,0,0,1,5180.24,3076.96Zm-4.95-14.3c0.25-.41.96-0.55,2.11-0.42a4.021,4.021,0,0,1,2.37.88,4.256,4.256,0,0,1,.51,3.04c-0.13,1.47-.47,2.37-1.03,2.72a18.365,18.365,0,0,1-4.33.24v-2.92A9.385,9.385,0,0,1,5175.29,3062.66Zm-2.79,16.4c1.11,0.09,2.36.13,3.74,0.12a19.6,19.6,0,0,0,2.98-.18,5.088,5.088,0,0,0,2.95-1.4,4.648,4.648,0,0,0,1.42-3.68,4.381,4.381,0,0,0-1.93-3.32l-1.38-.96,1.1-1.12a5.9,5.9,0,0,0,1.44-1.98,3.369,3.369,0,0,0-.18-1.94,5.456,5.456,0,0,0-1.26-2.24,3.548,3.548,0,0,0-1.97-1.04,35.916,35.916,0,0,0-4.8-.2,16.118,16.118,0,0,0-3.87.2,0.371,0.371,0,0,0-.09.36,0.53,0.53,0,0,0,.33.28,1.539,1.539,0,0,0,.63.12,1.171,1.171,0,0,1,1.22,1.14,66.9,66.9,0,0,1,.2,7.06v7.44c-1.34.4-2.08,0.73-2.21,1C5170.82,3078.85,5171.38,3078.97,5172.5,3079.06Zm19.01-16.42c0.18-.32.84-0.43,1.97-0.32a3.925,3.925,0,0,1,2.56.96,3.215,3.215,0,0,1,.63,2.94,3.513,3.513,0,0,1-1.65,2.58,11.209,11.209,0,0,1-3.79.48v-3.04A11.673,11.673,0,0,1,5191.51,3062.64Zm5.95,6.2a5.928,5.928,0,0,0,1.14-1.72,4.418,4.418,0,0,0,0-2.6,4.867,4.867,0,0,0-1.38-2.36l-1.1-1.08c-0.5.03-1.45,0.05-2.84,0.08s-2.66.06-3.82,0.1-1.88.07-2.17,0.1c-0.26.08-.37,0.2-0.31,0.36q0.075,0.36.9,0.36a1.036,1.036,0,0,1,1.11.52,74.585,74.585,0,0,1,.19,7.96q0,4.92-.09,6.22a1.857,1.857,0,0,1-.42,1.42,1.7,1.7,0,0,1-1.1.04,0.413,0.413,0,0,0-.55.06,0.634,0.634,0,0,0,.04.66c0.05,0.16,1.15.27,3.31,0.32,1.31,0.03,2.18.02,2.6-.02s0.63-.17.63-0.38c0-.32-0.32-0.48-0.95-0.48a1.253,1.253,0,0,1-1.3-.94,13.529,13.529,0,0,1-.24-3.82l0.12-3.04a5.2,5.2,0,0,1,3.14.54q0.765,0.615,1.08,3.18a15.774,15.774,0,0,0,.69,3.48,2.082,2.082,0,0,0,1.24,1.24q2.085,0.885,2.8-2.12a7.057,7.057,0,0,0,.23-1.44c-0.05-.48-0.22-0.47-0.51.04a1.63,1.63,0,0,0-.31,1.04,0.739,0.739,0,0,1-.32.72,0.436,0.436,0,0,1-.59-0.24,17.364,17.364,0,0,1-1.02-2.6,11.383,11.383,0,0,0-1.23-2.76c-0.92-1.28-.98-1.92-0.19-1.92A2.345,2.345,0,0,0,5197.46,3068.84Zm12.19-6.96a21.44,21.44,0,0,0-2.54-.2c-2.07-.11-3.18-0.05-3.31.16a0.369,0.369,0,0,0,.04.52,2.579,2.579,0,0,0,1.89.52q0.045,2.28.16,6.92t0.16,6.92a8.907,8.907,0,0,0,2.95,2.88,6.077,6.077,0,0,0,2.78.32,7.638,7.638,0,0,0,2.9-.68,4.477,4.477,0,0,0,1.1-.78,3.368,3.368,0,0,0,.61-1.48,15.653,15.653,0,0,0,.34-2.54q0.075-1.44.15-4.44c0.11-3.12.2-5.03,0.28-5.72a1.923,1.923,0,0,1,.55-1.36,2.045,2.045,0,0,1,1.22-.52,0.408,0.408,0,0,0,.51-0.4c0-.27-0.95-0.4-2.87-0.4s-2.93.13-3.04,0.4c-0.07.24,0.15,0.48,0.67,0.72a2.078,2.078,0,0,1,1.25,1.74,39.94,39.94,0,0,1,.17,6.02l-0.12,5.68-1.14,1.2a4.084,4.084,0,0,1-1.24.96,4.7,4.7,0,0,1-1.6.2,2.98,2.98,0,0,1-2.32-.82,5.165,5.165,0,0,1-.97-2.88,46.235,46.235,0,0,1-.02-6.26,36.059,36.059,0,0,1,.46-4.76,1.107,1.107,0,0,1,1-1.08c0.42,0,.63-0.15.63-0.44C5210.3,3062.09,5210.09,3061.96,5209.65,3061.88Zm22.6,9.8a19.539,19.539,0,0,0-3.78.2,1.265,1.265,0,0,1-1.11-.08c-0.15-.24.07-1.27,0.67-3.08,0.92-2.72,1.49-4.08,1.7-4.08a64.684,64.684,0,0,1,2.52,7.04h0Zm-2.68-9.6c-0.26.77-.62,1.85-1.08,3.22s-0.9,2.7-1.32,3.98q-1.74,5.325-2.31,6.7a3.385,3.385,0,0,1-1.16,1.7,1.416,1.416,0,0,0-.91.72c-0.02.32,1.03,0.52,3.16,0.6a10.464,10.464,0,0,0,1.83,0,0.419,0.419,0,0,0,.45-0.36,0.616,0.616,0,0,0-.24-0.42,0.945,0.945,0,0,0-.55-0.26q-1.89-.435-1.06-3.48l0.39-1.56,5.95,0.24,0.59,1.56a11.182,11.182,0,0,1,.54,1.84,1.33,1.33,0,0,1-.1.92,0.99,0.99,0,0,1-.71.36,1.018,1.018,0,0,0-.99.6,0.319,0.319,0,0,0,.04.26,0.6,0.6,0,0,0,.36.16,3.639,3.639,0,0,0,.81.04c0.35-.01.82-0.02,1.39-0.02a14.474,14.474,0,0,0,2.56-.2c0.69-.16.65-0.47-0.11-0.92a2.939,2.939,0,0,1-1.05-1.34c-0.3-.65-0.79-1.98-1.47-3.98q-2.535-7.44-3.71-11.56a0.394,0.394,0,0,0-.43-0.38,0.5,0.5,0,0,0-.48.38Q5229.96,3060.925,5229.57,3062.08Zm16.12,0.56c0.18-.32.84-0.43,1.97-0.32a3.948,3.948,0,0,1,2.56.96,3.272,3.272,0,0,1,.63,2.94,3.494,3.494,0,0,1-1.66,2.58,11.087,11.087,0,0,1-3.78.48v-3.04A11.673,11.673,0,0,1,5245.69,3062.64Zm5.95,6.2a5.928,5.928,0,0,0,1.14-1.72,4.418,4.418,0,0,0,0-2.6,4.867,4.867,0,0,0-1.38-2.36l-1.1-1.08c-0.5.03-1.45,0.05-2.84,0.08s-2.67.06-3.82,0.1-1.88.07-2.17,0.1c-0.26.08-.37,0.2-0.32,0.36a0.816,0.816,0,0,0,.91.36,1.029,1.029,0,0,1,1.1.52,69.982,69.982,0,0,1,.2,7.96q0,4.92-.1,6.22a1.827,1.827,0,0,1-.41,1.42,1.7,1.7,0,0,1-1.1.04,0.426,0.426,0,0,0-.56.06,0.683,0.683,0,0,0,.04.66c0.06,0.16,1.16.27,3.31,0.32,1.32,0.03,2.18.02,2.6-.02s0.63-.17.63-0.38c0-.32-0.31-0.48-0.94-0.48a1.253,1.253,0,0,1-1.3-.94,13.529,13.529,0,0,1-.24-3.82l0.12-3.04a5.145,5.145,0,0,1,3.13.54c0.51,0.41.88,1.47,1.09,3.18a15.774,15.774,0,0,0,.69,3.48,2.082,2.082,0,0,0,1.24,1.24q2.085,0.885,2.79-2.12a6.564,6.564,0,0,0,.24-1.44c-0.05-.48-0.22-0.47-0.51.04a1.633,1.633,0,0,0-.32,1.04,0.735,0.735,0,0,1-.31.72,0.436,0.436,0,0,1-.59-0.24,18.161,18.161,0,0,1-1.03-2.6,11.08,11.08,0,0,0-1.22-2.76c-0.92-1.28-.98-1.92-0.2-1.92A2.355,2.355,0,0,0,5251.64,3068.84Zm7.25-7.48a2.034,2.034,0,0,0-.87.24,0.245,0.245,0,0,0-.06.4,1.82,1.82,0,0,0,.73.48,2.811,2.811,0,0,1,.81.88c0.35,0.51.76,1.16,1.24,1.96s0.9,1.55,1.28,2.24,0.81,1.47,1.28,2.34,0.77,1.42.9,1.66c0,4.13-.03,6.36-0.11,6.68a4.421,4.421,0,0,1-1.03.24,1.464,1.464,0,0,0-.98.44q-0.4.4,0.12,0.48c0.89,0.05,2.25.07,4.09,0.04a13.178,13.178,0,0,0,2.8-.16,0.312,0.312,0,0,0-.18-0.36,2.588,2.588,0,0,0-.71-0.36,2.436,2.436,0,0,0-.84-0.16,0.65,0.65,0,0,1-.71-0.72,56.232,56.232,0,0,1,.06-5.78,10.123,10.123,0,0,1,1-3.1q0.39-.8.81-1.8c0.28-.67.48-1.15,0.61-1.46a5.828,5.828,0,0,1,.67-1.12,10.028,10.028,0,0,1,1.18-1.34,6.061,6.061,0,0,0,1.38-1.44,2.862,2.862,0,0,0-1.42-.18c-1-.04-1.98-0.03-2.95.02s-1.41.15-1.3,0.28a0.319,0.319,0,0,0,.39.32,1.445,1.445,0,0,1,.97.6,1.749,1.749,0,0,1,.53,1.08,16.6,16.6,0,0,1-1.3,3.36c-0.34.72-.57,1.19-0.67,1.4-0.37.77-.7,1.07-0.99,0.88a17.9,17.9,0,0,1-1.81-3.36c-0.37-.77-0.64-1.38-0.83-1.82a3.806,3.806,0,0,1-.31-1.1,0.71,0.71,0,0,1,.1-0.58,1.059,1.059,0,0,1,.53-0.22,0.915,0.915,0,0,0,.79-0.48c0.13-.16-0.11-0.27-0.71-0.32s-1.26-.09-1.95-0.1a6.517,6.517,0,0,1-1.13-.06,2.946,2.946,0,0,0-1.41,0h0Z" transform="translate(-5139.53 -3060.5)"/>
</svg>
