<svg xmlns="http://www.w3.org/2000/svg" width="118.81" height="19.44" viewBox="0 0 118.81 19.44">
  <defs>
    <style>
      .cls-1 {
        fill: #4cd0a0;
        fill-rule: evenodd;
      }
    </style>
  </defs>
  <path id="tit_january.svg" class="cls-1" d="M5657.92,2853.92a1.517,1.517,0,0,0-.79-0.08,0.417,0.417,0,0,0-.07.48,0.467,0.467,0,0,0,.13.34,1.018,1.018,0,0,0,.4.22,2.247,2.247,0,0,0,.49.1c0.16,0.01.36,0.03,0.61,0.06a2.813,2.813,0,0,1,.49.08c0,0.43.01,1.28,0.02,2.56s0.02,2.44.02,3.48,0,2.16-.02,3.36-0.04,2.21-.1,3.04a9.959,9.959,0,0,1-.19,1.68,2.442,2.442,0,0,1-1.87,1.82,2.092,2.092,0,0,1-2.27-.86,1.686,1.686,0,0,1-.51-1.32,0.9,0.9,0,0,1,.94-0.6,1.181,1.181,0,0,0,1.03-.9,2.111,2.111,0,0,0-.08-1.6,1.192,1.192,0,0,0-1.14-.78c-1.03,0-1.66.77-1.89,2.32a3.986,3.986,0,0,0,1.61,4.24,4.074,4.074,0,0,0,4.45.16,5.66,5.66,0,0,0,1.05-.64,2.992,2.992,0,0,0,.65-0.88,3.379,3.379,0,0,0,.35-1.46c0.03-.57.07-1.37,0.14-2.38a30.364,30.364,0,0,0-.02-3.68c-0.03-1.73-.03-3.1,0-4.1a21.206,21.206,0,0,1,.18-2.4,2.4,2.4,0,0,1,.37-1.16,0.7,0.7,0,0,1,.67-0.18,0.468,0.468,0,0,0,.63-0.32c0-.21-0.68-0.35-2.05-0.4a23.357,23.357,0,0,1-3.23-.2h0Zm18.09,10.76a19.452,19.452,0,0,0-3.78.2,1.265,1.265,0,0,1-1.11-.08c-0.16-.24.07-1.27,0.67-3.08,0.92-2.72,1.49-4.08,1.7-4.08a64.684,64.684,0,0,1,2.52,7.04h0Zm-2.68-9.6c-0.26.77-.63,1.85-1.08,3.22s-0.9,2.7-1.32,3.98q-1.74,5.325-2.31,6.7a3.385,3.385,0,0,1-1.16,1.7,1.384,1.384,0,0,0-.91.72q-0.03.48,3.15,0.6a10.609,10.609,0,0,0,1.84,0,0.419,0.419,0,0,0,.45-0.36,0.616,0.616,0,0,0-.24-0.42,0.945,0.945,0,0,0-.55-0.26q-1.89-.435-1.06-3.48l0.39-1.56,5.95,0.24,0.59,1.56a10.05,10.05,0,0,1,.53,1.84,1.284,1.284,0,0,1-.09.92,1.011,1.011,0,0,1-.71.36,1.018,1.018,0,0,0-.99.6,0.285,0.285,0,0,0,.04.26,0.6,0.6,0,0,0,.36.16,3.582,3.582,0,0,0,.8.04c0.36-.01.82-0.02,1.4-0.02a14.474,14.474,0,0,0,2.56-.2c0.69-.16.65-0.47-0.12-0.92a2.994,2.994,0,0,1-1.04-1.34c-0.3-.65-0.79-1.98-1.48-3.98q-2.52-7.44-3.7-11.56a0.394,0.394,0,0,0-.43-0.38,0.5,0.5,0,0,0-.48.38Q5673.72,2853.925,5673.33,2855.08Zm11.8,0.18a0.677,0.677,0,0,0,.41.14,1.324,1.324,0,0,1,.85.24,2.139,2.139,0,0,1,.49,1.16,13.923,13.923,0,0,1,.24,2.38c0.03,0.97.04,2.41,0.04,4.3,0,3.23-.03,5.17-0.1,5.84a2.489,2.489,0,0,1-.65,1.56,3.873,3.873,0,0,1-1.18.92,0.429,0.429,0,0,0-.32.2c-0.21.27,0.75,0.41,2.88,0.44q2.6,0.075,2.76-.36a0.25,0.25,0,0,0-.08-0.26,0.472,0.472,0,0,0-.32-0.1,1.383,1.383,0,0,1-1.02-.88,11.313,11.313,0,0,1-.67-3.6,47.673,47.673,0,0,1-.22-5.64c0.04-1.79.19-2.68,0.46-2.68,0.21,0,.8.83,1.77,2.48q0.315,0.525,2.82,4.48,2.49,3.96,3.17,5.32a1.611,1.611,0,0,0,1.14,1.16c0.29,0,.46-0.39.51-1.18s0.08-3.02.08-6.7v-7.88c1.16-1.07,1.71-1.72,1.66-1.96a7.658,7.658,0,0,0-2.53-.18c-1.52.01-2.28,0.1-2.28,0.26a1.485,1.485,0,0,0,.79.8,2.434,2.434,0,0,1,1.08,1.44,17.626,17.626,0,0,1,.34,3.44q0.075,3.645-.04,5.88c-0.06,1.09-.12,1.52-0.2,1.28a30.3,30.3,0,0,0-2.13-3.16q-2.16-3.045-5.99-9.8c-0.13,0-.39-0.01-0.77-0.04s-0.74-.05-1.1-0.06-0.71-.02-1.06-0.02a2.09,2.09,0,0,0-.81.12,0.252,0.252,0,0,0-.2.32A0.418,0.418,0,0,0,5685.13,2855.26Zm24-.38a21.889,21.889,0,0,0-2.55-.2c-2.07-.11-3.17-0.05-3.31.16a0.378,0.378,0,0,0,.04.52,2.579,2.579,0,0,0,1.89.52q0.045,2.28.16,6.92t0.16,6.92a8.817,8.817,0,0,0,2.96,2.88,6.011,6.011,0,0,0,2.77.32,7.638,7.638,0,0,0,2.9-.68,4.289,4.289,0,0,0,1.1-.78,3.368,3.368,0,0,0,.61-1.48,14.619,14.619,0,0,0,.34-2.54c0.05-.96.1-2.44,0.16-4.44,0.1-3.12.19-5.03,0.27-5.72a1.923,1.923,0,0,1,.55-1.36,2.069,2.069,0,0,1,1.22-.52c0.35,0,.52-0.13.52-0.4s-0.96-.4-2.88-0.4-2.93.13-3.03,0.4c-0.08.24,0.14,0.48,0.67,0.72a2.069,2.069,0,0,1,1.24,1.74,38.574,38.574,0,0,1,.17,6.02l-0.11,5.68-1.15,1.2a4.084,4.084,0,0,1-1.24.96,4.669,4.669,0,0,1-1.59.2,3,3,0,0,1-2.33-.82,5.094,5.094,0,0,1-.96-2.88,44.615,44.615,0,0,1-.02-6.26,34.914,34.914,0,0,1,.45-4.76,1.114,1.114,0,0,1,1-1.08c0.42,0,.64-0.15.64-0.44C5709.78,2855.09,5709.56,2854.96,5709.13,2854.88Zm22.59,9.8a19.539,19.539,0,0,0-3.78.2,1.232,1.232,0,0,1-1.1-.08c-0.16-.24.06-1.27,0.67-3.08,0.92-2.72,1.48-4.08,1.69-4.08a64.684,64.684,0,0,1,2.52,7.04h0Zm-2.68-9.6c-0.26.77-.62,1.85-1.08,3.22s-0.9,2.7-1.32,3.98c-1.16,3.55-1.92,5.78-2.31,6.7a3.324,3.324,0,0,1-1.16,1.7,1.384,1.384,0,0,0-.9.72q-0.045.48,3.15,0.6a10.464,10.464,0,0,0,1.83,0,0.419,0.419,0,0,0,.45-0.36,0.638,0.638,0,0,0-.23-0.42,0.974,0.974,0,0,0-.55-0.26c-1.27-.29-1.62-1.45-1.07-3.48l0.4-1.56,5.95,0.24,0.59,1.56a10.937,10.937,0,0,1,.53,1.84,1.33,1.33,0,0,1-.1.92,0.99,0.99,0,0,1-.71.36,0.991,0.991,0,0,0-.98.6,0.286,0.286,0,0,0,.03.26,0.671,0.671,0,0,0,.36.16,3.639,3.639,0,0,0,.81.04c0.35-.01.82-0.02,1.4-0.02a14.573,14.573,0,0,0,2.56-.2c0.68-.16.64-0.47-0.12-0.92a3.075,3.075,0,0,1-1.05-1.34c-0.3-.65-0.79-1.98-1.47-3.98q-2.52-7.44-3.71-11.56a0.389,0.389,0,0,0-.43-0.38,0.488,0.488,0,0,0-.47.38C5729.44,2853.91,5729.31,2854.31,5729.04,2855.08Zm16.12,0.56c0.18-.32.84-0.43,1.97-0.32a3.925,3.925,0,0,1,2.56.96,3.215,3.215,0,0,1,.63,2.94,3.513,3.513,0,0,1-1.65,2.58,11.209,11.209,0,0,1-3.79.48v-3.04A11.673,11.673,0,0,1,5745.16,2855.64Zm5.95,6.2a5.928,5.928,0,0,0,1.14-1.72,4.418,4.418,0,0,0,0-2.6,4.867,4.867,0,0,0-1.38-2.36l-1.1-1.08c-0.5.03-1.45,0.05-2.84,0.08s-2.66.06-3.82,0.1-1.88.07-2.17,0.1c-0.26.08-.37,0.2-0.31,0.36q0.075,0.36.9,0.36a1.044,1.044,0,0,1,1.11.52,74.585,74.585,0,0,1,.19,7.96q0,4.92-.09,6.22a1.857,1.857,0,0,1-.42,1.42,1.7,1.7,0,0,1-1.1.04,0.413,0.413,0,0,0-.55.06,0.634,0.634,0,0,0,.04.66c0.05,0.16,1.15.27,3.31,0.32,1.31,0.03,2.18.02,2.6-.02s0.63-.17.63-0.38c0-.32-0.32-0.48-0.95-0.48a1.253,1.253,0,0,1-1.3-.94,13.529,13.529,0,0,1-.24-3.82l0.12-3.04a5.2,5.2,0,0,1,3.14.54q0.765,0.615,1.08,3.18a15.774,15.774,0,0,0,.69,3.48,2.082,2.082,0,0,0,1.24,1.24q2.085,0.885,2.8-2.12a7.057,7.057,0,0,0,.23-1.44c-0.05-.48-0.22-0.47-0.51.04a1.63,1.63,0,0,0-.31,1.04,0.739,0.739,0,0,1-.32.72,0.436,0.436,0,0,1-.59-0.24,17.364,17.364,0,0,1-1.02-2.6,11.383,11.383,0,0,0-1.23-2.76c-0.92-1.28-.98-1.92-0.19-1.92A2.345,2.345,0,0,0,5751.11,2861.84Zm7.25-7.48a2.082,2.082,0,0,0-.87.24,0.245,0.245,0,0,0-.06.4,1.82,1.82,0,0,0,.73.48,2.811,2.811,0,0,1,.81.88c0.35,0.51.77,1.16,1.24,1.96s0.9,1.55,1.28,2.24,0.81,1.47,1.28,2.34,0.78,1.42.91,1.66q0,6.2-.12,6.68a4.256,4.256,0,0,1-1.03.24,1.464,1.464,0,0,0-.98.44q-0.39.4,0.12,0.48c0.89,0.05,2.26.07,4.1,0.04a13.026,13.026,0,0,0,2.79-.16c0.06-.11,0-0.23-0.17-0.36a2.918,2.918,0,0,0-.71-0.36,2.532,2.532,0,0,0-.85-0.16,0.655,0.655,0,0,1-.71-0.72c-0.05-3.01-.03-4.94.06-5.78a10.407,10.407,0,0,1,1-3.1q0.4-.8.81-1.8c0.28-.67.48-1.15,0.61-1.46a6.4,6.4,0,0,1,.67-1.12,10.028,10.028,0,0,1,1.18-1.34,6.061,6.061,0,0,0,1.38-1.44,2.821,2.821,0,0,0-1.42-.18c-0.99-.04-1.98-0.03-2.95.02s-1.41.15-1.3,0.28a0.319,0.319,0,0,0,.39.32,1.445,1.445,0,0,1,.97.6,1.749,1.749,0,0,1,.53,1.08,15.931,15.931,0,0,1-1.3,3.36c-0.34.72-.56,1.19-0.67,1.4-0.37.77-.7,1.07-0.98,0.88a16.988,16.988,0,0,1-1.82-3.36c-0.37-.77-0.64-1.38-0.82-1.82a3.877,3.877,0,0,1-.32-1.1,0.751,0.751,0,0,1,.1-0.58,1.059,1.059,0,0,1,.53-0.22,0.9,0.9,0,0,0,.79-0.48c0.13-.16-0.11-0.27-0.71-0.32s-1.26-.09-1.95-0.1a6.237,6.237,0,0,1-1.12-.06,2.989,2.989,0,0,0-1.42,0h0Z" transform="translate(-5653.03 -2853.5)"/>
</svg>
