<svg xmlns="http://www.w3.org/2000/svg" width="70.56" height="19.47" viewBox="0 0 70.56 19.47">
  <defs>
    <style>
      .cls-1 {
        fill: #4cd0a0;
        fill-rule: evenodd;
      }
    </style>
  </defs>
  <path id="tit_june.svg" class="cls-1" d="M5144.54,2232.5a1.482,1.482,0,0,0-.81-0.08,0.432,0.432,0,0,0-.08.48,0.454,0.454,0,0,0,.15.35,0.9,0.9,0,0,0,.4.23,3.16,3.16,0,0,0,.5.1c0.16,0.01.37,0.03,0.62,0.06a2.8,2.8,0,0,1,.5.08c0,0.44.01,1.3,0.02,2.61s0.02,2.49.02,3.54,0,2.21-.02,3.43-0.04,2.25-.1,3.1a10.122,10.122,0,0,1-.2,1.71,2.47,2.47,0,0,1-1.91,1.85,2.105,2.105,0,0,1-2.3-.87,1.762,1.762,0,0,1-.53-1.35,0.937,0.937,0,0,1,.97-0.61,1.191,1.191,0,0,0,1.04-.92,2.143,2.143,0,0,0-.08-1.63,1.2,1.2,0,0,0-1.16-.79c-1.05,0-1.69.79-1.93,2.36a4.034,4.034,0,0,0,1.65,4.32,4.15,4.15,0,0,0,4.53.17,6.447,6.447,0,0,0,1.07-.66,3.253,3.253,0,0,0,.66-0.89,3.672,3.672,0,0,0,.36-1.49c0.03-.59.07-1.39,0.14-2.43a31.529,31.529,0,0,0-.02-3.75c-0.03-1.76-.03-3.16,0-4.17a22.057,22.057,0,0,1,.18-2.45,2.6,2.6,0,0,1,.38-1.18,0.7,0.7,0,0,1,.69-0.19,0.468,0.468,0,0,0,.64-0.32c0-.22-0.7-0.35-2.09-0.41a24.076,24.076,0,0,1-3.29-.2h0Zm16.84,0.98a21.492,21.492,0,0,0-2.59-.21c-2.11-.11-3.24-0.05-3.37.16a0.371,0.371,0,0,0,.04.53,2.555,2.555,0,0,0,1.93.53c0.02,1.55.08,3.9,0.16,7.06s0.13,5.5.16,7.05a9.125,9.125,0,0,0,3.01,2.93,6.112,6.112,0,0,0,2.83.33,7.67,7.67,0,0,0,2.95-.69,4.445,4.445,0,0,0,1.12-.8,3.44,3.44,0,0,0,.63-1.51,16.172,16.172,0,0,0,.34-2.59c0.05-.97.1-2.48,0.16-4.52q0.165-4.77.28-5.83a1.937,1.937,0,0,1,.56-1.38,2.076,2.076,0,0,1,1.25-.53,0.422,0.422,0,0,0,.52-0.41c0-.27-0.98-0.41-2.93-0.41s-2.99.14-3.09,0.41c-0.08.24,0.14,0.49,0.68,0.73a2.1,2.1,0,0,1,1.26,1.77,38.365,38.365,0,0,1,.18,6.14l-0.12,5.79-1.16,1.22a4.266,4.266,0,0,1-1.27.98,4.79,4.79,0,0,1-1.62.2,3.088,3.088,0,0,1-2.37-.83,5.173,5.173,0,0,1-.98-2.94,44.764,44.764,0,0,1-.02-6.38,34.029,34.029,0,0,1,.46-4.85,1.128,1.128,0,0,1,1.02-1.1c0.43,0,.64-0.15.64-0.45C5162.04,2233.69,5161.82,2233.56,5161.38,2233.48Zm15.66,0.38a0.636,0.636,0,0,0,.42.15,1.335,1.335,0,0,1,.86.24,2.243,2.243,0,0,1,.51,1.18,14.59,14.59,0,0,1,.24,2.43c0.02,0.99.04,2.45,0.04,4.38,0,3.29-.04,5.27-0.1,5.95a2.532,2.532,0,0,1-.67,1.59,3.877,3.877,0,0,1-1.2.94,0.409,0.409,0,0,0-.32.2c-0.22.27,0.76,0.42,2.93,0.45,1.77,0.05,2.7-.07,2.81-0.37a0.233,0.233,0,0,0-.08-0.26,0.472,0.472,0,0,0-.32-0.1,1.43,1.43,0,0,1-1.05-.9,11.928,11.928,0,0,1-.68-3.67,49.6,49.6,0,0,1-.22-5.75c0.04-1.82.2-2.73,0.46-2.73,0.22,0,.82.84,1.81,2.53q0.315,0.525,2.87,4.56t3.23,5.43a1.655,1.655,0,0,0,1.17,1.18c0.29,0,.46-0.4.52-1.21s0.08-3.07.08-6.82v-8.03c1.18-1.09,1.74-1.75,1.69-2a7.633,7.633,0,0,0-2.57-.18c-1.56.01-2.33,0.1-2.33,0.26a1.521,1.521,0,0,0,.8.82,2.431,2.431,0,0,1,1.1,1.47,17.2,17.2,0,0,1,.35,3.5q0.075,3.705-.04,5.99c-0.06,1.12-.12,1.55-0.21,1.31a29.226,29.226,0,0,0-2.16-3.22q-2.22-3.1-6.11-9.99c-0.13,0-.39-0.01-0.78-0.04s-0.76-.05-1.12-0.06-0.73-.02-1.09-0.02a2.182,2.182,0,0,0-.82.12c-0.19.08-.26,0.19-0.2,0.33A0.418,0.418,0,0,0,5177.04,2233.86Zm32.62-.71a10.759,10.759,0,0,0-2.69-.2c-1.82-.06-3.59-0.09-5.32-0.09s-2.92.03-3.59,0.09a0.293,0.293,0,0,0-.16.04,0.434,0.434,0,0,0-.44.44,0.736,0.736,0,0,0,.84.45,2.666,2.666,0,0,1,.92.25c0.22,0.22.33,2.65,0.34,7.31s-0.07,7.18-.26,7.56a1.983,1.983,0,0,1-1.16.98,1,1,0,0,0-.68.41c0.02,0.3,2.14.48,6.34,0.53l6.1,0.08a50.2,50.2,0,0,1,.16-5.99c0.08-.62-0.01-0.92-0.28-0.9-0.32.03-.55,0.44-0.68,1.23a5.318,5.318,0,0,1-1.61,3.32,5.441,5.441,0,0,1-3.53,1h-2.09v-7.83q2.49-.33,3.05,2.61c0.19,0.87.4,1.3,0.65,1.3q0.48,0,.48-3.75a37.62,37.62,0,0,1,.08-3.99,0.14,0.14,0,0,0-.1-0.16,2.339,2.339,0,0,0-.38-0.17,0.377,0.377,0,0,0-.45.11,1.646,1.646,0,0,0-.12.79,2.456,2.456,0,0,1-.8,1.81,2.154,2.154,0,0,1-1.73.72l-0.84-.08v-2.94a9.744,9.744,0,0,1,.46-3.71c0.28-.46,1.04-0.69,2.27-0.69a7.7,7.7,0,0,1,1.73.14,2.334,2.334,0,0,1,1,.63,5.142,5.142,0,0,1,.99,1.74,5.973,5.973,0,0,1,.46,1.97,0.4,0.4,0,0,0,.48.41c0.19,0,.31-0.17.38-0.51a13.244,13.244,0,0,0,.1-2.1,20.44,20.44,0,0,1,.08-2.81h0Z" transform="translate(-5139.53 -2232.41)"/>
</svg>
