<svg xmlns="http://www.w3.org/2000/svg" width="60.07" height="19.32" viewBox="0 0 60.07 19.32">
  <defs>
    <style>
      .cls-1 {
        fill: #4cd0a0;
        fill-rule: evenodd;
      }
    </style>
  </defs>
  <path id="tit_may.svg" class="cls-1" d="M5672.21,2026.64a0.089,0.089,0,0,0,.02-0.14,2.06,2.06,0,0,0-.3-0.35c-0.35-.35-1.3-0.45-2.85-0.29l-2.37.25q-2.49,9.45-4.09,13.73-0.645-1.59-4.34-13.98a14.477,14.477,0,0,0-4.34.09,0.6,0.6,0,0,0-.5.4,0.647,0.647,0,0,0,.2.57,1.112,1.112,0,0,0,.74.33,1.326,1.326,0,0,1,1.07,1.41q0.18,1.32.18,7.19v6.48c-1.66.84-2.52,1.39-2.57,1.63,0,0.22.96,0.33,2.89,0.33a17.994,17.994,0,0,0,2.33-.1,0.53,0.53,0,0,0,.56-0.43,1.633,1.633,0,0,0-1.04-.9,2.289,2.289,0,0,1-1.09-.77,10.354,10.354,0,0,1-.14-1.7c-0.04-.99-0.08-2.16-0.12-3.5s-0.07-2.67-.1-3.97-0.03-2.4-.02-3.29a3.145,3.145,0,0,1,.1-1.24,2.115,2.115,0,0,1,.28.82q0.21,1.1,2.19,7.09c1.33,3.99,2.16,6.36,2.51,7.09a2.611,2.611,0,0,0,.12.29c0.27,0.54.5,0.68,0.68,0.4,0.32-.38,1.23-3.28,2.73-8.72a65.735,65.735,0,0,1,1.93-6.36q0.24,0,.32,6.48,0,6.975-.24,7.38a0.89,0.89,0,0,1-.56.35c-0.35.12-.68,0.24-0.98,0.36s-0.44.27-.39,0.43c0.06,0.22,1.15.35,3.28,0.39s3.25-.05,3.39-0.27a0.261,0.261,0,0,0-.2-0.28,1.594,1.594,0,0,0-.56-0.16,3.218,3.218,0,0,1-.63-0.15,0.494,0.494,0,0,1-.34-0.22q-0.315-.33-0.24-7.7,0.045-5.34.16-6.49a3.134,3.134,0,0,1,.6-1.71,2.014,2.014,0,0,1,1.33-.73A1.087,1.087,0,0,0,5672.21,2026.64Zm15.14,9.82a20.319,20.319,0,0,0-3.86.21,1.269,1.269,0,0,1-1.12-.09c-0.16-.24.07-1.29,0.68-3.13,0.94-2.78,1.51-4.16,1.73-4.16a65.886,65.886,0,0,1,2.57,7.17h0Zm-2.73-9.78c-0.27.79-.64,1.88-1.11,3.28s-0.91,2.75-1.34,4.06c-1.18,3.61-1.96,5.89-2.35,6.82a3.438,3.438,0,0,1-1.19,1.74,1.418,1.418,0,0,0-.92.73c-0.03.33,1.05,0.53,3.21,0.61a9.119,9.119,0,0,0,1.87,0,0.429,0.429,0,0,0,.46-0.37,0.616,0.616,0,0,0-.24-0.42,1.017,1.017,0,0,0-.56-0.27q-1.935-.45-1.09-3.55l0.41-1.58,6.06,0.24,0.6,1.59a9.836,9.836,0,0,1,.54,1.87,1.272,1.272,0,0,1-.1.94,1.036,1.036,0,0,1-.72.37,1.015,1.015,0,0,0-1,.61,0.255,0.255,0,0,0,.04.26,0.6,0.6,0,0,0,.36.17,3.738,3.738,0,0,0,.82.04c0.36-.01.84-0.02,1.43-0.02a14.889,14.889,0,0,0,2.61-.21q1.035-.24-0.12-0.93a3.011,3.011,0,0,1-1.07-1.37c-0.31-.66-0.81-2.02-1.5-4.05q-2.58-7.59-3.78-11.78a0.406,0.406,0,0,0-.44-0.39,0.5,0.5,0,0,0-.48.39C5685.02,2025.48,5684.88,2025.89,5684.62,2026.68Zm14.77-.73a2.09,2.09,0,0,0-.88.24,0.254,0.254,0,0,0-.06.41,1.984,1.984,0,0,0,.74.49,2.761,2.761,0,0,1,.82.89c0.37,0.52.79,1.19,1.27,2s0.92,1.58,1.3,2.28,0.83,1.51,1.31,2.39,0.79,1.44.92,1.69q0,6.315-.12,6.81a4.262,4.262,0,0,1-1.04.24,1.548,1.548,0,0,0-1.01.45c-0.26.27-.22,0.43,0.12,0.49,0.91,0.05,2.31.07,4.18,0.04a13.669,13.669,0,0,0,2.85-.16,0.328,0.328,0,0,0-.18-0.37,2.531,2.531,0,0,0-.72-0.37,2.6,2.6,0,0,0-.87-0.16,0.67,0.67,0,0,1-.72-0.73c-0.05-3.07-.03-5.04.06-5.89a10.591,10.591,0,0,1,1.03-3.16c0.26-.55.54-1.16,0.82-1.84s0.49-1.17.62-1.48a6.045,6.045,0,0,1,.68-1.15,10.391,10.391,0,0,1,1.21-1.36,5.958,5.958,0,0,0,1.4-1.47,2.917,2.917,0,0,0-1.44-.18c-1.02-.04-2.02-0.04-3.01.02s-1.44.15-1.33,0.28a0.329,0.329,0,0,0,.4.33,1.44,1.44,0,0,1,.99.61,1.783,1.783,0,0,1,.54,1.1,16.173,16.173,0,0,1-1.33,3.43c-0.34.73-.57,1.2-0.68,1.42-0.37.79-.71,1.09-1,0.9a17.437,17.437,0,0,1-1.85-3.43c-0.37-.78-0.66-1.4-0.84-1.85a3.667,3.667,0,0,1-.32-1.12,0.726,0.726,0,0,1,.1-0.59,1.052,1.052,0,0,1,.54-0.23,0.906,0.906,0,0,0,.8-0.49c0.14-.16-0.11-0.27-0.72-0.32s-1.28-.09-1.99-0.1a10.184,10.184,0,0,1-1.14-.06,3.113,3.113,0,0,0-1.45,0h0Z" transform="translate(-5653.06 -2025.06)"/>
</svg>
