<svg xmlns="http://www.w3.org/2000/svg" width="337.81" height="42.718" viewBox="0 0 337.81 42.718">
  <defs>
    <style>
      .cls-1 {
        fill: #4cd0a0;
        fill-rule: evenodd;
      }
    </style>
  </defs>
  <path id="tit_everyday.svg" class="cls-1" d="M5204.01,715.561a1.07,1.07,0,0,0-.45-0.72l-1.71-1.755a1.368,1.368,0,0,0-.81-0.5,1.1,1.1,0,0,0-.72.585l-1.3,1.8h-4.73c0.05-2.79.14-5.985,0.36-7.83,0.95-.4,1.31-0.585,1.31-1.035a0.744,0.744,0,0,0-.41-0.54l-1.93-1.62a1.63,1.63,0,0,0-.68-0.27,2.218,2.218,0,0,0-.54.315l-1.44,1.305h-15.75l-3.33-1.845c0.05,1.89.14,3.285-1.03,11.52h-0.72c-2.34,0-5.18-.18-7.52-0.36l1.08,1.935a36.777,36.777,0,0,1,5.81-.5h1.17c-0.59,3.6-1.22,7.2-2.07,10.8-0.41,1.8-.5,2.025-0.5,2.2,0,0.765.63,0.99,1.4,0.99,1.66,0,1.8-.99,2.11-3.465h19.22c-0.72,2.88-1.22,3.915-3.2,3.915a21.559,21.559,0,0,1-4.32-.63l-0.04.27a16.438,16.438,0,0,1,2.7,2.205,4.057,4.057,0,0,1,.85,1.665c5.36-.4,6.21-4.68,6.66-7.425h9.45a0.586,0.586,0,0,0,.68-0.5,0.924,0.924,0,0,0-.45-0.675l-2.03-1.71a2.259,2.259,0,0,0-.85-0.45,1.756,1.756,0,0,0-.72.54l-1.35,1.71h-4.59a73.866,73.866,0,0,0,.67-9.449h9.05A0.56,0.56,0,0,0,5204.01,715.561Zm-12.06-9.18c-0.04,2.385-.13,6.21-0.18,8.6h-8.28l0.68-8.6h7.78Zm-10.26,0-0.63,8.6h-7.83c0.54-3.555.63-3.96,1.22-7.92,0.04-.09.09-0.585,0.13-0.675h7.11Zm10.04,9.675a56.921,56.921,0,0,1-.72,9.449h-8.73l1.12-9.449h8.33Zm-10.76,0-1.12,9.449h-8.1l1.35-9.449h7.87Zm21.42-16.47a0.893,0.893,0,0,0-.4-0.675l-2.12-1.98a1.414,1.414,0,0,0-.81-0.5,1.86,1.86,0,0,0-.76.585l-1.8,1.98h-24.26c0.72-1.26,1.31-2.25,2.12-3.69,1.62-.315,1.8-0.45,1.8-0.945a0.987,0.987,0,0,0-.63-0.764l-3.87-2.025a9.682,9.682,0,0,1-.45,2.879,74.268,74.268,0,0,1-8.42,15.7l0.32,0.225a37.461,37.461,0,0,0,8.46-10.3h30.15A0.549,0.549,0,0,0,5202.39,699.586Zm43.02-.765a1.083,1.083,0,0,0-.54-0.855l-1.71-1.485a1.268,1.268,0,0,0-.72-0.4,1.52,1.52,0,0,0-.85.5l-1.31,1.17h-16.42l-3.83-2.07c0.59,1.89.77,2.835,0.77,14.76,0,3.06-.09,14.354-0.36,18.224-0.05.4-.23,2.3-0.23,2.745a1.048,1.048,0,0,0,1.13,1.17,2.035,2.035,0,0,0,1.75-1.17,5.476,5.476,0,0,0,.09-2.025h17.87c0,0.225-.09,1.845-0.09,1.98a0.941,0.941,0,0,0,1.03,1.125,1.8,1.8,0,0,0,1.89-1.89c0-.45-0.18-2.52-0.18-3.015-0.18-5.985-.31-21.779-0.13-27.179C5244.51,699.811,5245.41,699.316,5245.41,698.821Zm-4.32,13.68h-17.91v-13.68h17.91V712.5Zm0,15.794h-17.91V713.581h17.91V728.3Zm41.99,1.44c10.12-.99,16.74-8.37,16.74-16.6,0-9.315-8.15-14-16.38-14-11.52,0-19.13,8.5-19.13,17.55,0,3.059.59,4.634,2.34,6.074a6.309,6.309,0,0,1,1.22,1.215c1.26,1.8,1.57,2.295,2.61,2.295a1.929,1.929,0,0,0,.85-0.18c0.9-.36,2.34-2.475,2.57-2.79,2.56-3.825,3.06-4.95,8.55-16.469,0.94-1.98,1.08-2.16,1.08-2.7,0-.225,0-1.575-2.21-3.42a4.547,4.547,0,0,1,1.67-.225c6.61,0,14.08,4.23,14.08,12.105,0,2.34-.63,12.014-14.08,16.649Zm-9.05-10.665a17.774,17.774,0,0,1-2.61,3.96,1.123,1.123,0,0,1-.85.315c-1.76,0-3.92-3.015-3.92-6.434,0-8.82,7.61-15.48,12.65-15.885a4.19,4.19,0,0,1,1.26,2.88c0,1.8-1.31,5.31-2.66,7.83Zm49.68,15.21a20.853,20.853,0,0,0,5.81-3.195,16.694,16.694,0,0,0,6.25-13.139,11.519,11.519,0,0,0-1.44-6.03c-0.04-1.17-.04-1.845-0.04-2.745,0-.765,0-2.385.09-4.365,1.98-.135,4-0.225,5.98-0.225a41.12,41.12,0,0,1,8.33.72,2.094,2.094,0,0,0,.76.135,1,1,0,0,0,1.08-.855c0-.72-1.44-1.98-3.19-1.98-0.14,0-1.71.135-2.03,0.18-1.53.135-9.13,0.405-10.84,0.54a47.168,47.168,0,0,1,.45-5.805,13.153,13.153,0,0,0,.27-1.35,1.381,1.381,0,0,0-.72-1.215,7.942,7.942,0,0,0-3.33-1.349,4.38,4.38,0,0,0-2.12.719c1.31,0.585,2.39,1.08,2.97,2.2,0.5,0.855.59,5.67,0.63,6.93-4.32.36-12.46,1.62-14.53,1.98a18.864,18.864,0,0,1-2.48.36c-1.12,0-2.02-.45-3.33-2.16a3.569,3.569,0,0,0-.13.99c0,1.98,2.65,4.23,3.51,4.23a13.979,13.979,0,0,0,1.75-.675,49.2,49.2,0,0,1,15.21-3.24v4.095c0,0.315.05,0.585,0.05,1.305a6.3,6.3,0,0,0-2.7-.72,5.642,5.642,0,0,0-5.36,5.76c0,3.914,3.2,6.974,5.31,6.974a5.142,5.142,0,0,0,2.66-.945c-0.45,2.925-1.35,7.515-9,12.6Zm5.45-22.9c2.2,0,3.46,1.35,3.46,4.95,0,0.5,0,3.824-2.47,3.824-1.89,0-4.1-2.249-4.1-4.9A3.789,3.789,0,0,1,5329.16,711.376Zm46.84-4.1c0.99-.45,5.67-2.565,6.75-3.015a12.772,12.772,0,0,1,5.54-.945c1.26,0,2.25,0,2.25-1.08,0-1.8-3.51-2.475-5.4-2.475-0.45,0-2.66.09-3.2,0.09-5.94,0-9.45-1.08-11.74-2.79,0.04,0.585.09,1.755,2.02,2.925,1.53,0.9,3.96,1.935,8.6,2.07,0.67,0,.9.27,0.9,0.5a0.985,0.985,0,0,1-.54.585c-0.77.5-4.32,3.285-5.18,3.87v0.27Zm18.63-12.645a14.557,14.557,0,0,1,6.21,5.085,1.441,1.441,0,0,0,.95.72c0.67,0,.76-0.99.76-1.44,0-1.665-.94-2.565-3.51-3.645A9.3,9.3,0,0,0,5394.63,694.636Zm-26.28,20.97a5.709,5.709,0,0,0-1.62,4.364c0,8.28,12.02,8.37,14.45,8.37,1.44,0,11.11-.585,13.77-1.755a1.212,1.212,0,0,0,.81-1.17c0-1.215-1.98-1.575-2.84-1.575a4.53,4.53,0,0,0-1.44.36,42.507,42.507,0,0,1-12.15,1.845c-2.97,0-6.07-.36-8.05-1.845a7.953,7.953,0,0,1-3.24-6.254A11.7,11.7,0,0,1,5368.35,715.606Zm21.38-19.17a19.7,19.7,0,0,1,5.89,5.175,1.677,1.677,0,0,0,1.22.99c0.58,0,.81-0.9.81-1.35C5397.65,700.261,5396.48,696.976,5389.73,696.436Zm58.32,24.974c-3.92,3.87-13.68,8.55-19.31,8.55-1.66,0-3.37-.315-4.36-1.62-0.9-1.215-.9-5.175-0.9-6.93a131.523,131.523,0,0,1,1.62-20.249c0.13-.81.36-2.07,0.36-2.475,0-1.17-2.52-3.33-4.41-3.33a2.262,2.262,0,0,0-1.98.72c1.84,0.72,3.15,1.17,3.15,4.95,0,1.26-.23,7.335-0.27,8.73s-0.27,10.3-.27,10.979c0,4.545.36,7.38,1.84,9.09,1.58,1.8,5.45,2.07,6.66,2.07,7.11,0,14.76-4.185,18-10.3Zm52.38-19.349a0.818,0.818,0,0,0-.45-0.675l-2.48-2.295a1.075,1.075,0,0,0-.81-0.5c-0.22,0-.31.045-0.72,0.585l-1.8,2.295h-13.86c0.05-.81,0-4.725.05-5.58,0.99-.63,1.75-1.035,1.75-1.53a0.861,0.861,0,0,0-.67-0.675l-4.59-1.259c0.72,1.979.99,2.654,0.99,9.044h-10.13c-0.81,0-4.09-.09-7.47-0.36l1.08,1.935a36.947,36.947,0,0,1,5.76-.5h9.81a8.035,8.035,0,0,1,.09,1.35,38.7,38.7,0,0,1-3.96,17.054,29.815,29.815,0,0,1-11.92,12.465l0.13,0.36c11.61-4.095,15.57-13.095,17.55-21.869h11.97a83.779,83.779,0,0,1-1.3,13.274c-0.86,4.05-1.62,4.77-3.2,4.77a39.219,39.219,0,0,1-6.12-1.035l-0.09.225a9.487,9.487,0,0,1,4.41,4.725c1.53-.18,4.37-0.45,5.99-3.33,1.48-2.7,2.65-10.665,3.01-17.459,0.72-.4,1.67-0.9,1.67-1.35a0.74,0.74,0,0,0-.36-0.54l-2.39-1.665a1.514,1.514,0,0,0-.67-0.315c-0.14,0-.18.045-0.5,0.45l-0.72,1.17h-11.47a47.086,47.086,0,0,0,.81-5.445c0.72-.315,1.53-0.675,1.53-1.35a0.546,0.546,0,0,0-.45-0.585l-2.21-.9h21.06A0.554,0.554,0,0,0,5500.43,702.061Z" transform="translate(-5162.63 -691.563)"/>
</svg>
