<svg xmlns="http://www.w3.org/2000/svg" width="131.69" height="19.03" viewBox="0 0 131.69 19.03">
  <defs>
    <style>
      .cls-1 {
        fill: #4cd0a0;
        fill-rule: evenodd;
      }
    </style>
  </defs>
  <path id="tit_december.svg" class="cls-1" d="M5144.15,2863.66c-0.08-4.01-.08-6.69,0-8.02a0.583,0.583,0,0,1,.49-0.46,8.065,8.065,0,0,1,1.6.06,6.975,6.975,0,0,1,1.83.34,3.48,3.48,0,0,1,1.16.94,6.008,6.008,0,0,1,1.4,2.68,19.077,19.077,0,0,1,.33,4.48c-0.08,3.15-.59,5.26-1.55,6.34s-2.69,1.54-5.18,1.38C5144.25,2870.25,5144.23,2867.67,5144.15,2863.66Zm-3.86,8.64c0.49,0.04,1.74.03,3.74-.02,2.91-.08,4.86-0.36,5.83-0.84a6.682,6.682,0,0,0,2.68-3.4,12.281,12.281,0,0,0,.75-4.78,11.94,11.94,0,0,0-.79-4.82,9.07,9.07,0,0,0-1.36-2.24,6.373,6.373,0,0,0-1.67-1.52c-0.4-.24-2.05-0.43-4.97-0.56s-4.48-.09-4.69.12c-0.29.4-.33,0.63-0.14,0.68s0.52,0.12.95,0.2a0.9,0.9,0,0,1,.73.36,20.553,20.553,0,0,1,.35,3.44c0.11,1.87.19,4.1,0.26,6.7s0.11,4.18.14,4.74a5.091,5.091,0,0,1-2.01,1.04,0.471,0.471,0,0,0-.55.52C5139.54,2872.13,5139.79,2872.26,5140.29,2872.3Zm28.33-17.74a10.506,10.506,0,0,0-2.64-.2c-1.79-.05-3.53-0.08-5.22-0.08s-2.88.03-3.53,0.08a0.317,0.317,0,0,0-.16.04,0.432,0.432,0,0,0-.43.44,0.74,0.74,0,0,0,.82.44,2.426,2.426,0,0,1,.91.24c0.21,0.21.32,2.61,0.34,7.18s-0.08,7.05-.26,7.42a1.978,1.978,0,0,1-1.14.96,0.959,0.959,0,0,0-.67.4c0.02,0.29,2.1.47,6.22,0.52l5.99,0.08a48.327,48.327,0,0,1,.16-5.88c0.08-.61-0.01-0.91-0.28-0.88-0.31.03-.53,0.43-0.67,1.2a5.2,5.2,0,0,1-1.57,3.26,5.355,5.355,0,0,1-3.47.98h-2.05v-7.68q2.445-.315,3,2.56c0.18,0.85.39,1.28,0.63,1.28,0.31,0,.47-1.23.47-3.68,0-2.53.03-3.84,0.08-3.92a0.14,0.14,0,0,0-.1-0.16,2.255,2.255,0,0,0-.37-0.16,0.379,0.379,0,0,0-.44.1,1.625,1.625,0,0,0-.12.78,2.446,2.446,0,0,1-.78,1.78,2.119,2.119,0,0,1-1.7.7l-0.83-.08v-2.88a9.4,9.4,0,0,1,.46-3.64c0.27-.45,1.02-0.68,2.22-0.68a7.4,7.4,0,0,1,1.7.14,2.162,2.162,0,0,1,.98.62,5,5,0,0,1,.97,1.7,5.723,5.723,0,0,1,.45,1.94,0.387,0.387,0,0,0,.47.4,0.483,0.483,0,0,0,.38-0.5,14.056,14.056,0,0,0,.1-2.06,17.926,17.926,0,0,1,.08-2.76h0Zm15.44,11.76c-0.18.03-.34,0.48-0.47,1.36a5.368,5.368,0,0,1-1.22,2.6,3.427,3.427,0,0,1-3.79,1.26,4.689,4.689,0,0,1-3.15-3.18,8.52,8.52,0,0,1-.45-2.06,37.441,37.441,0,0,1-.02-3.86,32.628,32.628,0,0,1,.18-3.78,3.715,3.715,0,0,1,.65-1.58,4.031,4.031,0,0,1,3.94-1.92,2.908,2.908,0,0,1,1.73.82,6.269,6.269,0,0,1,1.18,2.3,26.422,26.422,0,0,0,.95,2.48q0.195,0.435.27,0.36a22.073,22.073,0,0,0,.2-3.6c0.08-2.35-.02-3.56-0.31-3.64a0.442,0.442,0,0,0-.42.24,3.414,3.414,0,0,0-.43.88,4.667,4.667,0,0,1-.26.64l-0.82-.64a4.245,4.245,0,0,0-4.14-.72,6.993,6.993,0,0,0-2.41,1.4,7.968,7.968,0,0,0-1.69,2.48,10.566,10.566,0,0,0-.85,2.14,14.759,14.759,0,0,0-.29,2.54,14.229,14.229,0,0,0,.23,3.84,9.341,9.341,0,0,0,1.38,3,6.562,6.562,0,0,0,4.08,3.12,4.951,4.951,0,0,0,4.43-1.36,5.353,5.353,0,0,0,1.23-1.86,5.749,5.749,0,0,0,.55-2.18c0-.75-0.09-1.11-0.28-1.08h0Zm15.6-11.76a10.332,10.332,0,0,0-2.64-.2c-1.78-.05-3.52-0.08-5.22-0.08s-2.87.03-3.52,0.08a0.293,0.293,0,0,0-.16.04,0.425,0.425,0,0,0-.43.44,0.732,0.732,0,0,0,.82.44,2.426,2.426,0,0,1,.91.24c0.21,0.21.32,2.61,0.34,7.18s-0.08,7.05-.26,7.42a1.978,1.978,0,0,1-1.14.96,0.959,0.959,0,0,0-.67.4c0.02,0.29,2.1.47,6.22,0.52l5.99,0.08a48.327,48.327,0,0,1,.16-5.88c0.08-.61-0.01-0.91-0.28-0.88-0.31.03-.54,0.43-0.67,1.2a5.2,5.2,0,0,1-1.57,3.26,5.355,5.355,0,0,1-3.47.98h-2.05v-7.68q2.445-.315,3,2.56c0.18,0.85.39,1.28,0.63,1.28,0.31,0,.47-1.23.47-3.68a36.407,36.407,0,0,1,.08-3.92,0.14,0.14,0,0,0-.1-0.16,2.063,2.063,0,0,0-.38-0.16,0.364,0.364,0,0,0-.43.1,1.625,1.625,0,0,0-.12.78,2.419,2.419,0,0,1-.79,1.78,2.1,2.1,0,0,1-1.69.7l-0.83-.08v-2.88a9.4,9.4,0,0,1,.46-3.64c0.27-.45,1.01-0.68,2.22-0.68a7.4,7.4,0,0,1,1.7.14,2.162,2.162,0,0,1,.98.62,5.175,5.175,0,0,1,.97,1.7,5.723,5.723,0,0,1,.45,1.94,0.387,0.387,0,0,0,.47.4,0.483,0.483,0,0,0,.38-0.5,14.056,14.056,0,0,0,.1-2.06,21.009,21.009,0,0,1,.07-2.76h0Zm22.58,0.48c0.05-.03.06-0.07,0.02-0.14a2.493,2.493,0,0,0-.29-0.34c-0.35-.35-1.28-0.44-2.8-0.28l-2.33.24q-2.43,9.285-4.01,13.48c-0.43-1.04-1.84-5.61-4.26-13.72a14.4,14.4,0,0,0-4.26.08,0.584,0.584,0,0,0-.49.4,0.629,0.629,0,0,0,.2.56,1.058,1.058,0,0,0,.73.32,1.294,1.294,0,0,1,1.04,1.38q0.18,1.3.18,7.06v6.36c-1.63.83-2.47,1.36-2.52,1.6,0,0.21.94,0.32,2.83,0.32a15.688,15.688,0,0,0,2.29-.1,0.52,0.52,0,0,0,.55-0.42,1.6,1.6,0,0,0-1.02-.88,2.186,2.186,0,0,1-1.07-.76,9.3,9.3,0,0,1-.13-1.66c-0.04-.97-0.08-2.12-0.12-3.44s-0.08-2.62-.1-3.9-0.03-2.35-.02-3.22a2.791,2.791,0,0,1,.1-1.22,2.174,2.174,0,0,1,.27.8q0.2,1.08,2.15,6.96t2.46,6.96c0.06,0.13.09,0.23,0.12,0.28,0.26,0.53.49,0.67,0.67,0.4,0.32-.37,1.21-3.23,2.68-8.56a63.27,63.27,0,0,1,1.89-6.24c0.16,0,.26,2.12.32,6.36q0,6.84-.24,7.24a0.849,0.849,0,0,1-.55.34c-0.34.12-.66,0.24-0.97,0.36s-0.42.26-.37,0.42c0.05,0.21,1.12.34,3.21,0.38s3.2-.05,3.33-0.26a0.256,0.256,0,0,0-.2-0.28,1.7,1.7,0,0,0-.55-0.16,3.175,3.175,0,0,1-.61-0.14,0.472,0.472,0,0,1-.33-0.22q-0.315-.315-0.24-7.56,0.045-5.235.16-6.36a3.026,3.026,0,0,1,.59-1.68,1.941,1.941,0,0,1,1.3-.72A1.021,1.021,0,0,0,5222.24,2855.04Zm13.04,14.92a4.2,4.2,0,0,1-3.5,1.04l-1.66-.08c-0.02-.85-0.05-2.12-0.08-3.8s-0.05-2.95-.08-3.8l2.37,0.16a6.092,6.092,0,0,1,2.91.58,3.838,3.838,0,0,1,.87,2.38A4.045,4.045,0,0,1,5235.28,2869.96Zm-4.94-14.3c0.25-.41.95-0.55,2.11-0.42a3.956,3.956,0,0,1,2.36.88,4.256,4.256,0,0,1,.51,3.04c-0.13,1.47-.47,2.37-1.02,2.72a18.484,18.484,0,0,1-4.34.24v-2.92A9.3,9.3,0,0,1,5230.34,2855.66Zm-2.8,16.4c1.12,0.09,2.37.13,3.74,0.12a19.5,19.5,0,0,0,2.98-.18,5.058,5.058,0,0,0,2.95-1.4,4.582,4.582,0,0,0,1.42-3.68,4.353,4.353,0,0,0-1.93-3.32l-1.38-.96,1.11-1.12a6.211,6.211,0,0,0,1.44-1.98,3.458,3.458,0,0,0-.18-1.94,5.456,5.456,0,0,0-1.26-2.24,3.548,3.548,0,0,0-1.97-1.04,36.209,36.209,0,0,0-4.81-.2,16.063,16.063,0,0,0-3.86.2,0.356,0.356,0,0,0-.1.36,0.56,0.56,0,0,0,.33.28,1.623,1.623,0,0,0,.64.12,1.177,1.177,0,0,1,1.22,1.14,68.29,68.29,0,0,1,.19,7.06v7.44c-1.34.4-2.07,0.73-2.2,1C5225.87,2871.85,5226.42,2871.97,5227.54,2872.06Zm26.42-17.5a10.332,10.332,0,0,0-2.64-.2c-1.79-.05-3.53-0.08-5.22-0.08s-2.87.03-3.53,0.08a0.282,0.282,0,0,0-.15.04,0.442,0.442,0,0,0-.44.44,0.747,0.747,0,0,0,.83.44,2.485,2.485,0,0,1,.91.24c0.21,0.21.32,2.61,0.33,7.18s-0.07,7.05-.26,7.42a1.978,1.978,0,0,1-1.14.96,0.99,0.99,0,0,0-.67.4c0.03,0.29,2.1.47,6.23,0.52l5.99,0.08a48.649,48.649,0,0,1,.15-5.88c0.08-.61-0.01-0.91-0.27-0.88-0.32.03-.54,0.43-0.67,1.2a5.206,5.206,0,0,1-1.58,3.26,5.325,5.325,0,0,1-3.46.98h-2.05v-7.68c1.63-.21,2.62.64,2.99,2.56,0.18,0.85.4,1.28,0.63,1.28,0.32,0,.47-1.23.47-3.68,0-2.53.03-3.84,0.08-3.92,0.03-.05,0-0.11-0.1-0.16a1.927,1.927,0,0,0-.37-0.16,0.364,0.364,0,0,0-.43.1,1.625,1.625,0,0,0-.12.78,2.419,2.419,0,0,1-.79,1.78,2.112,2.112,0,0,1-1.69.7l-0.83-.08v-2.88a9.473,9.473,0,0,1,.45-3.64c0.28-.45,1.02-0.68,2.23-0.68a7.3,7.3,0,0,1,1.69.14,2.242,2.242,0,0,1,.99.62,5.008,5.008,0,0,1,.96,1.7,5.777,5.777,0,0,1,.46,1.94,0.384,0.384,0,0,0,.47.4,0.477,0.477,0,0,0,.37-0.5,12.716,12.716,0,0,0,.1-2.06,19.7,19.7,0,0,1,.08-2.76h0Zm8.35,1.08c0.19-.32.84-0.43,1.97-0.32a3.955,3.955,0,0,1,2.57.96,3.272,3.272,0,0,1,.63,2.94,3.494,3.494,0,0,1-1.66,2.58,11.134,11.134,0,0,1-3.78.48v-3.04A12.211,12.211,0,0,1,5262.31,2855.64Zm5.95,6.2a5.784,5.784,0,0,0,1.15-1.72,4.418,4.418,0,0,0,0-2.6,5.026,5.026,0,0,0-1.38-2.36l-1.11-1.08c-0.5.03-1.44,0.05-2.83,0.08s-2.67.06-3.82,0.1-1.88.07-2.17,0.1c-0.26.08-.37,0.2-0.32,0.36a0.816,0.816,0,0,0,.91.36,1.029,1.029,0,0,1,1.1.52,72.884,72.884,0,0,1,.2,7.96q0,4.92-.1,6.22a1.87,1.87,0,0,1-.41,1.42,1.729,1.729,0,0,1-1.11.04,0.415,0.415,0,0,0-.55.06,0.683,0.683,0,0,0,.04.66c0.05,0.16,1.16.27,3.31,0.32,1.31,0.03,2.18.02,2.6-.02s0.63-.17.63-0.38c0-.32-0.31-0.48-0.94-0.48a1.253,1.253,0,0,1-1.3-.94,13.529,13.529,0,0,1-.24-3.82l0.12-3.04a5.163,5.163,0,0,1,3.13.54q0.765,0.615,1.08,3.18a15.774,15.774,0,0,0,.69,3.48,2.1,2.1,0,0,0,1.25,1.24q2.085,0.885,2.79-2.12a6.564,6.564,0,0,0,.24-1.44c-0.05-.48-0.22-0.47-0.51.04a1.633,1.633,0,0,0-.32,1.04,0.735,0.735,0,0,1-.31.72,0.436,0.436,0,0,1-.59-0.24,15.946,15.946,0,0,1-1.03-2.6,11.08,11.08,0,0,0-1.22-2.76c-0.92-1.28-.99-1.92-0.2-1.92A2.345,2.345,0,0,0,5268.26,2861.84Z" transform="translate(-5139.53 -2853.88)"/>
</svg>
