<svg xmlns="http://www.w3.org/2000/svg" width="97.38" height="19.78" viewBox="0 0 97.38 19.78">
  <defs>
    <style>
      .cls-1 {
        fill: #4cd0a0;
        fill-rule: evenodd;
      }
    </style>
  </defs>
  <path id="tit_march.svg" class="cls-1" d="M5672.21,3061.64a0.089,0.089,0,0,0,.02-0.14,2.06,2.06,0,0,0-.3-0.35c-0.35-.35-1.3-0.45-2.85-0.29l-2.37.25q-2.49,9.45-4.09,13.73-0.645-1.59-4.34-13.98a14.477,14.477,0,0,0-4.34.09,0.6,0.6,0,0,0-.5.4,0.647,0.647,0,0,0,.2.57,1.112,1.112,0,0,0,.74.33,1.326,1.326,0,0,1,1.07,1.41q0.18,1.32.18,7.19v6.48c-1.66.84-2.52,1.39-2.57,1.63,0,0.22.96,0.33,2.89,0.33a17.994,17.994,0,0,0,2.33-.1,0.53,0.53,0,0,0,.56-0.43,1.633,1.633,0,0,0-1.04-.9,2.289,2.289,0,0,1-1.09-.77,10.354,10.354,0,0,1-.14-1.7c-0.04-.99-0.08-2.16-0.12-3.5s-0.07-2.67-.1-3.97-0.03-2.4-.02-3.29a3.145,3.145,0,0,1,.1-1.24,2.115,2.115,0,0,1,.28.82q0.21,1.1,2.19,7.09c1.33,3.99,2.16,6.36,2.51,7.09a2.611,2.611,0,0,0,.12.29c0.27,0.54.5,0.68,0.68,0.4,0.32-.38,1.23-3.28,2.73-8.72a65.735,65.735,0,0,1,1.93-6.36q0.24,0,.32,6.48,0,6.975-.24,7.38a0.89,0.89,0,0,1-.56.35c-0.35.12-.68,0.24-0.98,0.36s-0.44.27-.39,0.43c0.06,0.22,1.15.35,3.28,0.39s3.25-.05,3.39-0.27a0.261,0.261,0,0,0-.2-0.28,1.594,1.594,0,0,0-.56-0.16,3.218,3.218,0,0,1-.63-0.15,0.494,0.494,0,0,1-.34-0.22q-0.315-.33-0.24-7.7,0.045-5.34.16-6.49a3.134,3.134,0,0,1,.6-1.71,2.014,2.014,0,0,1,1.33-.73A1.087,1.087,0,0,0,5672.21,3061.64Zm15.14,9.82a20.319,20.319,0,0,0-3.86.21,1.269,1.269,0,0,1-1.12-.09c-0.16-.24.07-1.29,0.68-3.13,0.94-2.78,1.51-4.16,1.73-4.16a65.886,65.886,0,0,1,2.57,7.17h0Zm-2.73-9.78c-0.27.79-.64,1.88-1.11,3.28s-0.91,2.75-1.34,4.06c-1.18,3.61-1.96,5.89-2.35,6.82a3.438,3.438,0,0,1-1.19,1.74,1.418,1.418,0,0,0-.92.73c-0.03.33,1.05,0.53,3.21,0.61a9.119,9.119,0,0,0,1.87,0,0.429,0.429,0,0,0,.46-0.37,0.616,0.616,0,0,0-.24-0.42,1.017,1.017,0,0,0-.56-0.27q-1.935-.45-1.09-3.55l0.41-1.58,6.06,0.24,0.6,1.59a9.836,9.836,0,0,1,.54,1.87,1.272,1.272,0,0,1-.1.94,1.036,1.036,0,0,1-.72.37,1.015,1.015,0,0,0-1,.61,0.255,0.255,0,0,0,.04.26,0.6,0.6,0,0,0,.36.17,3.738,3.738,0,0,0,.82.04c0.36-.01.84-0.02,1.43-0.02a14.889,14.889,0,0,0,2.61-.21q1.035-.24-0.12-0.93a3.011,3.011,0,0,1-1.07-1.37c-0.31-.66-0.81-2.02-1.5-4.05q-2.58-7.59-3.78-11.78a0.406,0.406,0,0,0-.44-0.39,0.5,0.5,0,0,0-.48.39C5685.02,3060.48,5684.88,3060.89,5684.62,3061.68Zm18.43,0.57c0.18-.33.85-0.43,2-0.33a4,4,0,0,1,2.61.98,3.306,3.306,0,0,1,.65,3,3.6,3.6,0,0,1-1.69,2.63,11.783,11.783,0,0,1-3.86.49v-3.1A11.976,11.976,0,0,1,5703.05,3062.25Zm6.06,6.32a6.062,6.062,0,0,0,1.16-1.75,4.425,4.425,0,0,0,0-2.65,5.058,5.058,0,0,0-1.4-2.41l-1.13-1.1c-0.51.03-1.47,0.06-2.89,0.08s-2.71.06-3.89,0.1-1.92.08-2.21,0.11c-0.27.08-.38,0.2-0.32,0.36,0.05,0.25.36,0.37,0.92,0.37a1.071,1.071,0,0,1,1.13.53,75.693,75.693,0,0,1,.2,8.11c0,3.34-.04,5.46-0.1,6.34a1.9,1.9,0,0,1-.43,1.45,1.827,1.827,0,0,1-1.12.04,0.424,0.424,0,0,0-.56.06,0.651,0.651,0,0,0,.04.67c0.05,0.16,1.18.27,3.37,0.33,1.34,0.02,2.22.02,2.65-.02s0.64-.17.64-0.39c0-.33-0.32-0.49-0.96-0.49a1.293,1.293,0,0,1-1.33-.96,14,14,0,0,1-.24-3.89l0.12-3.1a5.291,5.291,0,0,1,3.2.55c0.52,0.42.89,1.5,1.1,3.24a16.372,16.372,0,0,0,.7,3.55,2.162,2.162,0,0,0,1.27,1.26q2.13,0.9,2.85-2.16a6.769,6.769,0,0,0,.24-1.47c-0.05-.49-0.23-0.47-0.52.04a1.652,1.652,0,0,0-.32,1.06,0.764,0.764,0,0,1-.32.74,0.454,0.454,0,0,1-.61-0.25,17.777,17.777,0,0,1-1.04-2.65,11.254,11.254,0,0,0-1.25-2.81c-0.93-1.3-1-1.95-.2-1.95A2.4,2.4,0,0,0,5709.11,3068.57Zm20.27,4.56c-0.18.03-.34,0.49-0.48,1.39a5.476,5.476,0,0,1-1.24,2.65,3.479,3.479,0,0,1-3.86,1.28,4.78,4.78,0,0,1-3.21-3.24,8.855,8.855,0,0,1-.46-2.1,35.966,35.966,0,0,1-.02-3.93,36.625,36.625,0,0,1,.18-3.85,3.676,3.676,0,0,1,.66-1.61,4.121,4.121,0,0,1,4.02-1.96,2.9,2.9,0,0,1,1.76.84,6.464,6.464,0,0,1,1.21,2.34c0.45,1.3.77,2.15,0.96,2.53,0.14,0.3.23,0.42,0.28,0.36a22.772,22.772,0,0,0,.2-3.66c0.08-2.4-.02-3.63-0.32-3.71a0.451,0.451,0,0,0-.42.24,3.405,3.405,0,0,0-.44.9,6.527,6.527,0,0,1-.26.65l-0.85-.65a4.33,4.33,0,0,0-4.21-.74,7.047,7.047,0,0,0-2.45,1.43,8.176,8.176,0,0,0-1.73,2.53,10.9,10.9,0,0,0-.86,2.18,14.08,14.08,0,0,0-.3,2.59,14.284,14.284,0,0,0,.24,3.91,9.392,9.392,0,0,0,1.41,3.06,6.67,6.67,0,0,0,4.15,3.18,5.088,5.088,0,0,0,4.52-1.39,5.477,5.477,0,0,0,1.24-1.9,5.558,5.558,0,0,0,.56-2.22c0-.76-0.09-1.12-0.28-1.1h0Zm20.56-11.49c0.27-.06.36-0.15,0.28-0.29a1.564,1.564,0,0,0-1.24-.36c-0.38,0-1.02-.02-1.93-0.06a10.322,10.322,0,0,0-1.93.02c-0.83.05-1.26,0.23-1.28,0.53-0.03.24,0.28,0.36,0.92,0.36q1.365,0,1.08,4.57l-0.12,2.28-6.46.16v-2.73a13.565,13.565,0,0,1,.3-3.42,1.123,1.123,0,0,1,.98-1.02c0.43,0,.65-0.11.65-0.33s-1.03-.32-3.09-0.32a20.47,20.47,0,0,0-2.29.08c-0.48.05-.7,0.16-0.65,0.32a0.556,0.556,0,0,0,.27.31,1.491,1.491,0,0,0,.4.2,4.089,4.089,0,0,0,.56.15,2.189,2.189,0,0,1,.46.12l0.16,15.2c-1.26.33-1.9,0.71-1.93,1.14,0,0.19.52,0.31,1.55,0.35a25.317,25.317,0,0,0,3.13-.08c1.06-.1,1.61-0.24,1.67-0.43a0.225,0.225,0,0,0-.14-0.26,1.748,1.748,0,0,0-.6-0.17c-0.29-.04-0.49-0.06-0.63-0.08s-0.33-.03-0.6-0.06l-0.24-7.66h6.38a16.171,16.171,0,0,1,.39,3.73,8.946,8.946,0,0,1-.35,3.16,1.876,1.876,0,0,1-1.12.93,1.039,1.039,0,0,0-.64.41q-0.285.57,3.45,0.57c0.64,0,1.16-.01,1.55-0.02s0.7-.03.94-0.06a1.561,1.561,0,0,0,.5-0.12,0.162,0.162,0,0,0,.1-0.21,1.012,1.012,0,0,0-.92-0.49,2.739,2.739,0,0,0-.32-0.04,1.217,1.217,0,0,1-1.05-.85,50.373,50.373,0,0,1-.12-7.26,58.676,58.676,0,0,1,.38-6.93,1.288,1.288,0,0,1,1.19-1.3,1.37,1.37,0,0,0,.36-0.04h0Z" transform="translate(-5653.06 -3060.06)"/>
</svg>
