<svg xmlns="http://www.w3.org/2000/svg" width="136.44" height="19.07" viewBox="0 0 136.44 19.07">
  <defs>
    <style>
      .cls-1 {
        fill: #4cd0a0;
        fill-rule: evenodd;
      }
    </style>
  </defs>
  <path id="tit_novenber.svg" class="cls-1" d="M5653.29,2648.26a0.685,0.685,0,0,0,.42.14,1.294,1.294,0,0,1,.84.24,2.207,2.207,0,0,1,.5,1.16,13.094,13.094,0,0,1,.23,2.38c0.03,0.97.04,2.41,0.04,4.3,0,3.23-.03,5.17-0.1,5.84a2.435,2.435,0,0,1-.65,1.56,3.873,3.873,0,0,1-1.18.92,0.405,0.405,0,0,0-.31.2c-0.21.27,0.74,0.41,2.87,0.44q2.61,0.075,2.76-.36a0.233,0.233,0,0,0-.08-0.26,0.445,0.445,0,0,0-.31-0.1,1.394,1.394,0,0,1-1.03-.88,11.623,11.623,0,0,1-.67-3.6,49.823,49.823,0,0,1-.21-5.64c0.04-1.79.19-2.68,0.45-2.68,0.21,0,.8.83,1.77,2.48q0.315,0.525,2.82,4.48c1.67,2.64,2.72,4.41,3.17,5.32a1.611,1.611,0,0,0,1.14,1.16c0.29,0,.46-0.39.52-1.18s0.07-3.02.07-6.7v-7.88c1.16-1.07,1.71-1.72,1.66-1.96a7.618,7.618,0,0,0-2.52-.18c-1.53.01-2.29,0.1-2.29,0.26a1.528,1.528,0,0,0,.79.8,2.434,2.434,0,0,1,1.08,1.44,16.851,16.851,0,0,1,.34,3.44q0.075,3.645-.04,5.88c-0.05,1.09-.12,1.52-0.2,1.28a31.119,31.119,0,0,0-2.12-3.16q-2.175-3.045-5.99-9.8c-0.14,0-.39-0.01-0.77-0.04s-0.75-.05-1.11-0.06-0.7-.02-1.06-0.02a2.159,2.159,0,0,0-.81.12c-0.18.08-.25,0.19-0.19,0.32A0.408,0.408,0,0,0,5653.29,2648.26Zm28.23,3.18a12.562,12.562,0,0,1,.54,2.46c0.06,0.71.08,1.94,0.06,3.7-0.06,1.87-.13,3.08-0.22,3.64a4.749,4.749,0,0,1-.61,1.64,4.22,4.22,0,0,1-2.43,2,3.538,3.538,0,0,1-2.89-.48,3.311,3.311,0,0,1-1.44-2.12,26.667,26.667,0,0,1-.18-5.36c0.06-1.84.13-3.15,0.24-3.92a6.915,6.915,0,0,1,.59-2.08c1.24-2.67,2.9-3.33,5-2a4.6,4.6,0,0,1,1.34,2.52h0Zm2.86,2.28a8.2,8.2,0,0,0-.57-1.96,7.413,7.413,0,0,0-3.43-3.84,5.286,5.286,0,0,0-4.53.04,6.157,6.157,0,0,0-1.91,1.28,7.686,7.686,0,0,0-1.44,1.8,15.421,15.421,0,0,0-.9,3.28,13.437,13.437,0,0,0,.15,5.8,8.586,8.586,0,0,0,2.49,4.36,5.037,5.037,0,0,0,5.02,1.48c1.72-.51,3.2-1.93,4.43-4.28a6.739,6.739,0,0,0,.69-1.88,22.176,22.176,0,0,0,.14-3.08A22.945,22.945,0,0,0,5684.38,2653.72Zm9.79-5.64c0.16-.19-0.71-0.29-2.6-0.32-2.63-.03-3.86.07-3.7,0.28a1.641,1.641,0,0,0,.94.88,2.688,2.688,0,0,1,1.23,1.36q0.225,0.645,2.52,7.72,2.28,7.08,2.44,7.6c0.16,0.56.45,0.61,0.87,0.16a3.445,3.445,0,0,0,.82-2.4,37.107,37.107,0,0,1,1.27-4.62q1.26-4.14,2.44-7.46c0.55-1.57,1.08-2.48,1.57-2.72a1.183,1.183,0,0,0,.63-0.44c0.16-.35-0.59-0.55-2.24-0.6-1.89-.08-2.94-0.01-3.15.2a0.352,0.352,0,0,0-.08.22,0.273,0.273,0,0,0,.12.2,0.906,0.906,0,0,0,.37.18c0.17,0.05.41,0.12,0.73,0.2a1.212,1.212,0,0,1,.93,1.34,15.433,15.433,0,0,1-.85,3.98c-0.21.72-.6,2.03-1.16,3.92s-1,3.28-1.28,4.16q-1.665-4.8-2.64-8.36a17.873,17.873,0,0,1-.95-4.2c0.03-.59.51-0.89,1.46-0.92a0.3,0.3,0,0,0,.31-0.36h0Zm23.76-.52a10.332,10.332,0,0,0-2.64-.2c-1.78-.05-3.52-0.08-5.22-0.08s-2.87.03-3.53,0.08a0.282,0.282,0,0,0-.15.04,0.442,0.442,0,0,0-.44.44,0.755,0.755,0,0,0,.83.44,2.485,2.485,0,0,1,.91.24c0.21,0.21.32,2.61,0.33,7.18s-0.07,7.05-.25,7.42a1.969,1.969,0,0,1-1.15.96,0.99,0.99,0,0,0-.67.4c0.03,0.29,2.1.47,6.23,0.52l5.99,0.08a48.327,48.327,0,0,1,.16-5.88c0.07-.61-0.02-0.91-0.28-0.88-0.32.03-.54,0.43-0.67,1.2a5.206,5.206,0,0,1-1.58,3.26,5.306,5.306,0,0,1-3.46.98h-2.05v-7.68c1.63-.21,2.62.64,2.99,2.56,0.19,0.85.4,1.28,0.63,1.28,0.32,0,.48-1.23.48-3.68,0-2.53.02-3.84,0.07-3.92,0.03-.05,0-0.11-0.09-0.16a2.414,2.414,0,0,0-.38-0.16,0.364,0.364,0,0,0-.43.1,1.625,1.625,0,0,0-.12.78,2.419,2.419,0,0,1-.79,1.78,2.1,2.1,0,0,1-1.69.7l-0.83-.08v-2.88a9.688,9.688,0,0,1,.45-3.64c0.28-.45,1.02-0.68,2.23-0.68a7.3,7.3,0,0,1,1.69.14,2.189,2.189,0,0,1,.99.62,5.008,5.008,0,0,1,.96,1.7,5.543,5.543,0,0,1,.46,1.94,0.387,0.387,0,0,0,.47.4,0.477,0.477,0,0,0,.37-0.5,12.716,12.716,0,0,0,.1-2.06,19.7,19.7,0,0,1,.08-2.76h0Zm22.58,0.48c0.05-.03.06-0.07,0.02-0.14a2.125,2.125,0,0,0-.3-0.34c-0.34-.35-1.27-0.44-2.79-0.28l-2.33.24q-2.445,9.285-4.02,13.48-0.63-1.56-4.25-13.72a14.4,14.4,0,0,0-4.26.08,0.584,0.584,0,0,0-.49.4,0.6,0.6,0,0,0,.2.56,1.054,1.054,0,0,0,.72.32,1.3,1.3,0,0,1,1.05,1.38q0.18,1.3.18,7.06v6.36c-1.63.83-2.47,1.36-2.53,1.6,0,0.21.95,0.32,2.84,0.32a15.688,15.688,0,0,0,2.29-.1,0.528,0.528,0,0,0,.55-0.42,1.6,1.6,0,0,0-1.03-.88,2.137,2.137,0,0,1-1.06-.76,9.876,9.876,0,0,1-.14-1.66c-0.04-.97-0.08-2.12-0.12-3.44s-0.07-2.62-.09-3.9-0.04-2.35-.02-3.22a3.218,3.218,0,0,1,.09-1.22,2.111,2.111,0,0,1,.28.8q0.2,1.08,2.15,6.96t2.46,6.96a2.264,2.264,0,0,0,.12.28c0.26,0.53.48,0.67,0.67,0.4,0.31-.37,1.21-3.23,2.68-8.56a63.27,63.27,0,0,1,1.89-6.24q0.24,0,.31,6.36c0,4.56-.07,6.97-0.23,7.24a0.849,0.849,0,0,1-.55.34c-0.35.12-.67,0.24-0.97,0.36s-0.43.26-.37,0.42c0.05,0.21,1.12.34,3.21,0.38s3.2-.05,3.33-0.26a0.266,0.266,0,0,0-.2-0.28,1.773,1.773,0,0,0-.55-0.16,3.175,3.175,0,0,1-.61-0.14,0.529,0.529,0,0,1-.34-0.22q-0.315-.315-0.23-7.56c0.02-3.49.08-5.61,0.15-6.36a3.026,3.026,0,0,1,.6-1.68,1.941,1.941,0,0,1,1.3-.72A1.021,1.021,0,0,0,5740.51,2648.04Zm13.04,14.92a4.206,4.206,0,0,1-3.51,1.04l-1.65-.08c-0.03-.85-0.05-2.12-0.08-3.8s-0.05-2.95-.08-3.8l2.37,0.16a6.092,6.092,0,0,1,2.91.58,3.9,3.9,0,0,1,.87,2.38A4.076,4.076,0,0,1,5753.55,2662.96Zm-4.94-14.3q0.375-.615,2.1-0.42a3.992,3.992,0,0,1,2.37.88,4.256,4.256,0,0,1,.51,3.04c-0.13,1.47-.47,2.37-1.02,2.72a18.549,18.549,0,0,1-4.34.24v-2.92A9.3,9.3,0,0,1,5748.61,2648.66Zm-2.8,16.4c1.11,0.09,2.36.13,3.74,0.12a19.6,19.6,0,0,0,2.98-.18,5.058,5.058,0,0,0,2.95-1.4,4.614,4.614,0,0,0,1.42-3.68,4.353,4.353,0,0,0-1.93-3.32l-1.38-.96,1.1-1.12a5.9,5.9,0,0,0,1.44-1.98,3.286,3.286,0,0,0-.18-1.94,5.24,5.24,0,0,0-1.26-2.24,3.516,3.516,0,0,0-1.97-1.04,35.916,35.916,0,0,0-4.8-.2,16,16,0,0,0-3.86.2,0.356,0.356,0,0,0-.1.36,0.56,0.56,0,0,0,.33.28,1.608,1.608,0,0,0,.63.12,1.165,1.165,0,0,1,1.22,1.14,66.9,66.9,0,0,1,.2,7.06v7.44a4.648,4.648,0,0,0-2.21,1C5744.13,2664.85,5744.69,2664.97,5745.81,2665.06Zm26.42-17.5a10.506,10.506,0,0,0-2.64-.2c-1.79-.05-3.53-0.08-5.22-0.08s-2.87.03-3.53,0.08a0.343,0.343,0,0,0-.16.04,0.432,0.432,0,0,0-.43.44,0.747,0.747,0,0,0,.83.44,2.364,2.364,0,0,1,.9.24c0.21,0.21.32,2.61,0.34,7.18s-0.07,7.05-.26,7.42a1.978,1.978,0,0,1-1.14.96,0.959,0.959,0,0,0-.67.4c0.03,0.29,2.1.47,6.23,0.52l5.98,0.08a48.327,48.327,0,0,1,.16-5.88c0.08-.61-0.01-0.91-0.27-0.88-0.32.03-.54,0.43-0.67,1.2a5.257,5.257,0,0,1-1.58,3.26,5.336,5.336,0,0,1-3.47.98h-2.05v-7.68q2.445-.315,3,2.56c0.18,0.85.39,1.28,0.63,1.28,0.31,0,.47-1.23.47-3.68,0-2.53.03-3.84,0.08-3.92,0.03-.05-0.01-0.11-0.1-0.16a1.927,1.927,0,0,0-.37-0.16,0.379,0.379,0,0,0-.44.1,1.807,1.807,0,0,0-.11.78,2.457,2.457,0,0,1-.79,1.78,2.119,2.119,0,0,1-1.7.7l-0.82-.08v-2.88a9.267,9.267,0,0,1,.45-3.64c0.28-.45,1.02-0.68,2.23-0.68a7.356,7.356,0,0,1,1.69.14,2.162,2.162,0,0,1,.98.62,4.843,4.843,0,0,1,.97,1.7,5.723,5.723,0,0,1,.45,1.94,0.391,0.391,0,0,0,.48.4,0.486,0.486,0,0,0,.37-0.5,12.716,12.716,0,0,0,.1-2.06,17.926,17.926,0,0,1,.08-2.76h0Zm8.35,1.08c0.18-.32.84-0.43,1.97-0.32a3.925,3.925,0,0,1,2.56.96,3.215,3.215,0,0,1,.63,2.94,3.485,3.485,0,0,1-1.65,2.58,11.181,11.181,0,0,1-3.78.48v-3.04A12.211,12.211,0,0,1,5780.58,2648.64Zm5.95,6.2a5.928,5.928,0,0,0,1.14-1.72,4.262,4.262,0,0,0,0-2.6,4.867,4.867,0,0,0-1.38-2.36l-1.1-1.08c-0.5.03-1.44,0.05-2.84,0.08s-2.66.06-3.82,0.1-1.88.07-2.16,0.1c-0.27.08-.37,0.2-0.32,0.36,0.05,0.24.35,0.36,0.91,0.36a1.029,1.029,0,0,1,1.1.52,72.884,72.884,0,0,1,.2,7.96c0,3.28-.04,5.35-0.1,6.22a1.857,1.857,0,0,1-.42,1.42,1.7,1.7,0,0,1-1.1.04,0.413,0.413,0,0,0-.55.06,0.657,0.657,0,0,0,.04.66c0.05,0.16,1.15.27,3.31,0.32,1.31,0.03,2.18.02,2.6-.02s0.63-.17.63-0.38c0-.32-0.32-0.48-0.95-0.48a1.261,1.261,0,0,1-1.3-.94,13.267,13.267,0,0,1-.23-3.82l0.12-3.04a5.163,5.163,0,0,1,3.13.54q0.765,0.615,1.08,3.18a15.774,15.774,0,0,0,.69,3.48,2.082,2.082,0,0,0,1.24,1.24c1.39,0.59,2.33-.12,2.8-2.12a6.564,6.564,0,0,0,.24-1.44c-0.06-.48-0.23-0.47-0.52.04a1.63,1.63,0,0,0-.31,1.04,0.739,0.739,0,0,1-.32.72,0.438,0.438,0,0,1-.59-0.24,17.364,17.364,0,0,1-1.02-2.6,11.08,11.08,0,0,0-1.22-2.76c-0.92-1.28-.99-1.92-0.2-1.92A2.345,2.345,0,0,0,5786.53,2654.84Z" transform="translate(-5653.06 -2647.09)"/>
</svg>
