<svg xmlns="http://www.w3.org/2000/svg" width="123.56" height="19.62" viewBox="0 0 123.56 19.62">
  <defs>
    <style>
      .cls-1 {
        fill: #4cd0a0;
        fill-rule: evenodd;
      }
    </style>
  </defs>
  <path id="tit_october.svg" class="cls-1" d="M5149.92,2651.1a13.129,13.129,0,0,1,.54,2.51c0.07,0.72.09,1.98,0.06,3.77a36.052,36.052,0,0,1-.22,3.71,4.719,4.719,0,0,1-.62,1.67,4.292,4.292,0,0,1-2.47,2.04,3.636,3.636,0,0,1-2.95-.49,3.362,3.362,0,0,1-1.47-2.16,27.679,27.679,0,0,1-.18-5.46c0.05-1.88.13-3.21,0.24-4a7.5,7.5,0,0,1,.6-2.12q1.89-4.065,5.1-2.03a4.725,4.725,0,0,1,1.37,2.56h0Zm2.91,2.33a9.033,9.033,0,0,0-.58-2,7.529,7.529,0,0,0-3.5-3.91,5.358,5.358,0,0,0-4.61.04,6.211,6.211,0,0,0-1.95,1.3,7.812,7.812,0,0,0-1.47,1.84,16.233,16.233,0,0,0-.92,3.34,13.789,13.789,0,0,0,.16,5.91,8.775,8.775,0,0,0,2.53,4.44c1.66,1.52,3.37,2.03,5.12,1.51s3.26-1.97,4.52-4.36a7.345,7.345,0,0,0,.7-1.92,23.036,23.036,0,0,0,.14-3.14A23.746,23.746,0,0,0,5152.83,2653.43Zm17.44,5.7c-0.18.03-.34,0.49-0.48,1.39a5.476,5.476,0,0,1-1.24,2.65,3.479,3.479,0,0,1-3.86,1.28,4.78,4.78,0,0,1-3.21-3.24,8.855,8.855,0,0,1-.46-2.1,38.816,38.816,0,0,1-.02-3.93,36.625,36.625,0,0,1,.18-3.85,3.676,3.676,0,0,1,.66-1.61,4.121,4.121,0,0,1,4.02-1.96,2.9,2.9,0,0,1,1.76.84,6.464,6.464,0,0,1,1.21,2.34c0.45,1.3.77,2.15,0.96,2.53,0.14,0.3.23,0.42,0.28,0.36a22.772,22.772,0,0,0,.2-3.66c0.08-2.4-.02-3.63-0.32-3.71a0.451,0.451,0,0,0-.42.24,3.405,3.405,0,0,0-.44.9,4.51,4.51,0,0,1-.26.65l-0.84-.65a4.352,4.352,0,0,0-4.22-.74,7.047,7.047,0,0,0-2.45,1.43,8.176,8.176,0,0,0-1.73,2.53,10.9,10.9,0,0,0-.86,2.18,14.08,14.08,0,0,0-.3,2.59,14.284,14.284,0,0,0,.24,3.91,9.392,9.392,0,0,0,1.41,3.06,6.67,6.67,0,0,0,4.15,3.18,5.088,5.088,0,0,0,4.52-1.39,5.477,5.477,0,0,0,1.24-1.9,5.592,5.592,0,0,0,.57-2.22c0-.76-0.1-1.12-0.29-1.1h0Zm5.71-9.37c0,1.93.01,3.11,0.04,3.54a0.957,0.957,0,0,0,.2.78c0.21,0.05.4-.5,0.56-1.67a6.453,6.453,0,0,1,1.64-3.51c0.89-.95,1.62-1.15,2.21-0.61q0.4,0.4.6,15.98l-0.88.2a13.8,13.8,0,0,0-1.46.41,0.422,0.422,0,0,0-.3.41c0,0.22,1.23.32,3.69,0.32s3.69-.15,3.69-0.44c0-.33-0.33-0.53-1-0.62a1.594,1.594,0,0,1-.94-0.3,2.725,2.725,0,0,1-.39-1.25,51.494,51.494,0,0,1-.32-6.72,54.617,54.617,0,0,1,.2-6.73,5.268,5.268,0,0,1,.36-1.3,0.972,0.972,0,0,1,.81-0.24,2.143,2.143,0,0,1,1.76,1.44,9.037,9.037,0,0,1,.97,2.79c0.21,1.42.41,2.15,0.6,2.21,0.32,0.05.44-1.34,0.36-4.16l-0.08-3.1q-1.32-.12-12.28-0.33C5175.99,2646.86,5175.98,2647.83,5175.98,2649.76Zm28.22,1.34a12.4,12.4,0,0,1,.54,2.51c0.07,0.72.09,1.98,0.06,3.77a33.261,33.261,0,0,1-.22,3.71,4.719,4.719,0,0,1-.62,1.67,4.262,4.262,0,0,1-2.47,2.04,3.636,3.636,0,0,1-2.95-.49,3.362,3.362,0,0,1-1.47-2.16,27.679,27.679,0,0,1-.18-5.46c0.06-1.88.14-3.21,0.24-4a7.185,7.185,0,0,1,.61-2.12q1.875-4.065,5.1-2.03a4.731,4.731,0,0,1,1.36,2.56h0Zm2.91,2.33a8.525,8.525,0,0,0-.58-2,7.514,7.514,0,0,0-3.49-3.91,5.381,5.381,0,0,0-4.62.04,6.211,6.211,0,0,0-1.95,1.3,7.509,7.509,0,0,0-1.46,1.84,15.539,15.539,0,0,0-.93,3.34,13.789,13.789,0,0,0,.16,5.91,8.847,8.847,0,0,0,2.53,4.44c1.66,1.52,3.37,2.03,5.12,1.51s3.26-1.97,4.52-4.36a7,7,0,0,0,.7-1.92,21.453,21.453,0,0,0,.14-3.14A22.008,22.008,0,0,0,5207.11,2653.43Zm15.36,9.41a4.28,4.28,0,0,1-3.57,1.06l-1.69-.08c-0.03-.87-0.05-2.16-0.08-3.87s-0.05-3-.08-3.87l2.41,0.16a6.3,6.3,0,0,1,2.97.59,3.982,3.982,0,0,1,.88,2.42A4.119,4.119,0,0,1,5222.47,2662.84Zm-5.04-14.57c0.25-.42.97-0.56,2.15-0.43a4.1,4.1,0,0,1,2.41.9,4.347,4.347,0,0,1,.52,3.1c-0.14,1.49-.48,2.42-1.04,2.77a19.248,19.248,0,0,1-4.42.24v-2.97A9.66,9.66,0,0,1,5217.43,2648.27Zm-2.85,16.71a37.731,37.731,0,0,0,3.81.12,20.344,20.344,0,0,0,3.04-.18,5.2,5.2,0,0,0,3.01-1.43,4.7,4.7,0,0,0,1.44-3.75,4.451,4.451,0,0,0-1.97-3.38l-1.4-.98,1.12-1.14a6.261,6.261,0,0,0,1.47-2.02,3.387,3.387,0,0,0-.18-1.97,5.587,5.587,0,0,0-1.29-2.29,3.66,3.66,0,0,0-2-1.06,37.476,37.476,0,0,0-4.9-.2,16.782,16.782,0,0,0-3.94.2,0.4,0.4,0,0,0-.1.37,0.6,0.6,0,0,0,.34.29,1.674,1.674,0,0,0,.65.12,1.192,1.192,0,0,1,1.24,1.16,69.507,69.507,0,0,1,.2,7.19v7.59q-2.04.6-2.25,1.02C5212.87,2664.77,5213.44,2664.89,5214.58,2664.98Zm28.93-17.83a10.847,10.847,0,0,0-2.69-.2c-1.82-.06-3.6-0.09-5.32-0.09s-2.93.03-3.6,0.09a0.343,0.343,0,0,0-.16.04,0.434,0.434,0,0,0-.44.44,0.751,0.751,0,0,0,.84.45,2.736,2.736,0,0,1,.93.25c0.21,0.22.33,2.65,0.34,7.31s-0.07,7.18-.26,7.56a2,2,0,0,1-1.17.98,1.028,1.028,0,0,0-.68.41c0.03,0.3,2.14.48,6.35,0.53l6.1,0.08a48.16,48.16,0,0,1,.16-5.99c0.08-.62-0.01-0.92-0.28-0.9-0.32.03-.55,0.44-0.68,1.23a5.369,5.369,0,0,1-1.61,3.32,5.441,5.441,0,0,1-3.53,1h-2.09v-7.83c1.66-.22,2.67.65,3.05,2.61,0.19,0.87.4,1.3,0.64,1.3q0.48,0,.48-3.75c0-2.58.03-3.91,0.08-3.99,0.03-.05,0-0.11-0.1-0.16a2,2,0,0,0-.38-0.17,0.366,0.366,0,0,0-.44.11,1.646,1.646,0,0,0-.12.79,2.494,2.494,0,0,1-.8,1.81,2.167,2.167,0,0,1-1.73.72l-0.84-.08v-2.94a9.534,9.534,0,0,1,.46-3.71c0.28-.46,1.04-0.69,2.27-0.69a7.54,7.54,0,0,1,1.72.14,2.363,2.363,0,0,1,1.01.63,5.147,5.147,0,0,1,.98,1.74,5.729,5.729,0,0,1,.46,1.97,0.4,0.4,0,0,0,.49.41,0.5,0.5,0,0,0,.38-0.51,14.643,14.643,0,0,0,.1-2.1,18.6,18.6,0,0,1,.08-2.81h0Zm10.52,1.1c0.18-.33.85-0.43,2-0.33a3.956,3.956,0,0,1,2.61.98,3.306,3.306,0,0,1,.65,3,3.575,3.575,0,0,1-1.69,2.63,11.755,11.755,0,0,1-3.85.49v-3.1A12.143,12.143,0,0,1,5254.03,2648.25Zm6.06,6.32a6.062,6.062,0,0,0,1.16-1.75,4.425,4.425,0,0,0,0-2.65,4.979,4.979,0,0,0-1.4-2.41l-1.13-1.1c-0.5.03-1.47,0.06-2.89,0.08s-2.71.06-3.89,0.1-1.91.08-2.21,0.11c-0.27.08-.37,0.2-0.32,0.36,0.05,0.25.36,0.37,0.92,0.37a1.071,1.071,0,0,1,1.13.53,75.693,75.693,0,0,1,.2,8.11c0,3.34-.04,5.46-0.1,6.34a1.955,1.955,0,0,1-.42,1.45,1.863,1.863,0,0,1-1.13.04,0.426,0.426,0,0,0-.56.06,0.675,0.675,0,0,0,.04.67c0.05,0.16,1.18.27,3.37,0.33,1.34,0.02,2.22.02,2.65-.02s0.64-.17.64-0.39c0-.33-0.32-0.49-0.96-0.49a1.274,1.274,0,0,1-1.32-.96,13.233,13.233,0,0,1-.24-3.89l0.12-3.1a5.255,5.255,0,0,1,3.19.55c0.52,0.42.89,1.5,1.1,3.24a17.023,17.023,0,0,0,.7,3.55,2.162,2.162,0,0,0,1.27,1.26q2.13,0.9,2.85-2.16a6.769,6.769,0,0,0,.24-1.47c-0.05-.49-0.23-0.47-0.52.04a1.652,1.652,0,0,0-.32,1.06,0.764,0.764,0,0,1-.32.74,0.454,0.454,0,0,1-.61-0.25,17.777,17.777,0,0,1-1.04-2.65,11.734,11.734,0,0,0-1.24-2.81q-1.41-1.95-.21-1.95A2.4,2.4,0,0,0,5260.09,2654.57Z" transform="translate(-5139.53 -2646.47)"/>
</svg>
