<svg xmlns="http://www.w3.org/2000/svg" width="82.91" height="19.53" viewBox="0 0 82.91 19.53">
  <defs>
    <style>
      .cls-1 {
        fill: #4cd0a0;
        fill-rule: evenodd;
      }
    </style>
  </defs>
  <path id="tit_april.svg" class="cls-1" d="M5149.2,2036.46a20.319,20.319,0,0,0-3.86.21,1.261,1.261,0,0,1-1.12-.09c-0.16-.24.06-1.29,0.68-3.13,0.94-2.78,1.51-4.16,1.73-4.16a65.886,65.886,0,0,1,2.57,7.17h0Zm-2.73-9.78c-0.27.79-.64,1.88-1.11,3.28s-0.92,2.75-1.34,4.06c-1.18,3.61-1.97,5.89-2.35,6.82a3.5,3.5,0,0,1-1.19,1.74,1.418,1.418,0,0,0-.92.73c-0.03.33,1.04,0.53,3.21,0.61a9.119,9.119,0,0,0,1.87,0,0.429,0.429,0,0,0,.46-0.37,0.616,0.616,0,0,0-.24-0.42,1.017,1.017,0,0,0-.56-0.27q-1.935-.45-1.09-3.55l0.4-1.58,6.07,0.24,0.6,1.59a11.62,11.62,0,0,1,.54,1.87,1.324,1.324,0,0,1-.1.94,1.036,1.036,0,0,1-.72.37,1.03,1.03,0,0,0-1.01.61,0.311,0.311,0,0,0,.04.26,0.669,0.669,0,0,0,.37.17,3.738,3.738,0,0,0,.82.04c0.36-.01.84-0.02,1.42-0.02a14.686,14.686,0,0,0,2.61-.21q1.05-.24-0.12-0.93a3.067,3.067,0,0,1-1.06-1.37c-0.31-.66-0.81-2.02-1.51-4.05q-2.565-7.59-3.77-11.78a0.406,0.406,0,0,0-.44-0.39,0.5,0.5,0,0,0-.48.39C5146.87,2025.48,5146.73,2025.89,5146.47,2026.68Zm23.18,1.59a4.765,4.765,0,0,1,.54,3.87,2.957,2.957,0,0,1-1.66,2.3,7.979,7.979,0,0,1-3.56.23l0.08-3.26a18.548,18.548,0,0,1,.29-4.02,1.077,1.077,0,0,1,1.16-.71A3.546,3.546,0,0,1,5169.65,2028.27Zm-3.53,15.1a1.991,1.991,0,0,1-1.15-.47,11.194,11.194,0,0,1-.16-2.99,14.435,14.435,0,0,1,.28-3.33,0.8,0.8,0,0,1,.49-0.51,5.74,5.74,0,0,1,1.48-.02,5.527,5.527,0,0,0,2.87-.57,4.561,4.561,0,0,0,1.99-1.87,5.077,5.077,0,0,0,.64-2.67,5.381,5.381,0,0,0-.6-2.67,3.979,3.979,0,0,0-2.15-1.81,17.63,17.63,0,0,0-5-.51c-2.81-.11-4.28-0.1-4.41.04-0.35.27-.16,0.53,0.56,0.77a4.516,4.516,0,0,1,1.36.57,72.9,72.9,0,0,1,.33,7.5c0.08,3.26.1,5.32,0.08,6.18a2.883,2.883,0,0,1-.41,1.69,1.644,1.644,0,0,1-1.32.61,0.641,0.641,0,0,0-.76.69,0.583,0.583,0,0,0,.16.51,0.814,0.814,0,0,0,.6-0.02,11.257,11.257,0,0,1,2.53-.16c1.44-.03,2.42-0.07,2.93-0.12,0.64-.06.91-0.17,0.8-0.33A1.723,1.723,0,0,0,5166.12,2043.37Zm16.48-16.12c0.19-.33.86-0.43,2.01-0.33a4,4,0,0,1,2.61.98,3.3,3.3,0,0,1,.64,3,3.548,3.548,0,0,1-1.69,2.63,11.705,11.705,0,0,1-3.85.49v-3.1A12.143,12.143,0,0,1,5182.6,2027.25Zm6.06,6.32a6.338,6.338,0,0,0,1.17-1.75,4.588,4.588,0,0,0,0-2.65,5.073,5.073,0,0,0-1.41-2.41l-1.12-1.1c-0.51.03-1.47,0.06-2.89,0.08s-2.72.06-3.9,0.1-1.91.08-2.21,0.11c-0.26.08-.37,0.2-0.32,0.36,0.06,0.25.36,0.37,0.93,0.37a1.055,1.055,0,0,1,1.12.53,75.693,75.693,0,0,1,.2,8.11c0,3.34-.03,5.46-0.1,6.34a1.955,1.955,0,0,1-.42,1.45,1.859,1.859,0,0,1-1.13.04,0.429,0.429,0,0,0-.56.06,0.7,0.7,0,0,0,.04.67c0.06,0.16,1.18.27,3.38,0.33,1.33,0.02,2.22.02,2.65-.02s0.64-.17.64-0.39c0-.33-0.32-0.49-0.97-0.49a1.274,1.274,0,0,1-1.32-.96,13.233,13.233,0,0,1-.24-3.89l0.12-3.1a5.255,5.255,0,0,1,3.19.55c0.52,0.42.89,1.5,1.1,3.24a16.206,16.206,0,0,0,.71,3.55,2.12,2.12,0,0,0,1.26,1.26q2.13,0.9,2.85-2.16a6.769,6.769,0,0,0,.24-1.47c-0.05-.49-0.22-0.47-0.52.04a1.713,1.713,0,0,0-.32,1.06,0.764,0.764,0,0,1-.32.74,0.441,0.441,0,0,1-.6-0.25,17.385,17.385,0,0,1-1.05-2.65,11.337,11.337,0,0,0-1.24-2.81c-0.94-1.3-1.01-1.95-.2-1.95A2.386,2.386,0,0,0,5188.66,2033.57Zm10.34-6.48a12.407,12.407,0,0,1,.3,2.12c0.14,1.55.2,4.19,0.2,7.94,0,2.56-.03,4.13-0.1,4.71a1.392,1.392,0,0,1-.5,1.12,3.3,3.3,0,0,1-1.36.33c-0.38.03-.51,0.12-0.41,0.28,0.19,0.19,1.36.34,3.5,0.45,1.33,0.03,2.21.02,2.61-.02s0.6-.17.6-0.38a0.385,0.385,0,0,0-.14-0.29,1.174,1.174,0,0,0-.42-0.2,2.951,2.951,0,0,0-.51-0.11c-0.14-.01-0.34-0.03-0.58-0.06s-0.4-.04-0.48-0.04v-4.77a104.3,104.3,0,0,1,.16-10.59,1.316,1.316,0,0,1,1.01-1.1,1.42,1.42,0,0,0,.8-0.33q0.24-.45-3.21-0.45c-0.51,0-.97.02-1.37,0.04-2.11.06-2.42,0.31-.92,0.78A1.122,1.122,0,0,1,5199,2027.09Zm16.56-.25a1.677,1.677,0,0,0,.68-0.24,0.338,0.338,0,0,0,.21-0.33c-0.06-.22-1.14-0.38-3.26-0.49s-3.28-.06-3.49.12a0.472,0.472,0,0,0-.18.56,0.827,0.827,0,0,0,.7.22,1.221,1.221,0,0,1,1.29,1.18,73.01,73.01,0,0,1,.2,7.38v7.74l-0.85.21c-0.26.05-.48,0.1-0.66,0.14s-0.33.08-.46,0.12a1.54,1.54,0,0,0-.3.12,0.747,0.747,0,0,0-.16.13,0.1,0.1,0,0,0-.04.12,0.534,0.534,0,0,0,.06.14q0.165,0.285,5.86.33a37.46,37.46,0,0,0,6.34-.21c0.33-.13.49-0.87,0.49-2.2a13.25,13.25,0,0,1,.28-2.97c0.34-1.2.2-1.8-.44-1.8a0.579,0.579,0,0,0-.51.43,12.646,12.646,0,0,0-.46,1.86,7.438,7.438,0,0,1-.96,2.36,2.773,2.773,0,0,1-.86.98,4.526,4.526,0,0,1-1.35.41,6.8,6.8,0,0,1-3.73-.57c0-.36-0.01-1.25-0.02-2.67s-0.02-2.69-.02-3.77,0.01-2.29.04-3.59,0.06-2.39.12-3.24a8.172,8.172,0,0,1,.2-1.65,1.6,1.6,0,0,1,1.28-.82h0Z" transform="translate(-5139.56 -2025.06)"/>
</svg>
