<svg xmlns="http://www.w3.org/2000/svg" width="306.37" height="42.437" viewBox="0 0 306.37 42.437">
  <defs>
    <style>
      .cls-1 {
        fill: #4cd0a0;
        fill-rule: evenodd;
      }
    </style>
  </defs>
  <path id="tit_recruit.svg" class="cls-1" d="M9670.06,699.13a0.84,0.84,0,0,0-.55-0.69l-3.4-1.978c0.04,1.012-.05,1.564-1.06,3.68a50.532,50.532,0,0,1-4.28,7.037l0.32,0.184c2.12-1.426,5.38-5.152,6.86-7.175,0.18-.092,1.15-0.322,1.38-0.414A0.816,0.816,0,0,0,9670.06,699.13Zm-3.03-4.554a0.533,0.533,0,0,0-.33-0.46l-3.08-2.53c-0.5.736-.92,1.2-6.94,2.806a111.835,111.835,0,0,1-13.34,2.484l0.04,0.506c1.38-.092,8.1-0.46,9.62-0.644a80.618,80.618,0,0,0,10.81-1.794c1.01,0.092,1.79.184,2.3,0.184C9666.34,695.128,9667.03,695.128,9667.03,694.576Zm-8.15,8.371c0-1.885-2.25-3.5-5.15-5.335l-0.14.092a12.846,12.846,0,0,1,2.07,4.093c0.51,1.932.74,2.76,1.84,2.76A1.4,1.4,0,0,0,9658.88,702.947Zm-8,.966c0-2.392-3.63-4.415-5.61-5.473l-0.14.23a12.594,12.594,0,0,1,2.44,4.415c0.37,1.242.69,2.346,1.88,2.346A1.454,1.454,0,0,0,9650.88,703.913Zm21.44,22.355v-0.23a20,20,0,0,1-14.31-12.6h12.19a0.565,0.565,0,0,0,.69-0.506,0.857,0.857,0,0,0-.46-0.69l-2.16-1.886a2.035,2.035,0,0,0-.88-0.46,1.209,1.209,0,0,0-.73.6l-1.43,1.84h-8.28c-0.04-.92-0.04-2.53,0-3.082,1.06-.736,1.38-1.012,1.38-1.426a0.5,0.5,0,0,0-.55-0.506l-4.19-.874c0.6,1.748.69,2.622,0.83,5.888h-2.3c-2.53,0-5.1-.138-7.63-0.368l1.06,1.978a35.883,35.883,0,0,1,5.93-.506h1.61c-0.55,1.426-3.36,8.187-12.6,15.639l0.18,0.368a31.774,31.774,0,0,0,13.84-13.523c0.05,3.036-.09,9.567-0.09,10.763-0.04,1.7-.14,4.462-0.14,6.164,0,0.92.28,1.2,0.88,1.2,0.92,0,2.25-.46,2.25-1.61,0-.276-0.18-1.748-0.23-2.116-0.14-1.748-.14-3.956-0.18-5.888,0-1.564-.05-9.245-0.05-10.993h0.46a25.638,25.638,0,0,0,11.04,15.363C9669.46,727.418,9670.66,726.958,9672.32,726.268Zm-27.05-16.7-0.05-.46c-1.42.69-2.48,1.2-6.85,2.944-0.05-1.334-.05-1.334-0.05-2.346v-6.578h6.21a0.56,0.56,0,0,0,.69-0.506,0.906,0.906,0,0,0-.46-0.69l-1.61-1.333a1.865,1.865,0,0,0-.87-0.506,1.183,1.183,0,0,0-.74.6l-1.05,1.333h-2.17v-6.761c0.51-.368,1.57-0.874,1.57-1.472a0.511,0.511,0,0,0-.51-0.506l-4.41-1.2a8.134,8.134,0,0,1,.69,2.852c0,1.012.13,5.8,0.13,7.037-3.77-.046-5.61-0.184-6.99-0.322l1.11,1.978a35.407,35.407,0,0,1,5.88-.506c0.05,1.748.05,3.542,0.1,5.29,0.04,2.76.04,3.082,0.04,4.6-4.92,1.932-5.93,1.978-7.54,2.07l2.02,3.588a0.78,0.78,0,0,0,.6.6c0.41,0,.69-0.69,1.06-1.656,0.64-.322,1.19-0.6,3.91-2.116,0,3.956.04,4.278,0.04,5.381,0.05,1.288.1,6.164,0.1,7.038,0,1.794,0,2.3-1.66,2.3-0.97,0-3.08-.138-4.09-0.276l-0.05.23c3.5,1.7,3.63,2.852,3.77,3.818a7.217,7.217,0,0,0,3.41-1.38c1.1-.874,1.15-1.748,1.15-3.956,0-1.886-.1-4.416-0.14-6.716-0.09-2.851-.09-4.415-0.09-7.865C9642.05,711.825,9643.98,710.583,9645.27,709.571Zm76.04-13.753a0.693,0.693,0,0,0-.37-0.552l-2.16-1.426a1.406,1.406,0,0,0-.74-0.368,0.942,0.942,0,0,0-.69.414l-1.52,1.38h-23.18l-4.05-2.162c0.69,3.358.74,9.2,0.74,12.925,0,7.82-.28,20.147-7.04,26.909l0.28,0.322c6.67-4.876,7.72-10.58,8.55-15h11.18v0.828c0,3.587-.32,11.407-0.37,12.1,0,0.138-.09.782-0.09,0.966a0.861,0.861,0,0,0,1.01,1.012,3.222,3.222,0,0,0,1.7-.552,1.507,1.507,0,0,0,.6-1.426c0-.46-0.05-1.012-0.09-1.932-0.09-1.564-.19-9.245-0.23-10.993h11.96c-0.05,1.794.04,6.347,0.04,8.509,0,1.794,0,2.162-1.7,2.162-0.69,0-3.86-.092-4.6-0.092v0.322c3.27,1.2,3.91,2.944,4.19,3.956a10.07,10.07,0,0,0,3.72-1.978c0.92-.782,1.06-1.794,1.06-3.956,0-.644-0.09-4.508-0.14-6.348-0.09-5.8-.23-15.455-0.23-18.583,0-1.379.1-3.4,0.14-4.783C9719.93,697.152,9721.31,696.37,9721.31,695.818Zm-4.51,10.165h-11.96V696.37h11.96v9.613Zm-14.4,1.1-0.09,10.074h-10.99a73.605,73.605,0,0,0,.64-10.074h10.44Zm14.4,10.074h-11.96V707.087h11.96v10.074Zm-14.4-11.178h-10.44V696.37h10.44v9.613Zm46.42,6.854c-2.03,5.014-2.76,6.808-4.19,11.223a1.081,1.081,0,0,1-.51.736c-0.55,0-1.33-2.852-1.33-6.669a57.8,57.8,0,0,1,2.62-15.226,17.66,17.66,0,0,0,.74-2.529c0-1.7-2.49-4.508-4.6-4.186a5.715,5.715,0,0,1,1.42,4.186,21.756,21.756,0,0,1-.27,3.357l-1.47,10.074a31.487,31.487,0,0,0-.33,4.37c0,4.737.46,8.233,2.53,11.775a3.05,3.05,0,0,0,1.94,1.564,0.942,0.942,0,0,0,.87-1.2c0-.046-0.23-2.714-0.23-3.22a23.086,23.086,0,0,1,.97-5.29c0.32-1.241,1.88-7.359,2.2-8.739Zm12.46-6.486a23.364,23.364,0,0,1,8.65-3.542c1.7-.322,2.34-0.46,2.34-1.242,0-1.425-3.77-2.207-6.57-2.207-3.18,0-6.08.828-10.26,4.047a32.743,32.743,0,0,1,8.92-1.977c0.09,0,1.43,0,1.43.367,0,0.414-3.77,3.45-4.74,4.232Zm-6.67,12.374a3.88,3.88,0,0,0-.23,1.38,6.186,6.186,0,0,0,3.22,5.381c2.85,1.61,10.4,1.932,12.51,1.932,2.85,0,4.42-.092,4.42-1.288,0-1.15-2.44-1.748-3.22-1.748a5.519,5.519,0,0,0-.78.046,30.938,30.938,0,0,1-4.88.414c-1.01,0-5.01-.092-7.64-1.288C9756.04,722.634,9755.48,721.07,9754.61,718.725Zm46.09,6.991a57.744,57.744,0,0,0,12.19-.644c8.33-1.472,15.41-5.473,15.41-13.017,0-5.612-4.37-10.9-13.06-10.9-7.04,0-11.18,2.345-18.4,6.347a6.517,6.517,0,0,1-3.04,1.058,3.546,3.546,0,0,1-2.62-1.656,3.319,3.319,0,0,0-.37,1.426c0,1.886,2.26,4.14,3.64,4.14,0.64,0,1.01-.276,1.88-1.058,5.11-4.554,14.08-8.97,19.6-8.97,4.46,0,9.61,2.99,9.61,8.694a10.729,10.729,0,0,1-5.75,9.338,48.988,48.988,0,0,1-19.09,4.829v0.414Zm61.83-15.455c-0.14.184-.37,0.552-0.42,0.644-3.31,4.83-3.68,5.336-7.08,10.671a1.349,1.349,0,0,1-1.1.69,2.09,2.09,0,0,1-1.02-.506c-2.85-2.253-3.45-8.739-3.45-11.315a21.53,21.53,0,0,1,.33-3.91,7.692,7.692,0,0,0,.27-1.978c0-2.024-2.67-4.645-5.1-4.737,1.79,2.8,1.93,3.955,2.2,7.681,0.51,7.13.51,7.912,0.92,9.568,2.3,9.659,7.23,10.027,8.05,10.027a1.006,1.006,0,0,0,1.15-1.012c0-.322-0.32-1.794-0.32-2.116a5.683,5.683,0,0,1,.32-1.7c0.19-.46,5.06-10.487,5.71-11.775Zm10.9,6.164c3.08,0.6,4.09.782,5.66,2.116,1.15,0.966,1.28,1.058,1.61,1.058,0.69,0,1.28-1.38,1.28-2.76,0-2.162-1.47-6.9-4.96-10.856a7.888,7.888,0,0,0-5.25-2.852,4.228,4.228,0,0,0-1.42.276c6.48,2.438,8.51,9.844,8.51,10.9a1.187,1.187,0,0,1-1.2,1.15c-0.6.092-3.59,0.552-4.23,0.644v0.322Zm31.6-13.386a10.158,10.158,0,0,1-2.02.276,3.723,3.723,0,0,1-3.5-2.391,3.333,3.333,0,0,0-.37,1.7,3.886,3.886,0,0,0,3.09,4.094,5.959,5.959,0,0,0,1.84-.782c2.85-1.38,14.76-5.335,18.21-5.427-8.37,5.933-10.76,12.189-10.76,16.467a13.225,13.225,0,0,0,7.49,11.407,24.526,24.526,0,0,0,7.78,2.346,1.218,1.218,0,0,0,1.47-1.012c0-1.794-1.89-2.162-3.13-2.392-5.1-1.012-11.54-3.726-11.54-10.441,0-7.038,6.44-16.421,15.41-16.421,0.59,0,3.45.184,4.14,0.184a1.318,1.318,0,0,0,1.61-1.242c0-.966-1.71-2.162-3.41-2.162a9.455,9.455,0,0,0-2.21.414c-0.5.092-10.3,2.024-11.59,2.346Z" transform="translate(-9628.38 -691.594)"/>
</svg>
