<svg xmlns="http://www.w3.org/2000/svg" width="208.97" height="42.688" viewBox="0 0 208.97 42.688">
  <defs>
    <style>
      .cls-1 {
        fill: #4cd0a0;
        fill-rule: evenodd;
      }
    </style>
  </defs>
  <path id="tit_floor.svg" class="cls-1" d="M3785.26,702.3a1.01,1.01,0,0,0-.46-0.69l-1.7-1.7a1.162,1.162,0,0,0-.83-0.506,1.134,1.134,0,0,0-.74.552l-1.7,1.747h-12.1a49.207,49.207,0,0,0,3.68-6.761c1.71-.046,1.98-0.092,1.98-0.644a0.82,0.82,0,0,0-.55-0.552l-4-2.162a5.616,5.616,0,0,1-.23,2.3,62.694,62.694,0,0,1-6.81,14.673l0.32,0.276a59.1,59.1,0,0,0,4.88-6.026h17.52A0.606,0.606,0,0,0,3785.26,702.3Zm0.51,27.461a0.619,0.619,0,0,0-.14-0.46,6.382,6.382,0,0,1-.55-0.644c-0.05-.046-0.65-4.094-0.69-4.37h-0.33c-1.05,4.416-1.97,5.382-3.31,5.658a68.34,68.34,0,0,1-8.32.322c-0.92,0-3.32,0-4.1-.092a1.118,1.118,0,0,1-1.1-1.1c-0.09-.552-0.05-4.048,0-13.891l5.15-1.426c0.05,4.278.05,6.072,0,9.383,0,0.552-.14,3.082-0.14,3.68a0.771,0.771,0,0,0,.78.92c0.42,0,1.8-.368,1.8-1.518,0-1.242-.14-3.22-0.19-4.462-0.09-2.9-.09-4.461-0.09-8.555l5.29-1.426a24.771,24.771,0,0,1,.14,3.128c0,0.23-.09,6.117-0.18,6.761-0.1.828-.1,0.92-3.41,0.828v0.23c0.6,0.322,1.66.874,2.58,3.358,3.31-1.1,3.31-3.358,3.31-5.014,0-.6-0.09-7.773-0.14-8.831,0.42-.276,1.57-0.966,1.57-1.38,0-.276-0.14-0.368-0.6-0.644l-1.61-1.012a3.443,3.443,0,0,0-.83-0.368c-0.23,0-.32.138-0.64,0.644l-0.92,1.334-4.56,1.242v-4.646c0.92-.644,1.38-1.012,1.38-1.38,0-.184-0.09-0.368-0.64-0.552l-3.41-1.15c0.46,2.07.46,2.714,0.51,8.326l-4.55,1.2a5.167,5.167,0,0,1-.6.184v-2.76c0.27-.184,1.29-0.92,1.29-1.426,0-.184-0.14-0.23-0.6-0.368l-3.45-1.1c0.32,1.2.5,2.024,0.5,6.164-1.79.414-2.39,0.552-4.59,0.966l1.56,1.656a24.686,24.686,0,0,1,3.03-1.288c0,1.518-.09,8.831-0.09,10.487,0,3.45,0,4.922,1.24,5.7,0.88,0.552,2.07.552,7.23,0.552,8.28,0,9.29-.138,10.53-0.6A2.809,2.809,0,0,0,3785.77,729.764Zm-21.95-27.323a1.116,1.116,0,0,0-.46-0.736l-1.56-1.2a1.447,1.447,0,0,0-.83-0.46,1.065,1.065,0,0,0-.73.552l-1.01,1.2h-4.93c0-.735,0-4,0.05-6.623,1.33-.69,1.56-0.782,1.56-1.242a0.694,0.694,0,0,0-.69-0.644l-4.14-1.1c0.1,0.46.6,2.9,0.6,2.944,0.19,0.966.14,1.794,0.23,6.669-1.47,0-4.69-.092-7.86-0.321l1.05,1.977a33.273,33.273,0,0,1,5.11-.506,34.962,34.962,0,0,1,.41,5.8c0,8.6-1.93,17.2-6.67,24.425l0.28,0.276c5.98-5.75,7.91-12.466,8.69-22.125h4.14c0,0.322.05,0.414,0.05,0.69,0.05,9.705-.23,12.833-1.2,16.145-0.5,1.84-1.33,1.978-1.97,1.978a28.633,28.633,0,0,1-3.78-.552l-0.09.276a5.437,5.437,0,0,1,2.81,3.864,8.068,8.068,0,0,0,4.28-2.484c2.02-3.082,2.3-14.4,2.34-18.629,0.14-.092.97-0.6,1.15-0.69a0.682,0.682,0,0,0,.28-0.506,0.989,0.989,0,0,0-.46-0.69l-1.84-1.38a1.257,1.257,0,0,0-.74-0.414,1.452,1.452,0,0,0-.64.644l-0.42.644h-3.86c0.09-2.53.09-3.4,0.09-4.508,0.74-.276,1.52-0.552,1.52-1.058a0.843,0.843,0,0,0-.64-0.644l-2.21-1.1h11.4A0.552,0.552,0,0,0,3763.82,702.441Zm77.7,26.909v-0.23a29.3,29.3,0,0,1-7.68-1.518,19.364,19.364,0,0,1-5.39-2.852,28.8,28.8,0,0,0,5.34-9.153c2.07-.46,2.3-0.552,2.3-1.288a1.348,1.348,0,0,0-.51-0.828l-1.65-1.288a1.442,1.442,0,0,0-.69-0.368,1.942,1.942,0,0,0-.69.414l-1.11.966h-6.3c-0.87,0-4.18-.046-7.63-0.322l1.05,1.978a24.522,24.522,0,0,1,3.09-.414,19.507,19.507,0,0,0,4,9.935c-1.34,1.518-5.75,5.658-13.48,9.154V733.9a27.472,27.472,0,0,0,15-7.728,20.47,20.47,0,0,0,10.85,6.256C3838.71,730.684,3840.14,729.994,3841.52,729.35Zm-10.21-15.041a23.5,23.5,0,0,1-4.56,8.831,23.916,23.916,0,0,1-4.64-8.739c0.82-.046,1.51-0.092,2.39-0.092h6.81Zm-15.83,4.462a0.987,0.987,0,0,0-.46-0.736l-1.56-1.1a1.36,1.36,0,0,0-.64-0.368,1.592,1.592,0,0,0-.65.6l-0.83.874h-6.07l-3.17-1.886a21.619,21.619,0,0,1,.37,5.565c0,1.978-.14,8.6-0.33,10.028-0.04.23-.13,0.874-0.13,1.058a0.759,0.759,0,0,0,.92.874,1.719,1.719,0,0,0,1.88-2.07c0-.322-0.14-2.024-0.14-2.392h7c-0.1,1.288-.19,2.254.78,2.254a1.727,1.727,0,0,0,1.84-1.794,6.215,6.215,0,0,0-.09-1.012c-0.05-2.438-.19-6.394-0.14-8.831C3814.93,719.507,3815.48,719.277,3815.48,718.771Zm-3.77,9.337h-7.04v-8.969h7.04v8.969Zm2.95-15.639a1.031,1.031,0,0,0-.46-0.736l-1.2-1.1a1.577,1.577,0,0,0-.83-0.46,1.44,1.44,0,0,0-.69.552l-0.87,1.1h-5.29c-0.69,0-2.44-.092-3.27-0.138l0.46,1.472a15.782,15.782,0,0,1,2.53-.23h8.88C3814.24,712.929,3814.66,712.883,3814.66,712.469Zm26.63-6.9c0-.322-0.05-0.368-0.69-0.966-0.74-.644-1.2-4.093-1.29-5.2h-0.28a27.261,27.261,0,0,1-1.15,4.6c-0.27.782-.78,1.656-3.49,1.656-2.12,0-2.72-.184-2.72-1.564,0-2.254,0-5.105.05-7.313,0.64-.322,1.84-0.874,1.84-1.334a0.767,0.767,0,0,0-.51-0.6l-1.74-1.334a1.565,1.565,0,0,0-.6-0.322,1.126,1.126,0,0,0-.65.506l-0.69.92h-5.29l-2.89-1.472a31.721,31.721,0,0,1,.41,5.06c0,3.4-.55,8.647-3.95,12.1l0.18,0.23c5.1-2.76,5.89-6.532,6.25-14.811h5.2c0.05,0.644,0,3.864,0,4.6,0,0.874,0,5.289.14,5.795,0.41,1.748,1.75,1.84,5.24,1.84,3.73,0,4.74-.23,5.66-0.782A1.977,1.977,0,0,0,3841.29,705.569Zm-26.31-10.395a0.987,0.987,0,0,0-.46-0.736l-1.47-1.1a2.119,2.119,0,0,0-.88-0.506,1.277,1.277,0,0,0-.69.69l-0.64,1.012h-5.75c-0.69,0-2.44-.092-3.27-0.138l0.46,1.472a15.782,15.782,0,0,1,2.53-.23h9.48C3814.61,695.634,3814.98,695.588,3814.98,695.174Zm2.34,5.888a0.873,0.873,0,0,0-.46-0.736l-1.56-1.38a1.568,1.568,0,0,0-.87-0.506,1.023,1.023,0,0,0-.74.552l-1.15,1.426h-5.38c-0.88,0-4.19-.046-7.64-0.322l1.06,1.977a33.5,33.5,0,0,1,5.93-.552h10.12C3816.96,701.521,3817.32,701.476,3817.32,701.062Zm-2.66,5.657a0.836,0.836,0,0,0-.46-0.69l-1.48-1.2a3.133,3.133,0,0,0-.82-0.46,1.3,1.3,0,0,0-.83.782l-0.6.966h-5.57c-0.69,0-2.43-.138-3.26-0.184l0.46,1.518a11.717,11.717,0,0,1,2.53-.23h9.34A0.565,0.565,0,0,0,3814.66,706.719Zm79.21,9.844a0.843,0.843,0,0,0-.46-0.6l-1.66-1.472a1.168,1.168,0,0,0-.55-0.414,0.775,0.775,0,0,0-.6.368l-1.43.966h-11.86l-2.95-1.564a19.97,19.97,0,0,1,.23,2.99c0,2.162-.23,12.971-0.23,15.409a0.92,0.92,0,0,0,.97,1.058c0.78,0,1.84-.46,1.7-2.484h12.56c-0.05,1.932-.09,2.484,1.1,2.484,0.74,0,1.89-.46,1.89-1.38,0-.138-0.09-1.1-0.09-1.242,0-.552-0.37-10.349-0.37-12.6,0.46-.322,1.19-0.874,1.33-0.966A0.991,0.991,0,0,0,3893.87,716.563Zm-4.28,13.2h-12.65V716.471h12.65v13.293Zm5.06-33.578a0.783,0.783,0,0,0-.37-0.6l-1.61-1.426a0.984,0.984,0,0,0-.6-0.414,1.1,1.1,0,0,0-.6.414l-0.87.782h-9.25c-0.82,0-4.18-.092-7.63-0.368l1.1,1.978a33.346,33.346,0,0,1,5.06-.506c-0.09,4.922-1.29,12.143-6.81,16.513l0.19,0.23c6.25-2.99,8.42-7.314,9.57-16.743h7.86a8.392,8.392,0,0,1,.14,1.748,37.848,37.848,0,0,1-1.2,8.509c-0.55,1.564-1.15,2.162-2.02,2.162a25.446,25.446,0,0,1-4.09-.874v0.23a9.389,9.389,0,0,1,3.26,4.278c1.8-.506,3.27-1.1,4.1-2.162,0.64-.828,2.25-4.738,2.3-12.6,0.18-.092.96-0.552,1.1-0.644A0.693,0.693,0,0,0,3894.65,696.186Zm-27.42-1.7a0.46,0.46,0,0,0-.36-0.506L3863.14,692c0,0.46,0,.874-0.05,1.426-0.13,1.7-1.88,5.75-2.8,7.728a42.073,42.073,0,0,0-4.14-1.748v0.276a18.885,18.885,0,0,1,3.77,4.553c0.74,1.2.92,1.61,1.89,1.61a1.478,1.478,0,0,0,1.38-1.564c0-1.426-1.61-2.392-2.3-2.8,0.69-.828,3.91-5.106,4.6-6.072,0.23-.046,1.15-0.276,1.38-0.368A0.593,0.593,0,0,0,3867.23,694.484Zm4.42,28.426a6.19,6.19,0,0,0-1.33-2.989,18.792,18.792,0,0,0-3.45-3.036l-0.28.184a11.281,11.281,0,0,1,1.89,5.427c0.18,1.242.41,2.438,1.61,2.438C3871.33,724.934,3871.65,723.738,3871.65,722.91Zm1.06-9.981c0-.92-0.55-3.036-5.15-5.336l-0.19.184a12.434,12.434,0,0,1,1.66,2.944c-1.84.184-4.6,0.276-6.53,0.276a91.316,91.316,0,0,0,7.77-9.338c0.6-.138,1.84-0.413,1.84-0.413a0.556,0.556,0,0,0,.37-0.552,0.712,0.712,0,0,0-.46-0.6l-3.96-2.346a4.418,4.418,0,0,1-.32,2.024,49.976,49.976,0,0,1-6.39,11.269c-0.92,0-3.18-.046-4.65-0.046a4.914,4.914,0,0,1-2.39-.644l1.24,3.91a0.878,0.878,0,0,0,.74.69c0.5,0,.69-0.368.92-1.334,0.46-.092.96-0.184,5.61-1.058v5.014c0,3.541-.05,6.025-0.14,7.957-0.05,1.012-.28,6.624-0.28,7.36a0.873,0.873,0,0,0,1.02,1.058c0.87,0,1.79-.368,1.79-1.288,0-.368-0.14-2.208-0.14-2.668-0.04-2.53-.04-15-0.04-17.8,1.1-.23,2.89-0.552,4.23-0.874,0.09,0.276.5,1.656,0.6,1.978a1.522,1.522,0,0,0,1.42,1.288A1.445,1.445,0,0,0,3872.71,712.929Zm-12.05,5.29a0.8,0.8,0,0,0-.6-0.644l-3.77-1.288a3.628,3.628,0,0,1,.23,1.15,49.248,49.248,0,0,1-2.53,12.327h0.32c1.61-1.932,3.68-6.854,4.83-10.487C3859.87,719.047,3860.66,718.771,3860.66,718.219Zm92.27-8.464v-0.23c-6.99-.138-17.85-5.7-21.67-14.535,0.51-.046,1.94-0.276,1.94-1.15a1.121,1.121,0,0,0-.51-0.552l-4.09-2.024a8.413,8.413,0,0,1-.69,2.714c-4.19,9.061-11.64,16.421-19.28,21.711l0.1,0.184c5.93-2.162,12.37-7.084,17.75-14.168a55.243,55.243,0,0,0,4.19-6.393c2.3,5.8,7.31,13.155,17.94,17.8C3949.34,711.963,3950.22,711.043,3952.93,709.755Zm-13.48.414a0.613,0.613,0,0,0-.55-0.644l-4.23-1.1a19.141,19.141,0,0,1,.64,6.3c0,2.576,0,7.911-.18,15.731,0,0.276-.09,1.794-0.09,2.116a1.059,1.059,0,0,0,1.28,1.288,1.9,1.9,0,0,0,1.98-1.564c0-.92-0.23-5.382-0.27-6.394-0.28-7.451-.23-12.051-0.19-14.167,0.19-.138,1.11-0.828,1.34-1.012A0.64,0.64,0,0,0,3939.45,710.169Zm-11.96-.23a0.757,0.757,0,0,0-.69-0.506l-4.14-1.058a18.2,18.2,0,0,1,.46,4.508c0,8.233-.87,15.363-11.77,20.055l0.04,0.184a18.612,18.612,0,0,0,8.28-3.128c4.47-3.128,5.71-7.82,6.35-18.4C3927.36,710.491,3927.49,710.4,3927.49,709.939Z" transform="translate(-3743.97 -691.25)"/>
</svg>
